<svg xmlns="http://www.w3.org/2000/svg" width="555.052" height="298.122" viewBox="0 0 555.052 298.122">
  <g id="Grupo_1094403" data-name="Grupo 1094403" transform="translate(-213.01 -6466)">
    <g id="Grupo_54384" data-name="Grupo 54384" transform="translate(132.289 5917.747)">
      <g id="RNGu9o" transform="translate(111.729 589.708)">
        <g id="Grupo_54374" data-name="Grupo 54374">
          <path id="Trazado_116978" data-name="Trazado 116978" d="M140.469,622.152H107.583c-.91,0-1.323-.4-1.323-1.3q0-16.79.006-33.578c0-1.683-.037-3.374.1-5.047a5.432,5.432,0,0,1,2.785-4.243,5.687,5.687,0,0,1,3.075-.837q28.257,0,56.515.009a5.606,5.606,0,0,1,5.422,3.47,5.923,5.923,0,0,1,.534,2.388q.047,18.94.02,37.878c0,.868-.42,1.267-1.306,1.267h-32.94Zm32.069-2.217v-.761q0-15.66,0-31.32c0-1.537.059-3.077.032-4.614a3.769,3.769,0,0,0-.953-2.672,4.022,4.022,0,0,0-2.989-1.234q-28.1.024-56.193.011a6.451,6.451,0,0,0-.646.013,3.633,3.633,0,0,0-3.321,3.319c-.1,1.8-.029,3.606-.029,5.41q0,15.445,0,30.888v.959Z" transform="translate(-101.053 -577.141)" fill="#12263f"/>
          <path id="Trazado_116979" data-name="Trazado 116979" d="M149.756,612.556a2.327,2.327,0,0,1,2.582-2.283h27.7c1.158,0,1.441.321,1.419,1.474-.024,1.342-.042,2.686.019,4.027a3.965,3.965,0,0,1-3.949,3.932c-.27.006-.538,0-.808,0H106.966a4,4,0,0,1-4.23-3.154,9.853,9.853,0,0,1-.1-1.923c0-1.04.023-2.079.042-3.118.016-.905.342-1.238,1.241-1.235,2.438.007,4.878.039,7.316.036,6.512-.006,13.024-.032,19.537-.026a4.137,4.137,0,0,1,1.6.316,1.839,1.839,0,0,1,1.075,1.571c.033.31.174.392.445.39q1.935-.009,3.872-.011,2.712,0,5.426.006Zm-18.511-.109H105.488c-.693,0-.707,0-.712.712-.006.735.086,1.475.019,2.2a1.993,1.993,0,0,0,2.147,2.155q35.067-.041,70.136-.02c.161,0,.323,0,.484,0a1.647,1.647,0,0,0,1.685-1.381c.1-1.2.027-2.409.027-3.712-1.211,0-2.388,0-3.565,0-2.345.011-4.688.039-7.033.043q-7.106.011-14.21,0c-.683,0-1.365.007-2.046,0-.263,0-.41.039-.471.357a2.151,2.151,0,0,1-2.286,1.912q-8.02.013-16.041,0a2.187,2.187,0,0,1-2.323-2C131.287,612.639,131.27,612.571,131.245,612.447Z" transform="translate(-102.632 -562.728)" fill="#12263f"/>
          <path id="Trazado_116980" data-name="Trazado 116980" d="M138.928,614.063h-28.1c-1.019,0-1.428-.388-1.428-1.373q0-13.535.009-27.069c0-1.218.017-2.438.023-3.658a1.153,1.153,0,0,1,1.066-1.248,3.4,3.4,0,0,1,.484-.017q9.42,0,18.839,0c2.29,0,4.582.04,6.872.04,2.526,0,5.051-.039,7.576-.04q11.406-.007,22.81,0a1.2,1.2,0,0,1,1.32,1.329q0,15.333,0,30.667c0,1-.395,1.366-1.485,1.366Q152.923,614.065,138.928,614.063Zm27.261-31.182h-54.56v28.94h54.56Z" transform="translate(-99.686 -575.595)" fill="#12263f"/>
          <path id="Trazado_116981" data-name="Trazado 116981" d="M147.193,591.566a4.1,4.1,0,0,1-.718.841,1.078,1.078,0,0,1-1.205-.113,29.711,29.711,0,0,0-3.981-2.2,18.188,18.188,0,0,0-18.208,2.443c-.174.125-.331.276-.507.4a1.085,1.085,0,0,1-1.537-.181,1.038,1.038,0,0,1,.2-1.525,26.775,26.775,0,0,1,3.634-2.376c7.475-3.612,14.688-3.1,21.573,1.583A1.478,1.478,0,0,1,147.193,591.566Z" transform="translate(-94.731 -573.078)" fill="#37a3a5"/>
          <path id="Trazado_116982" data-name="Trazado 116982" d="M143.692,593.753a4.091,4.091,0,0,1-.7.861.994.994,0,0,1-1.2-.106,13.3,13.3,0,0,0-4.365-2.151,14.017,14.017,0,0,0-12.7,2.487,1.868,1.868,0,0,1-1.016.363.916.916,0,0,1-.881-.743,1.06,1.06,0,0,1,.393-1.2,15.107,15.107,0,0,1,4.648-2.651,16.054,16.054,0,0,1,14.88,1.884A1.776,1.776,0,0,1,143.692,593.753Z" transform="translate(-93.871 -571.723)" fill="#37a3a5"/>
          <path id="Trazado_116983" data-name="Trazado 116983" d="M132.147,592.473a12.5,12.5,0,0,1,7.37,2.1c.119.08.235.165.346.255a1.088,1.088,0,1,1-1.287,1.754,9.957,9.957,0,0,0-12.1.264,1.147,1.147,0,0,1-1.436.109,1.046,1.046,0,0,1-.369-1.244,1.722,1.722,0,0,1,.5-.611A11.6,11.6,0,0,1,132.147,592.473Z" transform="translate(-93.079 -570.471)" fill="#37a3a5"/>
          <path id="Trazado_116984" data-name="Trazado 116984" d="M131.942,595.239a7.926,7.926,0,0,1,4.683,1.487,1.1,1.1,0,1,1-1.231,1.813,5.914,5.914,0,0,0-7.157.161,1.111,1.111,0,0,1-1.663-.1,1.147,1.147,0,0,1,.373-1.673A8.069,8.069,0,0,1,131.942,595.239Z" transform="translate(-92.314 -569.268)" fill="#37a3a5"/>
        </g>
      </g>
      <g id="RNGu9o-2" data-name="RNGu9o" transform="translate(111.729 692.182)">
        <g id="Grupo_54375" data-name="Grupo 54375">
          <path id="Trazado_116985" data-name="Trazado 116985" d="M140.469,693.56H107.583c-.91,0-1.323-.4-1.323-1.3q0-16.788.006-33.579c0-1.683-.037-3.372.1-5.047a5.432,5.432,0,0,1,2.785-4.243,5.7,5.7,0,0,1,3.075-.837q28.257,0,56.515.009a5.607,5.607,0,0,1,5.422,3.47,5.929,5.929,0,0,1,.534,2.388q.047,18.94.02,37.879c0,.867-.42,1.266-1.306,1.266h-32.94Zm32.069-2.217v-.76q0-15.66,0-31.318c0-1.538.059-3.077.032-4.615a3.77,3.77,0,0,0-.953-2.672,4.027,4.027,0,0,0-2.989-1.234q-28.1.024-56.193.011c-.215,0-.432-.009-.646.013a3.633,3.633,0,0,0-3.321,3.319c-.1,1.8-.029,3.606-.029,5.41q0,15.445,0,30.889v.957Z" transform="translate(-101.053 -648.549)" fill="#12263f"/>
          <path id="Trazado_116986" data-name="Trazado 116986" d="M149.756,683.964a2.328,2.328,0,0,1,2.582-2.283h27.7c1.158,0,1.441.323,1.419,1.474-.024,1.342-.042,2.686.019,4.027a3.965,3.965,0,0,1-3.949,3.932c-.27.006-.538,0-.808,0H106.966a4,4,0,0,1-4.23-3.153,9.869,9.869,0,0,1-.1-1.924c0-1.039.023-2.079.042-3.118.016-.905.342-1.238,1.241-1.236,2.438.009,4.878.039,7.316.037,6.512-.007,13.024-.033,19.537-.026a4.086,4.086,0,0,1,1.6.316,1.835,1.835,0,0,1,1.075,1.57c.033.31.174.393.445.392q1.935-.011,3.872-.013,2.712,0,5.426.006Zm-18.511-.109H105.488c-.693,0-.707,0-.712.712-.006.735.086,1.475.019,2.2a1.994,1.994,0,0,0,2.147,2.157q35.067-.041,70.136-.02c.161,0,.323,0,.484,0a1.646,1.646,0,0,0,1.685-1.38c.1-1.2.027-2.408.027-3.712-1.211,0-2.388,0-3.565,0-2.345.011-4.688.039-7.033.043q-7.106.011-14.21,0c-.683,0-1.365.007-2.046,0-.263,0-.41.037-.471.356a2.149,2.149,0,0,1-2.286,1.911q-8.02.013-16.041,0a2.186,2.186,0,0,1-2.323-2C131.287,684.048,131.27,683.979,131.245,683.855Z" transform="translate(-102.632 -634.136)" fill="#12263f"/>
          <path id="Trazado_116987" data-name="Trazado 116987" d="M138.928,685.472h-28.1c-1.019,0-1.428-.387-1.428-1.373q0-13.535.009-27.069c0-1.218.017-2.438.023-3.656a1.154,1.154,0,0,1,1.066-1.25,3.621,3.621,0,0,1,.484-.017q9.42,0,18.839,0c2.29,0,4.582.04,6.872.04,2.526,0,5.051-.039,7.576-.04q11.406-.007,22.81,0a1.2,1.2,0,0,1,1.32,1.329q0,15.333,0,30.667c0,1-.395,1.366-1.485,1.366Zm27.261-31.183h-54.56v28.941h54.56Z" transform="translate(-99.686 -647.003)" fill="#12263f"/>
          <path id="Trazado_116988" data-name="Trazado 116988" d="M147.193,662.974a4.11,4.11,0,0,1-.718.842,1.083,1.083,0,0,1-1.205-.113,29.368,29.368,0,0,0-3.981-2.2,18.184,18.184,0,0,0-18.208,2.441c-.174.126-.331.276-.507.4a1.086,1.086,0,0,1-1.537-.179,1.039,1.039,0,0,1,.2-1.527,26.78,26.78,0,0,1,3.634-2.376c7.475-3.612,14.688-3.1,21.573,1.583A1.478,1.478,0,0,1,147.193,662.974Z" transform="translate(-94.731 -644.486)" fill="#37a3a5"/>
          <path id="Trazado_116989" data-name="Trazado 116989" d="M143.692,665.161a4.054,4.054,0,0,1-.7.861.994.994,0,0,1-1.2-.106,13.3,13.3,0,0,0-4.365-2.151,14.018,14.018,0,0,0-12.7,2.488,1.878,1.878,0,0,1-1.016.362.914.914,0,0,1-.881-.743,1.058,1.058,0,0,1,.393-1.194,15.14,15.14,0,0,1,4.648-2.652,16.058,16.058,0,0,1,14.88,1.884A1.776,1.776,0,0,1,143.692,665.161Z" transform="translate(-93.871 -643.131)" fill="#37a3a5"/>
          <path id="Trazado_116990" data-name="Trazado 116990" d="M132.147,663.881a12.485,12.485,0,0,1,7.37,2.1,4,4,0,0,1,.346.255,1.088,1.088,0,1,1-1.287,1.752,9.955,9.955,0,0,0-12.1.266,1.145,1.145,0,0,1-1.436.108,1.045,1.045,0,0,1-.369-1.244,1.722,1.722,0,0,1,.5-.611A11.61,11.61,0,0,1,132.147,663.881Z" transform="translate(-93.079 -641.879)" fill="#37a3a5"/>
          <path id="Trazado_116991" data-name="Trazado 116991" d="M131.942,666.647a7.937,7.937,0,0,1,4.683,1.487,1.1,1.1,0,1,1-1.231,1.814,5.912,5.912,0,0,0-7.157.159,1.11,1.11,0,0,1-1.663-.1,1.145,1.145,0,0,1,.373-1.672A8.071,8.071,0,0,1,131.942,666.647Z" transform="translate(-92.314 -640.676)" fill="#37a3a5"/>
        </g>
      </g>
      <rect id="Rectángulo_27504" data-name="Rectángulo 27504" width="138.96" height="262.763" rx="6.401" transform="translate(81.721 565.162)" fill="none" stroke="#12263f" stroke-miterlimit="10" stroke-width="2"/>
      <g id="Grupo_54376" data-name="Grupo 54376" transform="translate(173.998 724.276)">
        <path id="Trazado_116992" data-name="Trazado 116992" d="M163.289,686.687q0,2.122,0,4.246c0,2.89.016,5.782-.01,8.673a2.61,2.61,0,0,1-2.78,2.752q-5.857.011-11.716,0a2.611,2.611,0,0,1-2.742-2.557c-.017-.228-.017-.456-.017-.684q0-12.478.007-24.955a5.067,5.067,0,0,1,.194-1.494,2.38,2.38,0,0,1,2.332-1.738q6.087-.028,12.173,0a2.57,2.57,0,0,1,2.549,2.747c.022,4.21.009,8.421.01,12.63Zm-1.574-12.857H147.636v22.187h14.079Zm-5.8,24.721a1.258,1.258,0,1,0-1.277,1.338A1.316,1.316,0,0,0,155.912,698.552Z" transform="translate(-146.024 -670.914)" fill="#12263f"/>
        <rect id="Rectángulo_27505" data-name="Rectángulo 27505" width="14.079" height="22.187" transform="translate(1.612 2.917)" fill="#fff"/>
      </g>
      <g id="Grupo_54377" data-name="Grupo 54377" transform="translate(176.861 617.745)">
        <path id="Trazado_116993" data-name="Trazado 116993" d="M152.71,607.307h6.884v-1.6h.858v-9.034h2.22v9.036h.861c0,.5.006.962,0,1.426,0,.149.03.22.194.258a2.019,2.019,0,0,1,1.546,1.807c.039.59.022,1.185.022,1.778q.007,3.141,0,6.284,0,3.367,0,6.733c0,1.712.006,3.424-.006,5.136a2.053,2.053,0,0,1-2.117,2.1q-6.52,0-13.042,0a2.065,2.065,0,0,1-2.111-2.1q0-5.687,0-11.376,0-4.178,0-8.356a2.04,2.04,0,0,1,1.422-1.955,7.783,7.783,0,0,1,1-.169m-.647-1.306,9.582,19.426a2.707,2.707,0,0,0-2.689-2.663,2.671,2.671,0,0,0-2.74,2.669,2.643,2.643,0,0,0,2.747,2.651A2.675,2.675,0,0,0,159.372,625.4Z" transform="translate(-148.019 -596.678)" fill="#12263f"/>
        <circle id="Elipse_3958" data-name="Elipse 3958" cx="2.842" cy="2.842" r="2.842" transform="translate(5.797 25.873)" fill="#fff"/>
        <circle id="Elipse_3959" data-name="Elipse 3959" cx="2.36" cy="2.36" r="2.36" transform="translate(6.279 26.355)" fill="#37a3a5"/>
      </g>
      <path id="Trazado_836678" data-name="Trazado 836678" d="M9.919-3.511l2.914-8.575h2.482L10.824,0H8.375L7.736-8.052,4.574,0H2.125L1.411-12.086H3.785l.241,8.533L7.28-12.086H9.347ZM17,0H14.643L16.2-8.981h2.357Zm-.523-11.264a1.169,1.169,0,0,1,.365-.921,1.285,1.285,0,0,1,.921-.365,1.291,1.291,0,0,1,.921.324,1.164,1.164,0,0,1,.407.88,1.2,1.2,0,0,1-.344.9,1.291,1.291,0,0,1-.942.4,1.313,1.313,0,0,1-.917-.315A1.159,1.159,0,0,1,16.477-11.264Zm8.658,4.532a4.833,4.833,0,0,0-.789-.083,2.269,2.269,0,0,0-1.984.938L21.325,0H18.984l1.561-8.981,2.2-.008-.216,1.1a2.47,2.47,0,0,1,2.092-1.27,3.414,3.414,0,0,1,.813.116Zm4.217,6.9a3.907,3.907,0,0,1-2.088-.577,3.5,3.5,0,0,1-1.357-1.561,4.349,4.349,0,0,1-.349-2.187l.025-.332A5.806,5.806,0,0,1,26.347-6.9,4.613,4.613,0,0,1,27.99-8.587a4.066,4.066,0,0,1,2.225-.56,3.109,3.109,0,0,1,2.627,1.274,4.362,4.362,0,0,1,.677,3.142L33.386-3.71h-5.5a1.927,1.927,0,0,0,.423,1.395,1.616,1.616,0,0,0,1.245.54,2.882,2.882,0,0,0,2.241-.988l1.071,1.328A3.331,3.331,0,0,1,31.4-.245,4.778,4.778,0,0,1,29.352.166ZM30.1-7.213a1.663,1.663,0,0,0-1.15.407,3.573,3.573,0,0,0-.9,1.469h3.221l.05-.216a2.2,2.2,0,0,0,.008-.631,1.2,1.2,0,0,0-.407-.751A1.275,1.275,0,0,0,30.1-7.213ZM36.557,0H34.2l2.216-12.75h2.349Zm6.25.166a3.907,3.907,0,0,1-2.088-.577,3.5,3.5,0,0,1-1.357-1.561,4.349,4.349,0,0,1-.349-2.187l.025-.332A5.806,5.806,0,0,1,39.8-6.9a4.613,4.613,0,0,1,1.644-1.689,4.066,4.066,0,0,1,2.225-.56A3.109,3.109,0,0,1,46.3-7.873a4.362,4.362,0,0,1,.677,3.142L46.841-3.71h-5.5a1.927,1.927,0,0,0,.423,1.395,1.616,1.616,0,0,0,1.245.54,2.882,2.882,0,0,0,2.241-.988l1.071,1.328A3.331,3.331,0,0,1,44.857-.245,4.778,4.778,0,0,1,42.807.166Zm.747-7.379a1.663,1.663,0,0,0-1.15.407,3.573,3.573,0,0,0-.9,1.469h3.221l.05-.216a2.2,2.2,0,0,0,.008-.631,1.2,1.2,0,0,0-.407-.751A1.275,1.275,0,0,0,43.554-7.213Zm9.189,4.682q.133-.664-.921-.963l-.755-.191q-2.681-.739-2.606-2.606a2.579,2.579,0,0,1,1.125-2.071A4.188,4.188,0,0,1,52.2-9.147a3.757,3.757,0,0,1,2.457.805,2.653,2.653,0,0,1,.955,2.1L53.283-6.25a1.024,1.024,0,0,0-1.146-1.17,1.648,1.648,0,0,0-.95.274,1.128,1.128,0,0,0-.494.739q-.125.664,1,.938l.332.075a6.678,6.678,0,0,1,1.751.627,2.643,2.643,0,0,1,.934.876,2.167,2.167,0,0,1,.3,1.253,2.392,2.392,0,0,1-.552,1.494,3.379,3.379,0,0,1-1.444.988,5.032,5.032,0,0,1-1.93.324A3.791,3.791,0,0,1,48.6-.693a2.77,2.77,0,0,1-1.013-2.179l2.208.017a1.214,1.214,0,0,0,1.378,1.3,1.96,1.96,0,0,0,1.067-.266A1.049,1.049,0,0,0,52.743-2.532Zm8.558,0q.133-.664-.921-.963l-.755-.191q-2.681-.739-2.606-2.606a2.579,2.579,0,0,1,1.125-2.071,4.188,4.188,0,0,1,2.611-.784,3.757,3.757,0,0,1,2.457.805,2.653,2.653,0,0,1,.955,2.1L61.841-6.25A1.024,1.024,0,0,0,60.7-7.421a1.648,1.648,0,0,0-.95.274,1.128,1.128,0,0,0-.494.739q-.125.664,1,.938l.332.075a6.678,6.678,0,0,1,1.751.627,2.643,2.643,0,0,1,.934.876,2.167,2.167,0,0,1,.3,1.253,2.392,2.392,0,0,1-.552,1.494,3.379,3.379,0,0,1-1.444.988,5.032,5.032,0,0,1-1.93.324,3.791,3.791,0,0,1-2.49-.859,2.77,2.77,0,0,1-1.013-2.179l2.208.017a1.214,1.214,0,0,0,1.378,1.3A1.96,1.96,0,0,0,60.8-1.818,1.049,1.049,0,0,0,61.3-2.532ZM74.367-3l2.739-9.089h2.772L75.67,0h-2.6L68.88-12.086h2.764Zm9.139,1h5.288V0H81.016V-12.086h2.49Zm13.7-.49H92.836L92.006,0H89.358l4.5-12.086h2.308L100.688,0H98.041ZM93.508-4.507H96.53L95.011-9.031ZM111.646,0h-2.49l-4.848-7.952V0h-2.49V-12.086h2.49l4.856,7.969v-7.969h2.482Zm10.2,0h-8.284V-1.644l3.91-4.167a9.645,9.645,0,0,0,1.191-1.536,2.467,2.467,0,0,0,.386-1.245,1.846,1.846,0,0,0-.407-1.266,1.468,1.468,0,0,0-1.162-.461,1.584,1.584,0,0,0-1.282.56,2.219,2.219,0,0,0-.469,1.473h-2.407a3.962,3.962,0,0,1,.527-2.017,3.715,3.715,0,0,1,1.49-1.432,4.529,4.529,0,0,1,2.183-.519,4.288,4.288,0,0,1,2.9.9,3.172,3.172,0,0,1,1.033,2.532A4.064,4.064,0,0,1,120.992-7,10.148,10.148,0,0,1,119.4-4.831l-2.748,2.9h5.2Z" transform="translate(89.953 819.152)" fill="#12263f"/>
      <g id="RNGu9o-3" data-name="RNGu9o" transform="translate(525.82 589.708)">
        <g id="Grupo_54378" data-name="Grupo 54378">
          <path id="Trazado_116994" data-name="Trazado 116994" d="M429.026,622.152H396.14c-.908,0-1.323-.4-1.323-1.3q0-16.79.006-33.578c0-1.683-.037-3.374.1-5.047a5.425,5.425,0,0,1,2.785-4.243,5.682,5.682,0,0,1,3.074-.837q28.259,0,56.515.009a5.605,5.605,0,0,1,5.422,3.47,5.925,5.925,0,0,1,.534,2.388q.047,18.94.02,37.878c0,.868-.42,1.267-1.3,1.267H429.026Zm32.07-2.217v-.761q0-15.66,0-31.32c0-1.537.059-3.077.032-4.614a3.763,3.763,0,0,0-.953-2.672,4.022,4.022,0,0,0-2.989-1.234q-28.1.024-56.193.011a6.414,6.414,0,0,0-.644.013,3.633,3.633,0,0,0-3.322,3.319c-.1,1.8-.029,3.606-.029,5.41v31.846Z" transform="translate(-389.61 -577.141)" fill="#12263f"/>
          <path id="Trazado_116995" data-name="Trazado 116995" d="M438.313,612.556a2.328,2.328,0,0,1,2.582-2.283h27.7c1.158,0,1.441.321,1.419,1.474-.024,1.342-.042,2.686.019,4.027a3.964,3.964,0,0,1-3.949,3.932c-.27.006-.538,0-.808,0H395.523a4,4,0,0,1-4.229-3.154,9.856,9.856,0,0,1-.1-1.923c0-1.04.023-2.079.042-3.118.016-.905.342-1.238,1.241-1.235,2.438.007,4.878.039,7.316.036,6.512-.006,13.024-.032,19.537-.026a4.149,4.149,0,0,1,1.6.316A1.837,1.837,0,0,1,422,612.171c.033.31.174.392.446.39q1.935-.009,3.87-.011,2.712,0,5.426.006Zm-18.511-.109H394.045c-.692,0-.706,0-.712.712-.006.735.086,1.475.019,2.2a1.994,1.994,0,0,0,2.147,2.155q35.067-.041,70.136-.02c.161,0,.323,0,.484,0a1.649,1.649,0,0,0,1.686-1.381c.1-1.2.026-2.409.026-3.712-1.21,0-2.388,0-3.565,0-2.343.011-4.688.039-7.033.043q-7.106.011-14.21,0c-.682,0-1.365.007-2.046,0-.263,0-.41.039-.471.357a2.15,2.15,0,0,1-2.286,1.912q-8.02.013-16.039,0a2.188,2.188,0,0,1-2.325-2C419.844,612.639,419.828,612.571,419.8,612.447Z" transform="translate(-391.189 -562.728)" fill="#12263f"/>
          <path id="Trazado_116996" data-name="Trazado 116996" d="M427.484,614.063h-28.1c-1.019,0-1.428-.388-1.426-1.373q0-13.535.007-27.069c0-1.218.019-2.438.023-3.658a1.154,1.154,0,0,1,1.068-1.248,3.372,3.372,0,0,1,.482-.017q9.419,0,18.839,0c2.292,0,4.582.04,6.874.04,2.524,0,5.05-.039,7.574-.04q11.406-.007,22.81,0a1.2,1.2,0,0,1,1.32,1.329q0,15.333,0,30.667c0,1-.395,1.366-1.485,1.366Q441.479,614.065,427.484,614.063Zm27.263-31.182H400.185v28.94h54.562Z" transform="translate(-388.242 -575.595)" fill="#12263f"/>
          <path id="Trazado_116997" data-name="Trazado 116997" d="M435.75,591.566a4.141,4.141,0,0,1-.716.841,1.078,1.078,0,0,1-1.205-.113,29.818,29.818,0,0,0-3.982-2.2,18.188,18.188,0,0,0-18.208,2.443c-.174.125-.33.276-.507.4a1.085,1.085,0,0,1-1.537-.181,1.038,1.038,0,0,1,.2-1.525,26.669,26.669,0,0,1,3.632-2.376c7.477-3.612,14.688-3.1,21.573,1.583A1.474,1.474,0,0,1,435.75,591.566Z" transform="translate(-383.288 -573.078)" fill="#37a3a5"/>
          <path id="Trazado_116998" data-name="Trazado 116998" d="M432.249,593.753a4.048,4.048,0,0,1-.7.861.994.994,0,0,1-1.2-.106,13.3,13.3,0,0,0-4.365-2.151,14.017,14.017,0,0,0-12.7,2.487,1.868,1.868,0,0,1-1.016.363.917.917,0,0,1-.881-.743,1.06,1.06,0,0,1,.393-1.2,15.107,15.107,0,0,1,4.648-2.651A16.056,16.056,0,0,1,431.3,592.5,1.777,1.777,0,0,1,432.249,593.753Z" transform="translate(-382.428 -571.723)" fill="#37a3a5"/>
          <path id="Trazado_116999" data-name="Trazado 116999" d="M420.706,592.473a12.5,12.5,0,0,1,7.37,2.1c.118.08.234.165.346.255a1.089,1.089,0,1,1-1.289,1.754,9.957,9.957,0,0,0-12.1.264,1.147,1.147,0,0,1-1.436.109,1.048,1.048,0,0,1-.369-1.244,1.722,1.722,0,0,1,.5-.611A11.6,11.6,0,0,1,420.706,592.473Z" transform="translate(-381.636 -570.471)" fill="#37a3a5"/>
          <path id="Trazado_117000" data-name="Trazado 117000" d="M420.5,595.239a7.923,7.923,0,0,1,4.683,1.487,1.1,1.1,0,1,1-1.231,1.813,5.914,5.914,0,0,0-7.157.161,1.111,1.111,0,0,1-1.663-.1,1.147,1.147,0,0,1,.373-1.673A8.073,8.073,0,0,1,420.5,595.239Z" transform="translate(-380.871 -569.268)" fill="#37a3a5"/>
        </g>
      </g>
      <g id="RNGu9o-4" data-name="RNGu9o" transform="translate(525.82 692.182)">
        <g id="Grupo_54379" data-name="Grupo 54379">
          <path id="Trazado_117001" data-name="Trazado 117001" d="M429.026,693.56H396.14c-.908,0-1.323-.4-1.323-1.3q0-16.788.006-33.579c0-1.683-.037-3.372.1-5.047a5.425,5.425,0,0,1,2.785-4.243,5.694,5.694,0,0,1,3.074-.837q28.259,0,56.515.009a5.605,5.605,0,0,1,5.422,3.47,5.93,5.93,0,0,1,.534,2.388q.047,18.94.02,37.879c0,.867-.42,1.266-1.3,1.266H429.026Zm32.07-2.217v-.76q0-15.66,0-31.318c0-1.538.059-3.077.032-4.615a3.763,3.763,0,0,0-.953-2.672,4.027,4.027,0,0,0-2.989-1.234q-28.1.024-56.193.011a6.432,6.432,0,0,0-.644.013,3.634,3.634,0,0,0-3.322,3.319c-.1,1.8-.029,3.606-.029,5.41v31.846Z" transform="translate(-389.61 -648.549)" fill="#12263f"/>
          <path id="Trazado_117002" data-name="Trazado 117002" d="M438.313,683.964a2.329,2.329,0,0,1,2.582-2.283h27.7c1.158,0,1.441.323,1.419,1.474-.024,1.342-.042,2.686.019,4.027a3.964,3.964,0,0,1-3.949,3.932c-.27.006-.538,0-.808,0H395.523a4,4,0,0,1-4.229-3.153,9.871,9.871,0,0,1-.1-1.924c0-1.039.023-2.079.042-3.118.016-.905.342-1.238,1.241-1.236,2.438.009,4.878.039,7.316.037,6.512-.007,13.024-.033,19.537-.026a4.1,4.1,0,0,1,1.6.316,1.833,1.833,0,0,1,1.073,1.57c.033.31.174.393.446.392q1.935-.011,3.87-.013,2.712,0,5.426.006Zm-18.511-.109H394.045c-.692,0-.706,0-.712.712-.006.735.086,1.475.019,2.2a2,2,0,0,0,2.147,2.157q35.067-.041,70.136-.02c.161,0,.323,0,.484,0a1.647,1.647,0,0,0,1.686-1.38c.1-1.2.026-2.408.026-3.712-1.21,0-2.388,0-3.565,0-2.343.011-4.688.039-7.033.043q-7.106.011-14.21,0c-.682,0-1.365.007-2.046,0-.263,0-.41.037-.471.356a2.148,2.148,0,0,1-2.286,1.911q-8.02.013-16.039,0a2.186,2.186,0,0,1-2.325-2C419.844,684.048,419.828,683.979,419.8,683.855Z" transform="translate(-391.189 -634.136)" fill="#12263f"/>
          <path id="Trazado_117003" data-name="Trazado 117003" d="M427.484,685.472h-28.1c-1.019,0-1.428-.387-1.426-1.373q0-13.535.007-27.069c0-1.218.019-2.438.023-3.656a1.155,1.155,0,0,1,1.068-1.25,3.59,3.59,0,0,1,.482-.017q9.419,0,18.839,0c2.292,0,4.582.04,6.874.04,2.524,0,5.05-.039,7.574-.04q11.406-.007,22.81,0a1.2,1.2,0,0,1,1.32,1.329q0,15.333,0,30.667c0,1-.395,1.366-1.485,1.366Zm27.263-31.183H400.185v28.941h54.562Z" transform="translate(-388.242 -647.003)" fill="#12263f"/>
          <path id="Trazado_117004" data-name="Trazado 117004" d="M435.75,662.974a4.15,4.15,0,0,1-.716.842,1.083,1.083,0,0,1-1.205-.113,29.472,29.472,0,0,0-3.982-2.2,18.184,18.184,0,0,0-18.208,2.441c-.174.126-.33.276-.507.4a1.086,1.086,0,0,1-1.537-.179,1.039,1.039,0,0,1,.2-1.527,26.675,26.675,0,0,1,3.632-2.376c7.477-3.612,14.688-3.1,21.573,1.583A1.474,1.474,0,0,1,435.75,662.974Z" transform="translate(-383.288 -644.486)" fill="#37a3a5"/>
          <path id="Trazado_117005" data-name="Trazado 117005" d="M432.249,665.161a4.011,4.011,0,0,1-.7.861.994.994,0,0,1-1.2-.106,13.3,13.3,0,0,0-4.365-2.151,14.018,14.018,0,0,0-12.7,2.488,1.878,1.878,0,0,1-1.016.362.916.916,0,0,1-.881-.743,1.058,1.058,0,0,1,.393-1.194,15.14,15.14,0,0,1,4.648-2.652A16.061,16.061,0,0,1,431.3,663.91,1.777,1.777,0,0,1,432.249,665.161Z" transform="translate(-382.428 -643.131)" fill="#37a3a5"/>
          <path id="Trazado_117006" data-name="Trazado 117006" d="M420.706,663.881a12.491,12.491,0,0,1,7.37,2.1c.118.079.234.164.346.255a1.088,1.088,0,1,1-1.289,1.752,9.955,9.955,0,0,0-12.1.266,1.145,1.145,0,0,1-1.436.108,1.047,1.047,0,0,1-.369-1.244,1.722,1.722,0,0,1,.5-.611A11.614,11.614,0,0,1,420.706,663.881Z" transform="translate(-381.636 -641.879)" fill="#37a3a5"/>
          <path id="Trazado_117007" data-name="Trazado 117007" d="M420.5,666.647a7.934,7.934,0,0,1,4.683,1.487,1.1,1.1,0,1,1-1.231,1.814,5.912,5.912,0,0,0-7.157.159,1.11,1.11,0,0,1-1.663-.1,1.145,1.145,0,0,1,.373-1.672A8.074,8.074,0,0,1,420.5,666.647Z" transform="translate(-380.871 -640.676)" fill="#37a3a5"/>
        </g>
      </g>
      <rect id="Rectángulo_27506" data-name="Rectángulo 27506" width="138.96" height="262.763" rx="6.401" transform="translate(495.812 565.162)" fill="none" stroke="#12263f" stroke-miterlimit="10" stroke-width="2"/>
      <g id="Grupo_54380" data-name="Grupo 54380" transform="translate(588.09 621.801)">
        <path id="Trazado_117008" data-name="Trazado 117008" d="M451.846,615.278q0,2.122,0,4.246c0,2.89.016,5.782-.01,8.673a2.609,2.609,0,0,1-2.778,2.752q-5.859.013-11.717,0a2.608,2.608,0,0,1-2.741-2.557c-.019-.227-.017-.456-.017-.685q0-12.478.007-24.955a5.019,5.019,0,0,1,.192-1.494,2.38,2.38,0,0,1,2.332-1.738q6.087-.028,12.173,0a2.569,2.569,0,0,1,2.549,2.747c.021,4.21.009,8.421.01,12.63Zm-1.574-12.857H436.193v22.187h14.079Zm-5.8,24.723a1.259,1.259,0,1,0-1.279,1.336A1.319,1.319,0,0,0,444.47,627.144Z" transform="translate(-434.581 -599.505)" fill="#12263f"/>
        <rect id="Rectángulo_27507" data-name="Rectángulo 27507" width="14.079" height="22.187" transform="translate(1.612 2.917)" fill="#fff"/>
      </g>
      <path id="Trazado_836679" data-name="Trazado 836679" d="M9.919-3.511l2.914-8.575h2.482L10.824,0H8.375L7.736-8.052,4.574,0H2.125L1.411-12.086H3.785l.241,8.533L7.28-12.086H9.347ZM17,0H14.643L16.2-8.981h2.357Zm-.523-11.264a1.169,1.169,0,0,1,.365-.921,1.285,1.285,0,0,1,.921-.365,1.291,1.291,0,0,1,.921.324,1.164,1.164,0,0,1,.407.88,1.2,1.2,0,0,1-.344.9,1.291,1.291,0,0,1-.942.4,1.313,1.313,0,0,1-.917-.315A1.159,1.159,0,0,1,16.477-11.264Zm8.658,4.532a4.833,4.833,0,0,0-.789-.083,2.269,2.269,0,0,0-1.984.938L21.325,0H18.984l1.561-8.981,2.2-.008-.216,1.1a2.47,2.47,0,0,1,2.092-1.27,3.414,3.414,0,0,1,.813.116Zm4.217,6.9a3.907,3.907,0,0,1-2.088-.577,3.5,3.5,0,0,1-1.357-1.561,4.349,4.349,0,0,1-.349-2.187l.025-.332A5.806,5.806,0,0,1,26.347-6.9,4.613,4.613,0,0,1,27.99-8.587a4.066,4.066,0,0,1,2.225-.56,3.109,3.109,0,0,1,2.627,1.274,4.362,4.362,0,0,1,.677,3.142L33.386-3.71h-5.5a1.927,1.927,0,0,0,.423,1.395,1.616,1.616,0,0,0,1.245.54,2.882,2.882,0,0,0,2.241-.988l1.071,1.328A3.331,3.331,0,0,1,31.4-.245,4.778,4.778,0,0,1,29.352.166ZM30.1-7.213a1.663,1.663,0,0,0-1.15.407,3.573,3.573,0,0,0-.9,1.469h3.221l.05-.216a2.2,2.2,0,0,0,.008-.631,1.2,1.2,0,0,0-.407-.751A1.275,1.275,0,0,0,30.1-7.213ZM36.557,0H34.2l2.216-12.75h2.349Zm6.25.166a3.907,3.907,0,0,1-2.088-.577,3.5,3.5,0,0,1-1.357-1.561,4.349,4.349,0,0,1-.349-2.187l.025-.332A5.806,5.806,0,0,1,39.8-6.9a4.613,4.613,0,0,1,1.644-1.689,4.066,4.066,0,0,1,2.225-.56A3.109,3.109,0,0,1,46.3-7.873a4.362,4.362,0,0,1,.677,3.142L46.841-3.71h-5.5a1.927,1.927,0,0,0,.423,1.395,1.616,1.616,0,0,0,1.245.54,2.882,2.882,0,0,0,2.241-.988l1.071,1.328A3.331,3.331,0,0,1,44.857-.245,4.778,4.778,0,0,1,42.807.166Zm.747-7.379a1.663,1.663,0,0,0-1.15.407,3.573,3.573,0,0,0-.9,1.469h3.221l.05-.216a2.2,2.2,0,0,0,.008-.631,1.2,1.2,0,0,0-.407-.751A1.275,1.275,0,0,0,43.554-7.213Zm9.189,4.682q.133-.664-.921-.963l-.755-.191q-2.681-.739-2.606-2.606a2.579,2.579,0,0,1,1.125-2.071A4.188,4.188,0,0,1,52.2-9.147a3.757,3.757,0,0,1,2.457.805,2.653,2.653,0,0,1,.955,2.1L53.283-6.25a1.024,1.024,0,0,0-1.146-1.17,1.648,1.648,0,0,0-.95.274,1.128,1.128,0,0,0-.494.739q-.125.664,1,.938l.332.075a6.678,6.678,0,0,1,1.751.627,2.643,2.643,0,0,1,.934.876,2.167,2.167,0,0,1,.3,1.253,2.392,2.392,0,0,1-.552,1.494,3.379,3.379,0,0,1-1.444.988,5.032,5.032,0,0,1-1.93.324A3.791,3.791,0,0,1,48.6-.693a2.77,2.77,0,0,1-1.013-2.179l2.208.017a1.214,1.214,0,0,0,1.378,1.3,1.96,1.96,0,0,0,1.067-.266A1.049,1.049,0,0,0,52.743-2.532Zm8.558,0q.133-.664-.921-.963l-.755-.191q-2.681-.739-2.606-2.606a2.579,2.579,0,0,1,1.125-2.071,4.188,4.188,0,0,1,2.611-.784,3.757,3.757,0,0,1,2.457.805,2.653,2.653,0,0,1,.955,2.1L61.841-6.25A1.024,1.024,0,0,0,60.7-7.421a1.648,1.648,0,0,0-.95.274,1.128,1.128,0,0,0-.494.739q-.125.664,1,.938l.332.075a6.678,6.678,0,0,1,1.751.627,2.643,2.643,0,0,1,.934.876,2.167,2.167,0,0,1,.3,1.253,2.392,2.392,0,0,1-.552,1.494,3.379,3.379,0,0,1-1.444.988,5.032,5.032,0,0,1-1.93.324,3.791,3.791,0,0,1-2.49-.859,2.77,2.77,0,0,1-1.013-2.179l2.208.017a1.214,1.214,0,0,0,1.378,1.3A1.96,1.96,0,0,0,60.8-1.818,1.049,1.049,0,0,0,61.3-2.532ZM74.367-3l2.739-9.089h2.772L75.67,0h-2.6L68.88-12.086h2.764Zm9.139,1h5.288V0H81.016V-12.086h2.49Zm13.7-.49H92.836L92.006,0H89.358l4.5-12.086h2.308L100.688,0H98.041ZM93.508-4.507H96.53L95.011-9.031ZM111.646,0h-2.49l-4.848-7.952V0h-2.49V-12.086h2.49l4.856,7.969v-7.969h2.482Zm7.745,0h-2.4V-9.247l-2.864.888V-10.31l5.005-1.793h.257Z" transform="translate(504.045 819.152)" fill="#12263f"/>
      <path id="Trazado_836681" data-name="Trazado 836681" d="M4.816-2.279q.123-.7-.686-1.066L3-3.8q-1.969-.879-1.869-2.42A2.223,2.223,0,0,1,1.6-7.482a2.818,2.818,0,0,1,1.2-.864,4.253,4.253,0,0,1,1.67-.3,2.893,2.893,0,0,1,2,.735,2.451,2.451,0,0,1,.75,1.907H5.508a1.221,1.221,0,0,0-.255-.9,1.148,1.148,0,0,0-.882-.334,1.778,1.778,0,0,0-1.02.267,1.094,1.094,0,0,0-.516.765q-.111.639.855,1.014l.773.293L4.91-4.7A2.421,2.421,0,0,1,6.527-2.3a2.318,2.318,0,0,1-.483,1.3,2.725,2.725,0,0,1-1.172.841A4.174,4.174,0,0,1,3.24.123,3.655,3.655,0,0,1,1.623-.258,2.512,2.512,0,0,1,.545-1.283,2.655,2.655,0,0,1,.223-2.689l1.717.006Q1.857-1.295,3.3-1.271a1.794,1.794,0,0,0,1.031-.275A1.072,1.072,0,0,0,4.816-2.279Zm8.139-.029L14.461-6.34h1.646L13.441,0H12.059L11.59-3.967,9.738,0H8.355L7.887-6.34H9.434l.1,3.99,1.811-3.99h1.2ZM17.59,0H15.926l1.1-6.34h1.664Zm-.369-7.951a.825.825,0,0,1,.258-.65.907.907,0,0,1,.65-.258.911.911,0,0,1,.65.229.822.822,0,0,1,.287.621.849.849,0,0,1-.243.633.912.912,0,0,1-.665.281.927.927,0,0,1-.647-.223A.818.818,0,0,1,17.221-7.951Zm5.121.053L22.066-6.34h1.055L22.9-5.1H21.85l-.539,3.176a.807.807,0,0,0,.047.457q.082.158.4.17.094.006.5-.029L22.143-.029a2.779,2.779,0,0,1-.949.135A1.489,1.489,0,0,1,19.98-.4a1.842,1.842,0,0,1-.328-1.348L20.2-5.1h-.9l.217-1.242h.9l.27-1.559Zm3.416,6.656a1.085,1.085,0,0,0,.762-.249,1.224,1.224,0,0,0,.4-.694l1.553-.006a2.277,2.277,0,0,1-.419,1.2,2.545,2.545,0,0,1-1.008.832,2.885,2.885,0,0,1-1.327.281,2.343,2.343,0,0,1-1.828-.8,2.974,2.974,0,0,1-.65-2.074l.018-.322.006-.064A3.963,3.963,0,0,1,24.3-5.587a2.821,2.821,0,0,1,2.186-.87,2.285,2.285,0,0,1,1.7.7,2.473,2.473,0,0,1,.618,1.784H27.27a1.3,1.3,0,0,0-.223-.8.846.846,0,0,0-.668-.316Q25.2-5.127,24.943-3.363a5.837,5.837,0,0,0-.064,1.078Q24.938-1.26,25.758-1.242Zm5.871-4.395a2.209,2.209,0,0,1,1.717-.82,1.607,1.607,0,0,1,1.386.677A2.661,2.661,0,0,1,35.063-4l-.668,4H32.742l.674-4.014a1.943,1.943,0,0,0,.012-.422.664.664,0,0,0-.738-.65,1.428,1.428,0,0,0-1.172.574L30.721,0H29.068l1.559-9h1.658Z" transform="translate(271.643 696.104)" fill="#12263f"/>
      <path id="Trazado_836680" data-name="Trazado 836680" d="M3.179-2.51H2.251V0H.537V-7.109h2.8a3.12,3.12,0,0,1,1.978.562,1.9,1.9,0,0,1,.713,1.587,2.313,2.313,0,0,1-.3,1.23,2.132,2.132,0,0,1-.94.791L6.27-.073V0H4.434ZM2.251-3.833H3.335a.974.974,0,0,0,.735-.256A.989.989,0,0,0,4.316-4.8a1,1,0,0,0-.249-.72.965.965,0,0,0-.732-.261H2.251Zm8.848,2.5H8.75L8.34,0H6.509L9.116-7.109h1.611L13.354,0H11.514ZM9.16-2.651h1.528L9.922-5.117ZM15.7,0H13.989V-7.109H15.7Zm6.768-7.109v4.653a2.674,2.674,0,0,1-.337,1.37,2.183,2.183,0,0,1-.967.881,3.406,3.406,0,0,1-1.489.3,2.942,2.942,0,0,1-2.046-.674,2.4,2.4,0,0,1-.762-1.846V-7.109h1.724v4.722q.029,1.167,1.084,1.167a1.049,1.049,0,0,0,.806-.293,1.369,1.369,0,0,0,.273-.952V-7.109ZM27.2-1.89a.7.7,0,0,0-.266-.586A3.308,3.308,0,0,0,26-2.91a8.971,8.971,0,0,1-1.094-.435A2.071,2.071,0,0,1,23.525-5.21a1.673,1.673,0,0,1,.344-1.042,2.226,2.226,0,0,1,.974-.7,3.791,3.791,0,0,1,1.416-.251,3.316,3.316,0,0,1,1.375.273,2.176,2.176,0,0,1,.945.779A2.034,2.034,0,0,1,28.916-5H27.207a.859.859,0,0,0-.266-.674,1.037,1.037,0,0,0-.72-.239,1.17,1.17,0,0,0-.725.2.622.622,0,0,0-.266.515.626.626,0,0,0,.293.5,3.7,3.7,0,0,0,1.03.459,6.311,6.311,0,0,1,1.211.51A2.035,2.035,0,0,1,28.916-1.9a1.736,1.736,0,0,1-.7,1.465A3.127,3.127,0,0,1,26.284.1a3.827,3.827,0,0,1-1.565-.31,2.359,2.359,0,0,1-1.055-.85A2.214,2.214,0,0,1,23.311-2.3h1.719a1.09,1.09,0,0,0,.3.842,1.4,1.4,0,0,0,.959.271,1.1,1.1,0,0,0,.671-.183A.6.6,0,0,0,27.2-1.89Zm8.56-.01q.1-.581-.571-.889l-.942-.376Q32.607-3.9,32.69-5.181a1.852,1.852,0,0,1,.391-1.055,2.349,2.349,0,0,1,1-.72,3.544,3.544,0,0,1,1.392-.251,2.411,2.411,0,0,1,1.665.613A2.042,2.042,0,0,1,37.764-5H36.338a1.017,1.017,0,0,0-.212-.752.957.957,0,0,0-.735-.278,1.481,1.481,0,0,0-.85.222.911.911,0,0,0-.43.637q-.093.532.713.845l.645.244.371.171a2.017,2.017,0,0,1,1.348,2,1.932,1.932,0,0,1-.4,1.086,2.271,2.271,0,0,1-.977.7A3.478,3.478,0,0,1,34.448.1,3.046,3.046,0,0,1,33.1-.215a2.093,2.093,0,0,1-.9-.854,2.213,2.213,0,0,1-.269-1.172l1.431,0Q33.3-1.079,34.5-1.06a1.5,1.5,0,0,0,.859-.229A.894.894,0,0,0,35.762-1.9Zm4.521,2a2.3,2.3,0,0,1-1.228-.339,2.057,2.057,0,0,1-.8-.918,2.558,2.558,0,0,1-.205-1.287l.015-.2a3.415,3.415,0,0,1,.449-1.416,2.713,2.713,0,0,1,.967-.994,2.392,2.392,0,0,1,1.309-.33,1.829,1.829,0,0,1,1.545.75,2.566,2.566,0,0,1,.4,1.848l-.078.6H39.419a1.134,1.134,0,0,0,.249.82.95.95,0,0,0,.732.317,1.7,1.7,0,0,0,1.318-.581l.63.781a1.959,1.959,0,0,1-.859.7A2.81,2.81,0,0,1,40.283.1Zm.439-4.341A.978.978,0,0,0,40.046-4a2.1,2.1,0,0,0-.53.864h1.895l.029-.127a1.294,1.294,0,0,0,0-.371.709.709,0,0,0-.239-.442A.75.75,0,0,0,40.723-4.243Zm5.962.283a2.843,2.843,0,0,0-.464-.049,1.335,1.335,0,0,0-1.167.552L44.443,0H43.066l.918-5.283,1.294,0-.127.645a1.453,1.453,0,0,1,1.23-.747,2.009,2.009,0,0,1,.479.068Zm2.28,2.217,1.5-3.54h1.484L49.4,0H48.081l-.9-5.283h1.4ZM54.2.1a2.3,2.3,0,0,1-1.228-.339,2.057,2.057,0,0,1-.8-.918,2.558,2.558,0,0,1-.205-1.287l.015-.2a3.415,3.415,0,0,1,.449-1.416,2.713,2.713,0,0,1,.967-.994,2.392,2.392,0,0,1,1.309-.33,1.829,1.829,0,0,1,1.545.75,2.566,2.566,0,0,1,.4,1.848l-.078.6H53.34a1.134,1.134,0,0,0,.249.82.95.95,0,0,0,.732.317,1.7,1.7,0,0,0,1.318-.581l.63.781a1.959,1.959,0,0,1-.859.7A2.81,2.81,0,0,1,54.2.1Zm.439-4.341A.978.978,0,0,0,53.967-4a2.1,2.1,0,0,0-.53.864h1.895l.029-.127a1.294,1.294,0,0,0,0-.371.709.709,0,0,0-.239-.442A.75.75,0,0,0,54.644-4.243Zm5.962.283a2.843,2.843,0,0,0-.464-.049,1.335,1.335,0,0,0-1.167.552L58.364,0H56.987l.918-5.283,1.294,0-.127.645a1.453,1.453,0,0,1,1.23-.747,2.009,2.009,0,0,1,.479.068Z" transform="translate(323.84 846.272)" fill="#12263f"/>
      <g id="Group_54360" data-name="Group 54360" transform="translate(315.798 548.253)">
        <path id="Path_116867" data-name="Path 116867" d="M314.745,589.69H317.8a1.45,1.45,0,0,1,1.511,1.388q0,.054,0,.108c.011.959,0,1.919,0,2.88v.336H324.7a2.929,2.929,0,0,1,3.075,2.775c0,.1,0,.191,0,.287v18.592a2.933,2.933,0,0,1-2.846,3.017c-.055,0-.108,0-.162,0h-1.28v3.74q-.015,2.5-.04,5a1.437,1.437,0,0,1-1.421,1.455h-7.079a1.431,1.431,0,0,1-1.49-1.373c0-.044,0-.09,0-.136v-3.213h-53.43c0,.113-.014.215-.014.317v2.823a1.477,1.477,0,0,1-1.368,1.578,1.738,1.738,0,0,1-.211,0h-6.865a1.456,1.456,0,0,1-1.576-1.324,1.544,1.544,0,0,1,0-.23v-8.649H249.2a12.9,12.9,0,0,1-2.194-.121,2.809,2.809,0,0,1-2.161-2.785V597.508a2.939,2.939,0,0,1,3.093-3.107h5.779v-3.2a1.443,1.443,0,0,1,1.366-1.514c.05,0,.1,0,.151,0h3.609V549.814a1.444,1.444,0,0,1,1.332-1.546,1.464,1.464,0,0,1,1.576,1.339l0,.082c.011.369,0,.738,0,1.1v38.9h3.374a1.454,1.454,0,0,1,1.505,1.4c0,.036,0,.07,0,.106v3.186h40.546c0-.1.014-.207.014-.31,0-.9.019-1.8,0-2.705a1.548,1.548,0,0,1,1.668-1.685c.938.043,1.88,0,2.82,0a.752.752,0,0,0,.1-.023V549.818a1.477,1.477,0,0,1,1.967-1.481,1.539,1.539,0,0,1,.979,1.563v11.839c0,.85-.03,1.7-.037,2.547,0,.27.036.542.036.812v24.287ZM247.8,616.132h77.027V597.366H247.8Zm72.732,2.949H252.954v2.531H320.53Zm-63.867-26.456v1.754h7.056v-1.754Zm59.7,0h-6.205v1.754h6.205Zm-63.422,33.7h4.12v-1.767h-4.12Zm67.566-1.765H316.4v1.769h4.114Z" transform="translate(-244.836 -548.253)" fill="#12263f"/>
        <path id="Path_116868" data-name="Path 116868" d="M279.72,549.479a26.157,26.157,0,0,1,12.588,3.2,26.9,26.9,0,0,1,5.9,4.384,1.474,1.474,0,0,1-.508,2.557,1.433,1.433,0,0,1-1.492-.4,23.649,23.649,0,0,0-4.7-3.628,22.978,22.978,0,0,0-8.473-2.958,23.341,23.341,0,0,0-19.725,6.489,1.523,1.523,0,0,1-1.82.407,1.457,1.457,0,0,1-.674-1.947,1.423,1.423,0,0,1,.29-.4,24.952,24.952,0,0,1,3.437-2.9,25.863,25.863,0,0,1,8.593-3.984A26.336,26.336,0,0,1,279.72,549.479Z" transform="translate(-237.949 -547.72)" fill="#37a3a5"/>
        <path id="Path_116869" data-name="Path 116869" d="M278.228,555.193a20.945,20.945,0,0,1,9.339,2.105,20.7,20.7,0,0,1,5.447,3.867,1.473,1.473,0,0,1,.113,2.081c-.023.026-.047.05-.073.075a1.494,1.494,0,0,1-2.114-.08h0a17.7,17.7,0,0,0-24.905,0,1.47,1.47,0,1,1-2.167-1.988,1.57,1.57,0,0,1,.122-.118,20.635,20.635,0,0,1,4.525-3.38,20.279,20.279,0,0,1,8.484-2.5C277.478,555.218,277.964,555.193,278.228,555.193Z" transform="translate(-236.725 -545.234)" fill="#37a3a5"/>
        <path id="Path_116870" data-name="Path 116870" d="M287.867,567.848a1.464,1.464,0,0,1-1.043-.436,13.175,13.175,0,0,0-18.489-.1,1.535,1.535,0,0,1-1.718.433,1.438,1.438,0,0,1-.442-2.414,21.712,21.712,0,0,1,2.5-2.031,15.3,15.3,0,0,1,7.835-2.632,15.819,15.819,0,0,1,11.515,3.859c.3.257.6.527.877.8A1.483,1.483,0,0,1,289.21,567,1.424,1.424,0,0,1,287.867,567.848Z" transform="translate(-235.762 -542.87)" fill="#37a3a5"/>
        <path id="Path_116876" data-name="Path 116876" d="M288.137,596.883H263.97a1.476,1.476,0,0,1-1.579-1.091,1.669,1.669,0,0,1-.046-.431v-8.026c0-.57.009-1.139.021-1.709a1.417,1.417,0,0,1,1.273-1.228l45.651-.026h2.958a1.527,1.527,0,0,1,1.7,1.33,1.436,1.436,0,0,1,0,.376v9.131a1.5,1.5,0,0,1-1.3,1.676,1.519,1.519,0,0,1-.36,0H288.149ZM311,587.319H265.275v6.614H311Z" transform="translate(-237.219 -532.545)" fill="#12263f"/>
        <path id="Path_116877" data-name="Path 116877" d="M260.926,590.623v4.708a1.485,1.485,0,0,1-1.418,1.55h-.052a1.466,1.466,0,0,1-1.449-1.482v-.05c0-1.366.017-2.734.017-4.1,0-1.784-.014-3.565-.017-5.348a1.461,1.461,0,1,1,2.917-.159,1.705,1.705,0,0,1,0,.172c0,1.181-.014,2.364-.02,3.543v1.161Z" transform="translate(-239.107 -532.545)" fill="#12263f"/>
        <path id="Path_116878" data-name="Path 116878" d="M257.523,590.628v4.736a1.458,1.458,0,0,1-2.916.072h0v-9.565a1.46,1.46,0,0,1,2.917-.109c0,.031,0,.063,0,.1C257.536,587.451,257.523,589.039,257.523,590.628Z" transform="translate(-240.586 -532.547)" fill="#12263f"/>
        <path id="Path_116880" data-name="Path 116880" d="M274.85,587.685A6.813,6.813,0,0,1,276,587.8,1.418,1.418,0,0,1,277,589.341a1.443,1.443,0,0,1-1.355,1.286c-.56.026-1.122.027-1.682,0a1.418,1.418,0,0,1-1.325-1.507v0a1.437,1.437,0,0,1,1.395-1.393h.812Z" transform="translate(-232.741 -531.099)" fill="#12263f"/>
        <path id="Path_116881" data-name="Path 116881" d="M284.978,587.693a7.141,7.141,0,0,1,1.094.088,1.432,1.432,0,0,1,1.071,1.553,1.447,1.447,0,0,1-1.378,1.294,10.818,10.818,0,0,1-1.9-.065,1.368,1.368,0,0,1-1.078-1.578,1.452,1.452,0,0,1,1.4-1.259h.784Z" transform="translate(-228.337 -531.095)" fill="#12263f"/>
        <path id="Path_116882" data-name="Path 116882" d="M269.751,590.628c-.261,0-.527.01-.784,0a1.46,1.46,0,0,1,.07-2.917h1.422a1.458,1.458,0,0,1,.075,2.915c-.261.013-.525,0-.784,0Z" transform="translate(-234.941 -531.087)" fill="#12263f"/>
        <path id="Path_116883" data-name="Path 116883" d="M279.908,587.713h.726a1.463,1.463,0,0,1,1.448,1.379,1.444,1.444,0,0,1-1.3,1.52,12.9,12.9,0,0,1-1.825,0,1.428,1.428,0,0,1-1.257-1.492,1.459,1.459,0,0,1,1.395-1.4h.812Z" transform="translate(-230.539 -531.087)" fill="#12263f"/>
        <path id="Path_116884" data-name="Path 116884" d="M290.013,587.693a7.535,7.535,0,0,1,1.122.089,1.451,1.451,0,0,1,1.072,1.4,1.435,1.435,0,0,1-1.37,1.416c-.527.024-1.04.036-1.558.026a1.457,1.457,0,1,1,.036-2.915h.7Z" transform="translate(-226.128 -531.095)" fill="#12263f"/>
      </g>
      <g id="Z1vj45.tif" transform="translate(318.018 666.473)">
        <g id="Grupo_54381" data-name="Grupo 54381">
          <path id="Trazado_117009" data-name="Trazado 117009" d="M324.608,673.194a.923.923,0,0,0-.123.188,3.855,3.855,0,0,1-4.048,2.925q-11.684.017-23.37.009-22.531,0-45.06,0c-.712,0-1.428.014-2.135-.052a3.8,3.8,0,0,1-3.483-3.78q-.013-14.282.016-28.564a2.022,2.022,0,0,1,.455-1.228c3.136-3.58,6.306-7.132,9.466-10.693a4.18,4.18,0,0,1,3.348-1.35c6.44.009,12.881,0,19.323,0,10.665,0,21.332.023,32-.01a5.044,5.044,0,0,1,4.131,1.853c2.762,3.2,5.6,6.328,8.405,9.488.369.416.719.848,1.078,1.273Zm-2.658-4.769V650.293H249.026v18.133Zm-1.659-26.092c-.284-.334-.456-.545-.637-.75-1.943-2.19-3.958-4.321-5.8-6.59a3.761,3.761,0,0,0-3.833-1.692,2.118,2.118,0,0,1-.382,0q-25.015,0-50.031-.013a1.8,1.8,0,0,0-1.474.629c-2.322,2.636-4.664,5.255-6.994,7.884a6.179,6.179,0,0,0-.375.529ZM322,671.141H249.036c-.2,2.121.158,2.524,2.167,2.524q24.856,0,49.711,0,9.736,0,19.474,0c1.148,0,1.6-.464,1.616-1.623C322.007,671.765,322,671.487,322,671.141Zm-.044-26.026H249.035v2.432h72.924Z" transform="translate(-246.383 -630.634)" fill="#12263f"/>
          <path id="Trazado_117010" data-name="Trazado 117010" d="M269.266,648.661c.274.025.446.053.618.053.2,0,.395-.026.687-.047,0-.4-.01-.779,0-1.152.03-.918.451-1.382,1.349-1.4q1.907-.041,3.817,0a1.248,1.248,0,0,1,1.36,1.332q.041,5.192,0,10.384c-.007.867-.552,1.309-1.451,1.31q-5.726.011-11.453.006a1.289,1.289,0,0,1-1.467-1.386q-.037-5.153.009-10.308a1.245,1.245,0,0,1,1.352-1.338q1.907-.045,3.817-.009a1.262,1.262,0,0,1,1.356,1.332C269.288,647.834,269.266,648.236,269.266,648.661Zm3.928.111c0,.409.006.76,0,1.112a1.345,1.345,0,0,1-1.484,1.455q-1.759.013-3.514,0c-1.065-.009-1.54-.485-1.556-1.533,0-.344,0-.689,0-1h-1.213v7.7h8.97v-7.733Z" transform="translate(-239.28 -623.91)" fill="#37a3a5"/>
          <path id="Trazado_117011" data-name="Trazado 117011" d="M281.073,648.669h1.293c0-.333-.006-.631,0-.928.032-1.226.432-1.626,1.676-1.643,1.043-.014,2.087,0,3.13,0,1.293,0,1.754.452,1.754,1.739q0,3.319,0,6.64c0,1.043.016,2.088-.006,3.13-.023,1.089-.475,1.536-1.544,1.537q-5.648.009-11.3,0c-1.063,0-1.538-.461-1.543-1.538q-.022-4.962,0-9.923c0-1.116.468-1.561,1.593-1.573s2.24-.011,3.359,0c1.178.011,1.576.429,1.589,1.632C281.075,648.014,281.073,648.293,281.073,648.669Zm5.15,7.84v-7.733h-1.217c0,.357,0,.682,0,1-.016,1.055-.5,1.547-1.54,1.554-1.2.009-2.392.014-3.588,0a1.307,1.307,0,0,1-1.421-1.431c-.01-.372,0-.743,0-1.112h-1.194v7.719Z" transform="translate(-234.142 -623.91)" fill="#12263f"/>
          <path id="Trazado_117012" data-name="Trazado 117012" d="M257.461,648.672h1.3c0-.464-.019-.89,0-1.312a1.178,1.178,0,0,1,1.193-1.233c1.347-.043,2.7-.05,4.044-.014.861.023,1.3.611,1.306,1.637.006,2.265,0,4.529,0,6.793,0,1.017.013,2.036-.006,3.054-.019,1.066-.492,1.538-1.547,1.541q-5.687.011-11.374,0a1.274,1.274,0,0,1-1.457-1.454q-.026-5.076,0-10.153c0-.969.494-1.413,1.49-1.426q1.718-.019,3.436,0c1.172.011,1.589.439,1.612,1.625C257.466,648.027,257.461,648.327,257.461,648.672Zm5.113,7.84v-7.72h-1.207c0,.383,0,.71,0,1.037a1.334,1.334,0,0,1-1.5,1.505c-1.221.01-2.444.016-3.665,0A1.313,1.313,0,0,1,254.823,650c-.024-.4,0-.8,0-1.226h-1.2v7.733Z" transform="translate(-244.413 -623.91)" fill="#12263f"/>
          <path id="Trazado_117013" data-name="Trazado 117013" d="M292.889,648.673h1.294c0-.429-.022-.829,0-1.227a1.259,1.259,0,0,1,1.356-1.332q1.907-.041,3.817,0a1.22,1.22,0,0,1,1.346,1.33q.037,5.192,0,10.384a1.225,1.225,0,0,1-1.362,1.313q-5.8.013-11.605,0a1.288,1.288,0,0,1-1.4-1.379q-.034-5.153,0-10.308a1.267,1.267,0,0,1,1.358-1.34q1.907-.05,3.816-.009a1.27,1.27,0,0,1,1.365,1.4C292.9,647.881,292.889,648.257,292.889,648.673Zm-3.827.091v7.718h8.975v-7.7h-1.207c0,.363.006.687,0,1.012a1.384,1.384,0,0,1-1.551,1.55c-1.194.009-2.389.014-3.583-.006a1.3,1.3,0,0,1-1.416-1.428c-.007-.372,0-.745,0-1.142Z" transform="translate(-229.005 -623.911)" fill="#37a3a5"/>
        </g>
      </g>
      <path id="Trazado_117118" data-name="Trazado 117118" d="M265.043,727.972q0-18.053,0-36.107c0-2.157.557-2.705,2.738-2.705q9.826,0,19.651,0c1.988,0,2.629.641,2.629,2.629q0,36.1,0,72.211c0,2.022-.6,2.622-2.607,2.623q-9.936,0-19.871,0c-1.969,0-2.539-.571-2.54-2.546Q265.041,746.024,265.043,727.972Zm4.185-9.6a2.173,2.173,0,0,0-1.068.112,1.42,1.42,0,0,0-.683.946c0,.324.386.723.7.937a1.9,1.9,0,0,0,.961.095q4.163.007,8.326,0h3.177c1.863,0,3.725-.006,5.588,0,.728,0,1.4-.174,1.419-1.007.027-.916-.68-1.1-1.445-1.089h-.329m-16.987-3.655c-.745,0-1.478.072-1.455,1.043.023.946.749,1.026,1.494,1.025q4.271-.009,8.544,0c2.884,0,5.769-.007,8.653.006.761,0,1.485-.126,1.523-1.017.039-.928-.69-1.055-1.452-1.055m-8.737,9.418q2.848,0,5.7,0a29.636,29.636,0,0,0,3.39-.053c.406-.049.752-.6,1.127-.924a9.226,9.226,0,0,0-1.151-1.063c-.2-.135-.568-.027-.86-.027H270a4.984,4.984,0,0,0-1.627.057c-.385.139-.878.641-.881.987,0,.33.524.725.9.976.2.138.567.044.86.044m8.226-11.054c2.884,0,5.769-.01,8.655.006.759,0,1.49-.1,1.521-1,.033-.92-.674-1.056-1.449-1.055q-8.653.017-17.308,0c-.758,0-1.472.082-1.455,1.039s.745,1.016,1.492,1.013m-.433-15.86c-.35,0-.7.3-1.046.465.343.165.683.472,1.029.476,3,.037,6,.022,9,.022,3.037,0,6.073.016,9.11-.022.354,0,.706-.3,1.059-.462-.347-.167-.693-.478-1.042-.479m-18.123-3.057c-.346,0-.687.314-1.03.482.347.162.695.464,1.042.465q9.054.043,18.109,0c.349,0,.7-.314,1.045-.482-.353-.162-.7-.461-1.058-.465-3-.037-6-.022-9-.022m-.02,58.655a2.271,2.271,0,1,0-2.306-2.286A2.293,2.293,0,0,0,277.571,752.789Zm.148,3.722-.514.024a4.108,4.108,0,0,0-.726,1.332.876.876,0,0,0,1.1,1,1.635,1.635,0,0,0,1.009-1.129C278.617,757.356,278.033,756.923,277.719,756.511Z" transform="translate(79.752 61.3)" fill="#12263f"/>
      <line id="Línea_1530" data-name="Línea 1530" y2="41.973" transform="translate(357.248 624.5)" fill="#1a1818" stroke="#12263f" stroke-miterlimit="10" stroke-width="2"/>
      <line id="Línea_1531" data-name="Línea 1531" y2="41.973" transform="translate(357.248 709.664)" fill="#1a1818" stroke="#12263f" stroke-miterlimit="10" stroke-width="2"/>
      <line id="Línea_1532" data-name="Línea 1532" y2="27.736" transform="translate(267.822 729.59)" fill="#1a1818" stroke="#12263f" stroke-miterlimit="10" stroke-width="2"/>
      <line id="Línea_1533" data-name="Línea 1533" y2="27.736" transform="translate(446.022 729.59)" fill="#1a1818" stroke="#12263f" stroke-miterlimit="10" stroke-width="2"/>
      <line id="Línea_1534" data-name="Línea 1534" x2="178.851" transform="translate(267.822 730.65)" fill="#1a1818" stroke="#12263f" stroke-miterlimit="10" stroke-width="2"/>
      <g id="Grupo_54393" data-name="Grupo 54393" transform="translate(238.831 757.09)">
        <path id="Trazado_117141" data-name="Trazado 117141" d="M234.671,1040.78v-4.64H211.513c-2.082,0-2.694-.617-2.694-2.707V996.125c0-2.047.66-2.7,2.719-2.7h55.647c2.077,0,2.684.615,2.684,2.714v37.306c0,2.112-.579,2.7-2.679,2.7H244.066v4.639c1.124,0,2.277-.046,3.424.011a2.673,2.673,0,0,1,2.652,2.847H228.547a2.719,2.719,0,0,1,2.672-2.845C232.341,1040.732,233.47,1040.78,234.671,1040.78Zm4.715-45.566q-13.611,0-27.219,0c-1.438,0-1.558.121-1.558,1.571q0,16.251,0,32.5c0,1.444.122,1.566,1.565,1.566h54.344c1.471,0,1.624-.153,1.624-1.619V996.828c0-1.468-.148-1.613-1.63-1.613Q252.947,995.213,239.386,995.214Zm26.528,38.06c-.483-.318-.784-.663-.986-.614-.278.068-.483.436-.72.674.227.221.453.614.684.617C265.16,1033.955,265.432,1033.614,265.914,1033.274Z" transform="translate(-206.427 -993.421)" fill="#12263f"/>
        <path id="Trazado_117142" data-name="Trazado 117142" d="M207.352,1039.571c.118-.294.2-.555.321-.8,1.881-3.877,3.775-7.746,5.64-11.629a1.087,1.087,0,0,1,1.132-.734q25.792.026,51.586.035a1.249,1.249,0,0,1,.954.493c2.07,4.165,4.095,8.352,6.178,12.634Zm2.4-1.231h60.814c0-.11.03-.181.008-.229-1.614-3.341-3.219-6.685-4.872-10.005a1.164,1.164,0,0,0-.9-.439q-24.564-.031-49.126-.032a1.022,1.022,0,0,0-1.073.688c-.631,1.371-1.306,2.721-1.965,4.079C211.692,1034.344,210.747,1036.286,209.748,1038.34Z" transform="translate(-207.293 -973.952)" fill="#12263f"/>
        <path id="Trazado_117143" data-name="Trazado 117143" d="M207.315,1035.961v-.879h65.826l.065.879Z" transform="translate(-207.315 -968.833)" fill="#37a3a5"/>
        <path id="Trazado_117144" data-name="Trazado 117144" d="M216.933,1034.013c.032-.962.477-1.19,1.329-1.188q16.33.043,32.66,0c.854,0,1.31.208,1.286,1.186Z" transform="translate(-201.638 -970.166)" fill="#12263f"/>
        <path id="Trazado_117145" data-name="Trazado 117145" d="M230.3,1030.179a10.429,10.429,0,0,1,2.115.044c.3.064.493.619.736.951l-.21.261c-.553,0-1.107,0-1.66,0C230.152,1031.431,230.147,1031.424,230.3,1030.179Z" transform="translate(-193.792 -971.747)" fill="#12263f"/>
        <path id="Trazado_117146" data-name="Trazado 117146" d="M230.144,1030.02l-.064-1.146h2.667l.162,1.146Z" transform="translate(-193.879 -972.498)" fill="#12263f"/>
        <path id="Trazado_117147" data-name="Trazado 117147" d="M229.824,1030.2v1.151H227.2V1030.2Z" transform="translate(-195.579 -971.714)" fill="#12263f"/>
        <path id="Trazado_117148" data-name="Trazado 117148" d="M229.814,1030.037h-2.608v-1.169h2.608Z" transform="translate(-195.575 -972.501)" fill="#12263f"/>
        <path id="Trazado_117149" data-name="Trazado 117149" d="M229.825,1027.546v1.169h-2.617v-1.169Z" transform="translate(-195.574 -973.281)" fill="#12263f"/>
        <path id="Trazado_117150" data-name="Trazado 117150" d="M230.048,1028.705l-.1-1.138H232.6l.186,1.138Z" transform="translate(-193.955 -973.269)" fill="#12263f"/>
        <path id="Trazado_117151" data-name="Trazado 117151" d="M232.806,1027.534a9.711,9.711,0,0,1,2.132.044c.353.081.6.633.892.972l-.208.248a9.724,9.724,0,0,1-2.134-.046c-.351-.08-.595-.631-.887-.97Z" transform="translate(-192.391 -973.311)" fill="#12263f"/>
        <path id="Trazado_117152" data-name="Trazado 117152" d="M238.54,1028.8a9.557,9.557,0,0,1-2.147-.046c-.369-.088-.628-.644-.937-.99l.207-.229a9.531,9.531,0,0,1,2.144.046c.366.086.622.639.929.983Z" transform="translate(-190.706 -973.311)" fill="#12263f"/>
        <path id="Trazado_117153" data-name="Trazado 117153" d="M241.32,1028.812a9.881,9.881,0,0,1-2.142-.043c-.386-.087-.674-.607-1.11-1.032C240.452,1027.211,241.039,1027.421,241.32,1028.812Z" transform="translate(-189.165 -973.325)" fill="#12263f"/>
        <path id="Trazado_117154" data-name="Trazado 117154" d="M241.016,1027.6c3.058-.17,2.592-.237,3,1.11C240.979,1028.885,241.42,1028.948,241.016,1027.6Z" transform="translate(-187.425 -973.302)" fill="#12263f"/>
        <path id="Trazado_117155" data-name="Trazado 117155" d="M212.495,1030.078c.444-1.354.867-1.5,3.044-1.1C215.155,1030.317,215.155,1030.317,212.495,1030.078Z" transform="translate(-204.258 -972.55)" fill="#12263f"/>
        <path id="Trazado_117156" data-name="Trazado 117156" d="M236.529,1030.18a9.551,9.551,0,0,1,2.125.046c.361.084.614.632.916.97l-.2.239a10.586,10.586,0,0,1-2.136-.042c-.353-.075-.615-.583-.918-.9Z" transform="translate(-190.196 -971.749)" fill="#12263f"/>
        <path id="Trazado_117157" data-name="Trazado 117157" d="M233.664,1031.385l-.262-1c1.786-.565,2.687-.267,2.928,1Z" transform="translate(-191.918 -971.768)" fill="#12263f"/>
        <path id="Trazado_117158" data-name="Trazado 117158" d="M217.955,1030.328c-.436,1.293-.689,1.376-3,1.043C215.213,1030.065,215.725,1029.88,217.955,1030.328Z" transform="translate(-202.805 -971.769)" fill="#12263f"/>
        <path id="Trazado_117159" data-name="Trazado 117159" d="M227.027,1028.881l-.153,1.148h-2.589v-1.148Z" transform="translate(-197.299 -972.493)" fill="#12263f"/>
        <path id="Trazado_117160" data-name="Trazado 117160" d="M224.359,1028.684l.1-1.131h2.726l-.135,1.131Z" transform="translate(-197.256 -973.277)" fill="#12263f"/>
        <path id="Trazado_117161" data-name="Trazado 117161" d="M236.3,1030.057c-.528.037-.712.059-.9.061-.657,0-1.312,0-2.043,0l-.347-1.266a10.449,10.449,0,0,1,2.256.046C235.625,1028.984,235.867,1029.545,236.3,1030.057Z" transform="translate(-192.147 -972.533)" fill="#12263f"/>
        <path id="Trazado_117162" data-name="Trazado 117162" d="M221.6,1027.531c-.339,1.4.242,1.355-2.92,1.2-.035-.88.281-1.336,1.251-1.212A13.745,13.745,0,0,0,221.6,1027.531Z" transform="translate(-200.607 -973.309)" fill="#12263f"/>
        <path id="Trazado_117163" data-name="Trazado 117163" d="M241.682,1030.09c-2.622.239-2.622.239-2.915-1.043C240.583,1028.473,241.48,1028.794,241.682,1030.09Z" transform="translate(-188.752 -972.557)" fill="#12263f"/>
        <path id="Trazado_117164" data-name="Trazado 117164" d="M244.679,1030.058c-3.039.175-2.629.237-3.015-1.092C244.014,1028.6,244.3,1028.7,244.679,1030.058Z" transform="translate(-187.042 -972.551)" fill="#12263f"/>
        <path id="Trazado_117165" data-name="Trazado 117165" d="M224.425,1027.529c.029,1.045-.4,1.406-1.325,1.278a11.841,11.841,0,0,0-1.544-.011c0-.83.14-1.4,1.134-1.279A15.291,15.291,0,0,0,224.425,1027.529Z" transform="translate(-198.91 -973.307)" fill="#12263f"/>
        <path id="Trazado_117166" data-name="Trazado 117166" d="M211.853,1031.4c.426-1.359.759-1.476,3.005-1.108C214.579,1031.6,214.553,1031.606,211.853,1031.4Z" transform="translate(-204.637 -971.766)" fill="#12263f"/>
        <path id="Trazado_117167" data-name="Trazado 117167" d="M221.2,1030.118c-.033-1,.323-1.4,1.236-1.28a12.591,12.591,0,0,0,1.611.013c.059.956-.256,1.4-1.223,1.28A13.079,13.079,0,0,0,221.2,1030.118Z" transform="translate(-199.122 -972.531)" fill="#12263f"/>
        <path id="Trazado_117168" data-name="Trazado 117168" d="M217.819,1031.435c-.04-1,.375-1.382,1.3-1.271a13.671,13.671,0,0,0,1.576.009c0,.938-.281,1.4-1.213,1.274A12.619,12.619,0,0,0,217.819,1031.435Z" transform="translate(-201.117 -971.747)" fill="#12263f"/>
        <path id="Trazado_117169" data-name="Trazado 117169" d="M215.966,1028.8c.025-.989.42-1.4,1.341-1.279a13.068,13.068,0,0,0,1.6.011c-.037.914-.339,1.407-1.3,1.278A13,13,0,0,0,215.966,1028.8Z" transform="translate(-202.209 -973.309)" fill="#12263f"/>
        <path id="Trazado_117170" data-name="Trazado 117170" d="M213.138,1028.817c.417-1.441.674-1.533,3.083-1.169-.165.773-.46,1.312-1.41,1.181A12.728,12.728,0,0,0,213.138,1028.817Z" transform="translate(-203.878 -973.328)" fill="#12263f"/>
        <path id="Trazado_117171" data-name="Trazado 117171" d="M218.217,1030.108c.318-1.379-.243-1.36,2.921-1.2.014.859-.266,1.348-1.25,1.216A13.21,13.21,0,0,0,218.217,1030.108Z" transform="translate(-200.881 -972.522)" fill="#12263f"/>
        <path id="Trazado_117172" data-name="Trazado 117172" d="M215.444,1030.108c.34-1.391-.1-1.353,2.972-1.205-.014.938-.452,1.336-1.4,1.217A13.467,13.467,0,0,0,215.444,1030.108Z" transform="translate(-202.517 -972.522)" fill="#12263f"/>
        <path id="Trazado_117173" data-name="Trazado 117173" d="M239.245,1030.3c2.435-.379,2.759-.254,2.94,1.083C239.782,1031.686,239.619,1031.629,239.245,1030.3Z" transform="translate(-188.47 -971.767)" fill="#12263f"/>
        <path id="Trazado_117174" data-name="Trazado 117174" d="M245.3,1031.359c-2.2.377-2.586.248-3-1C244.144,1029.826,245,1030.111,245.3,1031.359Z" transform="translate(-186.667 -971.772)" fill="#12263f"/>
        <path id="Trazado_117175" data-name="Trazado 117175" d="M240.345,1032.852a11.066,11.066,0,0,1,2.215.044c.343.073.587.619.876.951l-.156.245a10.668,10.668,0,0,1-2.214-.045c-.348-.076-.595-.631-.887-.97Z" transform="translate(-187.918 -970.17)" fill="#12263f"/>
        <path id="Trazado_117176" data-name="Trazado 117176" d="M238.93,1030.138a13.811,13.811,0,0,0-1.649.013c-.881.111-1.277-.245-1.264-1.108C237.766,1028.494,238.657,1028.791,238.93,1030.138Z" transform="translate(-190.375 -972.552)" fill="#12263f"/>
        <path id="Trazado_117177" data-name="Trazado 117177" d="M223.761,1030.174c-.312,1.425-.55,1.509-2.913,1.178-.062-.91.328-1.3,1.261-1.188A14.852,14.852,0,0,0,223.761,1030.174Z" transform="translate(-199.332 -971.747)" fill="#12263f"/>
        <path id="Trazado_117178" data-name="Trazado 117178" d="M246.643,1034.046c-2.509.274-2.581.25-3.048-1.016C245.371,1032.51,246.247,1032.785,246.643,1034.046Z" transform="translate(-185.903 -970.191)" fill="#12263f"/>
        <path id="Trazado_117179" data-name="Trazado 117179" d="M216.913,1032.848c-.361,1.4-.677,1.509-2.972,1.151.013-.883.409-1.274,1.325-1.163A14.466,14.466,0,0,0,216.913,1032.848Z" transform="translate(-203.404 -970.169)" fill="#12263f"/>
        <path id="Trazado_117180" data-name="Trazado 117180" d="M213.556,1032.981c-.332,1.261-.918,1.46-2.986,1.015C210.947,1032.727,211.392,1032.576,213.556,1032.981Z" transform="translate(-205.394 -970.191)" fill="#12263f"/>
        <path id="Trazado_117181" data-name="Trazado 117181" d="M224.159,1030.2h2.732l-.145,1.156h-2.587Z" transform="translate(-197.374 -971.712)" fill="#12263f"/>
        <path id="Trazado_117182" data-name="Trazado 117182" d="M230.441,1032.671l-.124-1.148a13.458,13.458,0,0,1,2.282.043c.272.048.458.58.838,1.105Z" transform="translate(-193.739 -970.95)" fill="#12263f"/>
        <path id="Trazado_117183" data-name="Trazado 117183" d="M227.209,1031.585a3.353,3.353,0,0,1,.464-.07c.682-.008,1.366,0,2.12,0v1.161a3.731,3.731,0,0,1-.458.059c-.682.006-1.366,0-2.126,0Z" transform="translate(-195.574 -970.942)" fill="#12263f"/>
        <path id="Trazado_117184" data-name="Trazado 117184" d="M214.433,1032.738c.288-1.323-.1-1.338,2.939-1.143,0,.838-.336,1.253-1.239,1.154A15.979,15.979,0,0,0,214.433,1032.738Z" transform="translate(-203.114 -970.945)" fill="#12263f"/>
        <path id="Trazado_117185" data-name="Trazado 117185" d="M239.731,1032.745a15.527,15.527,0,0,0-1.676.011c-.867.094-1.2-.3-1.172-1.231a11.734,11.734,0,0,1,2.207.043c.323.064.552.6.824.914Z" transform="translate(-189.865 -970.952)" fill="#12263f"/>
        <path id="Trazado_117186" data-name="Trazado 117186" d="M239.761,1031.608c2.587-.275,2.673-.243,2.947,1.027C240.69,1033.083,240.079,1032.878,239.761,1031.608Z" transform="translate(-188.165 -970.966)" fill="#12263f"/>
        <path id="Trazado_117187" data-name="Trazado 117187" d="M220.463,1032.765c.24-1.35.736-1.517,2.881-1.118.051.874-.337,1.235-1.226,1.129A14.617,14.617,0,0,0,220.463,1032.765Z" transform="translate(-199.555 -970.973)" fill="#12263f"/>
        <path id="Trazado_117188" data-name="Trazado 117188" d="M217.376,1032.763c.227-1.372.526-1.479,2.891-1.135.014.833-.312,1.254-1.22,1.146A14.62,14.62,0,0,0,217.376,1032.763Z" transform="translate(-201.377 -970.97)" fill="#12263f"/>
        <path id="Trazado_117189" data-name="Trazado 117189" d="M236.734,1032.758a10.867,10.867,0,0,1-2.139-.041c-.339-.068-.592-.571-.97-.969C235.831,1031.178,236.586,1031.442,236.734,1032.758Z" transform="translate(-191.787 -970.969)" fill="#12263f"/>
        <path id="Trazado_117190" data-name="Trazado 117190" d="M242.947,1031.609c2.527-.275,2.627-.24,3.025,1.03C243.923,1033.065,243.345,1032.878,242.947,1031.609Z" transform="translate(-186.285 -970.966)" fill="#12263f"/>
        <path id="Trazado_117191" data-name="Trazado 117191" d="M211.224,1032.672c.342-1.277.7-1.4,2.994-1.038C213.878,1032.9,213.5,1033.035,211.224,1032.672Z" transform="translate(-205.008 -970.973)" fill="#12263f"/>
        <path id="Trazado_117192" data-name="Trazado 117192" d="M226.753,1031.548l-.094,1.1h-2.668l.083-1.1Z" transform="translate(-197.473 -970.919)" fill="#12263f"/>
      </g>
      <g id="Grupo_54394" data-name="Grupo 54394" transform="translate(405.867 757.09)">
        <path id="Trazado_117141-2" data-name="Trazado 117141" d="M234.671,1040.78v-4.64H211.513c-2.082,0-2.694-.617-2.694-2.707V996.125c0-2.047.66-2.7,2.719-2.7h55.647c2.077,0,2.684.615,2.684,2.714v37.306c0,2.112-.579,2.7-2.679,2.7H244.066v4.639c1.124,0,2.277-.046,3.424.011a2.673,2.673,0,0,1,2.652,2.847H228.547a2.719,2.719,0,0,1,2.672-2.845C232.341,1040.732,233.47,1040.78,234.671,1040.78Zm4.715-45.566q-13.611,0-27.219,0c-1.438,0-1.558.121-1.558,1.571q0,16.251,0,32.5c0,1.444.122,1.566,1.565,1.566h54.344c1.471,0,1.624-.153,1.624-1.619V996.828c0-1.468-.148-1.613-1.63-1.613Q252.947,995.213,239.386,995.214Zm26.528,38.06c-.483-.318-.784-.663-.986-.614-.278.068-.483.436-.72.674.227.221.453.614.684.617C265.16,1033.955,265.432,1033.614,265.914,1033.274Z" transform="translate(-206.427 -993.421)" fill="#12263f"/>
        <path id="Trazado_117142-2" data-name="Trazado 117142" d="M207.352,1039.571c.118-.294.2-.555.321-.8,1.881-3.877,3.775-7.746,5.64-11.629a1.087,1.087,0,0,1,1.132-.734q25.792.026,51.586.035a1.249,1.249,0,0,1,.954.493c2.07,4.165,4.095,8.352,6.178,12.634Zm2.4-1.231h60.814c0-.11.03-.181.008-.229-1.614-3.341-3.219-6.685-4.872-10.005a1.164,1.164,0,0,0-.9-.439q-24.564-.031-49.126-.032a1.022,1.022,0,0,0-1.073.688c-.631,1.371-1.306,2.721-1.965,4.079C211.692,1034.344,210.747,1036.286,209.748,1038.34Z" transform="translate(-207.293 -973.952)" fill="#12263f"/>
        <path id="Trazado_117143-2" data-name="Trazado 117143" d="M207.315,1035.961v-.879h65.826l.065.879Z" transform="translate(-207.315 -968.833)" fill="#37a3a5"/>
        <path id="Trazado_117144-2" data-name="Trazado 117144" d="M216.933,1034.013c.032-.962.477-1.19,1.329-1.188q16.33.043,32.66,0c.854,0,1.31.208,1.286,1.186Z" transform="translate(-201.638 -970.166)" fill="#12263f"/>
        <path id="Trazado_117145-2" data-name="Trazado 117145" d="M230.3,1030.179a10.429,10.429,0,0,1,2.115.044c.3.064.493.619.736.951l-.21.261c-.553,0-1.107,0-1.66,0C230.152,1031.431,230.147,1031.424,230.3,1030.179Z" transform="translate(-193.792 -971.747)" fill="#12263f"/>
        <path id="Trazado_117146-2" data-name="Trazado 117146" d="M230.144,1030.02l-.064-1.146h2.667l.162,1.146Z" transform="translate(-193.879 -972.498)" fill="#12263f"/>
        <path id="Trazado_117147-2" data-name="Trazado 117147" d="M229.824,1030.2v1.151H227.2V1030.2Z" transform="translate(-195.579 -971.714)" fill="#12263f"/>
        <path id="Trazado_117148-2" data-name="Trazado 117148" d="M229.814,1030.037h-2.608v-1.169h2.608Z" transform="translate(-195.575 -972.501)" fill="#12263f"/>
        <path id="Trazado_117149-2" data-name="Trazado 117149" d="M229.825,1027.546v1.169h-2.617v-1.169Z" transform="translate(-195.574 -973.281)" fill="#12263f"/>
        <path id="Trazado_117150-2" data-name="Trazado 117150" d="M230.048,1028.705l-.1-1.138H232.6l.186,1.138Z" transform="translate(-193.955 -973.269)" fill="#12263f"/>
        <path id="Trazado_117151-2" data-name="Trazado 117151" d="M232.806,1027.534a9.711,9.711,0,0,1,2.132.044c.353.081.6.633.892.972l-.208.248a9.724,9.724,0,0,1-2.134-.046c-.351-.08-.595-.631-.887-.97Z" transform="translate(-192.391 -973.311)" fill="#12263f"/>
        <path id="Trazado_117152-2" data-name="Trazado 117152" d="M238.54,1028.8a9.557,9.557,0,0,1-2.147-.046c-.369-.088-.628-.644-.937-.99l.207-.229a9.531,9.531,0,0,1,2.144.046c.366.086.622.639.929.983Z" transform="translate(-190.706 -973.311)" fill="#12263f"/>
        <path id="Trazado_117153-2" data-name="Trazado 117153" d="M241.32,1028.812a9.881,9.881,0,0,1-2.142-.043c-.386-.087-.674-.607-1.11-1.032C240.452,1027.211,241.039,1027.421,241.32,1028.812Z" transform="translate(-189.165 -973.325)" fill="#12263f"/>
        <path id="Trazado_117154-2" data-name="Trazado 117154" d="M241.016,1027.6c3.058-.17,2.592-.237,3,1.11C240.979,1028.885,241.42,1028.948,241.016,1027.6Z" transform="translate(-187.425 -973.302)" fill="#12263f"/>
        <path id="Trazado_117155-2" data-name="Trazado 117155" d="M212.495,1030.078c.444-1.354.867-1.5,3.044-1.1C215.155,1030.317,215.155,1030.317,212.495,1030.078Z" transform="translate(-204.258 -972.55)" fill="#12263f"/>
        <path id="Trazado_117156-2" data-name="Trazado 117156" d="M236.529,1030.18a9.551,9.551,0,0,1,2.125.046c.361.084.614.632.916.97l-.2.239a10.586,10.586,0,0,1-2.136-.042c-.353-.075-.615-.583-.918-.9Z" transform="translate(-190.196 -971.749)" fill="#12263f"/>
        <path id="Trazado_117157-2" data-name="Trazado 117157" d="M233.664,1031.385l-.262-1c1.786-.565,2.687-.267,2.928,1Z" transform="translate(-191.918 -971.768)" fill="#12263f"/>
        <path id="Trazado_117158-2" data-name="Trazado 117158" d="M217.955,1030.328c-.436,1.293-.689,1.376-3,1.043C215.213,1030.065,215.725,1029.88,217.955,1030.328Z" transform="translate(-202.805 -971.769)" fill="#12263f"/>
        <path id="Trazado_117159-2" data-name="Trazado 117159" d="M227.027,1028.881l-.153,1.148h-2.589v-1.148Z" transform="translate(-197.299 -972.493)" fill="#12263f"/>
        <path id="Trazado_117160-2" data-name="Trazado 117160" d="M224.359,1028.684l.1-1.131h2.726l-.135,1.131Z" transform="translate(-197.256 -973.277)" fill="#12263f"/>
        <path id="Trazado_117161-2" data-name="Trazado 117161" d="M236.3,1030.057c-.528.037-.712.059-.9.061-.657,0-1.312,0-2.043,0l-.347-1.266a10.449,10.449,0,0,1,2.256.046C235.625,1028.984,235.867,1029.545,236.3,1030.057Z" transform="translate(-192.147 -972.533)" fill="#12263f"/>
        <path id="Trazado_117162-2" data-name="Trazado 117162" d="M221.6,1027.531c-.339,1.4.242,1.355-2.92,1.2-.035-.88.281-1.336,1.251-1.212A13.745,13.745,0,0,0,221.6,1027.531Z" transform="translate(-200.607 -973.309)" fill="#12263f"/>
        <path id="Trazado_117163-2" data-name="Trazado 117163" d="M241.682,1030.09c-2.622.239-2.622.239-2.915-1.043C240.583,1028.473,241.48,1028.794,241.682,1030.09Z" transform="translate(-188.752 -972.557)" fill="#12263f"/>
        <path id="Trazado_117164-2" data-name="Trazado 117164" d="M244.679,1030.058c-3.039.175-2.629.237-3.015-1.092C244.014,1028.6,244.3,1028.7,244.679,1030.058Z" transform="translate(-187.042 -972.551)" fill="#12263f"/>
        <path id="Trazado_117165-2" data-name="Trazado 117165" d="M224.425,1027.529c.029,1.045-.4,1.406-1.325,1.278a11.841,11.841,0,0,0-1.544-.011c0-.83.14-1.4,1.134-1.279A15.291,15.291,0,0,0,224.425,1027.529Z" transform="translate(-198.91 -973.307)" fill="#12263f"/>
        <path id="Trazado_117166-2" data-name="Trazado 117166" d="M211.853,1031.4c.426-1.359.759-1.476,3.005-1.108C214.579,1031.6,214.553,1031.606,211.853,1031.4Z" transform="translate(-204.637 -971.766)" fill="#12263f"/>
        <path id="Trazado_117167-2" data-name="Trazado 117167" d="M221.2,1030.118c-.033-1,.323-1.4,1.236-1.28a12.591,12.591,0,0,0,1.611.013c.059.956-.256,1.4-1.223,1.28A13.079,13.079,0,0,0,221.2,1030.118Z" transform="translate(-199.122 -972.531)" fill="#12263f"/>
        <path id="Trazado_117168-2" data-name="Trazado 117168" d="M217.819,1031.435c-.04-1,.375-1.382,1.3-1.271a13.671,13.671,0,0,0,1.576.009c0,.938-.281,1.4-1.213,1.274A12.619,12.619,0,0,0,217.819,1031.435Z" transform="translate(-201.117 -971.747)" fill="#12263f"/>
        <path id="Trazado_117169-2" data-name="Trazado 117169" d="M215.966,1028.8c.025-.989.42-1.4,1.341-1.279a13.068,13.068,0,0,0,1.6.011c-.037.914-.339,1.407-1.3,1.278A13,13,0,0,0,215.966,1028.8Z" transform="translate(-202.209 -973.309)" fill="#12263f"/>
        <path id="Trazado_117170-2" data-name="Trazado 117170" d="M213.138,1028.817c.417-1.441.674-1.533,3.083-1.169-.165.773-.46,1.312-1.41,1.181A12.728,12.728,0,0,0,213.138,1028.817Z" transform="translate(-203.878 -973.328)" fill="#12263f"/>
        <path id="Trazado_117171-2" data-name="Trazado 117171" d="M218.217,1030.108c.318-1.379-.243-1.36,2.921-1.2.014.859-.266,1.348-1.25,1.216A13.21,13.21,0,0,0,218.217,1030.108Z" transform="translate(-200.881 -972.522)" fill="#12263f"/>
        <path id="Trazado_117172-2" data-name="Trazado 117172" d="M215.444,1030.108c.34-1.391-.1-1.353,2.972-1.205-.014.938-.452,1.336-1.4,1.217A13.467,13.467,0,0,0,215.444,1030.108Z" transform="translate(-202.517 -972.522)" fill="#12263f"/>
        <path id="Trazado_117173-2" data-name="Trazado 117173" d="M239.245,1030.3c2.435-.379,2.759-.254,2.94,1.083C239.782,1031.686,239.619,1031.629,239.245,1030.3Z" transform="translate(-188.47 -971.767)" fill="#12263f"/>
        <path id="Trazado_117174-2" data-name="Trazado 117174" d="M245.3,1031.359c-2.2.377-2.586.248-3-1C244.144,1029.826,245,1030.111,245.3,1031.359Z" transform="translate(-186.667 -971.772)" fill="#12263f"/>
        <path id="Trazado_117175-2" data-name="Trazado 117175" d="M240.345,1032.852a11.066,11.066,0,0,1,2.215.044c.343.073.587.619.876.951l-.156.245a10.668,10.668,0,0,1-2.214-.045c-.348-.076-.595-.631-.887-.97Z" transform="translate(-187.918 -970.17)" fill="#12263f"/>
        <path id="Trazado_117176-2" data-name="Trazado 117176" d="M238.93,1030.138a13.811,13.811,0,0,0-1.649.013c-.881.111-1.277-.245-1.264-1.108C237.766,1028.494,238.657,1028.791,238.93,1030.138Z" transform="translate(-190.375 -972.552)" fill="#12263f"/>
        <path id="Trazado_117177-2" data-name="Trazado 117177" d="M223.761,1030.174c-.312,1.425-.55,1.509-2.913,1.178-.062-.91.328-1.3,1.261-1.188A14.852,14.852,0,0,0,223.761,1030.174Z" transform="translate(-199.332 -971.747)" fill="#12263f"/>
        <path id="Trazado_117178-2" data-name="Trazado 117178" d="M246.643,1034.046c-2.509.274-2.581.25-3.048-1.016C245.371,1032.51,246.247,1032.785,246.643,1034.046Z" transform="translate(-185.903 -970.191)" fill="#12263f"/>
        <path id="Trazado_117179-2" data-name="Trazado 117179" d="M216.913,1032.848c-.361,1.4-.677,1.509-2.972,1.151.013-.883.409-1.274,1.325-1.163A14.466,14.466,0,0,0,216.913,1032.848Z" transform="translate(-203.404 -970.169)" fill="#12263f"/>
        <path id="Trazado_117180-2" data-name="Trazado 117180" d="M213.556,1032.981c-.332,1.261-.918,1.46-2.986,1.015C210.947,1032.727,211.392,1032.576,213.556,1032.981Z" transform="translate(-205.394 -970.191)" fill="#12263f"/>
        <path id="Trazado_117181-2" data-name="Trazado 117181" d="M224.159,1030.2h2.732l-.145,1.156h-2.587Z" transform="translate(-197.374 -971.712)" fill="#12263f"/>
        <path id="Trazado_117182-2" data-name="Trazado 117182" d="M230.441,1032.671l-.124-1.148a13.458,13.458,0,0,1,2.282.043c.272.048.458.58.838,1.105Z" transform="translate(-193.739 -970.95)" fill="#12263f"/>
        <path id="Trazado_117183-2" data-name="Trazado 117183" d="M227.209,1031.585a3.353,3.353,0,0,1,.464-.07c.682-.008,1.366,0,2.12,0v1.161a3.731,3.731,0,0,1-.458.059c-.682.006-1.366,0-2.126,0Z" transform="translate(-195.574 -970.942)" fill="#12263f"/>
        <path id="Trazado_117184-2" data-name="Trazado 117184" d="M214.433,1032.738c.288-1.323-.1-1.338,2.939-1.143,0,.838-.336,1.253-1.239,1.154A15.979,15.979,0,0,0,214.433,1032.738Z" transform="translate(-203.114 -970.945)" fill="#12263f"/>
        <path id="Trazado_117185-2" data-name="Trazado 117185" d="M239.731,1032.745a15.527,15.527,0,0,0-1.676.011c-.867.094-1.2-.3-1.172-1.231a11.734,11.734,0,0,1,2.207.043c.323.064.552.6.824.914Z" transform="translate(-189.865 -970.952)" fill="#12263f"/>
        <path id="Trazado_117186-2" data-name="Trazado 117186" d="M239.761,1031.608c2.587-.275,2.673-.243,2.947,1.027C240.69,1033.083,240.079,1032.878,239.761,1031.608Z" transform="translate(-188.165 -970.966)" fill="#12263f"/>
        <path id="Trazado_117187-2" data-name="Trazado 117187" d="M220.463,1032.765c.24-1.35.736-1.517,2.881-1.118.051.874-.337,1.235-1.226,1.129A14.617,14.617,0,0,0,220.463,1032.765Z" transform="translate(-199.555 -970.973)" fill="#12263f"/>
        <path id="Trazado_117188-2" data-name="Trazado 117188" d="M217.376,1032.763c.227-1.372.526-1.479,2.891-1.135.014.833-.312,1.254-1.22,1.146A14.62,14.62,0,0,0,217.376,1032.763Z" transform="translate(-201.377 -970.97)" fill="#12263f"/>
        <path id="Trazado_117189-2" data-name="Trazado 117189" d="M236.734,1032.758a10.867,10.867,0,0,1-2.139-.041c-.339-.068-.592-.571-.97-.969C235.831,1031.178,236.586,1031.442,236.734,1032.758Z" transform="translate(-191.787 -970.969)" fill="#12263f"/>
        <path id="Trazado_117190-2" data-name="Trazado 117190" d="M242.947,1031.609c2.527-.275,2.627-.24,3.025,1.03C243.923,1033.065,243.345,1032.878,242.947,1031.609Z" transform="translate(-186.285 -970.966)" fill="#12263f"/>
        <path id="Trazado_117191-2" data-name="Trazado 117191" d="M211.224,1032.672c.342-1.277.7-1.4,2.994-1.038C213.878,1032.9,213.5,1033.035,211.224,1032.672Z" transform="translate(-205.008 -970.973)" fill="#12263f"/>
        <path id="Trazado_117192-2" data-name="Trazado 117192" d="M226.753,1031.548l-.094,1.1h-2.668l.083-1.1Z" transform="translate(-197.473 -970.919)" fill="#12263f"/>
      </g>
    </g>
  </g>
</svg>
