<svg xmlns="http://www.w3.org/2000/svg" xmlns:xlink="http://www.w3.org/1999/xlink" width="683.451" height="400.425" viewBox="0 0 683.451 400.425">
  <defs>
    <linearGradient id="linear-gradient" x1="-4.347" y1="0.5" x2="-3.348" y2="0.5" gradientUnits="objectBoundingBox">
      <stop offset="0" stop-color="#fff"/>
      <stop offset="1" stop-color="#c7e0ea"/>
    </linearGradient>
    <linearGradient id="linear-gradient-2" x1="-9.664" y1="0.5" x2="-8.664" y2="0.5" xlink:href="#linear-gradient"/>
    <linearGradient id="linear-gradient-3" x1="-5.9" y1="0.5" x2="-4.9" y2="0.5" xlink:href="#linear-gradient"/>
    <linearGradient id="linear-gradient-4" x1="-5.797" y1="0.5" x2="-4.797" y2="0.5" xlink:href="#linear-gradient"/>
    <linearGradient id="linear-gradient-5" x1="-8.918" y1="0.5" x2="-7.918" y2="0.5" xlink:href="#linear-gradient"/>
    <linearGradient id="linear-gradient-6" x1="0" y1="0.5" x2="1" y2="0.5" xlink:href="#linear-gradient"/>
  </defs>
  <g id="Grupo_54397" data-name="Grupo 54397" transform="translate(-1072.985 -1199.935)">
    <g id="evztuS" transform="translate(1540.365 1249.063)">
      <g id="Grupo_54395" data-name="Grupo 54395">
        <path id="Trazado_117203" data-name="Trazado 117203" d="M1539.282,1264.957l-41.414,41.44c1.018.846,1.936,1.687,2.931,2.424a23.894,23.894,0,0,0,10.915,4.518,24.732,24.732,0,0,0,21.441-7.1c2.506-2.531,5.043-5.034,7.489-7.621a20.478,20.478,0,0,0,3.367-5.142,24.737,24.737,0,0,0-4.446-28.292C1539.513,1265.131,1539.449,1265.09,1539.282,1264.957Z" transform="translate(-1485.061 -1252.034)" fill="#6e40fc"/>
        <path id="Trazado_117204" data-name="Trazado 117204" d="M1538.928,1294.812c-1.234,1.16-2.51,2.293-3.71,3.5-2.272,2.284-4.5,4.605-6.738,6.927a2.472,2.472,0,0,0-.541.9q-3.668,11.017-7.309,22.046c-.076.229-.146.462-.251.793h.615c1.138,0,2.275-.018,3.412.014a.665.665,0,0,0,.783-.579c1.844-6.224,3.755-12.43,5.545-18.669a7.149,7.149,0,0,1,2.321-3.688c1.316-1.11,2.524-2.347,3.779-3.528.11-.1.225-.2.4-.349.132.358.254.666.358.979q4.209,12.663,8.406,25.332c.12.359.262.512.665.5,1.115-.031,2.232-.01,3.458-.01Z" transform="translate(-1482.131 -1248.148)" fill="#001a2e"/>
        <path id="Trazado_117205" data-name="Trazado 117205" d="M1486.548,1275.819h2.4a19.362,19.362,0,0,1,5.826-13.973,19.593,19.593,0,0,1,13.971-5.858v-2.466a22.247,22.247,0,0,0-22.2,22.3Z" transform="translate(-1486.536 -1253.522)" fill="url(#linear-gradient)"/>
        <path id="Trazado_117206" data-name="Trazado 117206" d="M1509.618,1292.074c.814-.828,1.573-1.588,2.307-2.372.071-.076.021-.315-.037-.452q-3.292-7.612-6.6-15.217c-.332-.765-.657-1.533-1-2.292-.073-.164-.177-.376-.322-.436-1.3-.545-2.616-1.06-4.078-1.644Z" transform="translate(-1484.797 -1251.421)" fill="url(#linear-gradient-2)"/>
        <path id="Trazado_117207" data-name="Trazado 117207" d="M1502.239,1267.327c.5,1.271.971,2.379,1.378,3.509a1.656,1.656,0,0,0,1.012,1.034q8.552,3.678,17.082,7.408a.636.636,0,0,0,.837-.157c.657-.677,1.345-1.325,2.11-2.073Z" transform="translate(-1484.492 -1251.725)" fill="url(#linear-gradient-3)"/>
        <path id="Trazado_117208" data-name="Trazado 117208" d="M1508.517,1260.334V1258a17.1,17.1,0,0,0-11.124,4.009,17.443,17.443,0,0,0-6.452,13.542h2.36C1494.266,1266.39,1499.306,1261.333,1508.517,1260.334Z" transform="translate(-1485.963 -1252.939)" fill="url(#linear-gradient-4)"/>
        <path id="Trazado_117209" data-name="Trazado 117209" d="M1495.428,1274.425c.773,0,1.471.026,2.165-.025.121-.008.3-.331.314-.518a9.312,9.312,0,0,1,1.929-5.194,9.424,9.424,0,0,1,7.048-3.748c.131-.01.262-.031.393-.047.016,0,.031-.019.079-.051v-2.379a11.99,11.99,0,0,0-11.929,11.962Z" transform="translate(-1485.379 -1252.358)" fill="url(#linear-gradient-5)"/>
      </g>
    </g>
    <g id="Group_38308" data-name="Group 38308" transform="translate(1092.198 1385.439)">
      <path id="Path_90321" data-name="Path 90321" d="M1117.541,1441.739l-5.965-3.443,5.965-3.441,5.961,3.441Z" transform="translate(-1087.176 -1354.994)" fill="#dbdbdb"/>
      <path id="Path_90322" data-name="Path 90322" d="M1117.541,1441.34v3.085l-5.965-3.441V1437.9Z" transform="translate(-1087.176 -1354.598)" fill="#cccccb"/>
      <path id="Path_90323" data-name="Path 90323" d="M1122.808,1437.9v3.087l-5.965,3.441v-3.085Z" transform="translate(-1086.49 -1354.598)" fill="#b6b6b6"/>
      <g id="Group_38307" data-name="Group 38307" transform="translate(2.856 0.998)">
        <path id="Path_90324" data-name="Path 90324" d="M1122.049,1377.565v2.5a12.218,12.218,0,0,0-5.313-11.254,11.025,11.025,0,0,0-9.731-.267,17.771,17.771,0,0,0-2.041.937c-.21.107-.423.23-.633.352l-9.665,5.576-1.079.624h0l-1.074-1.875,11.827-6.824a12.191,12.191,0,0,1,12.4-1.027c.188.1.365.222.539.338h0A12.521,12.521,0,0,1,1122.049,1377.565Z" transform="translate(-1092.513 -1365.075)" fill="#cccccb"/>
      </g>
      <path id="Path_90325" data-name="Path 90325" d="M1121.923,1379.8v67.7a1.322,1.322,0,0,1-.517.469,2.946,2.946,0,0,1-1.233.352v-67.3a12.222,12.222,0,0,0-5.313-11.255c-.1-.054-.2-.105-.3-.149h0a8.367,8.367,0,0,0-8.282,1.026l-11.824,6.829-.98-1.7,10.745-6.2a10.923,10.923,0,0,1,17.719,10.228Z" transform="translate(-1089.531 -1363.817)" fill="#b6b6b6"/>
      <path id="Path_90326" data-name="Path 90326" d="M1117.749,1380.736v67.3a3.208,3.208,0,0,1-1.791-.352,1.211,1.211,0,0,1-.586-.646v-70.027a8.381,8.381,0,0,0-3.231-7.668,2.286,2.286,0,0,1,.3.15A12.192,12.192,0,0,1,1117.749,1380.736Z" transform="translate(-1087.102 -1363.521)" fill="#cccccb"/>
      <path id="Path_90327" data-name="Path 90327" d="M1117.277,1366.647a15.675,15.675,0,0,0-10.271,1.875c-.684.3-1.364.615-2.04.938a94.018,94.018,0,0,0-10.317,5.928l-1.083.609-1.074-1.876,11.827-6.824a12.189,12.189,0,0,1,12.4-1.026C1116.922,1366.417,1117.1,1366.535,1117.277,1366.647Z" transform="translate(-1089.659 -1364.082)" fill="#dbdbdb"/>
      <path id="Path_90328" data-name="Path 90328" d="M1119.132,1438.428a1.315,1.315,0,0,1-.517.469,2.948,2.948,0,0,1-1.233.351,3.237,3.237,0,0,1-1.791-.351,1.2,1.2,0,0,1-.587-.646.7.7,0,0,1,0-.47,1.221,1.221,0,0,1,.591-.642,3.224,3.224,0,0,1,1.787-.351,2.914,2.914,0,0,1,1.233.351,1.316,1.316,0,0,1,.517.469A.738.738,0,0,1,1119.132,1438.428Z" transform="translate(-1086.734 -1354.745)" fill="#cccccb"/>
      <path id="Path_90329" data-name="Path 90329" d="M1118.853,1438.432a1.317,1.317,0,0,1-.516.469,2.948,2.948,0,0,1-1.233.351v-2.443a2.934,2.934,0,0,1,1.233.352,1.318,1.318,0,0,1,.516.47A.736.736,0,0,1,1118.853,1438.432Z" transform="translate(-1086.456 -1354.74)" fill="#b6b6b6"/>
      <path id="Path_90330" data-name="Path 90330" d="M1112.285,1372.063,1099.4,1379.5a7.806,7.806,0,0,1-1.356.609,9.9,9.9,0,0,1-3.184.526,7.088,7.088,0,0,1-3.484-.8,2.472,2.472,0,0,1-1.365-1.781h-.023v-.089a2,2,0,0,1,.1-.774,9.186,9.186,0,0,1,2.5-5.122l1.626.385-.393,1.656,2.725-1.571,8.283-4.779a9.32,9.32,0,0,1,4.656-1.135l1.638-1.839a8.18,8.18,0,0,1,2.978,3.953.107.107,0,0,0,.028.089.441.441,0,0,1,.052.164h0C1114.447,1370.029,1113.8,1371.182,1112.285,1372.063Z" transform="translate(-1089.986 -1364.115)" fill="#c0bfbe"/>
      <path id="Path_90331" data-name="Path 90331" d="M1098.047,1379.259a9.9,9.9,0,0,1-3.184.525,7.1,7.1,0,0,1-3.484-.8,2.472,2.472,0,0,1-1.365-1.781h-.023v-.089a2,2,0,0,1,.1-.774,9.185,9.185,0,0,1,2.5-5.122l1.626.385-.393,1.656,2.725-1.571a11.974,11.974,0,0,1,.984,3.188A20.818,20.818,0,0,1,1098.047,1379.259Z" transform="translate(-1089.986 -1363.277)" fill="#cccccb"/>
      <path id="Path_90332" data-name="Path 90332" d="M1092.88,1375.269h0c-1.726-1-1.51-2.739.469-3.888l10.81-6.243a7.5,7.5,0,0,1,6.735-.281h0c1.725.995,1.51,2.734-.47,3.889l-10.809,6.242A7.5,7.5,0,0,1,1092.88,1375.269Z" transform="translate(-1089.761 -1364.192)" fill="#dbdbdb"/>
      <path id="Path_90333" data-name="Path 90333" d="M1121.145,1438.165a.883.883,0,0,1-.8,0,.244.244,0,0,1,0-.469.876.876,0,0,1,.8,0,.244.244,0,0,1,0,.469Z" transform="translate(-1086.057 -1354.637)" fill="#b6b6b6"/>
      <path id="Path_90334" data-name="Path 90334" d="M1117.436,1440.24a.877.877,0,0,1-.8,0,.244.244,0,0,1,0-.47.877.877,0,0,1,.8,0,.24.24,0,0,1,0,.47Z" transform="translate(-1086.539 -1354.367)" fill="#b6b6b6"/>
      <path id="Path_90335" data-name="Path 90335" d="M1113.7,1438.161a.873.873,0,0,1-.792,0,.239.239,0,0,1,0-.469.875.875,0,0,1,.792,0,.239.239,0,0,1,0,.469Z" transform="translate(-1087.027 -1354.637)" fill="#b6b6b6"/>
    </g>
    <path id="Trazado_117210" data-name="Trazado 117210" d="M1109.719,1371.225s-2.368,66.129,43.921,81.886" transform="translate(4.779 22.163)" fill="none" stroke="#001a2e" stroke-miterlimit="10" stroke-width="1"/>
    <path id="Trazado_117211" data-name="Trazado 117211" d="M1103.9,1374.581s4.052,58.471,50.341,74.228" transform="translate(4.024 22.6)" fill="none" stroke="#001a2e" stroke-miterlimit="10" stroke-width="1"/>
    <g id="Group_38308-2" data-name="Group 38308" transform="translate(1707.566 1385.439)">
      <path id="Path_90321-2" data-name="Path 90321" d="M1634.481,1438.3l5.961-3.441,5.965,3.441-5.965,3.443Z" transform="translate(-1634.481 -1354.994)" fill="#dbdbdb"/>
      <path id="Path_90322-2" data-name="Path 90322" d="M1645.72,1437.9v3.087l-5.965,3.441v-3.085Z" transform="translate(-1633.794 -1354.598)" fill="#cccccb"/>
      <path id="Path_90323-2" data-name="Path 90323" d="M1640.453,1441.34v3.085l-5.965-3.441V1437.9Z" transform="translate(-1634.48 -1354.598)" fill="#b6b6b6"/>
      <g id="Group_38307-2" data-name="Group 38307" transform="translate(3.881 0.998)">
        <path id="Path_90324-2" data-name="Path 90324" d="M1642.733,1366.644h0c.174-.116.351-.235.54-.338a12.189,12.189,0,0,1,12.4,1.027l11.827,6.824-1.073,1.875h0l-1.078-.624-9.666-5.576c-.21-.121-.422-.244-.633-.352a17.686,17.686,0,0,0-2.04-.937,11.026,11.026,0,0,0-9.731.267,12.217,12.217,0,0,0-5.314,11.254v-2.5A12.524,12.524,0,0,1,1642.733,1366.644Z" transform="translate(-1637.915 -1365.075)" fill="#cccccb"/>
      </g>
      <path id="Path_90325-2" data-name="Path 90325" d="M1637.963,1379.794a10.922,10.922,0,0,1,17.718-10.228l10.744,6.2-.98,1.7-11.823-6.829a8.369,8.369,0,0,0-8.283-1.026h0a3.257,3.257,0,0,0-.3.149,12.222,12.222,0,0,0-5.314,11.255v67.3a2.948,2.948,0,0,1-1.233-.352,1.339,1.339,0,0,1-.516-.469v-67.7Z" transform="translate(-1634.047 -1363.817)" fill="#b6b6b6"/>
      <path id="Path_90326-2" data-name="Path 90326" d="M1644.826,1369.5a2.279,2.279,0,0,1,.295-.15,8.381,8.381,0,0,0-3.231,7.668v70.027a1.209,1.209,0,0,1-.585.646,3.214,3.214,0,0,1-1.793.352v-67.3A12.193,12.193,0,0,1,1644.826,1369.5Z" transform="translate(-1633.833 -1363.521)" fill="#cccccb"/>
      <path id="Path_90327-2" data-name="Path 90327" d="M1642.74,1366.271a12.191,12.191,0,0,1,12.4,1.026l11.827,6.824L1665.9,1376l-1.084-.609a94.018,94.018,0,0,0-10.317-5.928c-.675-.323-1.355-.642-2.04-.938a15.673,15.673,0,0,0-10.27-1.875C1642.36,1366.535,1642.543,1366.417,1642.74,1366.271Z" transform="translate(-1633.478 -1364.082)" fill="#dbdbdb"/>
      <path id="Path_90328-2" data-name="Path 90328" d="M1637.971,1437.607a1.324,1.324,0,0,1,.516-.469,2.915,2.915,0,0,1,1.233-.351,3.224,3.224,0,0,1,1.787.351,1.216,1.216,0,0,1,.591.642.687.687,0,0,1,0,.47,1.191,1.191,0,0,1-.587.646,3.237,3.237,0,0,1-1.791.351,2.949,2.949,0,0,1-1.233-.351,1.324,1.324,0,0,1-.516-.469A.738.738,0,0,1,1637.971,1437.607Z" transform="translate(-1634.043 -1354.745)" fill="#cccccb"/>
      <path id="Path_90329-2" data-name="Path 90329" d="M1637.972,1437.631a1.325,1.325,0,0,1,.516-.47,2.933,2.933,0,0,1,1.233-.352v2.443a2.948,2.948,0,0,1-1.233-.351,1.323,1.323,0,0,1-.516-.469A.736.736,0,0,1,1637.972,1437.631Z" transform="translate(-1634.042 -1354.74)" fill="#b6b6b6"/>
      <path id="Path_90330-2" data-name="Path 90330" d="M1645.222,1368.991h0a.425.425,0,0,1,.051-.164.1.1,0,0,0,.029-.089,8.166,8.166,0,0,1,2.978-3.953l1.636,1.839a9.326,9.326,0,0,1,4.657,1.135l8.282,4.779,2.725,1.571-.393-1.656,1.627-.385a9.192,9.192,0,0,1,2.5,5.122,2,2,0,0,1,.1.774v.089h-.023a2.472,2.472,0,0,1-1.365,1.781,7.085,7.085,0,0,1-3.483.8,9.908,9.908,0,0,1-3.185-.526,7.832,7.832,0,0,1-1.355-.609l-12.884-7.438C1645.607,1371.182,1644.956,1370.029,1645.222,1368.991Z" transform="translate(-1633.091 -1364.115)" fill="#c0bfbe"/>
      <path id="Path_90331-2" data-name="Path 90331" d="M1660.005,1374.875a12.018,12.018,0,0,1,.984-3.188l2.725,1.571-.393-1.656,1.626-.385a9.186,9.186,0,0,1,2.5,5.122,2,2,0,0,1,.1.774v.089h-.023a2.472,2.472,0,0,1-1.365,1.781,7.1,7.1,0,0,1-3.483.8,9.908,9.908,0,0,1-3.185-.525A20.818,20.818,0,0,1,1660.005,1374.875Z" transform="translate(-1631.226 -1363.277)" fill="#cccccb"/>
      <path id="Path_90332-2" data-name="Path 90332" d="M1659.338,1374.987l-10.81-6.242c-1.979-1.155-2.195-2.894-.469-3.889h0a7.5,7.5,0,0,1,6.735.281l10.809,6.243c1.98,1.149,2.195,2.89.47,3.888h0A7.5,7.5,0,0,1,1659.338,1374.987Z" transform="translate(-1632.865 -1364.192)" fill="#dbdbdb"/>
      <path id="Path_90333-2" data-name="Path 90333" d="M1635.428,1438a.245.245,0,0,1,.168-.3.876.876,0,0,1,.8,0,.244.244,0,0,1,0,.469.883.883,0,0,1-.8,0A.245.245,0,0,1,1635.428,1438Z" transform="translate(-1634.359 -1354.637)" fill="#b6b6b6"/>
      <path id="Path_90334-2" data-name="Path 90334" d="M1639.119,1440.052a.241.241,0,0,1,.189-.281.877.877,0,0,1,.8,0,.244.244,0,0,1,0,.47.877.877,0,0,1-.8,0A.237.237,0,0,1,1639.119,1440.052Z" transform="translate(-1633.878 -1354.367)" fill="#b6b6b6"/>
      <path id="Path_90335-2" data-name="Path 90335" d="M1642.854,1437.972a.239.239,0,0,1,.189-.28.875.875,0,0,1,.792,0,.239.239,0,0,1,0,.469.873.873,0,0,1-.792,0A.237.237,0,0,1,1642.854,1437.972Z" transform="translate(-1633.392 -1354.637)" fill="#b6b6b6"/>
    </g>
    <path id="Trazado_117212" data-name="Trazado 117212" d="M1651.95,1371.225s2.368,66.129-43.92,81.886" transform="translate(69.642 22.163)" fill="none" stroke="#001a2e" stroke-miterlimit="10" stroke-width="1"/>
    <path id="Trazado_117213" data-name="Trazado 117213" d="M1658.5,1374.581s-4.052,58.471-50.341,74.228" transform="translate(69.66 22.6)" fill="none" stroke="#001a2e" stroke-miterlimit="10" stroke-width="1"/>
    <g id="evztuS-2" data-name="evztuS" transform="translate(1229.606 1249.011)">
      <g id="Grupo_54396" data-name="Grupo 54396">
        <path id="Trazado_117214" data-name="Trazado 117214" d="M1224.595,1267.911l41.414,41.44c-1.018.848-1.936,1.687-2.931,2.424a23.892,23.892,0,0,1-10.915,4.518,24.731,24.731,0,0,1-21.442-7.1c-2.506-2.531-5.043-5.033-7.488-7.621a20.486,20.486,0,0,1-3.367-5.141,24.738,24.738,0,0,1,4.446-28.292C1224.363,1268.085,1224.427,1268.044,1224.595,1267.911Z" transform="translate(-1210.826 -1254.988)" fill="#6e40fc"/>
        <path id="Trazado_117215" data-name="Trazado 117215" d="M1222.76,1297.767c1.234,1.158,2.51,2.292,3.71,3.5,2.272,2.284,4.5,4.605,6.738,6.927a2.471,2.471,0,0,1,.541.9q3.669,11.017,7.309,22.046c.076.229.146.462.251.793h-.615c-1.138,0-2.275-.018-3.412.014a.665.665,0,0,1-.783-.578c-1.844-6.225-3.755-12.431-5.545-18.67a7.146,7.146,0,0,0-2.321-3.688c-1.315-1.11-2.524-2.347-3.779-3.528-.109-.1-.225-.2-.4-.349-.132.358-.254.666-.358.979q-4.209,12.664-8.406,25.332c-.119.359-.262.512-.664.5-1.115-.031-2.232-.01-3.458-.01Q1217.207,1314.723,1222.76,1297.767Z" transform="translate(-1211.568 -1251.101)" fill="#001a2e"/>
        <path id="Trazado_117216" data-name="Trazado 117216" d="M1274.273,1278.773h-2.4a19.361,19.361,0,0,0-5.826-13.973,19.592,19.592,0,0,0-13.971-5.858v-2.466a22.247,22.247,0,0,1,22.2,22.3Z" transform="translate(-1206.296 -1256.476)" fill="url(#linear-gradient-6)"/>
        <path id="Trazado_117217" data-name="Trazado 117217" d="M1250.035,1295.028c-.814-.828-1.573-1.588-2.307-2.372-.071-.076-.022-.315.037-.452q3.292-7.612,6.6-15.217c.332-.765.656-1.532,1-2.292.073-.164.177-.375.322-.437,1.3-.545,2.616-1.06,4.078-1.644Z" transform="translate(-1206.866 -1254.375)" fill="url(#linear-gradient-6)"/>
        <path id="Trazado_117218" data-name="Trazado 117218" d="M1258.606,1270.281c-.5,1.271-.971,2.379-1.378,3.509a1.656,1.656,0,0,1-1.011,1.034q-8.553,3.678-17.082,7.408a.636.636,0,0,1-.838-.157c-.657-.677-1.345-1.325-2.11-2.073Z" transform="translate(-1208.364 -1254.679)" fill="url(#linear-gradient-6)"/>
        <path id="Trazado_117219" data-name="Trazado 117219" d="M1251.77,1263.288v-2.334a17.1,17.1,0,0,1,11.124,4.009,17.443,17.443,0,0,1,6.452,13.542h-2.36C1266.021,1269.344,1260.981,1264.287,1251.77,1263.288Z" transform="translate(-1206.335 -1255.893)" fill="url(#linear-gradient-6)"/>
        <path id="Trazado_117220" data-name="Trazado 117220" d="M1264.209,1277.379c-.773,0-1.471.026-2.165-.024-.121-.009-.3-.332-.314-.519a9.311,9.311,0,0,0-1.929-5.194,9.424,9.424,0,0,0-7.048-3.748c-.131-.009-.262-.031-.393-.047-.016,0-.03-.019-.079-.051v-2.379a11.99,11.99,0,0,1,11.929,11.962Z" transform="translate(-1206.269 -1255.312)" fill="url(#linear-gradient-6)"/>
      </g>
    </g>
    <path id="Trazado_117222" data-name="Trazado 117222" d="M1271.6,1260.267s121.377-119.954,241.331,0" transform="translate(25.852 -6)" fill="none" stroke="#001a2e" stroke-miterlimit="10" stroke-width="2" stroke-dasharray="4 1"/>
    <line id="Línea_1540" data-name="Línea 1540" x2="683.451" transform="translate(1072.985 1570.528)" fill="none" stroke="#12263f" stroke-miterlimit="10" stroke-width="2"/>
    <line id="Línea_1541" data-name="Línea 1541" y1="68.366" transform="translate(1414.71 1531.994)" fill="none" stroke="#12263f" stroke-miterlimit="10" stroke-width="2"/>
    <g id="Grupo_54407" data-name="Grupo 54407" transform="translate(1155.487 1322.179)">
      <path id="Trazado_117253" data-name="Trazado 117253" d="M-1420.293,861.55c.087-.626.171-.994.183-1.364.023-.761.007-1.524.007-2.559h-2.694q-11.551,0-23.1,0c-2.94-.006-4.632-1.393-4.647-3.737-.014-2.385,1.62-3.717,4.619-3.72,8.471-.008,16.941,0,25.829,0,0-1.025,0-1.912,0-2.8q0-9.217-.006-18.435c0-4.346,1.048-5.412,5.3-5.421,3.247-.007,6.493,0,9.995,0,0-3.648-.008-7.047,0-10.446.011-3.642,1.254-4.885,4.9-4.886q33.136,0,66.273,0c3.694,0,4.9,1.211,4.908,4.851,0,3.34,0,6.68,0,10.475,2.955,0,5.791,0,8.626,0,6.174.005,6.717.556,6.717,6.806,0,12.757.047,25.514-.05,38.27a4.716,4.716,0,0,0,2.107,4.259c4.959,3.75,9.791,7.668,14.738,11.435a5.284,5.284,0,0,1,2.275,4.555q-.03,48.771-.021,97.542c0,3.459-1.36,4.735-4.876,4.736q-80.858.008-161.715,0c-3.6,0-4.947-1.319-4.948-4.919q-.015-59.855,0-119.711c0-3.627,1.287-4.91,4.943-4.916q18.9-.031,37.8-.009Zm99.3-30.4h-91.426V964.394h26.721c0-4.778-.008-9.423,0-14.069.008-3.625,1.276-4.9,4.9-4.9q14.114-.013,28.228,0c3.514.005,4.737,1.245,4.755,4.769.015,3.11,0,6.221.005,9.332q0,2.407,0,4.811h26.813Zm-137.271,53.119v99.177h7.712v-2.985q0-33.84,0-67.679a12.535,12.535,0,0,1,.069-2.328,3.522,3.522,0,0,1,3.565-3.076,3.7,3.7,0,0,1,3.778,3.134,16.231,16.231,0,0,1,.046,2.33q0,33.956,0,67.913v2.688h7.833v-3.2q0-33.606,0-67.212a19.256,19.256,0,0,1,.072-2.563,3.3,3.3,0,0,1,3.062-3.02,3.277,3.277,0,0,1,3.915,2.178,10.72,10.72,0,0,1,.418,3.436q.031,34.073.016,68.146c0,.747.076,1.494.118,2.276h7.4V869.248h-37.991V876.8h2.67q13.3,0,26.6,0c3.136,0,4.923,1.336,4.981,3.682.062,2.475-1.672,3.784-5.044,3.786q-13.3.006-26.605,0Zm145.1-3.427V983.524h11.213c.057-.548.143-.995.143-1.441q.012-45.383-.028-90.766a3.169,3.169,0,0,0-.867-2.206C-1306.047,886.35-1309.5,883.716-1313.166,880.838Zm-42.245,102.731V953.041h-22.611v30.527Zm-41.817-160.276h60.845v-7.515h-60.845Zm49.555,160.195h26.585V972.144h-26.585Zm-64.768-.048h26.57V972.108h-26.57Z" transform="translate(1465.876 -808.171)" fill="#12263f"/>
      <path id="Trazado_117254" data-name="Trazado 117254" d="M-1450.113,901.9a3.721,3.721,0,0,1-3.679,3.692,3.754,3.754,0,0,1-3.727-3.9,3.694,3.694,0,0,1,3.818-3.54A3.626,3.626,0,0,1-1450.113,901.9Z" transform="translate(1461.421 -856.155)" fill="#12263f"/>
      <path id="Trazado_117255" data-name="Trazado 117255" d="M-1254.051,880.972c-2.4,0-4.536.058-6.668-.055a1.593,1.593,0,0,1-1.018-1.158c-.106-2.059-.048-4.125-.048-6.485,2.331,0,4.394-.087,6.438.066a1.937,1.937,0,0,1,1.236,1.395C-1253.962,876.648-1254.051,878.58-1254.051,880.972Z" transform="translate(1357.054 -842.873)" fill="#12263f"/>
      <path id="Trazado_117256" data-name="Trazado 117256" d="M-1261.46,971.6h7.446v7.437h-7.446Z" transform="translate(1356.872 -895.32)" fill="#12263f"/>
      <path id="Trazado_117257" data-name="Trazado 117257" d="M-1261.733,1077.083c0-2.412-.073-4.484.061-6.543a1.771,1.771,0,0,1,1.275-1.144c1.987-.128,3.987-.055,6.345-.055,0,2.4.056,4.6-.058,6.8-.018.335-.806.878-1.258.9C-1257.362,1077.139-1259.362,1077.083-1261.733,1077.083Z" transform="translate(1357.028 -947.427)" fill="#12263f"/>
      <path id="Trazado_117258" data-name="Trazado 117258" d="M-1326.9,881.075v-7.4h7.34v7.4Z" transform="translate(1391.769 -843.101)" fill="#12263f"/>
      <path id="Trazado_117259" data-name="Trazado 117259" d="M-1293.9,873.559h7.208v7.448h-7.208Z" transform="translate(1374.169 -843.039)" fill="#12263f"/>
      <path id="Trazado_117260" data-name="Trazado 117260" d="M-1228.762,881.2v-7.551h7.49c0,2.163.059,4.3-.052,6.418a1.592,1.592,0,0,1-1.109,1.082C-1224.5,881.259-1226.57,881.2-1228.762,881.2Z" transform="translate(1339.436 -843.086)" fill="#12263f"/>
      <path id="Trazado_117261" data-name="Trazado 117261" d="M-1195.935,881.006v-7.428h7.307v7.428Z" transform="translate(1321.931 -843.049)" fill="#12263f"/>
      <path id="Trazado_117262" data-name="Trazado 117262" d="M-1254.053,913.742h-7.408v-7.328h7.408Z" transform="translate(1356.872 -860.559)" fill="#12263f"/>
      <path id="Trazado_117263" data-name="Trazado 117263" d="M-1195.982,1069.6h7.307v7.487h-7.307Z" transform="translate(1321.956 -947.574)" fill="#12263f"/>
      <path id="Trazado_117264" data-name="Trazado 117264" d="M-1221.455,1077.219h-7.262v-7.447h7.262Z" transform="translate(1339.412 -947.668)" fill="#12263f"/>
      <path id="Trazado_117265" data-name="Trazado 117265" d="M-1253.971,946.538h-7.43v-7.294h7.43Z" transform="translate(1356.841 -878.065)" fill="#12263f"/>
      <path id="Trazado_117266" data-name="Trazado 117266" d="M-1293.856,1069.657h7.261v7.436h-7.261Z" transform="translate(1374.147 -947.607)" fill="#12263f"/>
      <path id="Trazado_117267" data-name="Trazado 117267" d="M-1326.771,1069.574h7.288v7.511h-7.288Z" transform="translate(1391.699 -947.563)" fill="#12263f"/>
      <path id="Trazado_117268" data-name="Trazado 117268" d="M-1326.63,971.567h7.2v7.46h-7.2Z" transform="translate(1391.624 -895.301)" fill="#12263f"/>
      <path id="Trazado_117269" data-name="Trazado 117269" d="M-1286.608,971.744v7.418h-7.315v-7.418Z" transform="translate(1374.183 -895.395)" fill="#12263f"/>
      <path id="Trazado_117270" data-name="Trazado 117270" d="M-1221.234,978.955h-7.475v-7.663c2.122,0,4.182-.073,6.231.058a1.763,1.763,0,0,1,1.188,1.231C-1221.161,974.64-1221.234,976.712-1221.234,978.955Z" transform="translate(1339.408 -895.143)" fill="#12263f"/>
      <path id="Trazado_117271" data-name="Trazado 117271" d="M-1188.664,979.142h-7.177v-7.526h7.177Z" transform="translate(1321.881 -895.327)" fill="#12263f"/>
      <path id="Trazado_117272" data-name="Trazado 117272" d="M-1261.467,1044.457v-7.314h7.442v7.314Z" transform="translate(1356.876 -930.269)" fill="#12263f"/>
      <path id="Trazado_117273" data-name="Trazado 117273" d="M-1254.053,1011.761h-7.406v-7.325h7.406Z" transform="translate(1356.871 -912.828)" fill="#12263f"/>
      <path id="Trazado_117274" data-name="Trazado 117274" d="M-1188.546,1037.257v7.266h-7.315v-7.266Z" transform="translate(1321.892 -930.33)" fill="#12263f"/>
      <path id="Trazado_117275" data-name="Trazado 117275" d="M-1286.731,1044.528h-7.226V1037.2h7.226Z" transform="translate(1374.201 -930.299)" fill="#12263f"/>
      <path id="Trazado_117276" data-name="Trazado 117276" d="M-1228.708,1037.028h7.268v7.391h-7.268Z" transform="translate(1339.407 -930.208)" fill="#12263f"/>
      <path id="Trazado_117277" data-name="Trazado 117277" d="M-1228.807,1011.714v-7.29h7.373v7.29Z" transform="translate(1339.46 -912.822)" fill="#12263f"/>
      <path id="Trazado_117278" data-name="Trazado 117278" d="M-1188.536,1004.491v7.229h-7.3v-7.229Z" transform="translate(1321.881 -912.857)" fill="#12263f"/>
      <path id="Trazado_117279" data-name="Trazado 117279" d="M-1286.641,1011.807h-7.222v-7.317h7.222Z" transform="translate(1374.151 -912.857)" fill="#12263f"/>
      <path id="Trazado_117280" data-name="Trazado 117280" d="M-1326.679,1037.123h7.291v7.323h-7.291Z" transform="translate(1391.65 -930.258)" fill="#12263f"/>
      <path id="Trazado_117281" data-name="Trazado 117281" d="M-1326.739,1004.357h7.313v7.316h-7.313Z" transform="translate(1391.682 -912.786)" fill="#12263f"/>
      <path id="Trazado_117282" data-name="Trazado 117282" d="M-1188.629,946.495h-7.308v-7.342h7.308Z" transform="translate(1321.932 -878.016)" fill="#12263f"/>
      <path id="Trazado_117283" data-name="Trazado 117283" d="M-1221.348,946.516h-7.3V939.13h7.3Z" transform="translate(1339.373 -878.004)" fill="#12263f"/>
      <path id="Trazado_117284" data-name="Trazado 117284" d="M-1293.8,939.136h7.165v7.353h-7.165Z" transform="translate(1374.119 -878.007)" fill="#12263f"/>
      <path id="Trazado_117285" data-name="Trazado 117285" d="M-1319.394,939.237v7.293h-7.357v-7.293Z" transform="translate(1391.688 -878.061)" fill="#12263f"/>
      <path id="Trazado_117286" data-name="Trazado 117286" d="M-1195.913,913.709v-7.3h7.287v7.3Z" transform="translate(1321.92 -860.554)" fill="#12263f"/>
      <path id="Trazado_117287" data-name="Trazado 117287" d="M-1221.3,913.791h-7.341V906.5h7.341Z" transform="translate(1339.373 -860.603)" fill="#12263f"/>
      <path id="Trazado_117288" data-name="Trazado 117288" d="M-1293.9,906.3h7.249v7.333h-7.249Z" transform="translate(1374.168 -860.498)" fill="#12263f"/>
      <path id="Trazado_117289" data-name="Trazado 117289" d="M-1319.371,906.433v7.278h-7.36v-7.278Z" transform="translate(1391.677 -860.569)" fill="#12263f"/>
    </g>
    <g id="Grupo_54408" data-name="Grupo 54408" transform="translate(1508.312 1322.179)">
      <path id="Trazado_117253-2" data-name="Trazado 117253" d="M-1420.293,861.55c.087-.626.171-.994.183-1.364.023-.761.007-1.524.007-2.559h-2.694q-11.551,0-23.1,0c-2.94-.006-4.632-1.393-4.647-3.737-.014-2.385,1.62-3.717,4.619-3.72,8.471-.008,16.941,0,25.829,0,0-1.025,0-1.912,0-2.8q0-9.217-.006-18.435c0-4.346,1.048-5.412,5.3-5.421,3.247-.007,6.493,0,9.995,0,0-3.648-.008-7.047,0-10.446.011-3.642,1.254-4.885,4.9-4.886q33.136,0,66.273,0c3.694,0,4.9,1.211,4.908,4.851,0,3.34,0,6.68,0,10.475,2.955,0,5.791,0,8.626,0,6.174.005,6.717.556,6.717,6.806,0,12.757.047,25.514-.05,38.27a4.716,4.716,0,0,0,2.107,4.259c4.959,3.75,9.791,7.668,14.738,11.435a5.284,5.284,0,0,1,2.275,4.555q-.03,48.771-.021,97.542c0,3.459-1.36,4.735-4.876,4.736q-80.858.008-161.715,0c-3.6,0-4.947-1.319-4.948-4.919q-.015-59.855,0-119.711c0-3.627,1.287-4.91,4.943-4.916q18.9-.031,37.8-.009Zm99.3-30.4h-91.426V964.394h26.721c0-4.778-.008-9.423,0-14.069.008-3.625,1.276-4.9,4.9-4.9q14.114-.013,28.228,0c3.514.005,4.737,1.245,4.755,4.769.015,3.11,0,6.221.005,9.332q0,2.407,0,4.811h26.813Zm-137.271,53.119v99.177h7.712v-2.985q0-33.84,0-67.679a12.535,12.535,0,0,1,.069-2.328,3.522,3.522,0,0,1,3.565-3.076,3.7,3.7,0,0,1,3.778,3.134,16.231,16.231,0,0,1,.046,2.33q0,33.956,0,67.913v2.688h7.833v-3.2q0-33.606,0-67.212a19.256,19.256,0,0,1,.072-2.563,3.3,3.3,0,0,1,3.062-3.02,3.277,3.277,0,0,1,3.915,2.178,10.72,10.72,0,0,1,.418,3.436q.031,34.073.016,68.146c0,.747.076,1.494.118,2.276h7.4V869.248h-37.991V876.8h2.67q13.3,0,26.6,0c3.136,0,4.923,1.336,4.981,3.682.062,2.475-1.672,3.784-5.044,3.786q-13.3.006-26.605,0Zm145.1-3.427V983.524h11.213c.057-.548.143-.995.143-1.441q.012-45.383-.028-90.766a3.169,3.169,0,0,0-.867-2.206C-1306.047,886.35-1309.5,883.716-1313.166,880.838Zm-42.245,102.731V953.041h-22.611v30.527Zm-41.817-160.276h60.845v-7.515h-60.845Zm49.555,160.195h26.585V972.144h-26.585Zm-64.768-.048h26.57V972.108h-26.57Z" transform="translate(1465.876 -808.171)" fill="#12263f"/>
      <path id="Trazado_117254-2" data-name="Trazado 117254" d="M-1450.113,901.9a3.721,3.721,0,0,1-3.679,3.692,3.754,3.754,0,0,1-3.727-3.9,3.694,3.694,0,0,1,3.818-3.54A3.626,3.626,0,0,1-1450.113,901.9Z" transform="translate(1461.421 -856.155)" fill="#12263f"/>
      <path id="Trazado_117255-2" data-name="Trazado 117255" d="M-1254.051,880.972c-2.4,0-4.536.058-6.668-.055a1.593,1.593,0,0,1-1.018-1.158c-.106-2.059-.048-4.125-.048-6.485,2.331,0,4.394-.087,6.438.066a1.937,1.937,0,0,1,1.236,1.395C-1253.962,876.648-1254.051,878.58-1254.051,880.972Z" transform="translate(1357.054 -842.873)" fill="#12263f"/>
      <path id="Trazado_117256-2" data-name="Trazado 117256" d="M-1261.46,971.6h7.446v7.437h-7.446Z" transform="translate(1356.872 -895.32)" fill="#12263f"/>
      <path id="Trazado_117257-2" data-name="Trazado 117257" d="M-1261.733,1077.083c0-2.412-.073-4.484.061-6.543a1.771,1.771,0,0,1,1.275-1.144c1.987-.128,3.987-.055,6.345-.055,0,2.4.056,4.6-.058,6.8-.018.335-.806.878-1.258.9C-1257.362,1077.139-1259.362,1077.083-1261.733,1077.083Z" transform="translate(1357.028 -947.427)" fill="#12263f"/>
      <path id="Trazado_117258-2" data-name="Trazado 117258" d="M-1326.9,881.075v-7.4h7.34v7.4Z" transform="translate(1391.769 -843.101)" fill="#12263f"/>
      <path id="Trazado_117259-2" data-name="Trazado 117259" d="M-1293.9,873.559h7.208v7.448h-7.208Z" transform="translate(1374.169 -843.039)" fill="#12263f"/>
      <path id="Trazado_117260-2" data-name="Trazado 117260" d="M-1228.762,881.2v-7.551h7.49c0,2.163.059,4.3-.052,6.418a1.592,1.592,0,0,1-1.109,1.082C-1224.5,881.259-1226.57,881.2-1228.762,881.2Z" transform="translate(1339.436 -843.086)" fill="#12263f"/>
      <path id="Trazado_117261-2" data-name="Trazado 117261" d="M-1195.935,881.006v-7.428h7.307v7.428Z" transform="translate(1321.931 -843.049)" fill="#12263f"/>
      <path id="Trazado_117262-2" data-name="Trazado 117262" d="M-1254.053,913.742h-7.408v-7.328h7.408Z" transform="translate(1356.872 -860.559)" fill="#12263f"/>
      <path id="Trazado_117263-2" data-name="Trazado 117263" d="M-1195.982,1069.6h7.307v7.487h-7.307Z" transform="translate(1321.956 -947.574)" fill="#12263f"/>
      <path id="Trazado_117264-2" data-name="Trazado 117264" d="M-1221.455,1077.219h-7.262v-7.447h7.262Z" transform="translate(1339.412 -947.668)" fill="#12263f"/>
      <path id="Trazado_117265-2" data-name="Trazado 117265" d="M-1253.971,946.538h-7.43v-7.294h7.43Z" transform="translate(1356.841 -878.065)" fill="#12263f"/>
      <path id="Trazado_117266-2" data-name="Trazado 117266" d="M-1293.856,1069.657h7.261v7.436h-7.261Z" transform="translate(1374.147 -947.607)" fill="#12263f"/>
      <path id="Trazado_117267-2" data-name="Trazado 117267" d="M-1326.771,1069.574h7.288v7.511h-7.288Z" transform="translate(1391.699 -947.563)" fill="#12263f"/>
      <path id="Trazado_117268-2" data-name="Trazado 117268" d="M-1326.63,971.567h7.2v7.46h-7.2Z" transform="translate(1391.624 -895.301)" fill="#12263f"/>
      <path id="Trazado_117269-2" data-name="Trazado 117269" d="M-1286.608,971.744v7.418h-7.315v-7.418Z" transform="translate(1374.183 -895.395)" fill="#12263f"/>
      <path id="Trazado_117270-2" data-name="Trazado 117270" d="M-1221.234,978.955h-7.475v-7.663c2.122,0,4.182-.073,6.231.058a1.763,1.763,0,0,1,1.188,1.231C-1221.161,974.64-1221.234,976.712-1221.234,978.955Z" transform="translate(1339.408 -895.143)" fill="#12263f"/>
      <path id="Trazado_117271-2" data-name="Trazado 117271" d="M-1188.664,979.142h-7.177v-7.526h7.177Z" transform="translate(1321.881 -895.327)" fill="#12263f"/>
      <path id="Trazado_117272-2" data-name="Trazado 117272" d="M-1261.467,1044.457v-7.314h7.442v7.314Z" transform="translate(1356.876 -930.269)" fill="#12263f"/>
      <path id="Trazado_117273-2" data-name="Trazado 117273" d="M-1254.053,1011.761h-7.406v-7.325h7.406Z" transform="translate(1356.871 -912.828)" fill="#12263f"/>
      <path id="Trazado_117274-2" data-name="Trazado 117274" d="M-1188.546,1037.257v7.266h-7.315v-7.266Z" transform="translate(1321.892 -930.33)" fill="#12263f"/>
      <path id="Trazado_117275-2" data-name="Trazado 117275" d="M-1286.731,1044.528h-7.226V1037.2h7.226Z" transform="translate(1374.201 -930.299)" fill="#12263f"/>
      <path id="Trazado_117276-2" data-name="Trazado 117276" d="M-1228.708,1037.028h7.268v7.391h-7.268Z" transform="translate(1339.407 -930.208)" fill="#12263f"/>
      <path id="Trazado_117277-2" data-name="Trazado 117277" d="M-1228.807,1011.714v-7.29h7.373v7.29Z" transform="translate(1339.46 -912.822)" fill="#12263f"/>
      <path id="Trazado_117278-2" data-name="Trazado 117278" d="M-1188.536,1004.491v7.229h-7.3v-7.229Z" transform="translate(1321.881 -912.857)" fill="#12263f"/>
      <path id="Trazado_117279-2" data-name="Trazado 117279" d="M-1286.641,1011.807h-7.222v-7.317h7.222Z" transform="translate(1374.151 -912.857)" fill="#12263f"/>
      <path id="Trazado_117280-2" data-name="Trazado 117280" d="M-1326.679,1037.123h7.291v7.323h-7.291Z" transform="translate(1391.65 -930.258)" fill="#12263f"/>
      <path id="Trazado_117281-2" data-name="Trazado 117281" d="M-1326.739,1004.357h7.313v7.316h-7.313Z" transform="translate(1391.682 -912.786)" fill="#12263f"/>
      <path id="Trazado_117282-2" data-name="Trazado 117282" d="M-1188.629,946.495h-7.308v-7.342h7.308Z" transform="translate(1321.932 -878.016)" fill="#12263f"/>
      <path id="Trazado_117283-2" data-name="Trazado 117283" d="M-1221.348,946.516h-7.3V939.13h7.3Z" transform="translate(1339.373 -878.004)" fill="#12263f"/>
      <path id="Trazado_117284-2" data-name="Trazado 117284" d="M-1293.8,939.136h7.165v7.353h-7.165Z" transform="translate(1374.119 -878.007)" fill="#12263f"/>
      <path id="Trazado_117285-2" data-name="Trazado 117285" d="M-1319.394,939.237v7.293h-7.357v-7.293Z" transform="translate(1391.688 -878.061)" fill="#12263f"/>
      <path id="Trazado_117286-2" data-name="Trazado 117286" d="M-1195.913,913.709v-7.3h7.287v7.3Z" transform="translate(1321.92 -860.554)" fill="#12263f"/>
      <path id="Trazado_117287-2" data-name="Trazado 117287" d="M-1221.3,913.791h-7.341V906.5h7.341Z" transform="translate(1339.373 -860.603)" fill="#12263f"/>
      <path id="Trazado_117288-2" data-name="Trazado 117288" d="M-1293.9,906.3h7.249v7.333h-7.249Z" transform="translate(1374.168 -860.498)" fill="#12263f"/>
      <path id="Trazado_117289-2" data-name="Trazado 117289" d="M-1319.371,906.433v7.278h-7.36v-7.278Z" transform="translate(1391.677 -860.569)" fill="#12263f"/>
    </g>
  </g>
</svg>
