<svg xmlns="http://www.w3.org/2000/svg" width="610" height="236.576" viewBox="0 0 610 236.576">
  <g id="Grupo_1094402" data-name="Grupo 1094402" transform="translate(-495 -19347.424)">
    <g id="Grupo_1094370" data-name="Grupo 1094370" transform="translate(0 -10)">
      <rect id="Rectángulo_29267" data-name="Rectángulo 29267" width="83.376" height="62.234" transform="translate(556.049 19390.447)" fill="#e9e2ff"/>
      <line id="Línea_1603" data-name="Línea 1603" x2="251.289" transform="translate(639.425 19402.549)" fill="none" stroke="#12263f" stroke-miterlimit="10" stroke-width="6"/>
      <line id="Línea_1604" data-name="Línea 1604" x2="251.289" transform="translate(639.425 19438.852)" fill="none" stroke="#12263f" stroke-miterlimit="10" stroke-width="6"/>
      <circle id="Elipse_3962" data-name="Elipse 3962" cx="8.644" cy="8.644" r="8.644" transform="translate(883.943 19393.904)" fill="#12263f"/>
      <circle id="Elipse_3963" data-name="Elipse 3963" cx="8.644" cy="8.644" r="8.644" transform="translate(883.943 19430.209)" fill="#12263f"/>
      <line id="Línea_1605" data-name="Línea 1605" y1="43.218" x2="35.583" transform="translate(892.586 19359.33)" fill="none" stroke="#12263f" stroke-miterlimit="10" stroke-width="6"/>
      <line id="Línea_1606" data-name="Línea 1606" x1="35.583" y1="43.218" transform="translate(892.586 19438.707)" fill="none" stroke="#12263f" stroke-miterlimit="10" stroke-width="6"/>
      <path id="Trazado_117686" data-name="Trazado 117686" d="M-1064.451,176.976a14.5,14.5,0,0,1-2.945-2.51c-.928-1.347-.421-2.8.4-4.218,2.661-4.6,5.814-9.027,7.711-13.935,8.776-22.716,5.721-44.013-8.545-63.721-.441-.608-.964-1.158-1.393-1.774a3.806,3.806,0,0,1,.63-5.381,3.639,3.639,0,0,1,5.343.69c2.918,4.141,6.131,8.187,8.318,12.714,12.638,26.162,10.834,51.4-5.54,75.5A5.166,5.166,0,0,1-1064.451,176.976Z" transform="translate(2011.516 19288.625)" fill="#ccbcfe"/>
      <path id="Trazado_117687" data-name="Trazado 117687" d="M-1069.307,161.433a14.113,14.113,0,0,1-3.013-2.463c-.934-1.327-.608-2.866.372-4.21a46.528,46.528,0,0,0,7.53-15.276c4.4-16.234,1.4-31.034-8.707-44.457a6.486,6.486,0,0,1-1.267-3.553,3.2,3.2,0,0,1,2.6-3.085,3.71,3.71,0,0,1,4.182,1.374,52.9,52.9,0,0,1,9.276,16.27q9.591,27.648-6.591,52.077C-1066.417,160.352-1067.462,161.042-1069.307,161.433Z" transform="translate(2003.973 19294.928)" fill="#ccbcfe"/>
      <path id="Trazado_117688" data-name="Trazado 117688" d="M-1062.091,118c-.027,10.732-2.513,18.626-7.346,25.795-.279.416-.577.821-.893,1.21-1.541,1.889-3.7,2.225-5.466.865a3.766,3.766,0,0,1-.671-5.373,34.546,34.546,0,0,0,5.994-13.48,34.478,34.478,0,0,0-6.919-28.869c-1.322-1.711-1.451-3.547-.381-5.028a3.662,3.662,0,0,1,4.355-1.292,6.042,6.042,0,0,1,2.141,1.744C-1065.154,101.337-1062.121,110.186-1062.091,118Z" transform="translate(1996.858 19300.73)" fill="#ccbcfe"/>
      <path id="Trazado_117689" data-name="Trazado 117689" d="M-1069.176,114.351a27.738,27.738,0,0,1-5.2,16.39c-1.568,2.209-3.753,2.707-5.658,1.344-1.842-1.319-2.1-3.46-.687-5.655,5.441-8.436,5.25-16.937-.561-25.042-1.612-2.25-1.484-4.412.348-5.825s4.179-.906,5.854,1.306A28.259,28.259,0,0,1-1069.176,114.351Z" transform="translate(1990.049 19306.334)" fill="#ccbcfe"/>
      <text id="Generador" transform="translate(541 19571.082)" fill="#12263f" font-size="18" font-family="Roboto-Black, Roboto" font-weight="800"><tspan x="0" y="0">Generador</tspan></text>
      <path id="Trazado_117690" data-name="Trazado 117690" d="M-1194.757,200.1c.011-.192.027-.383.027-.572,0-7.563,0-47.968,0-55.531v-.684h-9.862l17.868-27.829,17.841,27.785h-9.791c-.019.227-.041.391-.041.558,0,7.694,0,48.234,0,55.931,0,.112.016.227.025.342Z" transform="translate(1777.804 19342.311)" fill="#12263f"/>
      <text id="Onda_guiada" data-name="Onda guiada" transform="translate(692.179 19571.082)" fill="#12263f" font-size="18" font-family="Roboto-Black, Roboto" font-weight="800"><tspan x="0" y="0">Onda guiada</tspan></text>
      <path id="Trazado_117691" data-name="Trazado 117691" d="M-1137.178,200.1c.011-.192.028-.383.028-.572,0-7.563,0-47.968,0-55.531v-.684h-9.862l17.868-27.829,17.841,27.785h-9.791c-.019.227-.041.391-.041.558,0,7.694,0,48.234,0,55.931,0,.112.019.227.027.342Z" transform="translate(1877.827 19342.311)" fill="#12263f"/>
      <text id="Antena" transform="translate(866.868 19571.082)" fill="#12263f" font-size="18" font-family="Roboto-Black, Roboto" font-weight="800"><tspan x="0" y="0">Antena</tspan></text>
      <path id="Trazado_117692" data-name="Trazado 117692" d="M-1081.7,200.1c.011-.192.027-.383.027-.572,0-7.563,0-47.968,0-55.531v-.684h-9.862l17.868-27.829,17.84,27.785h-9.791c-.016.227-.041.391-.041.558,0,7.694,0,48.234,0,55.931,0,.112.017.227.028.342Z" transform="translate(1974.195 19342.311)" fill="#12263f"/>
      <text id="Onda_libre" data-name="Onda libre" transform="translate(975.122 19421.404)" fill="#12263f" font-size="18" font-family="Roboto-Black, Roboto" font-weight="800"><tspan x="0" y="0">Onda libre</tspan></text>
      <rect id="Rectángulo_387571" data-name="Rectángulo 387571" width="610" height="229" transform="translate(495 19365)" fill="none"/>
    </g>
    <path id="Trazado_836678" data-name="Trazado 836678" d="M0,252Z" fill="none" stroke="#6e40fc" stroke-width="1"/>
  </g>
</svg>
