<svg xmlns="http://www.w3.org/2000/svg" xmlns:xlink="http://www.w3.org/1999/xlink" width="100" height="100" viewBox="0 0 100 100">
  <defs>
    <clipPath id="clip-path">
      <rect id="Rectángulo_387595" data-name="Rectángulo 387595" width="65.938" height="56.52" fill="#6e40fc"/>
    </clipPath>
  </defs>
  <g id="Grupo_1094409" data-name="Grupo 1094409" transform="translate(-1065 -9498)">
    <circle id="Elipse_11053" data-name="Elipse 11053" cx="50" cy="50" r="50" transform="translate(1065 9498)" fill="#e9e2ff"/>
    <g id="Grupo_1094395" data-name="Grupo 1094395" transform="translate(1082.03 9517.276)">
      <g id="Grupo_1094392" data-name="Grupo 1094392" transform="translate(0 0)" clip-path="url(#clip-path)">
        <path id="Trazado_836677" data-name="Trazado 836677" d="M43.711,36.906c-.758,1.214-1.48,2.634-2.244,4.138-2.218,4.365-4.734,9.313-8.5,9.313a5.9,5.9,0,0,1-5.89-5.89c0-3.765,4.948-6.279,9.313-8.5,1.5-.764,2.923-1.485,4.137-2.244L49,28.434ZM52.1,25.341a.807.807,0,0,0-.995-.114L39.677,32.36c-1.154.721-2.544,1.428-4.014,2.174-4.778,2.429-10.192,5.18-10.192,9.933a7.507,7.507,0,0,0,7.5,7.5c4.751,0,7.5-5.416,9.933-10.192.748-1.47,1.453-2.858,2.174-4.014L52.21,26.335a.8.8,0,0,0-.114-.994M32.969,46.151a1.686,1.686,0,1,1,1.686-1.686,1.688,1.688,0,0,1-1.686,1.686m0-4.979a3.294,3.294,0,1,0,3.294,3.294,3.3,3.3,0,0,0-3.294-3.294m27.361-8.2a27.272,27.272,0,0,0-7.922-19.235.715.715,0,0,0-.2-.2,27.31,27.31,0,0,0-38.469,0,.827.827,0,0,0-.113.091.7.7,0,0,0-.091.112,27.336,27.336,0,0,0-.468,38l-2.83,2.83a31.361,31.361,0,1,1,54.1-21.6,31.147,31.147,0,0,1-8.624,21.6l-2.83-2.831A27.168,27.168,0,0,0,60.33,32.97M56.282,9.657A32.97,32.97,0,0,0,9.656,56.283a.807.807,0,0,0,1.138,0v0l3.965-3.964,3.157-3.158a.8.8,0,0,0-1.138-1.136L14.2,50.6A25.563,25.563,0,0,1,7.229,33.774h3.648a.8.8,0,1,0,0-1.608H7.231a25.658,25.658,0,0,1,6.978-16.818l2.571,2.571a.8.8,0,1,0,1.136-1.138L15.346,14.21A25.655,25.655,0,0,1,32.164,7.231v3.647a.8.8,0,0,0,1.608,0V7.231A25.661,25.661,0,0,1,50.591,14.21L48.02,16.78a.8.8,0,1,0,1.137,1.138l2.571-2.571a25.655,25.655,0,0,1,6.978,16.818H55.058a.8.8,0,1,0,0,1.608h3.648A25.553,25.553,0,0,1,51.735,50.6l-2.578-2.579a.8.8,0,0,0-1.138,1.136l7.123,7.124h0a.8.8,0,0,0,1.137,0,32.967,32.967,0,0,0,0-46.627" transform="translate(0 0)" fill="#6e40fc"/>
      </g>
    </g>
  </g>
</svg>
