<svg xmlns="http://www.w3.org/2000/svg" xmlns:xlink="http://www.w3.org/1999/xlink" width="400" height="331" viewBox="0 0 400 331">
  <defs>
    <linearGradient id="linear-gradient" x1="0.5" x2="0.5" y2="1" gradientUnits="objectBoundingBox">
      <stop offset="0" stop-color="#fff"/>
      <stop offset="1" stop-color="#d2e6ee"/>
    </linearGradient>
  </defs>
  <g id="Grupo_1094383" data-name="Grupo 1094383" transform="translate(-180 -6140)">
    <rect id="Rectángulo_387586" data-name="Rectángulo 387586" width="400" height="331" rx="8" transform="translate(180 6140)" fill="#d3dfff"/>
    <g id="Grupo_54588" data-name="Grupo 54588" transform="translate(-514.562 -246.944)">
      <g id="Grupo_39387" data-name="Grupo 39387" transform="translate(777 6413.194)">
        <g id="Shadows" transform="translate(0 135.918)">
          <path id="Shadow" d="M154.492,373.555,64.357,321.479c-3.516-2.03-3.516-5.352,0-7.382L210.3,229.776a5.841,5.841,0,0,1,5.265,0l92.346,53.357a2.786,2.786,0,0,1,0,4.826l-148.154,85.6A5.84,5.84,0,0,1,154.492,373.555Z" transform="translate(-61.72 -229.149)" fill="#fee0e7"/>
        </g>
        <g id="Device" transform="translate(1.967 0)">
          <g id="Laptop" transform="translate(0)">
            <g id="Grupo_39336" data-name="Grupo 39336" transform="translate(5.264 130.04)">
              <path id="Trazado_92041" data-name="Trazado 92041" d="M73.1,308.512a7.906,7.906,0,0,0,3.687,6.122l80.271,46.354a8.152,8.152,0,0,0,7.374,0L305.78,279.38a6.927,6.927,0,0,0,0-12.245l-80.271-46.353a8.147,8.147,0,0,0-7.374,0L76.786,302.389A7.905,7.905,0,0,0,73.1,308.512Z" transform="translate(-73.098 -219.901)" fill="url(#linear-gradient)"/>
              <path id="Trazado_92042" data-name="Trazado 92042" d="M359.715,300.606a7.905,7.905,0,0,1-3.689,6.121L214.675,388.339a7.6,7.6,0,0,1-3.682.879v-7.985a7.531,7.531,0,0,0,3.682-.885l141.351-81.605c1.784-1.028,2.006-2.618.669-3.788A7.912,7.912,0,0,1,359.715,300.606Z" transform="translate(-123.343 -247.248)" fill="#00223d"/>
              <path id="Trazado_92043" data-name="Trazado 92043" d="M160.746,401.313v7.978a7.51,7.51,0,0,1-3.687-.877L76.784,362.059a6.9,6.9,0,0,1-.374-12.006c-1.652,1.184-1.524,2.921.374,4.019l80.275,46.356A7.514,7.514,0,0,0,160.746,401.313Z" transform="translate(-73.097 -267.324)" fill="#00223d"/>
            </g>
            <g id="Grupo_39337" data-name="Grupo 39337">
              <path id="Trazado_92044" data-name="Trazado 92044" d="M66.622,227.977c-1.8-1.271-1.806-2.965-1.806-5.316V103.877A8.151,8.151,0,0,1,68.5,97.491L209.851,15.884c2.036-1.175,3.914-.324,5.825.779s3.128,2.054,3.128,4.406V139.852a8.151,8.151,0,0,1-3.687,6.386L73.767,227.845C70.685,229.924,68.584,229.361,66.622,227.977Z" transform="translate(-64.815 -15.316)" fill="url(#linear-gradient)"/>
              <path id="Trazado_92045" data-name="Trazado 92045" d="M73.768,276.534c-3.082,2.075-5.187,1.513-7.145.128-1.8-1.269-1.806-2.966-1.806-5.314V152.566a7.593,7.593,0,0,1,1.074-3.63L71.157,152a7.474,7.474,0,0,0-1.074,3.618V274.4C70.083,276.753,71.73,277.705,73.768,276.534Z" transform="translate(-64.816 -64.003)" fill="#00223d"/>
              <path id="Trazado_92046" data-name="Trazado 92046" d="M219.422,21.064c0-2.347-1.653-3.3-3.688-2.128L74.383,100.548a7.485,7.485,0,0,0-2.6,2.756l-5.261-3.06H66.51a7.568,7.568,0,0,1,2.611-2.757L210.466,15.882c2.036-1.177,3.914-.325,5.824.779S219.422,18.718,219.422,21.064Z" transform="translate(-65.433 -15.316)" fill="#00223d"/>
            </g>
            <g id="Grupo_39338" data-name="Grupo 39338" transform="translate(8.723 10.522)">
              <path id="Trazado_92047" data-name="Trazado 92047" d="M80.751,110.831,217.03,32.171c1.222-.706,2.213-.133,2.213,1.278V142.4a4.891,4.891,0,0,1-2.213,3.832L80.751,224.889c-1.222.706-2.212.133-2.212-1.277V114.663A4.889,4.889,0,0,1,80.751,110.831Z" transform="translate(-78.539 -31.869)" fill="#00223d"/>
              <path id="Trazado_92048" data-name="Trazado 92048" d="M80.751,111.269a4.889,4.889,0,0,0-2.212,3.832V223.393l135.476-78.2a4.89,4.89,0,0,0,2.213-3.832V33.072Z" transform="translate(-78.539 -32.307)" fill="url(#linear-gradient)"/>
            </g>
            <path id="Trazado_92050" data-name="Trazado 92050" d="M94.513,306.344l131.2-75.749a4.079,4.079,0,0,1,3.687,0l3.817,2.005a1.124,1.124,0,0,1,0,2.129L102,310.466a4.078,4.078,0,0,1-3.687,0l-3.8-1.993A1.124,1.124,0,0,1,94.513,306.344Z" transform="translate(-75.358 -93.597)" fill="#37474f"/>
            <g id="Grupo_39339" data-name="Grupo 39339" transform="translate(28.58 142.615)">
              <path id="Trazado_92051" data-name="Trazado 92051" d="M110.645,315.936l131.2-75.75a3.76,3.76,0,0,1,3.369-.184l34.15,19.717c.842.486.7,1.357-.318,1.945L148,337.311a3.78,3.78,0,0,1-3.373.189L110.33,317.875C109.486,317.392,109.626,316.523,110.645,315.936Z" transform="translate(-109.778 -239.685)" fill="#263238"/>
              <path id="Trazado_92052" data-name="Trazado 92052" d="M224.986,273.38l4.108-2.371c.175-.1.2-.25.057-.332l-3.624-2.092a.642.642,0,0,0-.575.033l-4.108,2.372c-.175.1-.2.249-.057.332l3.624,2.092A.642.642,0,0,0,224.986,273.38Zm-5.732-8.053-4.108,2.372c-.174.1-.2.25-.057.332l3.624,2.092a.642.642,0,0,0,.575-.033l4.108-2.372c.175-.1.2-.25.058-.332l-3.624-2.092A.642.642,0,0,0,219.254,265.327Zm-13.272,7.662L199.03,277c-.174.1-.2.249-.057.331l3.624,2.092a.643.643,0,0,0,.575-.033l6.952-4.013c.174-.1.2-.25.057-.332l-3.624-2.092A.642.642,0,0,0,205.982,272.99Zm7.268-4.2-4.109,2.372c-.174.1-.2.249-.057.332l3.624,2.092a.64.64,0,0,0,.575-.033l4.108-2.372c.174-.1.2-.249.057-.332l-3.624-2.092A.64.64,0,0,0,213.251,268.794Zm-16.116,9.3-4.108,2.372c-.175.1-.2.249-.057.332l3.624,2.092a.644.644,0,0,0,.575-.033l4.108-2.372c.174-.1.2-.249.057-.332l-3.624-2.092A.643.643,0,0,0,197.135,278.1Zm-6,3.467-4.108,2.372c-.175.1-.2.25-.057.332l3.624,2.092a.644.644,0,0,0,.575-.033l4.107-2.372c.175-.1.2-.249.057-.332l-3.624-2.092A.643.643,0,0,0,191.131,281.565Zm15.223,9.154,4.108-2.372c.174-.1.2-.25.057-.332l-3.624-2.092a.64.64,0,0,0-.575.033l-4.108,2.371c-.175.1-.2.25-.057.332l3.624,2.092A.641.641,0,0,0,206.353,290.718Zm-6,3.466,4.108-2.372c.174-.1.2-.249.057-.332l-3.623-2.092a.642.642,0,0,0-.575.033l-4.107,2.371c-.175.1-.2.249-.058.332l3.624,2.092A.644.644,0,0,0,200.35,294.184Zm-6,3.467,4.108-2.371c.175-.1.2-.249.057-.332l-3.624-2.092a.643.643,0,0,0-.575.033L190.2,295.26c-.175.1-.2.25-.057.332l3.624,2.092A.642.642,0,0,0,194.346,297.651Zm-6,3.466,4.108-2.371c.175-.1.2-.249.057-.332l-3.624-2.092a.641.641,0,0,0-.575.033l-4.108,2.372c-.174.1-.2.249-.057.332l3.624,2.092A.64.64,0,0,0,188.342,301.117Zm30.641-24.27,4.107-2.372c.175-.1.2-.249.057-.332l-3.624-2.092a.641.641,0,0,0-.574.033l-4.108,2.372c-.175.1-.2.249-.058.332l3.624,2.092A.644.644,0,0,0,218.983,276.847Zm-6.625,10.405,9.164-5.291c.175-.1.2-.249.057-.332l-9.322-5.383a.645.645,0,0,0-.575.033l-4.74,2.737c-.175.1-.2.249-.057.332l5.182,2.991c.142.083.117.231-.058.332l-3.792,2.189c-.175.1-.2.25-.057.332l3.624,2.093A.643.643,0,0,0,212.358,287.252Zm-27.23-2.221-4.109,2.372c-.174.1-.2.249-.057.332l3.623,2.092a.642.642,0,0,0,.575-.033l4.108-2.372c.174-.1.2-.249.057-.332L185.7,285A.644.644,0,0,0,185.127,285.031Zm-6,3.467-4.108,2.371c-.175.1-.2.249-.057.332l3.624,2.092a.643.643,0,0,0,.575-.033l4.108-2.372c.175-.1.2-.249.057-.332l-3.624-2.092A.642.642,0,0,0,179.123,288.5ZM145.74,325.415a.643.643,0,0,0,.575-.033l4.108-2.372c.174-.1.2-.249.057-.332l-3.624-2.092a.642.642,0,0,0-.575.033l-4.107,2.372c-.175.1-.2.249-.058.332Zm-14.649-9.187-4.107,2.372c-.175.1-.2.249-.057.332l3.624,2.092a.64.64,0,0,0,.575-.033l4.108-2.372c.174-.1.2-.249.057-.332l-3.624-2.092A.643.643,0,0,0,131.091,316.228Zm7.369,6.809a.642.642,0,0,0,.575-.032l4.108-2.372c.175-.1.2-.249.057-.332l-3.623-2.092a.642.642,0,0,0-.575.033l-4.108,2.372c-.175.1-.2.249-.057.332Zm16.713,3.811,4.107-2.372c.175-.1.2-.249.058-.332l-3.624-2.092a.642.642,0,0,0-.575.033l-4.108,2.371c-.174.1-.2.25-.057.332l3.623,2.092A.642.642,0,0,0,155.173,326.848Zm-6.579,3.5a.64.64,0,0,0,.575-.033l4.108-2.372c.174-.1.2-.249.057-.331l-3.624-2.092a.643.643,0,0,0-.575.033l-4.108,2.372c-.175.1-.2.249-.057.332Zm-11.5-17.585-4.107,2.372c-.175.1-.2.249-.057.332l3.623,2.092a.644.644,0,0,0,.575-.033l4.107-2.372c.175-.1.2-.249.057-.331l-3.623-2.092A.642.642,0,0,0,137.1,312.762Zm30.019-17.332-4.108,2.372c-.174.1-.2.249-.057.332l3.623,2.092a.642.642,0,0,0,.575-.033l4.109-2.372c.174-.1.2-.249.057-.332L167.69,295.4A.642.642,0,0,0,167.115,295.43ZM143.1,309.3l-4.108,2.371c-.174.1-.2.249-.057.332l3.624,2.092a.642.642,0,0,0,.575-.033l4.107-2.371c.175-.1.2-.249.057-.332l-3.623-2.092A.644.644,0,0,0,143.1,309.3Zm30.019-17.332-4.108,2.372c-.175.1-.2.249-.057.332l3.623,2.092a.642.642,0,0,0,.575-.033l4.107-2.372c.175-.1.2-.249.058-.332l-3.624-2.092A.644.644,0,0,0,173.119,291.963ZM161.111,298.9,157,301.268c-.174.1-.2.25-.057.332l3.624,2.092a.642.642,0,0,0,.575-.033l4.107-2.372c.174-.1.2-.25.057-.332l-3.624-2.092A.64.64,0,0,0,161.111,298.9Zm-6,3.466L151,304.734c-.175.1-.2.25-.058.332l3.624,2.092a.644.644,0,0,0,.575-.034l4.108-2.371c.174-.1.2-.25.057-.332l-3.623-2.092A.644.644,0,0,0,155.107,302.362Zm-6,3.467L145,308.2c-.175.1-.2.25-.057.332l3.624,2.092a.643.643,0,0,0,.575-.033l4.108-2.372c.174-.1.2-.25.057-.332l-3.624-2.092A.643.643,0,0,0,149.1,305.829Zm27.23,2.222,4.108-2.372c.174-.1.2-.25.057-.332l-3.624-2.092a.642.642,0,0,0-.575.033l-4.107,2.371c-.175.1-.2.249-.057.332l3.624,2.092A.643.643,0,0,0,176.334,308.051Zm56.192-50.386-4.108,2.372c-.174.1-.2.25-.057.332l3.624,2.093a.644.644,0,0,0,.575-.033l4.107-2.372c.175-.1.2-.249.057-.332l-3.624-2.092A.643.643,0,0,0,232.526,257.665Zm-7.268,4.2-4.108,2.372c-.175.1-.2.249-.057.332l3.624,2.092a.64.64,0,0,0,.575-.033l4.108-2.371c.175-.1.2-.249.057-.332l-3.624-2.092A.643.643,0,0,0,225.258,261.861ZM238.53,254.2l-4.107,2.372c-.174.1-.2.249-.057.332l3.624,2.092a.64.64,0,0,0,.575-.033l4.108-2.372c.174-.1.2-.249.057-.332l-3.624-2.093A.644.644,0,0,0,238.53,254.2Zm-33.451,30.675,4.107-2.372c.175-.1.2-.25.057-.332l-3.623-2.092a.642.642,0,0,0-.575.033l-4.108,2.372c-.174.1-.2.249-.057.332l3.624,2.093A.646.646,0,0,0,205.079,284.874Zm40.03-34.175a.644.644,0,0,0-.575.033l-4.107,2.372c-.175.1-.2.25-.057.332l3.624,2.092a.639.639,0,0,0,.574-.033l4.108-2.372c.175-.1.2-.249.058-.331Zm-62.771,53.885,4.107-2.372c.175-.1.2-.249.057-.332l-3.623-2.093a.644.644,0,0,0-.575.033l-4.108,2.372c-.174.1-.2.249-.057.331l3.623,2.092A.644.644,0,0,0,182.338,304.584Zm73.627-42.509,4.108-2.372c.174-.1.2-.249.057-.332l-3.624-2.092a.641.641,0,0,0-.575.033l-4.108,2.372c-.174.1-.2.25-.057.332l3.623,2.092A.644.644,0,0,0,255.965,262.075Zm-11.7.177,4.108-2.372c.174-.1.2-.249.057-.331l-3.624-2.092a.64.64,0,0,0-.575.033l-4.107,2.372c-.175.1-.2.249-.058.332l3.624,2.093A.643.643,0,0,0,244.262,262.252Zm6.545-8.262a.64.64,0,0,0-.575.032l-4.108,2.372c-.174.1-.2.249-.057.332l3.624,2.092a.644.644,0,0,0,.575-.032l4.108-2.372c.175-.1.2-.249.057-.332Zm1.264-.73,9.322,5.382a.642.642,0,0,0,.575-.033l4.108-2.371c.175-.1.2-.249.058-.332l-9.323-5.382a.644.644,0,0,0-.575.033l-4.107,2.372C251.954,253.029,251.929,253.177,252.072,253.26Zm-13.847,7.7-4.108,2.372c-.175.1-.2.249-.057.332l3.624,2.092a.64.64,0,0,0,.575-.033l4.108-2.372c.174-.1.2-.25.057-.332l-3.624-2.092A.643.643,0,0,0,238.225,260.956Zm-45.187,26.088-4.108,2.372c-.175.1-.2.249-.057.332l3.624,2.092a.64.64,0,0,0,.575-.033l4.108-2.371c.175-.1.2-.249.057-.332l-3.624-2.092A.642.642,0,0,0,193.038,287.044Zm56.348-21.469a.644.644,0,0,0,.575-.033l4.108-2.372c.174-.1.2-.25.057-.332l-3.624-2.093a.642.642,0,0,0-.575.033l-4.108,2.372c-.174.1-.2.249-.057.331Zm-50.345,18-4.107,2.371c-.175.1-.2.25-.057.332l3.624,2.092a.641.641,0,0,0,.575-.033l4.108-2.372c.174-.1.2-.25.057-.332l-3.624-2.092A.644.644,0,0,0,199.041,283.578Zm-47.3,38.371a.644.644,0,0,0,.575-.033l4.108-2.372c.174-.1.2-.249.057-.332l-3.624-2.093a.643.643,0,0,0-.575.033l-4.108,2.372c-.174.1-.2.249-.057.331Zm-6.737-7.174-4.108,2.372c-.174.1-.2.249-.057.331l3.624,2.092a.643.643,0,0,0,.575-.033l4.108-2.372c.175-.1.2-.249.057-.332l-3.624-2.092A.643.643,0,0,0,145.007,314.775Zm13.316,3.675,4.108-2.372c.174-.1.2-.249.057-.332l-3.624-2.092a.642.642,0,0,0-.575.033l-4.107,2.371c-.174.1-.2.25-.057.332l3.624,2.092A.642.642,0,0,0,158.322,318.449Zm6-3.466,4.108-2.372c.175-.1.2-.249.058-.332l-3.624-2.092a.645.645,0,0,0-.575.033l-4.108,2.371c-.174.1-.2.25-.057.332l3.624,2.092A.641.641,0,0,0,164.326,314.983Zm6-3.467,4.108-2.372c.175-.1.2-.25.057-.332l-3.624-2.092a.64.64,0,0,0-.575.033l-4.108,2.372c-.175.1-.2.25-.057.332l3.624,2.092A.643.643,0,0,0,170.33,311.517Zm-19.32-.208L146.9,313.68c-.175.1-.2.249-.058.332l3.624,2.092a.641.641,0,0,0,.575-.033l4.108-2.372c.174-.1.2-.249.057-.332l-3.624-2.092A.642.642,0,0,0,151.01,311.309Zm6-3.467-4.107,2.372c-.175.1-.2.25-.058.332l3.624,2.092a.642.642,0,0,0,.575-.033l4.107-2.372c.175-.1.2-.249.057-.332l-3.624-2.092A.642.642,0,0,0,157.014,307.842Zm24.016-13.865-4.108,2.371c-.175.1-.2.25-.057.332l3.624,2.092a.641.641,0,0,0,.575-.033l4.108-2.372c.174-.1.2-.25.057-.332l-3.624-2.092A.641.641,0,0,0,181.03,293.977Zm-6,3.466-4.108,2.372c-.174.1-.2.25-.057.332l3.624,2.093a.645.645,0,0,0,.575-.033l4.108-2.372c.175-.1.2-.25.057-.332L175.6,297.41A.64.64,0,0,0,175.026,297.443Zm12.008-6.933-4.108,2.372c-.174.1-.2.25-.057.332l3.623,2.092a.644.644,0,0,0,.575-.033l4.108-2.372c.174-.1.2-.249.057-.331l-3.624-2.092A.642.642,0,0,0,187.034,290.51Zm-24.015,13.865-4.108,2.372c-.175.1-.2.25-.057.332l3.624,2.092a.642.642,0,0,0,.575-.032l4.108-2.371c.174-.1.2-.25.057-.332l-3.624-2.092A.642.642,0,0,0,163.018,304.375Zm6-3.466-4.108,2.372c-.174.1-.2.249-.057.332l3.624,2.092a.642.642,0,0,0,.575-.032l4.107-2.372c.175-.1.2-.25.058-.332l-3.624-2.092A.64.64,0,0,0,169.022,300.909Zm-7.845,22.472,4.108-2.372c.175-.1.2-.249.058-.332l-3.624-2.092a.644.644,0,0,0-.575.033l-4.108,2.372c-.174.1-.2.25-.057.332l3.624,2.092A.642.642,0,0,0,161.177,323.381Zm-31.891-1.628-3.624-2.092a.64.64,0,0,0-.575.033l-4.108,2.372c-.175.1-.2.249-.057.332l3.624,2.092a.642.642,0,0,0,.575-.033l4.108-2.372C129.4,321.985,129.429,321.836,129.286,321.753Zm7.911,2.013-3.624-2.092a.643.643,0,0,0-.575.033l-6.319,3.648c-.175.1-.2.25-.057.332l3.624,2.092a.643.643,0,0,0,.575-.033l6.32-3.649C137.314,324,137.34,323.849,137.2,323.766Zm-13.246-6.188-3.623-2.092a.644.644,0,0,0-.575.033l-5.056,2.919c-.174.1-.2.249-.057.332l3.624,2.092a.643.643,0,0,0,.575-.033l5.056-2.919C124.069,317.811,124.094,317.661,123.951,317.579Zm3.877-2.237a.643.643,0,0,0,.575-.033l4.107-2.372c.175-.1.2-.249.058-.331l-3.624-2.092a.644.644,0,0,0-.575.033l-4.107,2.372c-.175.1-.2.249-.058.332Zm16.648,10.8-3.624-2.093a.643.643,0,0,0-.575.034l-7.9,4.561c-.174.1-.2.249-.057.332l3.623,2.092a.642.642,0,0,0,.575-.032l7.9-4.561C144.593,326.376,144.619,326.228,144.476,326.145Zm2.855,4.932-3.624-2.092a.641.641,0,0,0-.574.032l-5.056,2.919c-.175.1-.2.25-.057.332l3.624,2.092a.644.644,0,0,0,.575-.033l5.056-2.919C147.448,331.308,147.473,331.159,147.33,331.077Zm25.137-41.508a.642.642,0,0,0,.575-.032l4.107-2.372c.175-.1.2-.249.058-.332l-3.624-2.092a.641.641,0,0,0-.575.032l-4.107,2.372c-.175.1-.2.25-.057.332ZM160.459,296.5a.644.644,0,0,0,.575-.033l4.108-2.372c.174-.1.2-.249.057-.331l-3.623-2.092a.644.644,0,0,0-.575.033l-4.107,2.372c-.175.1-.2.249-.058.332Zm-26.628,15.373a.64.64,0,0,0,.575-.033l4.108-2.372c.175-.1.2-.249.057-.332l-3.624-2.092a.643.643,0,0,0-.575.034l-4.108,2.372c-.174.1-.2.249-.057.332Zm32.632-18.84a.641.641,0,0,0,.575-.033l4.108-2.372c.175-.1.2-.249.057-.332l-3.624-2.092a.64.64,0,0,0-.575.033l-4.108,2.372c-.174.1-.2.249-.057.332Zm-12.008,6.933a.643.643,0,0,0,.575-.034l4.108-2.372c.175-.1.2-.249.057-.332l-3.624-2.092a.64.64,0,0,0-.575.033l-4.108,2.371c-.175.1-.2.249-.057.332Zm-3.786,31.577a.642.642,0,0,0-.575.033l-6.319,3.648c-.175.1-.2.25-.057.332l3.623,2.092a.642.642,0,0,0,.575-.033l6.32-3.649c.174-.1.2-.249.057-.332Zm-4.831-26.6a.646.646,0,0,0,.575-.033l4.107-2.372c.175-.1.2-.25.057-.332l-3.623-2.092a.642.642,0,0,0-.575.033l-4.107,2.372c-.175.1-.2.249-.057.332Zm-6,3.466a.64.64,0,0,0,.575-.033L144.518,306c.174-.1.2-.25.057-.332l-3.624-2.093a.643.643,0,0,0-.575.033l-4.108,2.372c-.175.1-.2.25-.057.332ZM261.9,267.326a.641.641,0,0,0-.575.033L251.214,273.2c-.175.1-.2.25-.058.332l3.624,2.092a.641.641,0,0,0,.575-.033l10.112-5.838c.175-.1.2-.249.057-.332Zm-13.272,7.662a.64.64,0,0,0-.575.033l-4.108,2.372c-.174.1-.2.249-.057.332l3.623,2.092a.644.644,0,0,0,.575-.034l4.108-2.372c.174-.1.2-.249.057-.332Zm-81.447,44.926,4.108-2.371c.175-.1.2-.25.057-.332l-3.623-2.092a.64.64,0,0,0-.575.033l-4.108,2.372c-.175.1-.2.249-.057.332l3.624,2.092A.642.642,0,0,0,167.181,319.915Zm69.439-37.993a.641.641,0,0,0-.575.033l-4.108,2.372c-.175.1-.2.249-.057.332l3.624,2.092a.644.644,0,0,0,.575-.033l4.108-2.372c.175-.1.2-.249.057-.332ZM267.9,263.86a.643.643,0,0,0-.575.033l-4.108,2.372c-.174.1-.2.249-.057.332l3.624,2.092a.641.641,0,0,0,.575-.033l4.108-2.372c.175-.1.2-.249.057-.332Zm9.628-1.374-9.323-5.383a.645.645,0,0,0-.575.033l-4.108,2.372c-.175.1-.2.249-.057.332l9.322,5.382a.643.643,0,0,0,.575-.033l4.109-2.372C277.649,262.717,277.674,262.568,277.532,262.486Zm-63.347,32.388a.643.643,0,0,0-.575.033l-5.056,2.919c-.175.1-.2.249-.057.332l3.624,2.092a.641.641,0,0,0,.575-.033l5.056-2.919c.175-.1.2-.25.057-.332Zm15.168-8.757a.642.642,0,0,0-.575.033l-6.32,3.649c-.174.1-.2.249-.057.332l3.624,2.092a.643.643,0,0,0,.575-.033l6.319-3.649c.175-.1.2-.249.057-.332ZM200.281,302.9a.644.644,0,0,0-.575.033L165.9,322.456c-.175.1-.2.249-.058.331l3.624,2.092a.642.642,0,0,0,.575-.033l33.811-19.521c.175-.1.2-.25.057-.332Zm-35.708,20.616a.641.641,0,0,0-.575.033l-5.056,2.919c-.175.1-.2.249-.057.332l3.624,2.093a.645.645,0,0,0,.575-.033l5.056-2.919c.174-.1.2-.249.057-.332Zm42.659-24.629a.64.64,0,0,0-.575.033L201.6,301.84c-.175.1-.2.249-.057.332l3.624,2.092a.64.64,0,0,0,.575-.032l5.056-2.919c.175-.1.2-.249.057-.332Zm-49.611,28.643a.644.644,0,0,0-.575.033l-5.056,2.919c-.175.1-.2.249-.057.332l3.624,2.092a.643.643,0,0,0,.575-.032l5.056-2.919c.175-.1.2-.249.058-.332Zm63.514-36.67a.641.641,0,0,0-.575.033l-5.056,2.919c-.174.1-.2.249-.057.332l3.624,2.092a.642.642,0,0,0,.575-.032l5.056-2.919c.174-.1.2-.249.057-.332Zm21.488-12.406a.644.644,0,0,0-.575.033l-4.107,2.372c-.175.1-.2.249-.057.332l3.624,2.092a.643.643,0,0,0,.575-.033l4.108-2.372c.175-.1.2-.249.057-.332Zm13.035-9.623,4.107-2.372c.175-.1.2-.249.058-.332l-3.624-2.092a.642.642,0,0,0-.575.033l-4.107,2.372c-.174.1-.2.249-.057.332l3.624,2.092A.64.64,0,0,0,255.66,268.832Zm-24.669,1.082,4.108-2.372c.174-.1.2-.249.057-.332l-3.624-2.092a.642.642,0,0,0-.575.033l-4.107,2.372c-.175.1-.2.249-.057.332l3.623,2.092A.644.644,0,0,0,230.99,269.914Zm-15.778,22.27,12.008-6.933c.174-.1.2-.249.057-.332l-3.623-2.092a.642.642,0,0,0-.575.033l-12.008,6.933c-.175.1-.2.249-.057.332l3.624,2.092A.641.641,0,0,0,215.212,292.184Zm33.869-19.853a.643.643,0,0,0,.575-.033l4.108-2.372c.175-.1.2-.25.057-.332L250.2,267.5a.64.64,0,0,0-.575.033l-4.108,2.372c-.174.1-.2.25-.057.332Zm-5.124-3.323,4.108-2.372c.174-.1.2-.249.057-.332l-3.623-2.092a.644.644,0,0,0-.575.032l-4.107,2.372c-.175.1-.2.249-.058.332l3.624,2.092A.642.642,0,0,0,243.957,269.008Zm-34.749,26.642,4.108-2.372c.175-.1.2-.249.057-.331l-3.624-2.092a.641.641,0,0,0-.575.033l-4.108,2.372c-.174.1-.2.249-.057.332l3.623,2.092A.645.645,0,0,0,209.208,295.651Zm26.6-15.657a.644.644,0,0,0,.575-.033l4.107-2.372c.175-.1.2-.249.057-.331l-3.624-2.093a.64.64,0,0,0-.575.033l-4.108,2.372c-.175.1-.2.249-.057.332Zm-56.62,32.988,4.108-2.372c.175-.1.2-.249.057-.331l-3.624-2.092a.641.641,0,0,0-.575.033l-4.108,2.372c-.174.1-.2.25-.057.332l3.624,2.093A.643.643,0,0,0,179.189,312.982Zm6-3.467,4.108-2.372c.174-.1.2-.249.057-.332l-3.624-2.092a.642.642,0,0,0-.575.034l-4.108,2.371c-.175.1-.2.249-.057.332l3.624,2.092A.641.641,0,0,0,185.193,309.516Zm-12.008,6.933,4.108-2.372c.174-.1.2-.25.057-.332l-3.623-2.092a.643.643,0,0,0-.575.032l-4.107,2.372c-.175.1-.2.249-.058.332l3.624,2.092A.644.644,0,0,0,173.185,316.448ZM197.2,302.583l4.108-2.371c.175-.1.2-.25.057-.332l-3.624-2.092a.641.641,0,0,0-.575.033l-4.108,2.371c-.174.1-.2.249-.057.332l3.624,2.092A.644.644,0,0,0,197.2,302.583Zm-6,3.466,4.107-2.372c.175-.1.2-.249.058-.332l-3.624-2.093a.643.643,0,0,0-.575.033l-4.108,2.372c-.174.1-.2.25-.057.332l3.624,2.092A.64.64,0,0,0,191.2,306.05Zm12.008-6.933,4.108-2.372c.174-.1.2-.25.057-.332l-3.624-2.092a.64.64,0,0,0-.575.032l-4.109,2.372c-.174.1-.2.25-.057.332l3.623,2.092A.644.644,0,0,0,203.2,299.117Zm33.175-47.984a.644.644,0,0,0,.575-.033l4.108-2.372c.175-.1.2-.249.057-.331l-.964-.557a.642.642,0,0,0-.575.033l-4.109,2.372c-.173.1-.2.249-.057.332Zm-29.953,18.829a.642.642,0,0,0,.575-.032l4.108-2.372c.174-.1.2-.249.057-.332l-3.624-2.092a.638.638,0,0,0-.575.033l-4.108,2.371c-.175.1-.2.249-.057.332Zm12.008-6.932a.642.642,0,0,0,.575-.033l4.108-2.371c.175-.1.2-.25.057-.332L219.55,258.2a.641.641,0,0,0-.575.033l-4.108,2.372c-.174.1-.2.25-.057.332ZM199.1,274.2a.645.645,0,0,0,.575-.033l4.108-2.372c.174-.1.2-.249.057-.332l-3.624-2.092a.641.641,0,0,0-.575.033l-4.108,2.371c-.175.1-.2.249-.057.332Zm13.335-7.7a.642.642,0,0,0,.575-.033l4.108-2.372c.174-.1.2-.249.057-.332l-3.624-2.092a.641.641,0,0,0-.575.032l-4.107,2.372c-.175.1-.2.249-.058.332Zm-25.343,14.632a.644.644,0,0,0,.575-.034l4.108-2.371c.174-.1.2-.249.057-.332L188.2,276.3a.642.642,0,0,0-.575.033l-4.107,2.372c-.175.1-.2.249-.057.332Zm6-3.467a.642.642,0,0,0,.575-.033l4.108-2.372c.174-.1.2-.249.057-.332l-3.624-2.092a.643.643,0,0,0-.575.033l-4.107,2.372c-.175.1-.2.249-.057.332Zm31.281-19.6a.646.646,0,0,0,.575-.033l4.108-2.372c.174-.1.2-.249.057-.332l-.965-.557a.644.644,0,0,0-.575.032l-4.108,2.372c-.175.1-.2.25-.057.332Zm18.012-10.4a.644.644,0,0,0,.575-.032l4.108-2.372c.174-.1.2-.249.057-.332l-.964-.557a.642.642,0,0,0-.575.033l-4.108,2.372c-.174.1-.2.25-.057.332ZM250,252.061a.642.642,0,0,0,.575-.032l4.108-2.372c.175-.1.2-.249.057-.332l-3.624-2.092a.641.641,0,0,0-.575.032l-4.108,2.372c-.175.1-.2.249-.057.332Zm11.667,13.3,4.108-2.372c.175-.1.2-.249.057-.331l-3.623-2.092a.644.644,0,0,0-.575.033l-4.108,2.371c-.174.1-.2.249-.057.332l3.623,2.092A.642.642,0,0,0,261.663,265.366ZM230.376,254.6a.641.641,0,0,0,.575-.033l4.108-2.372c.175-.1.2-.25.057-.332l-.965-.557a.641.641,0,0,0-.575.033l-4.108,2.372c-.174.1-.2.249-.057.332Zm-49.293,29.995a.641.641,0,0,0,.575-.033l4.108-2.372c.175-.1.2-.25.057-.332l-3.624-2.092a.643.643,0,0,0-.575.033l-4.108,2.372c-.174.1-.2.249-.057.331Z" transform="translate(-111.516 -241.374)" fill="#455a64"/>
            </g>
            <g id="Grupo_39340" data-name="Grupo 39340" transform="translate(116.529 193.397)">
              <path id="Trazado_92053" data-name="Trazado 92053" d="M248.145,343.02l.842.486,22.372,12.914,39.786-22.971.828-.472-23.214-13.4Z" transform="translate(-248.145 -319.577)" fill="#263238"/>
              <path id="Trazado_92054" data-name="Trazado 92054" d="M311.47,334.457l-22.015-12.7-39.4,22.757,22,12.7Z" transform="translate(-248.84 -320.371)" fill="#37474f"/>
            </g>
          </g>
        </g>
        <g id="Browser" transform="translate(31.123 22.513)">
          <g id="Www">
            <g id="www-2" data-name="www" transform="translate(58.647)">
              <g id="Grupo_39341" data-name="Grupo 39341">
                <path id="Trazado_92055" data-name="Trazado 92055" d="M319.44,58.8a3.724,3.724,0,0,0-1.531-3.411c-.957-.563-6.5-3.762-7.465-4.31a3.722,3.722,0,0,0-3.724.378L202.95,111.368v34.343L210.386,150,314.156,90.092a11.68,11.68,0,0,0,5.285-9.152Z" transform="translate(-202.95 -50.735)" fill="#80eb9a"/>
                <path id="Trazado_92056" data-name="Trazado 92056" d="M319.44,58.8a3.724,3.724,0,0,0-1.531-3.411c-.957-.563-6.5-3.762-7.465-4.31a3.722,3.722,0,0,0-3.724.378L202.95,111.368v34.343L210.386,150,314.156,90.092a11.68,11.68,0,0,0,5.285-9.152Z" transform="translate(-202.95 -50.735)" fill="#6e40fc" opacity="0.999"/>
                <path id="Trazado_92057" data-name="Trazado 92057" d="M318.418,58.209c2.918-1.684,5.284-.318,5.285,3.051V83.4a11.68,11.68,0,0,1-5.285,9.152L214.649,152.464V118.121Z" transform="translate(-207.213 -53.195)" fill="#ccbcfe"/>
                <path id="Trazado_92058" data-name="Trazado 92058" d="M318.55,91.906a7.9,7.9,0,0,0,3.562-6.169V65.284c0-1.613-1.143-2.272-2.539-1.466L217.935,122.541v27.5Z" transform="translate(-208.41 -55.376)" fill="#fafafa"/>
              </g>
              <g id="Grupo_39342" data-name="Grupo 39342" transform="translate(19.812 23.938)">
                <path id="Trazado_92059" data-name="Trazado 92059" d="M241.547,166.306a1.088,1.088,0,0,1-.112.471.705.705,0,0,1-.265.325l-1.756,1.013a.2.2,0,0,1-.265-.019.458.458,0,0,1-.111-.343v-5.428a2.235,2.235,0,0,0-.292-1.311q-.293-.388-.92-.026a2.1,2.1,0,0,0-.913,1.084,4.462,4.462,0,0,0-.286,1.646v5.428a1.093,1.093,0,0,1-.111.472.706.706,0,0,1-.264.325l-1.756,1.013a.2.2,0,0,1-.264-.018.453.453,0,0,1-.112-.343V156.519a1.084,1.084,0,0,1,.112-.472.707.707,0,0,1,.264-.325l1.756-1.013a.2.2,0,0,1,.264.019.457.457,0,0,1,.111.343v4.57a6.507,6.507,0,0,1,.739-1.295,3.69,3.69,0,0,1,1.157-1.086,2.824,2.824,0,0,1,1.226-.418,1.241,1.241,0,0,1,.955.339,2.489,2.489,0,0,1,.62,1.165,7.813,7.813,0,0,1,.224,2.06Z" transform="translate(-234.119 -112.544)" fill="#455a64"/>
                <path id="Trazado_92060" data-name="Trazado 92060" d="M251.144,156.523a1.206,1.206,0,0,0,.139.681q.14.187.461,0l1.114-.644a.2.2,0,0,1,.265.018.463.463,0,0,1,.111.344v2.167a1.1,1.1,0,0,1-.111.472.706.706,0,0,1-.265.325l-1.323.764a2.631,2.631,0,0,1-1.192.4,1.258,1.258,0,0,1-.913-.31,2.148,2.148,0,0,1-.585-.992,5.584,5.584,0,0,1-.209-1.649v-3.605l-1.031.6a.2.2,0,0,1-.265-.019.462.462,0,0,1-.111-.344v-2.166a1.1,1.1,0,0,1,.111-.472.715.715,0,0,1,.265-.325l1.031-.594v-3.5a1.106,1.106,0,0,1,.111-.472.713.713,0,0,1,.265-.325l1.756-1.013a.2.2,0,0,1,.265.018.461.461,0,0,1,.111.343v3.5l1.575-.908a.2.2,0,0,1,.265.018.462.462,0,0,1,.111.343v2.167a1.1,1.1,0,0,1-.111.472.711.711,0,0,1-.265.325l-1.575.91Z" transform="translate(-238.896 -109.32)" fill="#455a64"/>
                <path id="Trazado_92061" data-name="Trazado 92061" d="M261.536,150.523a1.2,1.2,0,0,0,.139.681q.139.187.46,0l1.114-.644a.2.2,0,0,1,.265.018.461.461,0,0,1,.111.344v2.167a1.088,1.088,0,0,1-.111.472.7.7,0,0,1-.265.325l-1.323.765a2.617,2.617,0,0,1-1.192.4,1.259,1.259,0,0,1-.913-.309,2.142,2.142,0,0,1-.585-.992,5.568,5.568,0,0,1-.209-1.65v-3.6l-1.031.6a.2.2,0,0,1-.265-.019.459.459,0,0,1-.111-.343v-2.167a1.106,1.106,0,0,1,.111-.472.713.713,0,0,1,.265-.325l1.031-.595v-3.5a1.1,1.1,0,0,1,.111-.472.707.707,0,0,1,.265-.324l1.756-1.014a.2.2,0,0,1,.265.018.463.463,0,0,1,.111.343v3.5l1.575-.909a.2.2,0,0,1,.265.019.46.46,0,0,1,.111.343v2.166a1.1,1.1,0,0,1-.111.472.719.719,0,0,1-.265.325l-1.575.909Z" transform="translate(-242.682 -107.134)" fill="#455a64"/>
                <path id="Trazado_92062" data-name="Trazado 92062" d="M273.308,150.028a2.138,2.138,0,0,1-.71.282,1.227,1.227,0,0,1-.529-.016.965.965,0,0,1-.377-.2,1.654,1.654,0,0,1-.25-.273v4.57a1.1,1.1,0,0,1-.112.472.709.709,0,0,1-.264.325l-1.757,1.014a.2.2,0,0,1-.264-.02.455.455,0,0,1-.112-.343V141.762a1.1,1.1,0,0,1,.112-.472.707.707,0,0,1,.264-.324l1.687-.974a.2.2,0,0,1,.264.019.456.456,0,0,1,.111.343v.493c.083-.191.175-.393.272-.606a3.872,3.872,0,0,1,.362-.628,4.147,4.147,0,0,1,.529-.606,4.079,4.079,0,0,1,.774-.565,2.721,2.721,0,0,1,1.185-.395,1.307,1.307,0,0,1,.975.339,2.58,2.58,0,0,1,.676,1.143,7.039,7.039,0,0,1,.285,2.023q.014.314.015.861c0,.365-.005.657-.015.877a11.066,11.066,0,0,1-.285,2.354,9.283,9.283,0,0,1-.676,1.924,6.457,6.457,0,0,1-.975,1.475A4.888,4.888,0,0,1,273.308,150.028Zm.628-5.555a9,9,0,0,0,0-1.2,2.164,2.164,0,0,0-.321-1.124q-.278-.4-.933-.018a1.868,1.868,0,0,0-.529.456,2.715,2.715,0,0,0-.369.61,3.873,3.873,0,0,0-.23.68,4.417,4.417,0,0,0-.111.686c-.02.226-.028.481-.028.767s.008.531.028.734a2.44,2.44,0,0,0,.111.559,1.137,1.137,0,0,0,.23.414.545.545,0,0,0,.369.184.922.922,0,0,0,.529-.155,2.111,2.111,0,0,0,.933-1.1A4.819,4.819,0,0,0,273.936,144.473Z" transform="translate(-246.804 -106.486)" fill="#455a64"/>
                <path id="Trazado_92063" data-name="Trazado 92063" d="M285.344,135.639a1.093,1.093,0,0,1-.111.472.712.712,0,0,1-.265.325l-1.825,1.053a.2.2,0,0,1-.265-.02.454.454,0,0,1-.111-.342v-2.811a1.1,1.1,0,0,1,.111-.472.694.694,0,0,1,.265-.324l1.825-1.054a.2.2,0,0,1,.265.018.461.461,0,0,1,.111.343Zm0,7.509a1.09,1.09,0,0,1-.111.471.7.7,0,0,1-.265.325L283.142,145a.2.2,0,0,1-.265-.018.459.459,0,0,1-.111-.343v-2.811a1.1,1.1,0,0,1,.111-.472.707.707,0,0,1,.265-.324l1.825-1.054a.2.2,0,0,1,.265.018.46.46,0,0,1,.111.344Z" transform="translate(-251.845 -104.439)" fill="#455a64"/>
                <path id="Trazado_92064" data-name="Trazado 92064" d="M293.25,118.259a2.891,2.891,0,0,1,.208-.56,1,1,0,0,1,.4-.437l1.728-1a.165.165,0,0,1,.216.015.378.378,0,0,1,.09.28.944.944,0,0,1-.028.209l-4.7,20.068a2.76,2.76,0,0,1-.2.542,1.017,1.017,0,0,1-.418.456l-1.7.981a.165.165,0,0,1-.216-.015.371.371,0,0,1-.09-.28.989.989,0,0,1,.027-.21Z" transform="translate(-253.954 -98.538)" fill="#455a64"/>
                <path id="Trazado_92065" data-name="Trazado 92065" d="M300.77,113.918a2.853,2.853,0,0,1,.209-.56,1,1,0,0,1,.4-.437l1.728-1a.164.164,0,0,1,.216.015.376.376,0,0,1,.09.281.952.952,0,0,1-.028.209l-4.7,20.067a2.728,2.728,0,0,1-.2.542,1.02,1.02,0,0,1-.418.456l-1.7.981a.164.164,0,0,1-.215-.014.373.373,0,0,1-.091-.28.956.956,0,0,1,.028-.21Z" transform="translate(-256.694 -96.956)" fill="#455a64"/>
                <path id="Trazado_92066" data-name="Trazado 92066" d="M314.294,113.091c.139-.08.246-.084.32-.013a.567.567,0,0,1,.153.255l1.031,4.275,1.032-5.465a1.957,1.957,0,0,1,.153-.432.787.787,0,0,1,.32-.357l1.728-1a.181.181,0,0,1,.237.014.411.411,0,0,1,.1.308,1.179,1.179,0,0,1-.013.179l-2.216,11.213a2.019,2.019,0,0,1-.146.448.753.753,0,0,1-.314.354l-1.588.917c-.139.08-.242.083-.307.005a.871.871,0,0,1-.153-.276l-.989-3.933-.989,5.076a3.079,3.079,0,0,1-.153.453.719.719,0,0,1-.308.35l-1.588.917q-.208.121-.313.01a.619.619,0,0,1-.146-.28l-2.216-8.654a.964.964,0,0,1-.014-.163.984.984,0,0,1,.1-.421.622.622,0,0,1,.236-.287l1.728-1c.14-.08.246-.084.321-.013a.559.559,0,0,1,.153.255l1.031,4.275,1.032-5.466a2,2,0,0,1,.154-.432.791.791,0,0,1,.32-.357Z" transform="translate(-261.007 -96.384)" fill="#455a64"/>
                <path id="Trazado_92067" data-name="Trazado 92067" d="M333.279,102.13c.14-.081.246-.085.32-.013a.563.563,0,0,1,.153.256l1.032,4.274,1.032-5.465a1.952,1.952,0,0,1,.153-.432.785.785,0,0,1,.32-.357l1.728-1a.181.181,0,0,1,.237.013.415.415,0,0,1,.1.308,1.267,1.267,0,0,1-.013.179l-2.216,11.213a2.036,2.036,0,0,1-.146.449.752.752,0,0,1-.314.353l-1.589.917c-.139.081-.241.083-.306.005a.841.841,0,0,1-.153-.276l-.99-3.934-.99,5.076a2.9,2.9,0,0,1-.153.453.712.712,0,0,1-.306.349l-1.588.917c-.14.081-.244.083-.313.009a.606.606,0,0,1-.147-.28l-2.216-8.654a.951.951,0,0,1,.085-.585.612.612,0,0,1,.236-.287l1.728-1c.139-.081.246-.085.32-.013a.558.558,0,0,1,.154.256l1.031,4.274,1.032-5.465a1.962,1.962,0,0,1,.153-.432.783.783,0,0,1,.32-.358Z" transform="translate(-267.925 -92.39)" fill="#455a64"/>
                <path id="Trazado_92068" data-name="Trazado 92068" d="M352.266,91.168c.138-.081.245-.085.32-.014a.575.575,0,0,1,.153.256l1.031,4.275,1.032-5.466a1.95,1.95,0,0,1,.153-.432.783.783,0,0,1,.32-.357l1.728-1a.181.181,0,0,1,.237.013.417.417,0,0,1,.1.309,1.251,1.251,0,0,1-.013.179l-2.216,11.213a2.051,2.051,0,0,1-.146.449.753.753,0,0,1-.314.353l-1.588.917c-.139.081-.242.082-.307.005a.884.884,0,0,1-.153-.276l-.99-3.934-.988,5.076a3,3,0,0,1-.154.453.716.716,0,0,1-.307.349l-1.588.917q-.209.12-.313.009a.62.62,0,0,1-.146-.28L345.9,95.531a.9.9,0,0,1-.014-.163.978.978,0,0,1,.1-.421.627.627,0,0,1,.237-.287l1.728-1c.139-.081.245-.085.321-.014a.57.57,0,0,1,.152.256l1.031,4.275,1.032-5.466a2,2,0,0,1,.153-.432.787.787,0,0,1,.32-.357Z" transform="translate(-274.843 -88.395)" fill="#455a64"/>
                <path id="Trazado_92069" data-name="Trazado 92069" d="M367.272,100.151a1.1,1.1,0,0,1-.112.472.7.7,0,0,1-.264.324L365.07,102a.2.2,0,0,1-.265-.018.459.459,0,0,1-.111-.343V98.829a1.1,1.1,0,0,1,.111-.472.707.707,0,0,1,.265-.324l1.826-1.054a.2.2,0,0,1,.264.019.459.459,0,0,1,.112.343Z" transform="translate(-281.697 -91.508)" fill="#455a64"/>
              </g>
            </g>
            <g id="World" transform="translate(0 45.171)">
              <g id="Check">
                <g id="Circle">
                  <path id="Trazado_92070" data-name="Trazado 92070" d="M172.187,131.559v0l-.05-.031-.005,0-12.716-7.549-.011-.007-.07-.043v0c-5.6-3.376-13.074-2.844-21.112,2.4-16.149,10.544-28.454,36.119-27.485,57.122.483,10.469,4.174,17.824,9.754,21.265v0l.05.03.006,0,12.719,7.551.005,0,.059.036v0c5.6,3.386,13.082,2.857,21.126-2.4,16.149-10.544,28.454-36.118,27.485-57.122C181.458,142.354,177.767,135,172.187,131.559Z" transform="translate(-110.684 -121.8)" fill="#37474f"/>
                  <path id="Trazado_92071" data-name="Trazado 92071" d="M132.856,230.6l-12.307-7.293h-.009l-.054-.038c-5.576-3.449-9.266-10.8-9.748-21.259-.433-9.367,1.78-19.638,5.785-29.073l.081-.207,12.64,7.756c-4.014,9.436-6.218,19.706-5.786,29.073C123.931,219.808,127.476,227.069,132.856,230.6Z" transform="translate(-110.684 -140.36)" fill="#263238"/>
                  <path id="Trazado_92072" data-name="Trazado 92072" d="M161.75,214.275c16.149-10.544,28.454-36.118,27.485-57.122s-14.845-29.482-30.994-18.937-28.454,36.118-27.485,57.121S145.6,224.819,161.75,214.275Z" transform="translate(-117.978 -126.13)" fill="#455a64"/>
                </g>
              </g>
              <g id="Grupo_39350" data-name="Grupo 39350" transform="translate(20.633 17.901)">
                <g id="Grupo_39343" data-name="Grupo 39343">
                  <path id="Trazado_92073" data-name="Trazado 92073" d="M157.17,214.661a11.93,11.93,0,0,1-6.02-1.573c-5.087-2.926-8.005-9.635-8.005-18.406,0-16.137,9.81-34.972,21.868-41.986,5.483-3.19,10.84-3.6,15.085-1.159,5.087,2.925,8.005,9.634,8.005,18.406,0,16.136-9.81,34.97-21.867,41.985A18.2,18.2,0,0,1,157.17,214.661Zm16.9-62.259a15.809,15.809,0,0,0-7.839,2.4c-11.391,6.626-20.659,24.518-20.659,39.884,0,7.877,2.473,13.818,6.785,16.3,3.46,1.988,7.952,1.581,12.651-1.153,11.391-6.627,20.658-24.519,20.658-39.884,0-7.878-2.473-13.818-6.785-16.3A9.531,9.531,0,0,0,174.075,152.4Z" transform="translate(-143.145 -149.964)" fill="#e9e2ff"/>
                </g>
                <g id="Grupo_39346" data-name="Grupo 39346" transform="translate(6.513 3.083)">
                  <g id="Grupo_39344" data-name="Grupo 39344" transform="translate(0.249)">
                    <path id="Trazado_92074" data-name="Trazado 92074" d="M161.043,176.078a11.541,11.541,0,0,1-7.261-2.5l1.125-1.435c3.715,2.911,8.735,2.785,14.134-.357,5.595-3.255,10.852-9.284,14.8-16.974l1.623.833c-4.109,8-9.616,14.29-15.508,17.718A17.924,17.924,0,0,1,161.043,176.078Z" transform="translate(-153.782 -154.814)" fill="#ccbcfe"/>
                  </g>
                  <g id="Grupo_39345" data-name="Grupo 39345" transform="translate(0 37.267)">
                    <path id="Trazado_92075" data-name="Trazado 92075" d="M155.014,234.708l-1.623-.833c4.107-8,9.615-14.289,15.508-17.717,6.09-3.542,11.833-3.617,16.176-.216l-1.124,1.435c-3.716-2.91-8.736-2.783-14.134.358C164.221,220.988,158.964,227.017,155.014,234.708Z" transform="translate(-153.391 -213.444)" fill="#ccbcfe"/>
                  </g>
                </g>
                <g id="Grupo_39347" data-name="Grupo 39347" transform="translate(10.715 2.175)">
                  <path id="Trazado_92076" data-name="Trazado 92076" d="M169.413,213.731a4.891,4.891,0,0,1-2.463-.681C162.664,210.585,160,201.7,160,189.871c0-16.312,4.965-31.978,11.305-35.666a5.028,5.028,0,0,1,5.276-.139c4.285,2.465,6.946,11.347,6.946,23.179,0,16.311-4.965,31.978-11.3,35.666A5.581,5.581,0,0,1,169.413,213.731Zm4.7-58.523a3.757,3.757,0,0,0-1.891.573c-5.637,3.279-10.4,18.89-10.4,34.09,0,12.523,3.03,19.871,6.032,21.6a3.218,3.218,0,0,0,3.45-.133c5.637-3.279,10.4-18.89,10.4-34.09,0-12.523-3.029-19.872-6.032-21.6A3.09,3.09,0,0,0,174.116,155.209Z" transform="translate(-160.003 -153.385)" fill="#e9e2ff"/>
                </g>
                <g id="Grupo_39348" data-name="Grupo 39348" transform="translate(21.567 3.783)">
                  <rect id="Rectángulo_27586" data-name="Rectángulo 27586" width="1.824" height="57.131" fill="#e9e2ff"/>
                </g>
                <g id="Grupo_39349" data-name="Grupo 39349" transform="translate(0.759 19.188)">
                  <rect id="Rectángulo_27587" data-name="Rectángulo 27587" width="49.198" height="1.824" transform="translate(0 24.744) rotate(-30.195)" fill="#ccbcfe"/>
                </g>
              </g>
            </g>
          </g>
        </g>
        <g id="Cursor" transform="translate(194.649 66.959)">
          <g id="Cursor-2" data-name="Cursor">
            <g id="Grupo_39351" data-name="Grupo 39351" transform="translate(0)">
              <path id="Trazado_92077" data-name="Trazado 92077" d="M396.326,131.353a1.961,1.961,0,0,0-.759-.885h0l-1.894-1.094v.005a2.429,2.429,0,0,0-2.365.322l-1.182-.683h0c-1.435-.866-3.429.946-3.875,1.381l-.512-.295h0a2.588,2.588,0,0,0-2.408.262v-6.888a1.729,1.729,0,0,0-.679-1.552h0l-.02-.011-.032-.018-1.859-1.075,0,0-.013-.008h0a1.716,1.716,0,0,0-1.7.177,5.375,5.375,0,0,0-2.432,4.212v21.1q-.145-.071-.29-.135a6.937,6.937,0,0,0-4.947-1.594,5.252,5.252,0,0,0-3.165,2.186c-.8,1.417.523,2.307,2.232,4.263,1.694,1.937,3.189,4.271,4.732,5.71a8.342,8.342,0,0,0,2.662,1.814v2.76l1.878,1.084,14.289-8.25v-2.76s1.773-7.069,2.34-10.023S397.415,133.618,396.326,131.353Z" transform="translate(-367.952 -120.659)" fill="#27debf"/>
              <path id="Trazado_92078" data-name="Trazado 92078" d="M396.326,131.353a1.961,1.961,0,0,0-.759-.885h0l-1.894-1.094v.005a2.429,2.429,0,0,0-2.365.322l-1.182-.683h0c-1.435-.866-3.429.946-3.875,1.381l-.512-.295h0a2.588,2.588,0,0,0-2.408.262v-6.888a1.729,1.729,0,0,0-.679-1.552h0l-.02-.011-.032-.018-1.859-1.075,0,0-.013-.008h0a1.716,1.716,0,0,0-1.7.177,5.375,5.375,0,0,0-2.432,4.212v21.1q-.145-.071-.29-.135a6.937,6.937,0,0,0-4.947-1.594,5.252,5.252,0,0,0-3.165,2.186c-.8,1.417.523,2.307,2.232,4.263,1.694,1.937,3.189,4.271,4.732,5.71a8.342,8.342,0,0,0,2.662,1.814v2.76l1.878,1.084,14.289-8.25v-2.76s1.773-7.069,2.34-10.023S397.415,133.618,396.326,131.353Z" transform="translate(-367.952 -120.659)" fill="#fff" opacity="0.8"/>
            </g>
            <path id="Trazado_92079" data-name="Trazado 92079" d="M383.337,132.994v2.337l0,0a10.233,10.233,0,0,1,1.835-1.255Zm8.631-1.016a4.142,4.142,0,0,0-.654.327l.606.353a2.157,2.157,0,0,1,.9.985,4.392,4.392,0,0,1,1.081-.606Zm-4.446.022a8.036,8.036,0,0,0-1.269,1l1.238.72a.545.545,0,0,1,.069.039,1.394,1.394,0,0,1,.48.419l0,0a8.03,8.03,0,0,1,1.316-1.068Zm-10.928-4.194v21.1a12.092,12.092,0,0,1,1.878,1.159V128.893Zm6.735,5.184.009,0v-.022Zm-6.295,27.427c-1.543-1.438-3.038-3.771-4.73-5.711-1.6-1.835-2.877-2.733-2.354-4.01l-1.879-1.086c-.523,1.277.746,2.175,2.354,4.015,1.7,1.935,3.186,4.268,4.73,5.71a8.4,8.4,0,0,0,2.663,1.813v2.759L379.7,165v-2.759A8.327,8.327,0,0,1,377.034,160.418Z" transform="translate(-367.952 -123.264)" fill="#27debf" opacity="0.2"/>
            <path id="Trazado_92080" data-name="Trazado 92080" d="M383.337,132.994v2.337l0,0a10.233,10.233,0,0,1,1.835-1.255Zm8.631-1.016a4.142,4.142,0,0,0-.654.327l.606.353a2.157,2.157,0,0,1,.9.985,4.392,4.392,0,0,1,1.081-.606Zm-4.446.022a8.036,8.036,0,0,0-1.269,1l1.238.72a.545.545,0,0,1,.069.039,1.394,1.394,0,0,1,.48.419l0,0a8.03,8.03,0,0,1,1.316-1.068Zm-10.928-4.194v21.1a12.092,12.092,0,0,1,1.878,1.159V128.893Zm6.735,5.184.009,0v-.022Zm-6.295,27.427c-1.543-1.438-3.038-3.771-4.73-5.711-1.6-1.835-2.877-2.733-2.354-4.01l-1.879-1.086c-.523,1.277.746,2.175,2.354,4.015,1.7,1.935,3.186,4.268,4.73,5.71a8.4,8.4,0,0,0,2.663,1.813v2.759L379.7,165v-2.759A8.327,8.327,0,0,1,377.034,160.418Z" transform="translate(-367.952 -123.264)" opacity="0.1"/>
            <g id="Grupo_39352" data-name="Grupo 39352" transform="translate(1.878 1.083)">
              <path id="Trazado_92081" data-name="Trazado 92081" d="M380.774,163.01v-2.76a8.34,8.34,0,0,1-2.662-1.814c-1.543-1.44-3.038-3.773-4.732-5.711-1.709-1.955-3.036-2.844-2.232-4.262a5.251,5.251,0,0,1,3.165-2.186c1.63-.29,3.489.506,5.236,1.8V126.907a5.375,5.375,0,0,1,2.432-4.212h0c1.343-.775,2.432-.147,2.432,1.4v9.247s3.35-2.975,4.7-1.15c0,0,3.293-3.449,4.779-.536,0,0,2.417-1.952,3.507.313s.566,7.05,0,10S395.063,152,395.063,152v2.76Z" transform="translate(-370.907 -122.363)" fill="#00223d"/>
            </g>
            <g id="Grupo_39353" data-name="Grupo 39353" transform="translate(15.376 9.775)" opacity="0.1">
              <path id="Trazado_92083" data-name="Trazado 92083" d="M392.151,142.9s.305-4.219,1.855-5.222l-.055.016a10.142,10.142,0,0,0-1.8,1.236v-.079a.1.1,0,0,0,0,.079Z" transform="translate(-392.143 -136.634)"/>
              <path id="Trazado_92084" data-name="Trazado 92084" d="M399.557,137.22v3.86s.428-3.969,1.318-4.928A7.955,7.955,0,0,0,399.557,137.22Z" transform="translate(-394.844 -136.08)"/>
              <path id="Trazado_92085" data-name="Trazado 92085" d="M407.075,136.643h0v3.874s.236-3.9,1.076-4.479A4.362,4.362,0,0,0,407.075,136.643Z" transform="translate(-397.584 -136.038)"/>
            </g>
          </g>
        </g>
        <g id="Character" transform="translate(145.902 107.257)">
          <g id="Character-2" data-name="Character">
            <path id="Shadow-2" data-name="Shadow" d="M329.277,310.158C318.3,315.628,313.315,321.376,319,325.4s21.148,9.48,21.148,9.48l2.028,6.816,22.466-12.971v-7.716s-13.862-9.557-19.275-11.4S335.71,306.951,329.277,310.158Z" transform="translate(-300.504 -229.216)" opacity="0.15"/>
            <g id="Character-3" data-name="Character">
              <g id="Grupo_39362" data-name="Grupo 39362" transform="translate(11.48 68.178)">
                <g id="Grupo_39356" data-name="Grupo 39356" transform="translate(32.702 45.614)">
                  <path id="Trazado_92086" data-name="Trazado 92086" d="M378.218,365.02s-3.393,8.316-3.566,11.6c-.181,3.418-1.007,4.551-.427,8.269.126.81.552,2.433.657,3.091a.969.969,0,0,1-.878,1.212c-1.484.308-3.947-2.479-5.119-5.512a89.662,89.662,0,0,1-2.937-10.69,4.675,4.675,0,0,1,.469-2.393,7.154,7.154,0,0,1,.682-1.239c.491-1.489.726-4.317,1.14-6.274Z" transform="translate(-362.649 -363.081)" fill="#ffa8a7"/>
                  <g id="Grupo_39355" data-name="Grupo 39355" transform="translate(0 6.272)">
                    <path id="Trazado_92087" data-name="Trazado 92087" d="M361.168,383.568a3.521,3.521,0,0,0-.4,1.121c-.036.681,1.5,2.928,2.108,3.746a5.474,5.474,0,0,1,1.112,3.886,9.449,9.449,0,0,0,2.285,6.084,15,15,0,0,0,7.457,4.88c3.6,1.109,4.871-.7,4.871-.7s1.116-1.738.445-2.45S361.168,383.568,361.168,383.568Z" transform="translate(-360.77 -376.818)" fill="#263238"/>
                    <path id="Trazado_92088" data-name="Trazado 92088" d="M365.448,372.951c-.11,0-.3-.035-.585.305-.107.128-.764,1.748-1.309,2.6-.584.91-1.975,2.464-2.158,3.845.833,2.67,3.338,4.527,3.713,7.047s.419,5.446,4.292,8.53,7.856,3.4,9.287,2.586,1.3-2.35-.7-5.271c-2.117-3.1-3.544-9.816-3.544-9.819a22.241,22.241,0,0,1-.374-2.857,18.8,18.8,0,0,1,.267-2.827,2.1,2.1,0,0,0-.181-1.28,2.169,2.169,0,0,0-1.065-.737,9.435,9.435,0,0,0-1.99-.674,3.165,3.165,0,0,0-2.051.249c-.447.24-.812.623-1.281.817a1.836,1.836,0,0,1-1.9-.34,1.572,1.572,0,0,1-.514-1.748A3.974,3.974,0,0,1,365.448,372.951Z" transform="translate(-360.998 -372.948)" fill="#455a64"/>
                    <path id="Trazado_92089" data-name="Trazado 92089" d="M370.429,402.445a6.171,6.171,0,0,1,5.613-3.036c4.113.016,5.536,2.108,6.162,3.34.745,1.465,1.522,4.122-.176,4.884-1.834.823-3.957.569-7.3-1.105A8.906,8.906,0,0,1,370.429,402.445Z" transform="translate(-364.29 -382.59)" fill="#fafafa"/>
                    <g id="Grupo_39354" data-name="Grupo 39354" transform="translate(6.643 6.253)">
                      <path id="Trazado_92090" data-name="Trazado 92090" d="M371.467,384a.422.422,0,0,0,.375,0c.636-.324,4-1.027,5.954.79.254-.2.2-.575-.123-1.1a7.545,7.545,0,0,0-6.24-.414.391.391,0,0,0-.16.547A.431.431,0,0,0,371.467,384Z" transform="translate(-371.221 -382.786)" fill="#fafafa"/>
                      <path id="Trazado_92091" data-name="Trazado 92091" d="M378.561,388.64a1.272,1.272,0,0,0-.237-1.13,7.69,7.69,0,0,0-5.951-.239.391.391,0,0,0-.16.547.435.435,0,0,0,.568.177C373.4,387.681,376.587,387.018,378.561,388.64Z" transform="translate(-371.563 -384.242)" fill="#fafafa"/>
                      <path id="Trazado_92092" data-name="Trazado 92092" d="M380.923,397.112a2.339,2.339,0,0,0-.526-1.489,7.606,7.606,0,0,0-6.147-.355.39.39,0,0,0-.16.547.433.433,0,0,0,.567.177C375.328,395.651,379.034,394.889,380.923,397.112Z" transform="translate(-372.247 -387.157)" fill="#fafafa"/>
                      <path id="Trazado_92093" data-name="Trazado 92093" d="M373.343,392a.426.426,0,0,0,.376,0c.628-.32,3.921-1.006,5.887.733a1.44,1.44,0,0,0-.343-1.218,7.691,7.691,0,0,0-5.951-.239.391.391,0,0,0-.159.547A.438.438,0,0,0,373.343,392Z" transform="translate(-371.905 -385.699)" fill="#fafafa"/>
                    </g>
                  </g>
                </g>
                <g id="Grupo_39359" data-name="Grupo 39359" transform="translate(43.481 57.766)">
                  <path id="Trazado_92094" data-name="Trazado 92094" d="M386.172,382.2s1.682,10.143,3.552,14.08,2.831,5.836,5.407,8.814c.561.649,1.839,1.854,2.3,2.379a1.014,1.014,0,0,1-.107,1.562c-1.145,1.1-6,1.356-8.725-.685s-5.2-6.387-6.823-8.029c-.61-.617-1.184-1.248-1.73-1.918-.526-.645-.382-1.259-.429-1.982-.022-.35.028-1.3.028-1.3-.372-1.709-1.38-4.388-1.915-6.053Z" transform="translate(-377.727 -382.199)" fill="#ffa8a7"/>
                  <g id="Grupo_39358" data-name="Grupo 39358" transform="translate(0.799 10.969)">
                    <path id="Trazado_92095" data-name="Trazado 92095" d="M379.227,414.579a3.7,3.7,0,0,0,.125,1.238c.271.661,2.731,2.1,3.669,2.6a5.727,5.727,0,0,1,2.788,3.18,9.886,9.886,0,0,0,4.88,4.737,15.7,15.7,0,0,0,9.235,1.286c3.9-.56,4.3-2.834,4.3-2.834s.28-2.143-.673-2.517S379.227,414.579,379.227,414.579Z" transform="translate(-379.07 -404.966)" fill="#263238"/>
                    <path id="Trazado_92096" data-name="Trazado 92096" d="M379.961,400.874c-.105.045-.3.1-.418.55-.043.17.058,2-.078,3.043-.146,1.121-.768,3.214-.325,4.6,1.981,2.154,5.18,2.793,6.662,5.01s2.829,4.966,7.872,6.155,8.954-.289,9.944-1.7.18-2.8-3.012-4.677c-3.389-1.988-7.739-7.706-7.741-7.708a23.4,23.4,0,0,1-1.63-2.536,19.791,19.791,0,0,1-1.01-2.795,2.193,2.193,0,0,0-.743-1.131,2.269,2.269,0,0,0-1.337-.221,9.9,9.9,0,0,0-2.184.25,3.314,3.314,0,0,0-1.829,1.151,15.756,15.756,0,0,1-.847,1.345,1.918,1.918,0,0,1-1.951.528,1.644,1.644,0,0,1-1.268-1.424A4.21,4.21,0,0,1,379.961,400.874Z" transform="translate(-378.984 -399.456)" fill="#455a64"/>
                    <path id="Trazado_92097" data-name="Trazado 92097" d="M396.989,426.451a6.455,6.455,0,0,1,3.956-5.38c3.9-1.822,6.18-.478,7.322.407,1.36,1.054,3.281,3.221,2.015,4.7-1.367,1.6-3.49,2.305-7.4,2.213A9.316,9.316,0,0,1,396.989,426.451Z" transform="translate(-385.545 -407.002)" fill="#fafafa"/>
                    <g id="Grupo_39357" data-name="Grupo 39357" transform="translate(6.179 4.283)">
                      <path id="Trazado_92098" data-name="Trazado 92098" d="M389.145,409.3a.443.443,0,0,0,.354-.169c.457-.591,3.323-2.757,5.988-1.913.149-.306-.066-.634-.607-.985a7.9,7.9,0,0,0-6.089,2.4.409.409,0,0,0,.093.589A.448.448,0,0,0,389.145,409.3Z" transform="translate(-388.704 -406.195)" fill="#fafafa"/>
                      <path id="Trazado_92099" data-name="Trazado 92099" d="M397.932,410.523a1.332,1.332,0,0,0-.73-.964,8.051,8.051,0,0,0-5.738,2.433.41.41,0,0,0,.093.589.457.457,0,0,0,.262.083.446.446,0,0,0,.354-.17C392.617,411.921,395.338,409.869,397.932,410.523Z" transform="translate(-389.679 -407.418)" fill="#fafafa"/>
                      <path id="Trazado_92100" data-name="Trazado 92100" d="M403.95,417.486a2.445,2.445,0,0,0-1.163-1.173,7.958,7.958,0,0,0-5.976,2.41.41.41,0,0,0,.094.589.456.456,0,0,0,.262.083.442.442,0,0,0,.354-.17C398,418.6,401.17,416.225,403.95,417.486Z" transform="translate(-391.627 -409.871)" fill="#fafafa"/>
                      <path id="Trazado_92101" data-name="Trazado 92101" d="M394.493,416.029a.444.444,0,0,0,.354-.17c.452-.584,3.261-2.7,5.9-1.936a1.506,1.506,0,0,0-.869-1,8.043,8.043,0,0,0-5.738,2.433.41.41,0,0,0,.093.589A.457.457,0,0,0,394.493,416.029Z" transform="translate(-390.653 -408.644)" fill="#fafafa"/>
                    </g>
                  </g>
                </g>
                <g id="Grupo_39360" data-name="Grupo 39360" transform="translate(25.75)">
                  <path id="Trazado_92102" data-name="Trazado 92102" d="M353.627,291.319c4.159,3.048,18.643,11.409,24.524,16.854,1.7,1.573,2.258,3.643,1.84,8.155-.567,6.124-5.379,26.993-5.379,26.993-.663,1.178-1.829-1.057-1.829-1.057l-22.951-29.138Z" transform="translate(-349.832 -291.319)" fill="#fee0e7"/>
                  <path id="Trazado_92104" data-name="Trazado 92104" d="M374.372,339.788c-5.311-4.437-22.465-31.5-22.465-31.5l.009-.008c2.336-1.974,3.541-8.817,3.541-8.817.926,2.64-.052,6.623-.771,8.078,1.351,1.17,8.983,7.446,14.285,11.643a7.578,7.578,0,0,1,3.144,4.747C373.208,329.668,374.5,338.627,374.372,339.788Z" transform="translate(-350.588 -294.285)" fill="#fee0e7" opacity="0.3"/>
                </g>
                <g id="Grupo_39361" data-name="Grupo 39361">
                  <path id="Trazado_92105" data-name="Trazado 92105" d="M338.866,291.319h0l-29.545,6.541c1.443,5.423,1.854,8.224,3.36,11.08s3.184,5.92,10.869,9.7c7.4,3.643,16.435,7.394,18.243,8.254,1.362.648,2.012,3.373,2.628,6.9a41.976,41.976,0,0,0,4.369,14.379c3.588,7.613,4.322,9.259,4.322,9.259s5.552.578,9.238-2.665c0,0-5.028-26.1-6.1-30.8-.6-2.625-.611-4.008-3.87-6.893-2.794-2.473-15.272-11.917-15.272-11.917S342.063,298.507,338.866,291.319Z" transform="translate(-309.321 -291.319)" fill="#fdb6c7"/>
                </g>
              </g>
              <g id="Grupo_39363" data-name="Grupo 39363" transform="translate(36.393 18.518)">
                <path id="Trazado_92107" data-name="Trazado 92107" d="M387.44,213.772a2.829,2.829,0,0,0-1.464.294,9.188,9.188,0,0,0-1.5.976q-1.1.811-2.26,1.542a6.274,6.274,0,0,1-2.228,1.053c-.274.045-.857.055-.559-.361a11.726,11.726,0,0,0,1.116-1.657,2.4,2.4,0,0,0,.165-1.934.821.821,0,0,0-.381-.45c-.259-.119-.39.019-.538.188a5.426,5.426,0,0,1-.521.488c-.369.325-.737.652-1.1.983-2.126,1.93-4.71,3.6-5.62,6.394a17.18,17.18,0,0,0-.753,5.306c-.019,3.063-.2,13.723-.2,13.723s-8.467-7.121-12.139-10.19c-1.77-1.48-4.245-3.276-6.972-3.535-1.929-.183-3.055-.172-3.055-.172l5.775,14s10.919,8.123,16.154,10.92c4.725,2.524,7.022.706,7.593-.619.946-2.2,1.918-3.224.585-15.479-.1-.948-.213-3.661-.32-4.608-.137-1.978.086-3.988.853-4.418a23.263,23.263,0,0,0,4.006-2.717,12.108,12.108,0,0,0,2.117-2.38,3.727,3.727,0,0,0,.725-1.367c.047-.461-.155-.949-.015-1.4.1-.31.3-.564.383-.9a5.231,5.231,0,0,1,.531-2.035c.236-.322.629-.611.575-1.007a.824.824,0,0,0-.68-.592A1.938,1.938,0,0,0,387.44,213.772Z" transform="translate(-348.849 -213.191)" fill="#ffa8a7"/>
                <path id="Trazado_92108" data-name="Trazado 92108" d="M394.375,222.47a8.872,8.872,0,0,1-2.208,4.409,5.192,5.192,0,0,0,1.876-1.9A2.935,2.935,0,0,0,394.375,222.47Z" transform="translate(-364.421 -216.572)" fill="#f28f8f"/>
                <path id="Trazado_92109" data-name="Trazado 92109" d="M348.515,233.559c2.947.128,5.244.194,7.757,1.644s13.734,10.844,13.734,10.844.111-4.782.4-7.3c.2-1.746.489-2.3,1.033-2.209a4.822,4.822,0,0,0,3.731,1.7c2.757.207,3.684-.938,3.684-.938s.8-.189,1.093.938.809,13.343.306,16.863-2.08,5.156-4.194,5.651-7.015-2.468-12.9-6.426-12.276-7.647-12.276-7.647Z" transform="translate(-348.515 -220.612)" fill="#00223d"/>
                <path id="Trazado_92111" data-name="Trazado 92111" d="M381.537,252.571a23.211,23.211,0,0,0,.242,6.858s-2.152-4.158-1.489-7.966Z" transform="translate(-360.047 -227.136)" opacity="0.1"/>
              </g>
              <g id="Grupo_39369" data-name="Grupo 39369" transform="translate(9.713)">
                <path id="Trazado_92112" data-name="Trazado 92112" d="M308.993,235.994c-.486,2.576-5.379,27.045.186,45.294,10.02,1.182,27.618-3.418,30.257-10.051,0,0-1.778-6.293-2.549-9.37.163-5.048,0-14.682-.1-17.664-.2-5.908-1.124-10.477-4.055-10.909,0,0-5.885-.233-9.447-.087-3.076.126-5.388.16-5.388.16Z" transform="translate(-306.54 -201.949)" fill="#fafafa"/>
                <path id="Trazado_92113" data-name="Trazado 92113" d="M323.71,278.191c-.647-1.436-12.541-8.779-12.541-8.779s.181-3.4.889-9.66.918-13.759-1.338-17.53l-2.274.088c-1.287,7.592-3.9,27.087.732,42.279,5.342.63,12.838-.384,19.073-2.473C327.1,281.346,324.226,279.336,323.71,278.191Z" transform="translate(-306.54 -205.251)" fill="#f0f0f0"/>
                <g id="Grupo_39368" data-name="Grupo 39368" transform="translate(5.353)">
                  <path id="Trazado_92114" data-name="Trazado 92114" d="M320.077,210.335c.02-1.266-2.407-5.049-3.506-8.04-1.837-5-2-9.494,2.536-11.444,0,0,2.834-4.888,9.981-5.131s12.64,5.789,10.265,13.855Z" transform="translate(-315.108 -184.661)" fill="#455a64"/>
                  <g id="Grupo_39366" data-name="Grupo 39366" transform="translate(0 8.406)">
                    <g id="Grupo_39364" data-name="Grupo 39364">
                      <path id="Trazado_92115" data-name="Trazado 92115" d="M321.7,206.822c-.933,0-1.273-1.34-1.913-2.059a2.763,2.763,0,0,0-4.27.531c-1.32,1.911-.037,4.666,1.4,5.732a2.259,2.259,0,0,0,3.066.047l-.164,10.1s.322,2.239,4.447,3.539c4.765,1.5,8.643-1.007,5.805-4.151l.106-2.661a13.706,13.706,0,0,0,4.606.257c1.59-.242,2.863-1.438,3.68-3.889,1.594-4.784,1.152-11.162-.495-16.986-1.572,1.243-8.847,3.575-15.4,1.264C322.8,202.568,322.608,206.822,321.7,206.822Z" transform="translate(-314.961 -197.282)" fill="#ffa8a7"/>
                      <path id="Trazado_92116" data-name="Trazado 92116" d="M320.805,216.857a.591.591,0,1,1-.591-.591A.591.591,0,0,1,320.805,216.857Z" transform="translate(-316.66 -204.199)" fill="#263238"/>
                      <path id="Trazado_92117" data-name="Trazado 92117" d="M334.323,226.828a26.565,26.565,0,0,1-5.545-2.261,7.637,7.637,0,0,1-2.439-2.782,10.206,10.206,0,0,0,1.68,3.364c1.9,2.157,6.251,3.153,6.251,3.153Z" transform="translate(-319.107 -206.21)" fill="#f28f8f"/>
                    </g>
                    <g id="Grupo_39365" data-name="Grupo 39365" transform="translate(11.544 4.506)">
                      <path id="Trazado_92118" data-name="Trazado 92118" d="M337.261,211.624a.991.991,0,1,1-1.009-1.013A1.007,1.007,0,0,1,337.261,211.624Z" transform="translate(-333.909 -206.645)" fill="#263238"/>
                      <path id="Trazado_92119" data-name="Trazado 92119" d="M335.393,206.5l-2.14,1.128a1.269,1.269,0,0,1,.526-1.676A1.18,1.18,0,0,1,335.393,206.5Z" transform="translate(-333.122 -204.898)" fill="#263238"/>
                      <path id="Trazado_92120" data-name="Trazado 92120" d="M337.846,220.39l3.4,1.085a1.875,1.875,0,0,1-2.31,1.182A1.743,1.743,0,0,1,337.846,220.39Z" transform="translate(-334.805 -210.208)" fill="#f28f8f"/>
                      <path id="Trazado_92121" data-name="Trazado 92121" d="M349.758,205.932l-2.351-.644a1.169,1.169,0,0,1,1.456-.875A1.28,1.28,0,0,1,349.758,205.932Z" transform="translate(-338.327 -204.37)" fill="#263238"/>
                      <path id="Trazado_92122" data-name="Trazado 92122" d="M349.013,210.4A.991.991,0,1,1,348,209.383,1.006,1.006,0,0,1,349.013,210.4Z" transform="translate(-338.191 -206.197)" fill="#263238"/>
                    </g>
                  </g>
                  <path id="Trazado_92123" data-name="Trazado 92123" d="M340.715,192.463c2.2-1.566,3.42-3.66,2.836-6.543-.857.861-3.261,1.015-5.363.012a16.46,16.46,0,0,0-10.778-1.559c-3.882.751-6.156,3.7-6.156,5.875a8.113,8.113,0,0,0,3.608,3.479,14.391,14.391,0,0,0,9.369,2.7,9.253,9.253,0,0,0,5.517-2,5.975,5.975,0,0,1-2.979-.453A10.494,10.494,0,0,0,340.715,192.463Z" transform="translate(-317.254 -184.058)" fill="#37474f"/>
                  <g id="Grupo_39367" data-name="Grupo 39367" transform="translate(17.266 15.108)">
                    <path id="Trazado_92124" data-name="Trazado 92124" d="M342.968,214.55,346,213.167l-3.874-5.341Z" transform="translate(-342.126 -207.826)" fill="#f28f8f"/>
                  </g>
                </g>
              </g>
              <g id="Laptop-2" data-name="Laptop" transform="translate(0 34.045)">
                <path id="Trazado_92125" data-name="Trazado 92125" d="M371.473,312.5a5.809,5.809,0,0,0-.921-1.081c-3.533-3.27-10.168-7.592-15.807-11.184l-25.651,14.812a.236.236,0,0,0,0,.409l18.629,10.757Z" transform="translate(-305.002 -260.436)" opacity="0.15"/>
                <g id="Grupo_39386" data-name="Grupo 39386">
                  <g id="Grupo_39379" data-name="Grupo 39379" transform="translate(24.758 34.191)">
                    <g id="Grupo_39370" data-name="Grupo 39370" transform="translate(0 10.346)">
                      <path id="Trazado_92126" data-name="Trazado 92126" d="M379.7,307.686v.415a1.707,1.707,0,0,1-.852,1.477L349.024,326.8a1.685,1.685,0,0,1-.849.226,1.716,1.716,0,0,1-.857-.227l-16.257-9.356a1.711,1.711,0,0,1-.85-1.477v-.574h0v.006a.213.213,0,0,0,.108.188l17.853,10.31Z" transform="translate(-330.21 -307.686)" fill="#37474f"/>
                    </g>
                    <g id="Grupo_39371" data-name="Grupo 39371" transform="translate(17.963 10.345)">
                      <path id="Trazado_92127" data-name="Trazado 92127" d="M358.47,325.888v1.135a1.7,1.7,0,0,0,.851-.227l29.825-17.219A1.707,1.707,0,0,0,390,308.1v-.415Z" transform="translate(-358.47 -307.684)" fill="#263238"/>
                    </g>
                    <g id="Grupo_39372" data-name="Grupo 39372" transform="translate(0)">
                      <path id="Trazado_92128" data-name="Trazado 92128" d="M379.7,301.754l-17.684-10.209a1.017,1.017,0,0,0-1.016,0L330.323,309.26a.226.226,0,0,0,0,.392l17.85,10.307Z" transform="translate(-330.21 -291.409)" fill="#455a64"/>
                    </g>
                    <g id="Grupo_39375" data-name="Grupo 39375" transform="translate(8.262 5.444)">
                      <g id="Grupo_39373" data-name="Grupo 39373" transform="translate(0 0.001)">
                        <path id="Trazado_92129" data-name="Trazado 92129" d="M352.746,321.578l-9.538-5.5,27.89-16.1,9.588,5.472Z" transform="translate(-343.208 -299.975)" fill="#37474f"/>
                      </g>
                      <g id="Grupo_39374" data-name="Grupo 39374" transform="translate(0.002)">
                        <path id="Trazado_92130" data-name="Trazado 92130" d="M380.686,305.447l-.364.21-9.224-5.263-27.523,15.894-.364-.21,27.887-16.1Z" transform="translate(-343.211 -299.974)" fill="#263238"/>
                      </g>
                    </g>
                    <g id="Grupo_39378" data-name="Grupo 39378" transform="translate(13.112 6.846)">
                      <g id="Grupo_39376" data-name="Grupo 39376">
                        <path id="Trazado_92131" data-name="Trazado 92131" d="M350.839,307.079l.176.1,4.675,2.7,8.314-4.8.173-.1-4.851-2.8Z" transform="translate(-350.839 -302.18)" fill="#263238"/>
                      </g>
                      <g id="Grupo_39377" data-name="Grupo 39377" transform="translate(0.176 0.2)">
                        <path id="Trazado_92132" data-name="Trazado 92132" d="M351.115,307.295l4.675,2.7,8.314-4.8-4.678-2.7Z" transform="translate(-351.115 -302.495)" fill="#37474f"/>
                      </g>
                    </g>
                  </g>
                  <g id="Arm">
                    <path id="Trazado_92133" data-name="Trazado 92133" d="M350.82,310.553c-1.337-1.327-3.278-3.165-4.908-3.706a9.136,9.136,0,0,0-1.146-.357,12.988,12.988,0,0,0,1.675-.334,2.958,2.958,0,0,0,1.416-.938c.142-.183.241-.474.063-.62a.386.386,0,0,0-.232-.086c-1.222-.037-2.185-.227-3.294-.307a4.623,4.623,0,0,0-1.5.027c-.455.124-.909.256-1.356.411a10.8,10.8,0,0,1-6.743.664l-5.163-2.754s-1.1-.276-2.729,2.477-.676,4.264-.676,4.264l5.8,2h0l.084.032a19.153,19.153,0,0,0,2.736,1.205c1.807.555,4.119-.1,5.689-.185a16.638,16.638,0,0,1,5.688,1.233c1.456.591,3.2-1.652,3.935-1.382S352.158,311.879,350.82,310.553Z" transform="translate(-303.902 -261.276)" fill="#ffa8a7"/>
                    <path id="Trazado_92134" data-name="Trazado 92134" d="M353.21,307.246a5.5,5.5,0,0,0-2.223.359,12.11,12.11,0,0,1,2.9.5,12.973,12.973,0,0,0,1.675-.334,3.089,3.089,0,0,0,1.285-.786C355.968,307.587,354.266,307.354,353.21,307.246Z" transform="translate(-313.023 -262.896)" fill="#f28f8f"/>
                    <g id="Grupo_39380" data-name="Grupo 39380">
                      <path id="Trazado_92135" data-name="Trazado 92135" d="M303.425,237.619c1.469.58,3.38,6.7,2.2,12.6l-2.734,18.424s3.35,1.983,8.05,4.894c3.258,2.017,6.05,3.866,6.051,5.361-2.133.766-4.05,4.694-3.4,6.741-1.457,1.726-14.905-5.73-19.608-8.945-2.18-1.491-3.279-2.079-2.44-8.81.928-7.45,1.564-15.727,3.015-21.25C296.072,240.866,297.758,238.628,303.425,237.619Z" transform="translate(-291.26 -237.619)" fill="#00223d"/>
                    </g>
                  </g>
                  <g id="Grupo_39385" data-name="Grupo 39385" transform="translate(42.721 22.834)">
                    <g id="Grupo_39381" data-name="Grupo 39381" transform="translate(0.481 0.313)">
                      <path id="Trazado_92137" data-name="Trazado 92137" d="M359.226,313.879a2.017,2.017,0,0,0,1.74-.134L390.66,296.6a2.02,2.02,0,0,0,.982-1.412l3.251-19.386a1.994,1.994,0,0,0,.027-.331,2.021,2.021,0,0,0-.6-1.436l-30.858,17.819a1.5,1.5,0,0,0-.725,1.045Z" transform="translate(-359.226 -274.036)" fill="#37474f"/>
                    </g>
                    <g id="Grupo_39382" data-name="Grupo 39382">
                      <path id="Trazado_92138" data-name="Trazado 92138" d="M358.47,313.449l.2.116a2.356,2.356,0,0,0,.277.134l3.514-20.98a1.5,1.5,0,0,1,.725-1.045l30.858-17.819a2.061,2.061,0,0,0-.412-.313l-30.92,17.852a1.5,1.5,0,0,0-.726,1.044Z" transform="translate(-358.47 -273.543)" fill="#455a64"/>
                    </g>
                    <g id="Grupo_39383" data-name="Grupo 39383" transform="translate(0 18.251)">
                      <path id="Trazado_92139" data-name="Trazado 92139" d="M362.751,302.533l-.479-.276a1.5,1.5,0,0,0-.283.645l-3.519,21.01.2.116a2.361,2.361,0,0,0,.277.134l3.514-20.979A1.486,1.486,0,0,1,362.751,302.533Z" transform="translate(-358.47 -302.256)" fill="#263238"/>
                    </g>
                    <g id="Grupo_39384" data-name="Grupo 39384" transform="translate(17.174 17.972)">
                      <path id="Trazado_92140" data-name="Trazado 92140" d="M385.52,306.106a6.559,6.559,0,0,1,2.992-3.851c1.436-.829,2.422-.448,2.2.85a6.563,6.563,0,0,1-2.993,3.851C386.289,307.784,385.3,307.4,385.52,306.106Z" transform="translate(-385.49 -301.817)" fill="#ccbcfe"/>
                    </g>
                  </g>
                </g>
              </g>
            </g>
          </g>
        </g>
      </g>
    </g>
  </g>
</svg>
