<svg xmlns="http://www.w3.org/2000/svg" width="808.854" height="421.135" viewBox="0 0 808.854 421.135">
  <g id="Grupo_54406" data-name="Grupo 54406" transform="translate(557.967 -912.562)">
    <g id="Group_54360" data-name="Group 54360" transform="translate(-289.576 1154.357)">
      <path id="Path_116867" data-name="Path 116867" d="M-392.816,1039.419h3.107a1.473,1.473,0,0,1,1.539,1.41.714.714,0,0,1,0,.108c.011.977,0,1.953,0,2.933v.343h5.482a2.979,2.979,0,0,1,3.129,2.824,2.581,2.581,0,0,1,0,.294v18.923a2.983,2.983,0,0,1-2.9,3.07c-.057,0-.111,0-.166,0h-1.3v3.806q-.017,2.544-.043,5.088a1.464,1.464,0,0,1-1.445,1.482h-7.2a1.463,1.463,0,0,1-1.519-1.4c0-.046,0-.091,0-.14v-3.27h-54.384c0,.117-.014.219-.014.322v2.873a1.5,1.5,0,0,1-1.391,1.607,1.4,1.4,0,0,1-.217,0h-6.987a1.484,1.484,0,0,1-1.6-1.348,1.6,1.6,0,0,1,0-.234v-8.8h-.805a13.052,13.052,0,0,1-2.236-.123,2.857,2.857,0,0,1-2.2-2.835v-18.977a2.988,2.988,0,0,1,2.8-3.161,3.4,3.4,0,0,1,.346,0h5.882v-3.252a1.47,1.47,0,0,1,1.391-1.542,1.355,1.355,0,0,1,.154,0h3.672V998.832a1.47,1.47,0,0,1,1.356-1.573,1.489,1.489,0,0,1,1.6,1.362l0,.083c.014.377,0,.751,0,1.125v39.6h3.435a1.478,1.478,0,0,1,1.53,1.422.687.687,0,0,1,0,.109v3.243h41.269c0-.105.014-.211.014-.317,0-.917.02-1.833,0-2.752a1.575,1.575,0,0,1,1.422-1.713,1.809,1.809,0,0,1,.277,0c.954.046,1.913,0,2.87,0a.445.445,0,0,0,.1-.023V998.835a1.5,1.5,0,0,1,1.41-1.591,1.547,1.547,0,0,1,.591.083,1.569,1.569,0,0,1,1,1.591v12.05c0,.865-.029,1.73-.037,2.593,0,.277.037.551.037.828v24.719Zm-68.141,26.912h78.4v-19.1h-78.4Zm74.029,3h-68.781v2.575h68.781Zm-65.006-26.926v1.785h7.181v-1.785Zm60.768,0h-6.316v1.785h6.316Zm-64.552,34.3h4.192v-1.8h-4.192Zm68.769-1.8h-4.186v1.8h4.186Z" transform="translate(463.972 -997.242)" fill="#12263f"/>
      <path id="Path_116876" data-name="Path 116876" d="M-428.765,1028.459h-24.6a1.5,1.5,0,0,1-1.6-1.111,1.62,1.62,0,0,1-.046-.437v-8.169c0-.58.009-1.159.02-1.742a1.442,1.442,0,0,1,1.3-1.248l46.466-.029h3.01a1.557,1.557,0,0,1,1.733,1.356,1.56,1.56,0,0,1,0,.383v9.294a1.526,1.526,0,0,1-1.328,1.7,1.551,1.551,0,0,1-.366,0h-24.568Zm23.271-9.734h-46.54v6.73h46.54Z" transform="translate(480.59 -962.974)" fill="#12263f"/>
      <path id="Path_116877" data-name="Path 116877" d="M-454.263,1022.088v4.791a1.515,1.515,0,0,1-1.445,1.579h-.051a1.494,1.494,0,0,1-1.476-1.508l0-.051c0-1.393.017-2.784.017-4.174,0-1.813-.014-3.63-.017-5.443a1.488,1.488,0,0,1,1.4-1.568,1.49,1.49,0,0,1,1.565,1.405,1.765,1.765,0,0,1,0,.177c0,1.2-.014,2.4-.02,3.6v1.182Z" transform="translate(476.472 -962.973)" fill="#6e40fc"/>
      <path id="Path_116878" data-name="Path 116878" d="M-456.007,1022.093v4.82a1.479,1.479,0,0,1-1.445,1.519,1.486,1.486,0,0,1-1.522-1.448h0v-9.734a1.485,1.485,0,0,1,1.43-1.539,1.484,1.484,0,0,1,1.539,1.428v.1C-455.992,1018.858-456.007,1020.475-456.007,1022.093Z" transform="translate(473.244 -962.976)" fill="#6e40fc"/>
      <path id="Path_116880" data-name="Path 116880" d="M-447.5,1017.412a7.267,7.267,0,0,1,1.168.123,1.438,1.438,0,0,1,1.022,1.565,1.465,1.465,0,0,1-1.376,1.311c-.571.023-1.142.026-1.713,0a1.447,1.447,0,0,1-1.348-1.536v0a1.463,1.463,0,0,1,1.419-1.419h.828Z" transform="translate(490.359 -959.82)" fill="#12263f"/>
      <path id="Path_116881" data-name="Path 116881" d="M-442.317,1017.417a7.241,7.241,0,0,1,1.114.089,1.459,1.459,0,0,1,1.091,1.582,1.475,1.475,0,0,1-1.4,1.317,10.977,10.977,0,0,1-1.936-.066,1.389,1.389,0,0,1-1.1-1.607,1.474,1.474,0,0,1,1.428-1.279h.8Z" transform="translate(499.967 -959.81)" fill="#12263f"/>
      <path id="Path_116882" data-name="Path 116882" d="M-450.129,1020.4c-.266,0-.534.011-.8,0a1.487,1.487,0,0,1-1.411-1.559,1.488,1.488,0,0,1,1.482-1.41h1.448a1.483,1.483,0,0,1,1.488,1.479,1.485,1.485,0,0,1-1.41,1.488c-.266.014-.537,0-.8,0Z" transform="translate(485.558 -959.794)" fill="#37a3a5"/>
      <path id="Path_116883" data-name="Path 116883" d="M-444.914,1017.427h.74a1.485,1.485,0,0,1,1.473,1.4,1.467,1.467,0,0,1-1.319,1.545,12.6,12.6,0,0,1-1.859,0,1.454,1.454,0,0,1-1.279-1.519,1.484,1.484,0,0,1,1.419-1.428h.828Z" transform="translate(495.163 -959.792)" fill="#12263f"/>
      <path id="Path_116884" data-name="Path 116884" d="M-439.762,1017.417a7.67,7.67,0,0,1,1.142.091,1.474,1.474,0,0,1,1.091,1.428,1.459,1.459,0,0,1-1.393,1.442c-.534.023-1.059.037-1.588.026a1.485,1.485,0,0,1-1.465-1.5,1.485,1.485,0,0,1,1.5-1.465h.714Z" transform="translate(504.785 -959.81)" fill="#12263f"/>
    </g>
    <g id="Group_54360-2" data-name="Group 54360" transform="translate(-158.471 1078.173)">
      <path id="Path_116867-2" data-name="Path 116867" d="M-346.9,1012.737h3.107a1.479,1.479,0,0,1,1.539,1.411v.109c.011.976,0,1.953,0,2.932v.342h5.479a2.983,2.983,0,0,1,3.132,2.824c0,.1,0,.2,0,.294v18.922a2.985,2.985,0,0,1-2.9,3.07,1.45,1.45,0,0,1-.163,0h-1.3v3.806q-.013,2.544-.04,5.088a1.466,1.466,0,0,1-1.445,1.482H-346.7a1.459,1.459,0,0,1-1.516-1.4,1.091,1.091,0,0,1,0-.137v-3.272H-402.6c0,.117-.014.22-.014.323v2.873a1.507,1.507,0,0,1-1.393,1.608,1.335,1.335,0,0,1-.214,0h-6.987a1.48,1.48,0,0,1-1.6-1.348,1.617,1.617,0,0,1,0-.234v-8.8h-.805a12.981,12.981,0,0,1-2.233-.123,2.858,2.858,0,0,1-2.2-2.836v-18.977a2.987,2.987,0,0,1,2.8-3.161c.114-.006.231-.006.346,0h5.882v-3.252a1.473,1.473,0,0,1,1.39-1.542,1.415,1.415,0,0,1,.154,0h3.672V972.151a1.468,1.468,0,0,1,1.356-1.573,1.486,1.486,0,0,1,1.6,1.362l.006.083c.011.377,0,.751,0,1.125v39.6h3.435a1.48,1.48,0,0,1,1.531,1.425.656.656,0,0,1,0,.106v3.244h41.269c0-.106.014-.211.014-.317,0-.917.02-1.833,0-2.753a1.575,1.575,0,0,1,1.422-1.713,1.522,1.522,0,0,1,.277,0c.954.043,1.913,0,2.87,0a.552.552,0,0,0,.1-.026V972.154a1.5,1.5,0,0,1,1.411-1.591,1.555,1.555,0,0,1,.594.083,1.569,1.569,0,0,1,1,1.591v12.052c0,.863-.031,1.727-.037,2.59,0,.277.034.554.034.828v24.719Zm-68.144,26.912h78.4v-19.1h-78.4Zm74.029,3h-68.778v2.579h68.778Zm-65-26.926v1.785h7.181v-1.785Zm60.768,0h-6.316v1.785h6.316Zm-64.554,34.3h4.194v-1.8h-4.194Zm68.772-1.8h-4.189v1.8h4.189Z" transform="translate(418.057 -970.561)" fill="#12263f"/>
      <path id="Path_116876-2" data-name="Path 116876" d="M-382.848,1001.776h-24.6a1.5,1.5,0,0,1-1.608-1.111,1.73,1.73,0,0,1-.046-.437v-8.169c0-.58.009-1.159.023-1.739a1.443,1.443,0,0,1,1.3-1.251l46.466-.026h3.009a1.551,1.551,0,0,1,1.73,1.354,1.438,1.438,0,0,1,0,.382v9.294a1.527,1.527,0,0,1-1.328,1.7,1.578,1.578,0,0,1-.366,0h-24.568Zm23.268-9.734h-46.537v6.73h46.537Z" transform="translate(434.673 -936.291)" fill="#12263f"/>
      <path id="Path_116877-2" data-name="Path 116877" d="M-408.348,995.406v4.792a1.513,1.513,0,0,1-1.445,1.579h-.051a1.492,1.492,0,0,1-1.476-1.508l0-.052c0-1.391.017-2.781.017-4.172,0-1.816-.014-3.629-.017-5.445a1.486,1.486,0,0,1,1.4-1.568,1.49,1.49,0,0,1,1.568,1.4,1.224,1.224,0,0,1,0,.177c0,1.2-.014,2.4-.02,3.607V995.4Z" transform="translate(430.556 -936.292)" fill="#6e40fc"/>
      <path id="Path_116878-2" data-name="Path 116878" d="M-410.092,995.412v4.82a1.483,1.483,0,0,1-1.448,1.519,1.481,1.481,0,0,1-1.519-1.445h0V990.57a1.484,1.484,0,0,1,1.428-1.539,1.486,1.486,0,0,1,1.542,1.428v.1C-410.077,992.177-410.092,993.793-410.092,995.412Z" transform="translate(427.329 -936.295)" fill="#6e40fc"/>
      <path id="Path_116880-2" data-name="Path 116880" d="M-401.585,990.732a7.249,7.249,0,0,1,1.165.12,1.443,1.443,0,0,1,1.025,1.565,1.468,1.468,0,0,1-1.379,1.311c-.568.026-1.142.026-1.71,0a1.445,1.445,0,0,1-1.348-1.536v0a1.464,1.464,0,0,1,1.419-1.419h.825Z" transform="translate(444.444 -933.137)" fill="#12263f"/>
      <path id="Path_116881-2" data-name="Path 116881" d="M-396.4,990.736a7.221,7.221,0,0,1,1.111.089,1.463,1.463,0,0,1,1.094,1.582,1.474,1.474,0,0,1-1.4,1.316,10.691,10.691,0,0,1-1.939-.066,1.393,1.393,0,0,1-1.1-1.607,1.477,1.477,0,0,1,1.431-1.279h.8Z" transform="translate(454.05 -933.129)" fill="#12263f"/>
      <path id="Path_116882-2" data-name="Path 116882" d="M-404.214,993.715c-.266,0-.537.011-.8,0a1.484,1.484,0,0,1-1.408-1.556,1.488,1.488,0,0,1,1.482-1.413h1.448A1.485,1.485,0,0,1-402,992.224a1.485,1.485,0,0,1-1.413,1.488c-.266.014-.534,0-.8,0Z" transform="translate(439.643 -933.112)" fill="#6e40fc"/>
      <path id="Path_116883-2" data-name="Path 116883" d="M-399,990.746h.74a1.493,1.493,0,0,1,1.473,1.4,1.467,1.467,0,0,1-1.322,1.545,12.592,12.592,0,0,1-1.856,0,1.452,1.452,0,0,1-1.279-1.519,1.486,1.486,0,0,1,1.419-1.428H-399Z" transform="translate(449.248 -933.111)" fill="#12263f"/>
      <path id="Path_116884-2" data-name="Path 116884" d="M-393.847,990.736a7.635,7.635,0,0,1,1.142.092,1.473,1.473,0,0,1,1.091,1.428,1.459,1.459,0,0,1-1.393,1.442c-.537.023-1.059.037-1.588.026a1.484,1.484,0,0,1-1.465-1.5,1.483,1.483,0,0,1,1.5-1.465h.714Z" transform="translate(458.87 -933.129)" fill="#12263f"/>
    </g>
    <g id="Group_54360-3" data-name="Group 54360" transform="translate(-175.106 982.906)">
      <path id="Path_116867-3" data-name="Path 116867" d="M-352.727,979.374h3.107a1.477,1.477,0,0,1,1.539,1.411v.111c.011.974,0,1.951,0,2.93v.343h5.479a2.984,2.984,0,0,1,3.132,2.824,2.516,2.516,0,0,1,0,.294v18.923a2.983,2.983,0,0,1-2.9,3.069,1.508,1.508,0,0,1-.163,0h-1.3v3.806q-.013,2.544-.04,5.089a1.464,1.464,0,0,1-1.445,1.482h-7.207a1.46,1.46,0,0,1-1.516-1.4,1.127,1.127,0,0,1,0-.137v-3.272h-54.381c0,.117-.014.22-.014.323v2.872a1.505,1.505,0,0,1-1.393,1.608,1.334,1.334,0,0,1-.214,0h-6.987a1.481,1.481,0,0,1-1.6-1.348,1.6,1.6,0,0,1,0-.234v-8.8h-.805a12.992,12.992,0,0,1-2.233-.122,2.858,2.858,0,0,1-2.2-2.835V987.329a2.989,2.989,0,0,1,2.8-3.161c.114-.006.231-.006.345,0h5.882v-3.252a1.472,1.472,0,0,1,1.391-1.542c.051,0,.1,0,.154,0h3.672V938.787a1.47,1.47,0,0,1,1.356-1.573,1.485,1.485,0,0,1,1.6,1.362l.006.083c.011.377,0,.751,0,1.125v39.6h3.435A1.478,1.478,0,0,1-401.7,980.8a.65.65,0,0,1,0,.106v3.244h41.269c0-.106.014-.211.014-.317,0-.917.02-1.833,0-2.753A1.575,1.575,0,0,1-359,979.371a1.5,1.5,0,0,1,.277,0c.954.043,1.913,0,2.87,0a.674.674,0,0,0,.1-.026V938.79a1.5,1.5,0,0,1,1.408-1.591,1.548,1.548,0,0,1,.594.083,1.57,1.57,0,0,1,1,1.593v12.05c0,.862-.031,1.727-.037,2.59,0,.277.034.554.034.828v24.719Zm-68.141,26.912h78.4v-19.1h-78.4Zm74.026,3H-415.62v2.578h68.778Zm-65-26.926v1.785h7.181V982.36Zm60.768,0h-6.316v1.785h6.316Zm-64.555,34.3h4.195v-1.8h-4.195Zm68.772-1.8h-4.189v1.8h4.189Z" transform="translate(423.883 -937.197)" fill="#12263f"/>
      <path id="Path_116876-3" data-name="Path 116876" d="M-388.674,968.412h-24.6a1.5,1.5,0,0,1-1.6-1.111,1.605,1.605,0,0,1-.048-.437V958.7q0-.87.023-1.739a1.442,1.442,0,0,1,1.3-1.251l46.466-.026h3.01a1.552,1.552,0,0,1,1.73,1.354,1.43,1.43,0,0,1,0,.383v9.294a1.527,1.527,0,0,1-1.328,1.7,1.709,1.709,0,0,1-.366,0h-24.568Zm23.268-9.734h-46.537v6.733h46.537Z" transform="translate(440.499 -902.927)" fill="#12263f"/>
      <path id="Path_116877-3" data-name="Path 116877" d="M-414.174,962.041v4.794a1.512,1.512,0,0,1-1.445,1.576h-.051a1.492,1.492,0,0,1-1.476-1.507l0-.052c0-1.39.017-2.781.017-4.172,0-1.816-.014-3.629-.017-5.445a1.483,1.483,0,0,1,1.4-1.565,1.486,1.486,0,0,1,1.568,1.4,1.239,1.239,0,0,1,0,.177c0,1.2-.014,2.4-.017,3.606v1.182Z" transform="translate(436.382 -902.926)" fill="#6e40fc"/>
      <path id="Path_116878-3" data-name="Path 116878" d="M-415.918,962.049v4.82a1.483,1.483,0,0,1-1.445,1.519,1.483,1.483,0,0,1-1.522-1.445h0v-9.737a1.484,1.484,0,0,1,1.428-1.539,1.487,1.487,0,0,1,1.542,1.428v.1C-415.9,958.813-415.918,960.432-415.918,962.049Z" transform="translate(433.155 -902.931)" fill="#6e40fc"/>
      <path id="Path_116880-3" data-name="Path 116880" d="M-407.411,957.368a7.208,7.208,0,0,1,1.165.12,1.443,1.443,0,0,1,1.025,1.565,1.468,1.468,0,0,1-1.376,1.31q-.856.039-1.713,0a1.445,1.445,0,0,1-1.348-1.536v0a1.464,1.464,0,0,1,1.419-1.419h.825Z" transform="translate(450.27 -899.773)" fill="#12263f"/>
      <path id="Path_116881-3" data-name="Path 116881" d="M-402.226,957.372a7.242,7.242,0,0,1,1.114.089,1.461,1.461,0,0,1,1.091,1.582,1.475,1.475,0,0,1-1.4,1.317,10.768,10.768,0,0,1-1.939-.066,1.394,1.394,0,0,1-1.1-1.608,1.478,1.478,0,0,1,1.431-1.279h.8Z" transform="translate(459.876 -899.765)" fill="#12263f"/>
      <path id="Path_116882-3" data-name="Path 116882" d="M-410.04,960.351c-.265,0-.537.011-.8,0a1.485,1.485,0,0,1-1.411-1.556,1.488,1.488,0,0,1,1.482-1.414h1.448a1.485,1.485,0,0,1,1.488,1.479,1.485,1.485,0,0,1-1.41,1.488c-.268.015-.537,0-.8,0Z" transform="translate(445.469 -899.748)" fill="#6e40fc"/>
      <path id="Path_116883-3" data-name="Path 116883" d="M-404.825,957.382h.74a1.491,1.491,0,0,1,1.473,1.4,1.467,1.467,0,0,1-1.319,1.545,12.631,12.631,0,0,1-1.859,0,1.452,1.452,0,0,1-1.279-1.519,1.486,1.486,0,0,1,1.419-1.428h.825Z" transform="translate(455.074 -899.747)" fill="#12263f"/>
      <path id="Path_116884-3" data-name="Path 116884" d="M-399.673,957.372a7.617,7.617,0,0,1,1.142.091,1.473,1.473,0,0,1,1.091,1.428,1.459,1.459,0,0,1-1.393,1.442c-.537.026-1.059.037-1.588.026a1.484,1.484,0,0,1-1.465-1.5,1.483,1.483,0,0,1,1.5-1.465h.714Z" transform="translate(464.696 -899.765)" fill="#12263f"/>
    </g>
    <g id="Group_54360-4" data-name="Group 54360" transform="translate(-303.227 927)">
      <path id="Path_116867-4" data-name="Path 116867" d="M-397.6,959.795h3.107a1.477,1.477,0,0,1,1.539,1.411v.111c.011.977,0,1.953,0,2.93v.343h5.479a2.984,2.984,0,0,1,3.132,2.824,2.512,2.512,0,0,1,0,.294v18.923a2.984,2.984,0,0,1-2.9,3.07q-.082,0-.163,0h-1.3v3.806q-.013,2.544-.04,5.088a1.463,1.463,0,0,1-1.445,1.482H-397.4a1.458,1.458,0,0,1-1.516-1.4,1.091,1.091,0,0,1,0-.137v-3.272h-54.381c0,.117-.014.22-.014.323v2.872a1.505,1.505,0,0,1-1.393,1.608,1.426,1.426,0,0,1-.214,0H-461.9a1.482,1.482,0,0,1-1.6-1.348,1.574,1.574,0,0,1,0-.234v-8.8h-.805a12.968,12.968,0,0,1-2.233-.123,2.858,2.858,0,0,1-2.2-2.835V967.75a2.989,2.989,0,0,1,2.8-3.161,3.4,3.4,0,0,1,.346,0h5.882v-3.252a1.468,1.468,0,0,1,1.391-1.539,1.353,1.353,0,0,1,.154,0h3.672V919.208a1.47,1.47,0,0,1,1.356-1.573,1.485,1.485,0,0,1,1.6,1.362l.006.086c.011.374,0,.748,0,1.122v39.6h3.435a1.478,1.478,0,0,1,1.531,1.425.684.684,0,0,1,0,.105v3.244H-405.3c0-.106.014-.211.014-.314,0-.919.02-1.836,0-2.753a1.578,1.578,0,0,1,1.422-1.716,1.5,1.5,0,0,1,.277,0c.954.043,1.913,0,2.87,0,.034-.006.069-.014.1-.023V919.211a1.5,1.5,0,0,1,1.408-1.59,1.5,1.5,0,0,1,.594.085,1.564,1.564,0,0,1,1,1.59v12.05c0,.862-.031,1.728-.037,2.592,0,.274.034.551.034.825v24.719Zm-68.141,26.912h78.4v-19.1h-78.4Zm74.026,3H-460.49v2.578h68.778Zm-65-26.926v1.785h7.181v-1.785Zm60.768,0h-6.316v1.785h6.316Zm-64.554,34.3h4.195v-1.8H-460.5Zm68.772-1.8h-4.189v1.8h4.189Z" transform="translate(468.753 -917.618)" fill="#12263f"/>
      <path id="Path_116876-4" data-name="Path 116876" d="M-433.544,948.833h-24.6a1.5,1.5,0,0,1-1.6-1.111,1.6,1.6,0,0,1-.049-.437v-8.169q0-.869.023-1.739a1.443,1.443,0,0,1,1.3-1.251l46.466-.026H-409a1.553,1.553,0,0,1,1.73,1.354,1.428,1.428,0,0,1,0,.382v9.294a1.525,1.525,0,0,1-1.328,1.7,1.576,1.576,0,0,1-.365,0h-24.568Zm23.268-9.734h-46.537v6.733h46.537Z" transform="translate(485.37 -883.348)" fill="#12263f"/>
      <path id="Path_116877-4" data-name="Path 116877" d="M-459.044,942.462v4.794a1.513,1.513,0,0,1-1.445,1.576h-.051a1.491,1.491,0,0,1-1.476-1.508l0-.052c0-1.391.017-2.781.017-4.172,0-1.816-.014-3.629-.017-5.445a1.483,1.483,0,0,1,1.4-1.565,1.486,1.486,0,0,1,1.568,1.4,1.2,1.2,0,0,1,0,.174c0,1.2-.014,2.4-.02,3.606v1.182Z" transform="translate(481.253 -883.348)" fill="#6e40fc"/>
      <path id="Path_116878-4" data-name="Path 116878" d="M-460.788,942.47v4.82a1.483,1.483,0,0,1-1.445,1.519,1.482,1.482,0,0,1-1.522-1.445h0v-9.737a1.484,1.484,0,0,1,1.428-1.539,1.487,1.487,0,0,1,1.542,1.428v.1C-460.773,939.234-460.788,940.853-460.788,942.47Z" transform="translate(478.025 -883.352)" fill="#6e40fc"/>
      <path id="Path_116880-4" data-name="Path 116880" d="M-452.281,937.789a7.262,7.262,0,0,1,1.165.12,1.446,1.446,0,0,1,1.025,1.568,1.467,1.467,0,0,1-1.376,1.308q-.856.038-1.713,0a1.445,1.445,0,0,1-1.348-1.536v0a1.459,1.459,0,0,1,1.419-1.416h.825Z" transform="translate(495.14 -880.194)" fill="#12263f"/>
      <path id="Path_116881-4" data-name="Path 116881" d="M-447.1,937.793a7.244,7.244,0,0,1,1.114.091,1.456,1.456,0,0,1,1.091,1.579,1.474,1.474,0,0,1-1.4,1.316,10.724,10.724,0,0,1-1.939-.066,1.393,1.393,0,0,1-1.1-1.607,1.477,1.477,0,0,1,1.431-1.279h.8Z" transform="translate(504.746 -880.186)" fill="#12263f"/>
      <path id="Path_116882-4" data-name="Path 116882" d="M-454.91,940.77c-.266,0-.537.011-.8,0a1.485,1.485,0,0,1-1.411-1.556,1.484,1.484,0,0,1,1.482-1.411h1.448a1.483,1.483,0,0,1,1.488,1.479,1.484,1.484,0,0,1-1.41,1.485c-.268.014-.537,0-.8,0Z" transform="translate(490.339 -880.168)" fill="#37a3a5"/>
      <path id="Path_116883-4" data-name="Path 116883" d="M-449.7,937.8h.74a1.491,1.491,0,0,1,1.473,1.4,1.471,1.471,0,0,1-1.319,1.548,13.419,13.419,0,0,1-1.859,0,1.455,1.455,0,0,1-1.279-1.519,1.486,1.486,0,0,1,1.419-1.43h.825Z" transform="translate(499.944 -880.168)" fill="#12263f"/>
      <path id="Path_116884-4" data-name="Path 116884" d="M-444.543,937.793a7.991,7.991,0,0,1,1.142.091,1.473,1.473,0,0,1,1.091,1.428,1.459,1.459,0,0,1-1.393,1.442c-.537.026-1.059.037-1.588.026a1.483,1.483,0,0,1-1.465-1.5,1.485,1.485,0,0,1,1.5-1.465h.714Z" transform="translate(509.566 -880.186)" fill="#12263f"/>
    </g>
    <g id="Group_54360-5" data-name="Group 54360" transform="translate(-400.61 1036.944)">
      <path id="Path_116867-5" data-name="Path 116867" d="M-431.7,998.3h3.107a1.474,1.474,0,0,1,1.539,1.411.68.68,0,0,1,0,.108c.011.977,0,1.953,0,2.933v.343h5.482a2.978,2.978,0,0,1,3.129,2.824,2.514,2.514,0,0,1,0,.294v18.923a2.983,2.983,0,0,1-2.9,3.069,1.562,1.562,0,0,1-.166,0h-1.3v3.806c-.011,1.7-.023,3.392-.043,5.088a1.464,1.464,0,0,1-1.445,1.482h-7.2a1.463,1.463,0,0,1-1.519-1.4c0-.046,0-.091,0-.14v-3.27H-487.4c0,.117-.014.22-.014.323v2.872a1.5,1.5,0,0,1-1.391,1.608,1.4,1.4,0,0,1-.217,0h-6.987a1.482,1.482,0,0,1-1.6-1.348,1.6,1.6,0,0,1,0-.234v-8.8h-.805a12.989,12.989,0,0,1-2.233-.123,2.857,2.857,0,0,1-2.2-2.835v-18.977a2.991,2.991,0,0,1,2.8-3.161c.114-.006.228-.006.345,0h5.882v-3.252a1.467,1.467,0,0,1,1.391-1.542,1.422,1.422,0,0,1,.151,0h3.672V957.712a1.471,1.471,0,0,1,1.359-1.573,1.487,1.487,0,0,1,1.6,1.362l0,.083c.014.377,0,.751,0,1.125v39.6h3.435a1.482,1.482,0,0,1,1.533,1.422v3.352h41.269c0-.106.014-.212.014-.317,0-.917.017-1.833,0-2.753a1.571,1.571,0,0,1,1.419-1.713,1.768,1.768,0,0,1,.277,0c.954.046,1.913,0,2.87,0a.438.438,0,0,0,.1-.023V957.715a1.5,1.5,0,0,1,1.41-1.59,1.546,1.546,0,0,1,.591.083,1.562,1.562,0,0,1,1,1.591v12.053c0,.862-.029,1.727-.037,2.59,0,.277.037.554.037.828v24.719Zm-68.141,26.912h78.4v-19.1h-78.4Zm74.029,3h-68.78v2.575h68.78Zm-65.005-26.926v1.785h7.181v-1.785Zm60.768,0h-6.316v1.785h6.316Zm-64.552,34.3h4.192v-1.8H-494.6Zm68.772-1.8h-4.189v1.8h4.189Z" transform="translate(502.858 -956.122)" fill="#12263f"/>
      <path id="Path_116876-5" data-name="Path 116876" d="M-467.651,987.339h-24.6a1.5,1.5,0,0,1-1.608-1.111,1.742,1.742,0,0,1-.046-.437v-8.169c0-.58.009-1.159.02-1.742a1.442,1.442,0,0,1,1.3-1.248l46.466-.029h3.01a1.557,1.557,0,0,1,1.733,1.356,1.714,1.714,0,0,1,0,.383v9.294a1.53,1.53,0,0,1-1.328,1.7,1.576,1.576,0,0,1-.368,0H-467.64Zm23.271-9.734h-46.54v6.73h46.54Z" transform="translate(519.476 -921.854)" fill="#12263f"/>
      <path id="Path_116877-5" data-name="Path 116877" d="M-493.149,980.968v4.791a1.511,1.511,0,0,1-1.445,1.579h-.052a1.49,1.49,0,0,1-1.473-1.508v-.051c0-1.391.017-2.781.017-4.175,0-1.813-.014-3.629-.017-5.442a1.488,1.488,0,0,1,1.4-1.568,1.489,1.489,0,0,1,1.565,1.4c0,.06,0,.117,0,.177,0,1.2-.014,2.4-.02,3.606v1.179Z" transform="translate(515.358 -921.853)" fill="#6e40fc"/>
      <path id="Path_116878-5" data-name="Path 116878" d="M-494.89,980.973v4.82a1.483,1.483,0,0,1-1.448,1.519,1.487,1.487,0,0,1-1.522-1.445h0v-9.737a1.488,1.488,0,0,1,1.43-1.539,1.484,1.484,0,0,1,1.539,1.428.548.548,0,0,1,0,.1C-494.876,977.738-494.89,979.354-494.89,980.973Z" transform="translate(512.13 -921.856)" fill="#6e40fc"/>
      <path id="Path_116880-5" data-name="Path 116880" d="M-486.386,976.293a6.938,6.938,0,0,1,1.168.12,1.443,1.443,0,0,1,1.025,1.565,1.47,1.47,0,0,1-1.379,1.31c-.571.023-1.142.026-1.713,0a1.447,1.447,0,0,1-1.348-1.536v0a1.463,1.463,0,0,1,1.419-1.419h.828Z" transform="translate(529.245 -918.698)" fill="#12263f"/>
      <path id="Path_116881-5" data-name="Path 116881" d="M-481.2,976.3a7.24,7.24,0,0,1,1.114.089A1.459,1.459,0,0,1-479,977.968a1.474,1.474,0,0,1-1.4,1.316,11.012,11.012,0,0,1-1.939-.066,1.391,1.391,0,0,1-1.1-1.608,1.477,1.477,0,0,1,1.428-1.279h.8Z" transform="translate(538.853 -918.69)" fill="#12263f"/>
      <path id="Path_116882-5" data-name="Path 116882" d="M-489.015,979.275c-.265,0-.534.011-.8,0a1.487,1.487,0,0,1-1.411-1.556,1.488,1.488,0,0,1,1.482-1.413h1.448a1.483,1.483,0,0,1,1.488,1.479,1.485,1.485,0,0,1-1.411,1.488c-.265.014-.537,0-.8,0Z" transform="translate(524.444 -918.673)" fill="#37a3a5"/>
      <path id="Path_116883-5" data-name="Path 116883" d="M-483.8,976.307h.74a1.492,1.492,0,0,1,1.476,1.405,1.471,1.471,0,0,1-1.322,1.545,12.665,12.665,0,0,1-1.859,0,1.451,1.451,0,0,1-1.279-1.519,1.486,1.486,0,0,1,1.419-1.428h.828Z" transform="translate(534.049 -918.672)" fill="#12263f"/>
      <path id="Path_116884-5" data-name="Path 116884" d="M-478.65,976.3a7.688,7.688,0,0,1,1.145.091,1.477,1.477,0,0,1,1.091,1.428,1.461,1.461,0,0,1-1.4,1.442c-.534.023-1.056.037-1.585.026a1.483,1.483,0,0,1-1.465-1.5,1.481,1.481,0,0,1,1.5-1.465h.714Z" transform="translate(543.672 -918.69)" fill="#12263f"/>
    </g>
    <g id="Group_54360-6" data-name="Group 54360" transform="translate(-19.191 927)">
      <path id="Path_116867-6" data-name="Path 116867" d="M-298.123,959.795h3.107a1.477,1.477,0,0,1,1.539,1.411c0,.037,0,.074,0,.111.011.977,0,1.953,0,2.93v.343h5.482a2.983,2.983,0,0,1,3.129,2.824,2.526,2.526,0,0,1,0,.294v18.923a2.984,2.984,0,0,1-2.9,3.07q-.081,0-.163,0h-1.3v3.806q-.013,2.544-.04,5.088a1.462,1.462,0,0,1-1.445,1.482h-7.207a1.458,1.458,0,0,1-1.516-1.4c0-.046,0-.091,0-.137v-3.272H-353.82c0,.117-.014.22-.014.323v2.872a1.505,1.505,0,0,1-1.393,1.608,1.427,1.427,0,0,1-.214,0h-6.987a1.482,1.482,0,0,1-1.6-1.348,1.591,1.591,0,0,1,0-.234v-8.8h-.805a12.968,12.968,0,0,1-2.233-.123,2.857,2.857,0,0,1-2.2-2.835V967.75a2.989,2.989,0,0,1,2.8-3.161,3.4,3.4,0,0,1,.345,0h5.882v-3.252a1.468,1.468,0,0,1,1.391-1.539,1.353,1.353,0,0,1,.154,0h3.672V919.208a1.47,1.47,0,0,1,1.356-1.573,1.485,1.485,0,0,1,1.6,1.362l.006.086c.011.374,0,.748,0,1.122v39.6h3.435a1.478,1.478,0,0,1,1.53,1.425.647.647,0,0,1,0,.105v3.244h41.269c0-.106.014-.211.014-.314,0-.919.02-1.836,0-2.753a1.578,1.578,0,0,1,1.422-1.716,1.5,1.5,0,0,1,.277,0c.954.043,1.913,0,2.87,0,.034-.006.069-.014.1-.023V919.211a1.5,1.5,0,0,1,1.41-1.59,1.483,1.483,0,0,1,.591.085,1.564,1.564,0,0,1,1,1.59v12.05c0,.862-.031,1.728-.037,2.592,0,.274.034.551.034.825v24.719Zm-68.141,26.912h78.4v-19.1h-78.4Zm74.026,3h-68.778v2.578h68.778Zm-65-26.926v1.785h7.181v-1.785Zm60.768,0h-6.316v1.785h6.316Zm-64.554,34.3h4.194v-1.8h-4.194Zm68.772-1.8h-4.186v1.8h4.186Z" transform="translate(369.279 -917.618)" fill="#12263f"/>
      <path id="Path_116876-6" data-name="Path 116876" d="M-334.07,948.833h-24.6a1.5,1.5,0,0,1-1.6-1.111,1.725,1.725,0,0,1-.048-.437v-8.169q0-.869.023-1.739a1.443,1.443,0,0,1,1.3-1.251l46.466-.026h3.01a1.552,1.552,0,0,1,1.73,1.354,1.425,1.425,0,0,1,0,.382v9.294a1.525,1.525,0,0,1-1.328,1.7,1.577,1.577,0,0,1-.366,0h-24.568ZM-310.8,939.1h-46.537v6.733H-310.8Z" transform="translate(385.895 -883.348)" fill="#12263f"/>
      <path id="Path_116877-6" data-name="Path 116877" d="M-359.57,942.462v4.794a1.512,1.512,0,0,1-1.445,1.576h-.051a1.491,1.491,0,0,1-1.476-1.508l0-.052c0-1.391.017-2.781.017-4.172,0-1.816-.014-3.629-.017-5.445a1.483,1.483,0,0,1,1.4-1.565,1.486,1.486,0,0,1,1.568,1.4,1.162,1.162,0,0,1,0,.174c0,1.2-.014,2.4-.017,3.606v1.182Z" transform="translate(381.779 -883.348)" fill="#6e40fc"/>
      <path id="Path_116878-6" data-name="Path 116878" d="M-361.314,942.47v4.82a1.481,1.481,0,0,1-1.445,1.519,1.482,1.482,0,0,1-1.522-1.445h0v-9.737a1.484,1.484,0,0,1,1.428-1.539,1.487,1.487,0,0,1,1.542,1.428v.1C-361.3,939.234-361.314,940.853-361.314,942.47Z" transform="translate(378.551 -883.352)" fill="#6e40fc"/>
      <path id="Path_116880-6" data-name="Path 116880" d="M-352.807,937.789a7.263,7.263,0,0,1,1.165.12,1.446,1.446,0,0,1,1.025,1.568,1.467,1.467,0,0,1-1.376,1.308q-.856.038-1.713,0a1.445,1.445,0,0,1-1.348-1.536v0a1.459,1.459,0,0,1,1.419-1.416h.828Z" transform="translate(395.666 -880.194)" fill="#12263f"/>
      <path id="Path_116881-6" data-name="Path 116881" d="M-347.622,937.793a7.244,7.244,0,0,1,1.114.091,1.456,1.456,0,0,1,1.091,1.579,1.475,1.475,0,0,1-1.4,1.316,10.733,10.733,0,0,1-1.939-.066,1.393,1.393,0,0,1-1.1-1.607,1.477,1.477,0,0,1,1.431-1.279h.8Z" transform="translate(405.272 -880.186)" fill="#12263f"/>
      <path id="Path_116882-6" data-name="Path 116882" d="M-355.436,940.77c-.266,0-.534.011-.8,0a1.485,1.485,0,0,1-1.411-1.556,1.484,1.484,0,0,1,1.482-1.411h1.448a1.483,1.483,0,0,1,1.488,1.479,1.484,1.484,0,0,1-1.411,1.485c-.268.014-.537,0-.8,0Z" transform="translate(390.865 -880.168)" fill="#6e40fc"/>
      <path id="Path_116883-6" data-name="Path 116883" d="M-350.221,937.8h.74a1.489,1.489,0,0,1,1.473,1.4,1.471,1.471,0,0,1-1.319,1.548,13.419,13.419,0,0,1-1.859,0,1.455,1.455,0,0,1-1.279-1.519,1.486,1.486,0,0,1,1.419-1.43h.825Z" transform="translate(400.47 -880.168)" fill="#12263f"/>
      <path id="Path_116884-6" data-name="Path 116884" d="M-345.069,937.793a7.99,7.99,0,0,1,1.142.091,1.473,1.473,0,0,1,1.091,1.428,1.459,1.459,0,0,1-1.393,1.442c-.537.026-1.059.037-1.588.026a1.483,1.483,0,0,1-1.465-1.5,1.485,1.485,0,0,1,1.5-1.465h.714Z" transform="translate(410.092 -880.186)" fill="#12263f"/>
    </g>
    <g id="Group_54360-7" data-name="Group 54360" transform="translate(11.436 1036.944)">
      <path id="Path_116867-7" data-name="Path 116867" d="M-287.4,998.3h3.11a1.473,1.473,0,0,1,1.536,1.411.666.666,0,0,1,0,.108c.011.977,0,1.953,0,2.933v.343h5.482a2.978,2.978,0,0,1,3.13,2.824,2.555,2.555,0,0,1,0,.294v18.923a2.983,2.983,0,0,1-2.9,3.069,1.562,1.562,0,0,1-.166,0h-1.3v3.806q-.017,2.544-.043,5.088a1.464,1.464,0,0,1-1.445,1.482h-7.2a1.459,1.459,0,0,1-1.516-1.4,1.148,1.148,0,0,1,0-.14v-3.27h-54.384c0,.117-.014.22-.014.323v2.872a1.5,1.5,0,0,1-1.391,1.608,1.363,1.363,0,0,1-.214,0H-351.7a1.483,1.483,0,0,1-1.608-1.348,1.64,1.64,0,0,1,0-.234v-8.8h-.805a12.989,12.989,0,0,1-2.233-.123,2.857,2.857,0,0,1-2.2-2.835v-18.977a2.991,2.991,0,0,1,2.8-3.161c.114-.006.228-.006.346,0h5.882v-3.252a1.467,1.467,0,0,1,1.391-1.542,1.476,1.476,0,0,1,.154,0h3.672V957.712a1.466,1.466,0,0,1,1.356-1.573,1.487,1.487,0,0,1,1.6,1.362l0,.083c.014.377,0,.751,0,1.125v39.6h3.435a1.482,1.482,0,0,1,1.533,1.422v3.352H-295.1c0-.106.014-.212.014-.317,0-.917.017-1.833,0-2.753a1.571,1.571,0,0,1,1.419-1.713,1.768,1.768,0,0,1,.277,0c.957.046,1.913,0,2.87,0a.439.439,0,0,0,.1-.023V957.715a1.5,1.5,0,0,1,1.411-1.59,1.569,1.569,0,0,1,.594.083,1.563,1.563,0,0,1,.994,1.591v12.053c0,.862-.029,1.727-.037,2.59,0,.277.037.554.037.828v24.719Zm-68.141,26.912h78.4v-19.1h-78.4Zm74.028,3h-68.78v2.575h68.78Zm-65.005-26.926v1.785h7.184v-1.785Zm60.768,0h-6.316v1.785h6.316Zm-64.552,34.3h4.192v-1.8H-350.3Zm68.772-1.8h-4.189v1.8h4.189Z" transform="translate(358.553 -956.122)" fill="#12263f"/>
      <path id="Path_116876-7" data-name="Path 116876" d="M-323.346,987.339h-24.6a1.5,1.5,0,0,1-1.608-1.111,1.731,1.731,0,0,1-.046-.437v-8.169c0-.58.009-1.159.02-1.742a1.442,1.442,0,0,1,1.3-1.248l46.466-.029h3.01a1.557,1.557,0,0,1,1.733,1.356,1.722,1.722,0,0,1,0,.383v9.294a1.53,1.53,0,0,1-1.328,1.7,1.576,1.576,0,0,1-.368,0h-24.568Zm23.271-9.734h-46.54v6.73h46.54Z" transform="translate(375.171 -921.854)" fill="#12263f"/>
      <path id="Path_116877-7" data-name="Path 116877" d="M-348.844,980.968v4.791a1.512,1.512,0,0,1-1.445,1.579h-.051a1.49,1.49,0,0,1-1.473-1.508v-.051c0-1.391.017-2.781.017-4.175,0-1.813-.014-3.629-.017-5.442a1.488,1.488,0,0,1,1.4-1.568,1.488,1.488,0,0,1,1.565,1.4c0,.06,0,.117,0,.177,0,1.2-.014,2.4-.02,3.606v1.179Z" transform="translate(371.053 -921.853)" fill="#6e40fc"/>
      <path id="Path_116878-7" data-name="Path 116878" d="M-350.587,980.973v4.82a1.483,1.483,0,0,1-1.448,1.519,1.483,1.483,0,0,1-1.519-1.445h0v-9.737a1.484,1.484,0,0,1,1.428-1.539,1.484,1.484,0,0,1,1.539,1.428.554.554,0,0,1,0,.1C-350.572,977.738-350.587,979.354-350.587,980.973Z" transform="translate(367.827 -921.856)" fill="#6e40fc"/>
      <path id="Path_116880-7" data-name="Path 116880" d="M-342.078,976.293a6.935,6.935,0,0,1,1.165.12,1.443,1.443,0,0,1,1.025,1.565,1.47,1.47,0,0,1-1.379,1.31c-.568.023-1.142.026-1.713,0a1.447,1.447,0,0,1-1.348-1.536l0,0a1.459,1.459,0,0,1,1.419-1.419h.825Z" transform="translate(384.94 -918.698)" fill="#12263f"/>
      <path id="Path_116881-7" data-name="Path 116881" d="M-336.9,976.3a7.243,7.243,0,0,1,1.114.089,1.457,1.457,0,0,1,1.091,1.582,1.474,1.474,0,0,1-1.4,1.316,11.01,11.01,0,0,1-1.939-.066,1.391,1.391,0,0,1-1.1-1.608,1.477,1.477,0,0,1,1.428-1.279h.8Z" transform="translate(394.548 -918.69)" fill="#12263f"/>
      <path id="Path_116882-7" data-name="Path 116882" d="M-344.707,979.275c-.268,0-.537.011-.8,0a1.486,1.486,0,0,1-1.41-1.556,1.488,1.488,0,0,1,1.482-1.413h1.448a1.483,1.483,0,0,1,1.488,1.479,1.485,1.485,0,0,1-1.41,1.488c-.266.014-.537,0-.8,0Z" transform="translate(380.139 -918.673)" fill="#6e40fc"/>
      <path id="Path_116883-7" data-name="Path 116883" d="M-339.5,976.307h.739a1.492,1.492,0,0,1,1.476,1.405,1.471,1.471,0,0,1-1.322,1.545,12.665,12.665,0,0,1-1.859,0,1.451,1.451,0,0,1-1.279-1.519,1.486,1.486,0,0,1,1.419-1.428h.828Z" transform="translate(389.744 -918.672)" fill="#12263f"/>
      <path id="Path_116884-7" data-name="Path 116884" d="M-334.342,976.3a7.649,7.649,0,0,1,1.142.091,1.477,1.477,0,0,1,1.091,1.428,1.461,1.461,0,0,1-1.4,1.442c-.534.023-1.056.037-1.585.026a1.483,1.483,0,0,1-1.465-1.5,1.481,1.481,0,0,1,1.5-1.465h.714Z" transform="translate(399.367 -918.69)" fill="#12263f"/>
    </g>
    <g id="Group_54360-8" data-name="Group 54360" transform="translate(-18.326 1146.887)">
      <path id="Path_116867-8" data-name="Path 116867" d="M-297.82,1036.8h3.107a1.478,1.478,0,0,1,1.539,1.413.687.687,0,0,1,0,.109c.011.977,0,1.953,0,2.932v.343h5.482a2.978,2.978,0,0,1,3.129,2.824,2.48,2.48,0,0,1,0,.291v18.925a2.983,2.983,0,0,1-2.9,3.07h-1.468v3.806c-.011,1.7-.023,3.392-.043,5.088a1.464,1.464,0,0,1-1.445,1.482h-7.2a1.463,1.463,0,0,1-1.519-1.4c0-.046,0-.094,0-.14v-3.27h-54.384c0,.114-.014.22-.014.323v2.873a1.5,1.5,0,0,1-1.391,1.608c-.071,0-.143,0-.217,0h-6.987a1.484,1.484,0,0,1-1.6-1.348,1.629,1.629,0,0,1,0-.234v-8.8h-.805a13.291,13.291,0,0,1-2.233-.123,2.859,2.859,0,0,1-2.2-2.835v-18.977a2.989,2.989,0,0,1,2.8-3.161c.114-.006.228-.006.346,0h5.882v-3.252a1.467,1.467,0,0,1,1.391-1.542,1.36,1.36,0,0,1,.151,0h3.672V996.214a1.47,1.47,0,0,1,1.359-1.57,1.485,1.485,0,0,1,1.6,1.362l0,.083c.014.374,0,.751,0,1.125v39.6h3.435a1.478,1.478,0,0,1,1.533,1.422v3.352h41.269c0-.106.014-.211.014-.317,0-.917.017-1.836,0-2.752a1.571,1.571,0,0,1,1.419-1.713,1.783,1.783,0,0,1,.277,0c.957.046,1.913,0,2.87,0a.693.693,0,0,0,.1-.023V996.219a1.5,1.5,0,0,1,1.411-1.591,1.483,1.483,0,0,1,.591.083,1.561,1.561,0,0,1,1,1.59v12.05c0,.865-.029,1.728-.037,2.593,0,.274.037.551.037.828v24.719Zm-68.141,26.915h78.4v-19.1h-78.4Zm74.029,3h-68.78v2.576h68.78Zm-65.006-26.929v1.788h7.181v-1.788Zm60.768,0h-6.316v1.788h6.316Zm-64.552,34.3h4.192v-1.8h-4.192Zm68.772-1.8h-4.189v1.8h4.189Z" transform="translate(368.976 -994.626)" fill="#12263f"/>
      <path id="Path_116876-8" data-name="Path 116876" d="M-333.769,1025.842h-24.6a1.505,1.505,0,0,1-1.608-1.11,1.736,1.736,0,0,1-.046-.437v-8.169c0-.58.009-1.162.02-1.742a1.442,1.442,0,0,1,1.3-1.248l46.466-.029h3.01a1.557,1.557,0,0,1,1.733,1.356,1.715,1.715,0,0,1,0,.383v9.291a1.532,1.532,0,0,1-1.328,1.707,1.575,1.575,0,0,1-.368,0h-24.568Zm23.271-9.734h-46.54v6.73h46.54Z" transform="translate(385.594 -960.357)" fill="#12263f"/>
      <path id="Path_116877-8" data-name="Path 116877" d="M-359.267,1019.469v4.794a1.509,1.509,0,0,1-1.445,1.576l-.051,0a1.49,1.49,0,0,1-1.473-1.51v-.051c0-1.391.017-2.781.017-4.172,0-1.816-.014-3.629-.017-5.445a1.488,1.488,0,0,1,1.4-1.565,1.488,1.488,0,0,1,1.565,1.405c0,.057,0,.117,0,.174,0,1.2-.014,2.407-.02,3.606v1.182Z" transform="translate(381.476 -960.357)" fill="#6e40fc"/>
      <path id="Path_116878-8" data-name="Path 116878" d="M-361.009,1019.478v4.82a1.483,1.483,0,0,1-1.448,1.519,1.483,1.483,0,0,1-1.519-1.448h0v-9.734a1.482,1.482,0,0,1,1.428-1.539,1.484,1.484,0,0,1,1.539,1.428.582.582,0,0,1,0,.1C-361,1016.242-361.009,1017.859-361.009,1019.478Z" transform="translate(378.25 -960.36)" fill="#6e40fc"/>
      <path id="Path_116880-8" data-name="Path 116880" d="M-352.5,1014.8a6.967,6.967,0,0,1,1.168.123,1.443,1.443,0,0,1,1.025,1.565,1.466,1.466,0,0,1-1.379,1.308c-.571.026-1.142.028-1.713,0a1.444,1.444,0,0,1-1.348-1.533v-.006a1.461,1.461,0,0,1,1.419-1.416h.828Z" transform="translate(395.363 -957.203)" fill="#12263f"/>
      <path id="Path_116881-8" data-name="Path 116881" d="M-347.321,1014.8a7.274,7.274,0,0,1,1.114.088,1.458,1.458,0,0,1,1.091,1.579,1.474,1.474,0,0,1-1.4,1.319,10.975,10.975,0,0,1-1.939-.066,1.391,1.391,0,0,1-1.1-1.607,1.477,1.477,0,0,1,1.428-1.279h.8Z" transform="translate(404.971 -957.194)" fill="#12263f"/>
      <path id="Path_116882-8" data-name="Path 116882" d="M-355.133,1017.779c-.266,0-.534.011-.8,0a1.489,1.489,0,0,1-1.411-1.559,1.488,1.488,0,0,1,1.482-1.411h1.448a1.483,1.483,0,0,1,1.488,1.479,1.485,1.485,0,0,1-1.411,1.488c-.266.014-.537,0-.8,0Z" transform="translate(390.562 -957.177)" fill="#6e40fc"/>
      <path id="Path_116883-8" data-name="Path 116883" d="M-349.918,1014.811h.74a1.49,1.49,0,0,1,1.476,1.4,1.471,1.471,0,0,1-1.322,1.545,13.419,13.419,0,0,1-1.859,0,1.453,1.453,0,0,1-1.279-1.519,1.485,1.485,0,0,1,1.419-1.428h.828Z" transform="translate(400.167 -957.176)" fill="#12263f"/>
      <path id="Path_116884-8" data-name="Path 116884" d="M-344.768,1014.8a7.343,7.343,0,0,1,1.145.091,1.476,1.476,0,0,1,1.091,1.428,1.459,1.459,0,0,1-1.4,1.439c-.534.026-1.056.037-1.585.029a1.483,1.483,0,0,1-1.465-1.5,1.481,1.481,0,0,1,1.5-1.465h.714Z" transform="translate(409.79 -957.194)" fill="#12263f"/>
    </g>
    <g id="Z1vj45.tif" transform="translate(-557.967 1089.24)">
      <g id="Grupo_54404" data-name="Grupo 54404">
        <path id="Trazado_117240" data-name="Trazado 117240" d="M-485.423,1013.907a1.075,1.075,0,0,0-.114.174,3.576,3.576,0,0,1-3.755,2.713q-10.836.017-21.672.009H-552.75c-.662,0-1.325.011-1.982-.048a3.526,3.526,0,0,1-3.23-3.507q-.013-13.243.014-26.489a1.874,1.874,0,0,1,.42-1.139c2.91-3.321,5.851-6.613,8.78-9.917a3.87,3.87,0,0,1,3.1-1.251c5.974.008,11.947-.006,17.92,0,9.891,0,19.782.02,29.673-.011a4.689,4.689,0,0,1,3.832,1.719c2.561,2.967,5.194,5.871,7.8,8.8.343.385.668.785,1,1.179Zm-2.464-4.423V992.669h-67.63v16.815Zm-1.539-24.2c-.263-.308-.423-.505-.591-.694-1.8-2.03-3.669-4.009-5.383-6.11a3.488,3.488,0,0,0-3.555-1.57,2.115,2.115,0,0,1-.354,0q-23.2,0-46.4-.011a1.666,1.666,0,0,0-1.368.582q-3.23,3.666-6.487,7.31a5.823,5.823,0,0,0-.345.491Zm1.588,26.715h-67.667c-.191,1.967.146,2.342,2.007,2.342l46.1,0q9.029,0,18.057,0c1.065,0,1.488-.431,1.5-1.508C-487.836,1012.582-487.839,1012.325-487.839,1012Zm-.04-24.134h-67.63v2.256h67.63Z" transform="translate(557.967 -974.437)" fill="#12263f"/>
        <path id="Trazado_117241" data-name="Trazado 117241" d="M-544.278,984.025c.254.023.414.048.574.048.182,0,.365-.023.637-.043,0-.377-.009-.723,0-1.071.026-.851.417-1.279,1.248-1.3,1.182-.026,2.361-.023,3.541,0a1.155,1.155,0,0,1,1.262,1.234q.039,4.814,0,9.628c-.008.805-.514,1.216-1.345,1.216q-5.311.013-10.622.005a1.2,1.2,0,0,1-1.362-1.285q-.034-4.78.008-9.56a1.153,1.153,0,0,1,1.254-1.239c1.179-.029,2.361-.029,3.541-.008a1.168,1.168,0,0,1,1.256,1.236C-544.258,983.26-544.278,983.631-544.278,984.025Zm3.641.1c0,.377.006.7,0,1.031a1.249,1.249,0,0,1-1.376,1.351c-1.085.006-2.173.006-3.258-.006-.988-.008-1.431-.448-1.442-1.422-.006-.32,0-.64,0-.928h-1.122V991.3h8.318v-7.172Z" transform="translate(572.086 -961.071)" fill="#12263f"/>
        <path id="Trazado_117242" data-name="Trazado 117242" d="M-538.778,984.034h1.2c0-.311-.006-.585,0-.862.029-1.136.4-1.508,1.553-1.522.968-.014,1.936-.006,2.9-.006,1.2,0,1.625.42,1.625,1.613q0,3.08,0,6.159c0,.968.014,1.933-.006,2.9-.02,1.011-.44,1.425-1.434,1.425q-5.238.008-10.476,0c-.985,0-1.428-.428-1.43-1.425q-.021-4.6,0-9.2c.006-1.036.434-1.448,1.479-1.459s2.076-.011,3.115,0c1.091.011,1.462.4,1.474,1.513C-538.775,983.425-538.778,983.685-538.778,984.034ZM-534,991.3v-7.173h-1.128c0,.331,0,.631,0,.931-.014.979-.46,1.436-1.428,1.442-1.111.009-2.219.014-3.329,0a1.212,1.212,0,0,1-1.316-1.328c-.009-.346,0-.688,0-1.031h-1.108V991.3Z" transform="translate(582.299 -961.071)" fill="#6e40fc"/>
        <path id="Trazado_117243" data-name="Trazado 117243" d="M-549.784,984.036h1.208c0-.431-.017-.825.006-1.216a1.093,1.093,0,0,1,1.1-1.145c1.248-.04,2.5-.046,3.749-.012.8.02,1.208.566,1.211,1.516.006,2.1,0,4.2,0,6.3,0,.942.012,1.887-.006,2.83-.017.991-.457,1.428-1.436,1.431q-5.273.013-10.545,0a1.185,1.185,0,0,1-1.353-1.351q-.021-4.707,0-9.414c.006-.9.46-1.31,1.382-1.322,1.062-.014,2.124-.011,3.187,0,1.088.011,1.473.406,1.493,1.5C-549.778,983.437-549.784,983.717-549.784,984.036Zm4.743,7.27v-7.161h-1.119c0,.357,0,.66,0,.962a1.238,1.238,0,0,1-1.393,1.4c-1.134.011-2.267.014-3.4,0a1.217,1.217,0,0,1-1.276-1.231c-.023-.368,0-.739,0-1.136h-1.117v7.173Z" transform="translate(561.882 -961.071)" fill="#6e40fc"/>
        <path id="Trazado_117244" data-name="Trazado 117244" d="M-533.266,984.039h1.2c0-.4-.02-.771,0-1.139a1.168,1.168,0,0,1,1.256-1.236c1.179-.023,2.361-.026,3.541,0a1.131,1.131,0,0,1,1.248,1.234q.034,4.814,0,9.628a1.136,1.136,0,0,1-1.262,1.219q-5.38.009-10.762,0a1.194,1.194,0,0,1-1.3-1.279q-.034-4.78,0-9.56a1.174,1.174,0,0,1,1.259-1.242q1.769-.047,3.541-.009a1.179,1.179,0,0,1,1.265,1.3C-533.255,983.3-533.266,983.653-533.266,984.039Zm-3.549.083v7.156h8.323v-7.141h-1.119c0,.334.006.637,0,.937a1.286,1.286,0,0,1-1.439,1.439c-1.108.006-2.216.011-3.324-.006a1.209,1.209,0,0,1-1.314-1.325c-.009-.346,0-.691,0-1.059Z" transform="translate(592.509 -961.073)" fill="#12263f"/>
      </g>
    </g>
    <g id="Z1vj45.tif-2" data-name="Z1vj45.tif" transform="translate(178.341 1122.847)">
      <g id="Grupo_54405" data-name="Grupo 54405">
        <path id="Trazado_117245" data-name="Trazado 117245" d="M-227.554,1025.677a.919.919,0,0,0-.117.174,3.573,3.573,0,0,1-3.752,2.713q-10.836.017-21.675.009h-41.786c-.66,0-1.325.011-1.982-.049a3.527,3.527,0,0,1-3.229-3.506q-.013-13.243.014-26.489a1.9,1.9,0,0,1,.423-1.139c2.907-3.321,5.848-6.613,8.777-9.917a3.874,3.874,0,0,1,3.107-1.251c5.973.009,11.944-.006,17.917,0,9.891,0,19.785.02,29.676-.012a4.69,4.69,0,0,1,3.832,1.719c2.561,2.967,5.194,5.871,7.8,8.8.34.386.665.785,1,1.179Zm-2.467-4.423v-16.816h-67.627v16.816Zm-1.539-24.2c-.263-.309-.422-.505-.591-.694-1.8-2.03-3.669-4.009-5.382-6.11a3.486,3.486,0,0,0-3.555-1.571,2.067,2.067,0,0,1-.351,0q-23.2,0-46.4-.012a1.664,1.664,0,0,0-1.365.583q-3.234,3.666-6.487,7.31c-.114.128-.2.283-.348.491Zm1.59,26.715h-67.67c-.188,1.967.146,2.341,2.01,2.341l46.1,0q9.029,0,18.06,0c1.065,0,1.488-.431,1.5-1.5C-229.969,1024.352-229.969,1024.1-229.969,1023.772Zm-.043-24.133h-67.63v2.255h67.63Z" transform="translate(300.1 -986.207)" fill="#12263f"/>
        <path id="Trazado_117246" data-name="Trazado 117246" d="M-286.412,995.8c.254.023.414.048.574.048.183,0,.365-.023.637-.043,0-.377-.009-.722,0-1.071.029-.851.417-1.279,1.251-1.3q1.769-.039,3.541,0a1.153,1.153,0,0,1,1.259,1.234q.038,4.814,0,9.628c-.006.805-.511,1.216-1.345,1.216q-5.311.013-10.622.006a1.194,1.194,0,0,1-1.359-1.285q-.034-4.78.009-9.56a1.152,1.152,0,0,1,1.253-1.239c1.179-.029,2.358-.029,3.541-.008a1.168,1.168,0,0,1,1.256,1.236C-286.392,995.03-286.412,995.4-286.412,995.8Zm3.643.1c0,.377.006.705,0,1.031a1.248,1.248,0,0,1-1.376,1.351c-1.085.005-2.17.005-3.258-.006-.988-.009-1.428-.449-1.442-1.422,0-.32,0-.637,0-.928h-1.125v7.147h8.321V995.9Z" transform="translate(314.22 -972.841)" fill="#6e40fc"/>
        <path id="Trazado_117247" data-name="Trazado 117247" d="M-280.909,995.8h1.2c0-.311-.006-.585,0-.862.031-1.136.4-1.508,1.556-1.522.968-.014,1.933,0,2.9-.006,1.2,0,1.628.42,1.628,1.613q0,3.08-.006,6.159c0,.968.014,1.933-.006,2.9-.02,1.011-.44,1.425-1.431,1.425q-5.238.009-10.476,0c-.988,0-1.428-.428-1.433-1.425q-.017-4.6,0-9.2c0-1.036.434-1.448,1.476-1.459s2.079-.011,3.115,0c1.094.011,1.462.4,1.473,1.513C-280.909,995.2-280.909,995.455-280.909,995.8Zm4.774,7.27V995.9h-1.128c0,.331.006.631,0,.931-.014.979-.46,1.436-1.428,1.442-1.108.008-2.219.014-3.327,0a1.212,1.212,0,0,1-1.316-1.328c-.011-.345,0-.688,0-1.031h-1.108v7.158Z" transform="translate(324.433 -972.84)" fill="#12263f"/>
        <path id="Trazado_117248" data-name="Trazado 117248" d="M-291.915,995.807h1.208c0-.431-.02-.825,0-1.217a1.093,1.093,0,0,1,1.105-1.145q1.876-.06,3.752-.011c.8.02,1.208.565,1.211,1.516.006,2.1,0,4.2,0,6.3,0,.942.014,1.887,0,2.83-.02.991-.457,1.428-1.436,1.43q-5.272.013-10.548,0a1.182,1.182,0,0,1-1.351-1.351q-.026-4.707,0-9.414c0-.9.457-1.311,1.382-1.322,1.062-.014,2.124-.011,3.184,0,1.088.011,1.473.405,1.5,1.5C-291.909,995.207-291.915,995.487-291.915,995.807Zm4.74,7.27v-7.161h-1.119c0,.357.006.66,0,.962a1.236,1.236,0,0,1-1.391,1.4c-1.134.011-2.267.014-3.4,0a1.215,1.215,0,0,1-1.276-1.231c-.023-.368,0-.74,0-1.136h-1.116v7.173Z" transform="translate(304.015 -972.84)" fill="#12263f"/>
        <path id="Trazado_117249" data-name="Trazado 117249" d="M-275.4,995.809h1.2c0-.4-.02-.771.006-1.139a1.168,1.168,0,0,1,1.256-1.236c1.179-.023,2.359-.026,3.538,0a1.132,1.132,0,0,1,1.251,1.234q.034,4.814,0,9.628a1.14,1.14,0,0,1-1.265,1.219q-5.38.008-10.762,0a1.2,1.2,0,0,1-1.3-1.279q-.03-4.78,0-9.56a1.175,1.175,0,0,1,1.259-1.242q1.769-.047,3.541-.008a1.177,1.177,0,0,1,1.265,1.3C-275.388,995.075-275.4,995.423-275.4,995.809Zm-3.549.083v7.155h8.323v-7.141h-1.122c0,.334.006.637,0,.936a1.286,1.286,0,0,1-1.439,1.439c-1.108.005-2.216.011-3.324-.006a1.209,1.209,0,0,1-1.314-1.325c-.006-.346,0-.691,0-1.059Z" transform="translate(334.643 -972.843)" fill="#6e40fc"/>
      </g>
    </g>
    <g id="Group_29098" data-name="Group 29098" transform="translate(95.855 969.312)">
      <rect id="Rectangle_26580" data-name="Rectangle 26580" width="5.739" height="3.825" transform="translate(80.669 15.349)" fill="#2d9495"/>
      <rect id="Rectangle_26581" data-name="Rectangle 26581" width="5.739" height="3.825" transform="translate(80.669 21.088)" fill="#2d9495"/>
      <rect id="Rectangle_26582" data-name="Rectangle 26582" width="5.739" height="3.825" transform="translate(69.19 15.349)" fill="#2d9495"/>
      <rect id="Rectangle_26583" data-name="Rectangle 26583" width="5.739" height="3.825" transform="translate(69.19 21.088)" fill="#2d9495"/>
      <rect id="Rectangle_26584" data-name="Rectangle 26584" width="3.825" height="3.825" transform="translate(61.541 19.176)" fill="#12263f"/>
      <rect id="Rectangle_26585" data-name="Rectangle 26585" width="3.825" height="3.825" transform="translate(53.615 19.176)" fill="#12263f"/>
      <rect id="Rectangle_26586" data-name="Rectangle 26586" width="3.825" height="3.825" transform="translate(46.238 19.176)" fill="#12263f"/>
      <rect id="Rectangle_26587" data-name="Rectangle 26587" width="3.825" height="3.825" transform="translate(38.589 19.176)" fill="#12263f"/>
      <rect id="Rectangle_26588" data-name="Rectangle 26588" width="3.825" height="3.825" transform="translate(30.937 19.176)" fill="#12263f"/>
      <rect id="Rectangle_26589" data-name="Rectangle 26589" width="3.825" height="3.825" transform="translate(23.286 19.176)" fill="#12263f"/>
      <rect id="Rectangle_26590" data-name="Rectangle 26590" width="3.825" height="3.825" transform="translate(15.363 19.176)" fill="#12263f"/>
      <rect id="Rectangle_26591" data-name="Rectangle 26591" width="3.825" height="3.825" transform="translate(7.711 19.176)" fill="#12263f"/>
      <path id="Path_69062" data-name="Path 69062" d="M-236.9,963.085h-91.98c-.031-.428-.077-.828-.077-1.222,0-6.242.014-12.478-.026-18.72a1.726,1.726,0,0,1,1-1.713c4.62-2.738,9.194-5.551,13.829-8.264a5.373,5.373,0,0,1,2.57-.7q28.482-.056,56.962,0a5.248,5.248,0,0,1,2.444.668q7.187,4.069,14.285,8.3a2.223,2.223,0,0,1,1.042,1.5c.071,6.513.051,13.024.051,19.537A4.65,4.65,0,0,1-236.9,963.085Zm-3.741-17.1h-84.408v13.263h84.408Zm-80.782-4.04h76.479c-3-1.993-6.053-3.778-9.137-5.505a3.153,3.153,0,0,0-1.462-.214q-27.6-.018-55.2,0a3.3,3.3,0,0,0-1.582.268C-315.265,938.2-318.169,939.982-321.421,941.944Z" transform="translate(328.988 -932.436)" fill="#12263f"/>
    </g>
    <line id="Línea_1548" data-name="Línea 1548" y2="55.668" transform="translate(-446.241 912.561)" fill="#030504" stroke="#001a2e" stroke-miterlimit="10" stroke-width="2"/>
    <line id="Línea_1549" data-name="Línea 1549" y2="170.213" transform="translate(-446.241 1000.234)" fill="#030504" stroke="#001a2e" stroke-miterlimit="10" stroke-width="2"/>
    <line id="Línea_1550" data-name="Línea 1550" y2="55.668" transform="translate(138.268 912.561)" fill="#030504" stroke="#001a2e" stroke-miterlimit="10" stroke-width="2"/>
    <line id="Línea_1551" data-name="Línea 1551" y2="170.213" transform="translate(138.268 1000.234)" fill="#030504" stroke="#001a2e" stroke-miterlimit="10" stroke-width="2"/>
    <line id="Línea_1552" data-name="Línea 1552" x2="36.183" transform="translate(-482.855 1114.607)" fill="#030504" stroke="#001a2e" stroke-miterlimit="10" stroke-width="2"/>
    <line id="Línea_1553" data-name="Línea 1553" x2="36.183" transform="translate(139.304 1149.471)" fill="#030504" stroke="#001a2e" stroke-miterlimit="10" stroke-width="2"/>
    <line id="Línea_1554" data-name="Línea 1554" x2="31.714" y2="83.908" transform="translate(-423.288 999.091)" fill="#030504" stroke="#001a2e" stroke-miterlimit="10" stroke-width="2"/>
    <line id="Línea_1555" data-name="Línea 1555" y1="77.429" x2="28.409" transform="translate(-323.383 1006.462)" fill="#030504" stroke="#001a2e" stroke-miterlimit="10" stroke-width="2"/>
    <line id="Línea_1556" data-name="Línea 1556" x2="56.888" y2="86.735" transform="translate(-343.31 1114.593)" fill="#030504" stroke="#12263f" stroke-miterlimit="10" stroke-width="2"/>
    <line id="Línea_1557" data-name="Línea 1557" y1="34.916" x2="144.094" transform="translate(-319.194 1052.015)" fill="#030504" stroke="#001a2e" stroke-miterlimit="10" stroke-width="2"/>
    <line id="Línea_1558" data-name="Línea 1558" x2="157.73" y2="28.879" transform="translate(-316.195 1099.426)" fill="#030504" stroke="#12263f" stroke-miterlimit="10" stroke-width="2"/>
    <line id="Línea_1559" data-name="Línea 1559" y1="51.211" x2="52.026" transform="translate(-208.293 1150.117)" fill="#030504" stroke="#12263f" stroke-miterlimit="10" stroke-width="2"/>
    <line id="Línea_1560" data-name="Línea 1560" x2="70.619" y2="33.228" transform="translate(-79.909 1160.63)" fill="#030504" stroke="#12263f" stroke-miterlimit="10" stroke-width="2"/>
    <line id="Línea_1561" data-name="Línea 1561" y1="80.993" x2="15.169" transform="translate(30.673 1114.593)" fill="#030504" stroke="#12263f" stroke-miterlimit="10" stroke-width="2"/>
    <line id="Línea_1562" data-name="Línea 1562" y1="81.549" x2="39.553" transform="translate(87.239 999.091)" fill="#030504" stroke="#001a2e" stroke-miterlimit="10" stroke-width="2"/>
    <line id="Línea_1563" data-name="Línea 1563" x1="14.025" y1="82.233" transform="translate(34.14 1001.667)" fill="#030504" stroke="#001a2e" stroke-miterlimit="10" stroke-width="2"/>
    <line id="Línea_1564" data-name="Línea 1564" y1="25.212" x2="79.876" transform="translate(-93.824 1004.664)" fill="#030504" stroke="#001a2e" stroke-miterlimit="10" stroke-width="2"/>
    <line id="Línea_1565" data-name="Línea 1565" y1="19.317" x2="94.112" transform="translate(-82.67 1102.443)" fill="#030504" stroke="#12263f" stroke-miterlimit="10" stroke-width="2"/>
    <line id="Línea_1566" data-name="Línea 1566" x2="102.135" y2="35.159" transform="translate(-90.693 1051.917)" fill="#030504" stroke="#12263f" stroke-miterlimit="10" stroke-width="2"/>
    <line id="Línea_1567" data-name="Línea 1567" x2="60.114" y2="24.957" transform="translate(-226.185 1001.667)" fill="#030504" stroke="#001a2e" stroke-miterlimit="10" stroke-width="2"/>
    <path id="Trazado_117250" data-name="Trazado 117250" d="M-439.58,937.2" transform="translate(219.653 45.708)" fill="#030504" stroke="#001a2e" stroke-miterlimit="10" stroke-width="1"/>
    <line id="Línea_1568" data-name="Línea 1568" x2="202.627" y2="0.145" transform="translate(-221.813 976.988)" fill="#030504" stroke="#001a2e" stroke-miterlimit="10" stroke-width="2"/>
    <line id="Línea_1569" data-name="Línea 1569" x1="186.842" y2="4.151" transform="translate(-205.162 1203.355)" fill="#030504" stroke="#12263f" stroke-miterlimit="10" stroke-width="2"/>
    <circle id="Elipse_3960" data-name="Elipse 3960" cx="61.259" cy="61.259" r="61.259" transform="translate(-6.851 1019.041)" fill="none" stroke="#12263f" stroke-miterlimit="10" stroke-width="2"/>
    <circle id="Elipse_3961" data-name="Elipse 3961" cx="61.259" cy="61.259" r="61.259" transform="translate(-419.66 1019.041)" fill="none" stroke="#12263f" stroke-miterlimit="10" stroke-width="2"/>
    <path id="Trazado_117251" data-name="Trazado 117251" d="M-480.861,1088.391s6.276-75.391,48.23-71.267" transform="translate(143.061 193.701)" fill="none" stroke="#6e40fc" stroke-miterlimit="10" stroke-width="2"/>
    <path id="Trazado_117252" data-name="Trazado 117252" d="M-487.076,1048.2s62.97-20.1,65.976-26.752" transform="translate(131.529 202.02)" fill="none" stroke="#6e40fc" stroke-miterlimit="10" stroke-width="2"/>
    <g id="RNGu9o" transform="translate(-443.988 1250.218)">
      <g id="Grupo_54403" data-name="Grupo 54403">
        <path id="Trazado_117237" data-name="Trazado 117237" d="M-465.256,1096.762h-48.185c-1.331,0-1.936-.586-1.936-1.911q0-24.6.009-49.2c0-2.464-.057-4.94.143-7.393a7.955,7.955,0,0,1,4.08-6.219,8.344,8.344,0,0,1,4.506-1.225q41.4,0,82.8.014a8.212,8.212,0,0,1,7.944,5.082,8.729,8.729,0,0,1,.782,3.5q.069,27.745.029,55.494c0,1.274-.617,1.856-1.91,1.856h-48.262Zm46.985-3.25V1092.4q0-22.944,0-45.886c0-2.256.089-4.509.049-6.761a5.519,5.519,0,0,0-1.4-3.915,5.882,5.882,0,0,0-4.38-1.808q-41.164.034-82.329.017a9.413,9.413,0,0,0-.945.017,5.325,5.325,0,0,0-4.868,4.863c-.146,2.635-.04,5.285-.04,7.927v46.659Z" transform="translate(523.005 -1030.814)" fill="#12263f"/>
        <path id="Trazado_117238" data-name="Trazado 117238" d="M-449.008,1058.557c.385-2.347,1.556-3.346,3.783-3.346q12.815,0,25.63,0,7.478,0,14.959,0c1.7,0,2.11.471,2.081,2.156-.037,1.967-.063,3.938.026,5.9a5.807,5.807,0,0,1-5.788,5.759c-.394.009-.788,0-1.182,0H-511.7c-3.21,0-5.608-1.744-6.2-4.62a14.249,14.249,0,0,1-.151-2.818c-.009-1.522.031-3.047.06-4.568.023-1.328.5-1.816,1.816-1.81,3.575.011,7.147.057,10.722.055,9.54-.012,19.08-.049,28.622-.04a6.086,6.086,0,0,1,2.344.463,2.7,2.7,0,0,1,1.576,2.3c.046.457.254.577.651.574q2.835-.013,5.671-.017,3.975,0,7.949.006C-455.438,1058.557-452.24,1058.557-449.008,1058.557Zm-27.12-.16h-37.737c-1.017,0-1.037,0-1.045,1.042-.006,1.077.126,2.162.029,3.227a2.92,2.92,0,0,0,3.144,3.158q51.38-.056,102.759-.029c.237,0,.474.006.708-.006a2.412,2.412,0,0,0,2.47-2.021c.154-1.753.04-3.529.04-5.439-1.776,0-3.5-.006-5.222,0-3.435.017-6.87.057-10.3.063q-10.412.013-20.821,0c-1,0-2,.009-3,0-.386-.005-.6.054-.691.522a3.152,3.152,0,0,1-3.349,2.8q-11.749.017-23.5,0a3.209,3.209,0,0,1-3.406-2.938C-476.068,1058.679-476.091,1058.579-476.128,1058.4Z" transform="translate(518.049 -985.553)" fill="#12263f"/>
        <path id="Trazado_117239" data-name="Trazado 117239" d="M-469.808,1082.319h-41.163c-1.493,0-2.093-.568-2.093-2.013q0-19.831.014-39.659c0-1.787.026-3.572.032-5.359a1.693,1.693,0,0,1,1.565-1.831,5.283,5.283,0,0,1,.705-.026q13.8,0,27.6,0c3.358,0,6.713.06,10.071.06,3.7,0,7.4-.057,11.1-.06q16.708-.008,33.417.005a1.758,1.758,0,0,1,1.936,1.945v44.932c0,1.471-.58,2-2.176,2Q-449.3,1082.323-469.808,1082.319Zm39.944-45.686H-509.8v42.4h79.939Z" transform="translate(527.3 -1025.96)" fill="#12263f"/>
      </g>
    </g>
    <g id="Group_29098-2" data-name="Group 29098" transform="translate(-492.337 969.311)">
      <rect id="Rectangle_26580-2" data-name="Rectangle 26580" width="5.739" height="3.825" transform="translate(80.669 15.349)" fill="#6e40fc"/>
      <rect id="Rectangle_26581-2" data-name="Rectangle 26581" width="5.739" height="3.825" transform="translate(80.669 21.088)" fill="#6e40fc"/>
      <rect id="Rectangle_26582-2" data-name="Rectangle 26582" width="5.739" height="3.825" transform="translate(69.19 15.349)" fill="#6e40fc"/>
      <rect id="Rectangle_26583-2" data-name="Rectangle 26583" width="5.739" height="3.825" transform="translate(69.19 21.088)" fill="#6e40fc"/>
      <rect id="Rectangle_26584-2" data-name="Rectangle 26584" width="3.825" height="3.825" transform="translate(61.541 19.176)" fill="#12263f"/>
      <rect id="Rectangle_26585-2" data-name="Rectangle 26585" width="3.825" height="3.825" transform="translate(53.615 19.176)" fill="#12263f"/>
      <rect id="Rectangle_26586-2" data-name="Rectangle 26586" width="3.825" height="3.825" transform="translate(46.238 19.176)" fill="#12263f"/>
      <rect id="Rectangle_26587-2" data-name="Rectangle 26587" width="3.825" height="3.825" transform="translate(38.589 19.176)" fill="#12263f"/>
      <rect id="Rectangle_26588-2" data-name="Rectangle 26588" width="3.825" height="3.825" transform="translate(30.937 19.176)" fill="#12263f"/>
      <rect id="Rectangle_26589-2" data-name="Rectangle 26589" width="3.825" height="3.825" transform="translate(23.286 19.176)" fill="#12263f"/>
      <rect id="Rectangle_26590-2" data-name="Rectangle 26590" width="3.825" height="3.825" transform="translate(15.363 19.176)" fill="#12263f"/>
      <rect id="Rectangle_26591-2" data-name="Rectangle 26591" width="3.825" height="3.825" transform="translate(7.711 19.176)" fill="#12263f"/>
      <path id="Path_69062-2" data-name="Path 69062" d="M-236.9,963.085h-91.98c-.031-.428-.077-.828-.077-1.222,0-6.242.014-12.478-.026-18.72a1.726,1.726,0,0,1,1-1.713c4.62-2.738,9.194-5.551,13.829-8.264a5.373,5.373,0,0,1,2.57-.7q28.482-.056,56.962,0a5.248,5.248,0,0,1,2.444.668q7.187,4.069,14.285,8.3a2.223,2.223,0,0,1,1.042,1.5c.071,6.513.051,13.024.051,19.537A4.65,4.65,0,0,1-236.9,963.085Zm-3.741-17.1h-84.408v13.263h84.408Zm-80.782-4.04h76.479c-3-1.993-6.053-3.778-9.137-5.505a3.153,3.153,0,0,0-1.462-.214q-27.6-.018-55.2,0a3.3,3.3,0,0,0-1.582.268C-315.265,938.2-318.169,939.982-321.421,941.944Z" transform="translate(328.988 -932.436)" fill="#12263f"/>
    </g>
  </g>
</svg>
