<svg xmlns="http://www.w3.org/2000/svg" xmlns:xlink="http://www.w3.org/1999/xlink" width="88" height="87" viewBox="0 0 88 87">
  <defs>
    <clipPath id="clip-path">
      <rect id="Rect치ngulo_387078" data-name="Rect치ngulo 387078" width="62.771" height="59.432" fill="none"/>
    </clipPath>
  </defs>
  <g id="Grupo_1094405" data-name="Grupo 1094405" transform="translate(-620 -498)">
    <rect id="Rect치ngulo_387077" data-name="Rect치ngulo 387077" width="88" height="87" rx="8" transform="translate(620 498)" fill="#fdb6c7"/>
    <g id="Grupo_1067374" data-name="Grupo 1067374" transform="translate(632.615 513.863)">
      <g id="Grupo_1067373" data-name="Grupo 1067373" clip-path="url(#clip-path)">
        <path id="Trazado_802358" data-name="Trazado 802358" d="M20,42.987,11.4,51.258A4.774,4.774,0,0,1,11.12,57.7a4.786,4.786,0,1,1-3.4-8.153,4.894,4.894,0,0,1,2.4.629l8.723-8.389a17.561,17.561,0,0,1-4.4-11.159l-4.931.157A4.687,4.687,0,0,1,8.173,33.5a4.782,4.782,0,1,1,1.3-4.362l5.01-.177a17.659,17.659,0,0,1,4.755-10.865l-7.112-7.034A5.615,5.615,0,0,1,4.794,2.593a5.619,5.619,0,0,1,9.588,3.969,5.491,5.491,0,0,1-1.081,3.3l7.132,7.092a17.51,17.51,0,0,1,10.216-4.3l-.02-3.144a4.846,4.846,0,1,1,1.67-.02l.02,3.124A17.436,17.436,0,0,1,43.93,17.289l6.189-6.15A4.781,4.781,0,1,1,54.048,13.2a4.719,4.719,0,0,1-2.751-.864l-6.208,6.13a17.458,17.458,0,0,1,4.3,9.352l3.87-.137a4.6,4.6,0,0,1,1.356-2.692,4.774,4.774,0,1,1,0,6.758,4.64,4.64,0,0,1-1.3-2.4l-3.772.118v.688a17.472,17.472,0,0,1-4.224,11.435l5.128,5.089a5.5,5.5,0,0,1,8.782,4.42,5.5,5.5,0,0,1-5.5,5.521,5.562,5.562,0,0,1-3.89-1.611,5.491,5.491,0,0,1-1.611-3.91,5.641,5.641,0,0,1,1.041-3.242L44.166,42.81A17.422,17.422,0,0,1,32.555,47.7v2.22a4.856,4.856,0,0,1,2.593,1.336,4.779,4.779,0,1,1-6.758,6.758A4.773,4.773,0,0,1,30.9,49.942l-.02-2.259A17.5,17.5,0,0,1,20,42.987ZM43.223,18.939a15.866,15.866,0,1,0,4.656,11.218,15.748,15.748,0,0,0-4.656-11.218M32,16.307a13.852,13.852,0,1,1-9.8,4.067A13.762,13.762,0,0,1,32,16.307"/>
        <path id="Trazado_802359" data-name="Trazado 802359" d="M380.249,40.09a3.112,3.112,0,0,0-4.4,4.4,3.131,3.131,0,0,0,4.4,0,3.131,3.131,0,0,0,0-4.4" transform="translate(-324 -33.862)" fill="#e9e2ff"/>
        <path id="Trazado_802360" data-name="Trazado 802360" d="M42.29,20.391a3.933,3.933,0,0,0-2.79-1.159,4,4,0,0,0-2.79,1.159,3.917,3.917,0,0,0-1.14,2.79A3.891,3.891,0,0,0,39.5,27.11a3.917,3.917,0,0,0,2.79-1.14,4,4,0,0,0,1.159-2.79,3.854,3.854,0,0,0-1.159-2.79" transform="translate(-30.738 -16.619)" fill="#e9e2ff"/>
        <path id="Trazado_802361" data-name="Trazado 802361" d="M39.285,377.872a3.105,3.105,0,1,0-4.381,4.4,3.06,3.06,0,0,0,4.381,0,3.084,3.084,0,0,0,0-4.4" transform="translate(-29.363 -325.749)" fill="#e9e2ff"/>
        <path id="Trazado_802362" data-name="Trazado 802362" d="M373.823,349.025a3.834,3.834,0,0,0-5.422,5.422,3.834,3.834,0,0,0,5.422-5.422" transform="translate(-317.378 -300.635)" fill="#e9e2ff"/>
        <path id="Trazado_802363" data-name="Trazado 802363" d="M216.149,380.186a3.189,3.189,0,0,0-2.2-.9,3.1,3.1,0,0,0-2.2,5.3,3.037,3.037,0,0,0,2.2.9,3.1,3.1,0,0,0,2.2-.9,3.13,3.13,0,0,0,0-4.4" transform="translate(-182.18 -327.749)" fill="#e9e2ff"/>
        <path id="Trazado_802364" data-name="Trazado 802364" d="M17.6,199.6a3.114,3.114,0,0,0-5.3,2.2,3.114,3.114,0,0,0,6.228,0,3.054,3.054,0,0,0-.923-2.2" transform="translate(-10.621 -171.684)" fill="#e9e2ff"/>
        <path id="Trazado_802365" data-name="Trazado 802365" d="M213.691,13.214a3.123,3.123,0,0,0-2.2-.923,3.153,3.153,0,0,0-3.124,3.124,3.119,3.119,0,0,0,3.124,3.1,3.189,3.189,0,0,0,2.2-.9,3.153,3.153,0,0,0,.9-2.2,3.118,3.118,0,0,0-.9-2.2" transform="translate(-180.056 -10.621)" fill="#e9e2ff"/>
        <path id="Trazado_802366" data-name="Trazado 802366" d="M409.189,186.732a3.088,3.088,0,0,0-2.2-.923,3.153,3.153,0,0,0-3.124,3.124,3.126,3.126,0,0,0,5.324,2.2,3.189,3.189,0,0,0,.9-2.2,3.118,3.118,0,0,0-.9-2.2" transform="translate(-348.991 -160.563)" fill="#e9e2ff"/>
        <path id="Trazado_802367" data-name="Trazado 802367" d="M198.245,265.769a14.97,14.97,0,0,0,.9,2.122,6.125,6.125,0,0,0,3.32,3.242V264.9A15.366,15.366,0,0,0,198.245,265.769Z" transform="translate(-171.309 -228.912)" fill="#ccbcfe"/>
        <path id="Trazado_802368" data-name="Trazado 802368" d="M190.87,228.032a20.709,20.709,0,0,0,.55,4.263,16.464,16.464,0,0,1,4.676-.923v-3.34Z" transform="translate(-164.936 -197.049)" fill="#ccbcfe"/>
        <path id="Trazado_802369" data-name="Trazado 802369" d="M191.42,184.653a20.324,20.324,0,0,0-.55,4.224H196.1v-3.32A16.459,16.459,0,0,1,191.42,184.653Z" transform="translate(-164.936 -159.564)" fill="#ccbcfe"/>
        <path id="Trazado_802370" data-name="Trazado 802370" d="M202.469,133.32a6.057,6.057,0,0,0-3.32,3.242,14.061,14.061,0,0,0-.9,2.122,14.668,14.668,0,0,0,4.224.845Z" transform="translate(-171.309 -115.206)" fill="#ccbcfe"/>
        <path id="Trazado_802371" data-name="Trazado 802371" d="M245.848,138.683a14.056,14.056,0,0,0-.9-2.122,6.057,6.057,0,0,0-3.32-3.242v6.208A14.54,14.54,0,0,0,245.848,138.683Z" transform="translate(-208.794 -115.205)" fill="#ccbcfe"/>
        <path id="Trazado_802372" data-name="Trazado 802372" d="M246.87,188.876a21.719,21.719,0,0,0-.57-4.224,16.327,16.327,0,0,1-4.676.9v3.32Z" transform="translate(-208.794 -159.563)" fill="#ccbcfe"/>
        <path id="Trazado_802373" data-name="Trazado 802373" d="M246.3,232.3a22.111,22.111,0,0,0,.57-4.263h-5.246v3.34A16.33,16.33,0,0,1,246.3,232.3Z" transform="translate(-208.795 -197.049)" fill="#ccbcfe"/>
        <path id="Trazado_802374" data-name="Trazado 802374" d="M244.945,267.891a14.978,14.978,0,0,0,.9-2.122,15.219,15.219,0,0,0-4.224-.864v6.228A6.126,6.126,0,0,0,244.945,267.891Z" transform="translate(-208.795 -228.912)" fill="#ccbcfe"/>
        <path id="Trazado_802375" data-name="Trazado 802375" d="M287.607,169.365a23.9,23.9,0,0,1,.668,4.892h4.4a12.207,12.207,0,0,0-2.456-6.523,13.6,13.6,0,0,1-2.613,1.631" transform="translate(-248.53 -144.944)" fill="#ccbcfe"/>
        <path id="Trazado_802376" data-name="Trazado 802376" d="M268.809,138.815a12.183,12.183,0,0,1,1.1,1.709,14.518,14.518,0,0,1,.963,2.24,12.889,12.889,0,0,0,2-1.277A12,12,0,0,0,268.809,138.815Z" transform="translate(-232.286 -119.954)" fill="#ccbcfe"/>
        <path id="Trazado_802377" data-name="Trazado 802377" d="M174.346,142.764a16.7,16.7,0,0,1,.963-2.24,10.709,10.709,0,0,1,1.12-1.709,11.81,11.81,0,0,0-4.067,2.672,13.687,13.687,0,0,0,1.984,1.277" transform="translate(-148.943 -119.954)" fill="#ccbcfe"/>
        <path id="Trazado_802378" data-name="Trazado 802378" d="M150.465,174.257a22.633,22.633,0,0,1,.668-4.892,13.027,13.027,0,0,1-2.613-1.631,12.072,12.072,0,0,0-2.476,6.523Z" transform="translate(-126.201 -144.944)" fill="#ccbcfe"/>
        <path id="Trazado_802379" data-name="Trazado 802379" d="M151.133,232.944a22.624,22.624,0,0,1-.668-4.912h-4.421a12.2,12.2,0,0,0,2.475,6.562,14.046,14.046,0,0,1,2.613-1.65" transform="translate(-126.202 -197.049)" fill="#ccbcfe"/>
        <path id="Trazado_802380" data-name="Trazado 802380" d="M176.429,280.133a10.7,10.7,0,0,1-1.12-1.709,16.688,16.688,0,0,1-.963-2.24,13.684,13.684,0,0,0-1.984,1.277,12.1,12.1,0,0,0,4.067,2.672" transform="translate(-148.943 -238.659)" fill="#ccbcfe"/>
        <path id="Trazado_802381" data-name="Trazado 802381" d="M270.872,276.184a14.5,14.5,0,0,1-.963,2.24,12.175,12.175,0,0,1-1.1,1.709,12.293,12.293,0,0,0,4.067-2.672A12.9,12.9,0,0,0,270.872,276.184Z" transform="translate(-232.286 -238.659)" fill="#ccbcfe"/>
        <path id="Trazado_802382" data-name="Trazado 802382" d="M288.275,228.032a23.916,23.916,0,0,1-.668,4.912,14.726,14.726,0,0,1,2.613,1.65,12.175,12.175,0,0,0,2.456-6.562Z" transform="translate(-248.53 -197.049)" fill="#ccbcfe"/>
      </g>
    </g>
  </g>
</svg>
