<svg xmlns="http://www.w3.org/2000/svg" xmlns:xlink="http://www.w3.org/1999/xlink" width="441" height="395" viewBox="0 0 441 395">
  <defs>
    <clipPath id="clip-path">
      <rect id="Rectángulo_387560" data-name="Rectángulo 387560" width="441" height="395" transform="translate(180 10577.511)" fill="#fff"/>
    </clipPath>
    <linearGradient id="linear-gradient" y1="0.488" x2="0.89" y2="0.487" gradientUnits="objectBoundingBox">
      <stop offset="0" stop-color="#e8e4ff" stop-opacity="0.471"/>
      <stop offset="1" stop-color="#e5e8ff"/>
    </linearGradient>
  </defs>
  <g id="Enmascarar_grupo_1090660" data-name="Enmascarar grupo 1090660" transform="translate(-180 -10577.51)" clip-path="url(#clip-path)">
    <g id="_22917188086832_Convertido_" data-name="22917188086832 [Convertido]" transform="translate(196.39 10594.633)">
      <g id="Desk" transform="translate(12.017 500.103)">
        <path id="Trazado_836574" data-name="Trazado 836574" d="M401.2,439.795c0,.132-87,.245-194.285.245s-194.3-.113-194.3-.245,86.98-.245,194.3-.245S401.2,439.663,401.2,439.795Z" transform="translate(-12.61 -439.55)" fill="#263238"/>
      </g>
      <g id="Character" transform="translate(202.972 0)">
        <g id="Grupo_1094346" data-name="Grupo 1094346" opacity="0.84">
          <path id="Trazado_836575" data-name="Trazado 836575" d="M44.382,55.034v4.919H27.97v.482H72.342V76.517H27.97v.5H44.382V93.094H27.97v.482H72.342v16.081H27.97v.482H44.382v16.081H27.97v.482H72.342v16.081H27.97v.5H44.382v16.081H27.97v.5H72.342V175.94H27.97v.5H44.382v16.081H27.97V193H72.342v16.081H27.97v.5H44.382v16.081H27.97v.482H72.342v16.081H27.97v.482H44.382v16.081H27.97v.5H72.342v16.081H27.97v.5H44.382v16.081H27.97v.5H72.342v16.081H27.97v.5H44.382V325.1H27.97v.482H72.342v16.081H27.97v.5H44.382v16.081H27.97v.5H72.342v16.081H27.97v.5H44.382v16.081H27.97v.482H72.342v16.081H27.97v.482H44.382v16.081H27.97v.5H72.342V441.1H27.97v.5H44.382v16.081H27.97v.482H72.342v16.081H27.97v.5H44.382v16.081H27.97v.5H72.342v16.081H27.97v.482H44.382v16.081H27.97v.482H72.342v5.719h.482v-5.719h55.437v5.719h.482v-5.719h55.437v5.719h.482v-5.719h48.575c.441-.165.882-.317,1.323-.482H212.637V507.874h49.526c.193-.165.386-.331.579-.482H240.6V491.31h37.358c.124-.165.234-.331.358-.5h-9.756V474.733h19.43c.083-.165.152-.331.234-.5H240.6V458.156h53.48c.041-.165.1-.331.138-.482H268.556V441.592H296.97c0-.165.028-.331.041-.5h-.5V425.015h.427l-.041-.5H268.556V408.437h25.466a4.917,4.917,0,0,0-.138-.482h-53.3V391.874h47.293c-.083-.165-.152-.331-.234-.482h-19.1V375.31h9.246l-.372-.5H240.6V358.732h21.318c-.193-.165-.4-.331-.606-.5H212.637V342.155h20.009l-1.406-.5H184.677V333.4a5.15,5.15,0,0,1-.482-.22v8.461H128.757V325.564h43.931c-.179-.165-.344-.317-.51-.482H156.731V309h5.2l-.165-.5H128.771V292.423h31.06c0-.165.028-.331.041-.5h-3.142V275.845h8.158c.1-.165.179-.331.276-.5H128.771V259.268h53.315l.992-.5H156.745V242.691h55.423v11.575l.5-.083V242.691h22.448c.165-.165.331-.331.5-.482H184.691V226.127h55.437v10.721l.5-.7V226.127h5.044c.055-.165.11-.331.165-.482H212.664V209.563h35.249c0-.165-.014-.331-.028-.5h-7.262V192.986h2.728a5.382,5.382,0,0,0-.262-.482H212.664V176.422h15.613l-.785-.5H184.7v-7.248c-.165-.069-.331-.124-.482-.193v7.441H128.785V159.845H175.4l-.207-.5H156.745V143.268H177.3c.124-.165.248-.331.386-.5H128.785V126.69h55.437V137.88c.165-.069.331-.138.482-.193v-11h28.139c.028-.165.041-.331.055-.482h-.234V122.68a10.259,10.259,0,0,0-.5-1.6v5.126H156.745v-12.43h-.482v12.43H100.839V110.127h16.123c-.207-.165-.413-.317-.62-.482H72.879V93.563h37.082c.014-.165.041-.331.069-.482h-9.191V77H154.2c.358-.152.689-.317,1.034-.5H128.812V60.422h30.73c-.11-.165-.207-.331-.317-.482h-2.453V57.376c-.165-.124-.317-.234-.482-.358V59.94H100.866V55.02h-.5V59.94H44.933V55.02h-.5Zm177.845,71.684c-.028-.165-.041-.331-.055-.482h22.765a2.714,2.714,0,0,1-.055.482H240.6v7.5c-.165.124-.331.248-.5.358v-7.855H222.214ZM44.878,507.791h55.437v16.082H44.878V507.791Zm55.919,0h55.423v16.082H100.8V507.791Zm55.919,0H212.14v16.082H156.717V507.791ZM72.838,491.228h55.437v16.081H72.838V491.228Zm55.919,0h55.437v16.081H128.757V491.228Zm55.919,0h55.437v16.081H184.677V491.228Zm-139.8-16.563h55.437v16.081H44.878V474.664Zm55.919,0h55.423v16.081H100.8V474.664Zm55.919,0H212.14v16.081H156.717V474.664Zm55.919,0h55.437v16.081H212.637V474.664ZM72.838,458.1h55.437v16.081H72.838V458.1Zm55.919,0h55.437v16.081H128.757V458.1Zm55.919,0h55.437v16.081H184.677V458.1Zm-139.8-16.564h55.437v16.081H44.878V441.537Zm55.919,0h55.423v16.081H100.8V441.537Zm55.919,0H212.14v16.081H156.717V441.537Zm55.919,0h55.437v16.081H212.637V441.537Zm-139.8-16.564h55.437v16.081H72.838V424.973Zm55.919,0h55.437v16.081H128.757V424.973Zm55.919,0h55.437v16.081H184.677V424.973Zm55.919,0H296.02v16.081H240.582V424.973h0ZM44.878,408.4h55.437v16.081H44.878V408.4Zm55.919,0h55.423v16.081H100.8V408.4Zm55.919,0h55.423v16.081H156.717V408.4Zm55.919,0h55.437v16.081H212.637V408.4Zm-139.8-16.564h55.437v16.081H72.838V391.832Zm55.92,0h55.437v16.081H128.757V391.832Zm55.919,0h55.437v16.081H184.677V391.832Zm-139.8-16.564h55.437V391.35H44.878V375.269Zm55.919,0h55.423V391.35H100.8V375.269Zm55.919,0h55.423V391.35H156.717V375.269Zm55.919,0h55.437V391.35H212.637V375.269Zm-139.8-16.564h55.437v16.081H72.838V358.705Zm55.919,0h55.437v16.081H128.757V358.705Zm55.919,0h55.437v16.081H184.677V358.705Zm-139.8-16.564h55.437v16.081H44.878V342.141Zm55.919,0h55.423v16.081H100.8V342.141Zm55.919,0h55.423v16.081H156.717V342.141ZM72.838,325.564h55.437v16.081H72.838V325.564ZM44.878,309h55.437v16.081H44.878V309Zm55.919,0h55.423v16.081H100.8V309Zm-27.96-16.564h55.437v16.081H72.838V292.437Zm-27.96-16.564h55.437v16.081H44.878V275.873Zm55.919,0h55.423v16.081H100.8V275.873Zm-27.96-16.564h55.437v16.081H72.838V259.309Zm-27.96-16.564h55.437v16.081H44.878V242.746Zm55.919,0h55.423v16.081H100.8V242.746Zm-27.96-16.564h55.437v16.081H72.838V226.182Zm55.92,0h55.437v16.081H128.757V226.182ZM44.878,209.619h55.437V225.7H44.878V209.619Zm55.919,0h55.423V225.7H100.8V209.619Zm55.919,0h55.423V225.7H156.717V209.619ZM72.838,193.055h55.437v16.081H72.838V193.055Zm55.919,0h55.437v16.081H128.757V193.055Zm55.919,0h55.437v16.081H184.677V193.055Zm-139.8-16.564h55.437v16.081H44.878V176.491Zm55.919,0h55.423v16.081H100.8V176.491Zm55.919,0h55.423v16.081H156.717V176.491ZM72.838,159.928h55.437v16.081H72.838V159.928Zm-27.96-16.564h55.437v16.081H44.878V143.364Zm55.919,0h55.423v16.081H100.8V143.364ZM72.838,126.8h55.437v16.081H72.838V126.8Zm-27.96-16.564h55.437v16.081H44.878V110.237Zm0-33.141h55.437V93.177H44.878V77.1Zm27.96-16.564h55.437V76.613H72.838Z" transform="translate(-27.97 -55.02)" fill="#73afcc" fill-rule="evenodd"/>
          <rect id="Rectángulo_387546" data-name="Rectángulo 387546" width="43" height="196" transform="translate(182.638 297.878)" fill="url(#linear-gradient)"/>
        </g>
      </g>
      <g id="Grupo_1094347" data-name="Grupo 1094347" transform="translate(0 0)">
        <rect id="Rectángulo_387547" data-name="Rectángulo 387547" width="45.266" height="89.722" transform="translate(0 82.91)" fill="#12263f"/>
        <rect id="Rectángulo_387548" data-name="Rectángulo 387548" width="48.903" height="89.722" transform="translate(47 82.91)" fill="#12263f"/>
        <rect id="Rectángulo_387549" data-name="Rectángulo 387549" width="48.903" height="86.688" transform="translate(47 178.898)" fill="#12263f"/>
        <path id="Trazado_836576" data-name="Trazado 836576" d="M108.44,81.355h51.5V1.762h1.743V81.355H203.6V0H108.44Z" transform="translate(-6.261)" fill="#12263f"/>
        <rect id="Rectángulo_387550" data-name="Rectángulo 387550" width="41.912" height="89.722" transform="translate(155.426 82.91)" fill="#12263f"/>
        <rect id="Rectángulo_387551" data-name="Rectángulo 387551" width="41.912" height="86.688" transform="translate(155.426 178.898)" fill="#12263f"/>
        <rect id="Rectángulo_387552" data-name="Rectángulo 387552" width="45.266" height="86.688" transform="translate(0 178.898)" fill="#12263f"/>
        <rect id="Rectángulo_387553" data-name="Rectángulo 387553" width="51.504" height="86.688" transform="translate(102.179 178.898)" fill="#12263f"/>
        <rect id="Rectángulo_387554" data-name="Rectángulo 387554" width="45.266" height="78.123" transform="translate(0 267.141)" fill="#12263f"/>
        <rect id="Rectángulo_387555" data-name="Rectángulo 387555" width="41.912" height="78.123" transform="translate(155.426 267.141)" fill="#12263f"/>
        <path id="Trazado_836577" data-name="Trazado 836577" d="M45.266,81.355V1.762H47V81.355H95.913V0H0V81.355Z" fill="#12263f"/>
        <rect id="Rectángulo_387556" data-name="Rectángulo 387556" width="51.504" height="78.123" transform="translate(102.179 267.141)" fill="#12263f"/>
        <rect id="Rectángulo_387557" data-name="Rectángulo 387557" width="48.903" height="78.123" transform="translate(47 267.141)" fill="#12263f"/>
        <rect id="Rectángulo_387558" data-name="Rectángulo 387558" width="51.504" height="89.722" transform="translate(102.179 82.91)" fill="#12263f"/>
      </g>
    </g>
    <g id="_4264701" data-name="4264701" transform="translate(129.726 10540.133)">
      <g id="Doodles" transform="translate(0 0)">
        <g id="Grupo_1094352" data-name="Grupo 1094352">
          <path id="Trazado_836578" data-name="Trazado 836578" d="M45.319,272.044,32.49,244.72h47.3Z" transform="translate(-32.49 -82.77)" fill="none" stroke="#263238" stroke-linecap="round" stroke-linejoin="round" stroke-width="1"/>
          <path id="Trazado_836579" data-name="Trazado 836579" d="M184.057,136.79l5.927,15.935L163.44,150.52Z" transform="translate(33.052 -136.79)" fill="none" stroke="#263238" stroke-linecap="round" stroke-linejoin="round" stroke-width="1"/>
          <path id="Trazado_836580" data-name="Trazado 836580" d="M181.75,27.75l14.21,6.872-14.21,6.962,14.21,8.778-14.21,9.528,15.95,7.368-12.574,11.7" transform="translate(-38.803 33.536)" fill="none" stroke="#fff" stroke-linecap="round" stroke-linejoin="round" stroke-width="1"/>
          <circle id="Elipse_11050" data-name="Elipse 11050" cx="12.874" cy="12.874" r="12.874" transform="translate(56.134 83.566)" fill="none" stroke="#fff" stroke-linecap="round" stroke-linejoin="round" stroke-width="1"/>
          <g id="Grupo_1094348" data-name="Grupo 1094348" transform="translate(452.455 57.609)">
            <line id="Línea_1813" data-name="Línea 1813" x2="28.36" y2="16.206" fill="none" stroke="#263238" stroke-linecap="round" stroke-linejoin="round" stroke-width="1"/>
            <line id="Línea_1814" data-name="Línea 1814" x1="10.924" y2="21.502" transform="translate(6.986 4.157)" fill="none" stroke="#263238" stroke-linecap="round" stroke-linejoin="round" stroke-width="1"/>
          </g>
          <line id="Línea_1815" data-name="Línea 1815" x1="30.701" y2="11.149" transform="translate(363.439 38.758)" fill="none" stroke="#263238" stroke-linecap="round" stroke-linejoin="round" stroke-width="1"/>
          <line id="Línea_1816" data-name="Línea 1816" x1="9.348" y1="22.238" transform="translate(372.653 31.976)" fill="none" stroke="#263238" stroke-linecap="round" stroke-linejoin="round" stroke-width="1"/>
          <path id="Trazado_836581" data-name="Trazado 836581" d="M101.13,241.938c-.21.555,22.328-9.738,22.328-9.738l11.014,25.224-22.343,9.753-11-25.224Z" transform="translate(-30.084 -82.426)" fill="none" stroke="#fff" stroke-linecap="round" stroke-linejoin="round" stroke-width="1"/>
          <path id="Trazado_836582" data-name="Trazado 836582" d="M310,216.17c-.24-.03,5.942,7.443,5.942,7.443l-8.4,6.707-5.942-7.443,8.418-6.707Z" transform="translate(37.305 -52.179)" fill="none" stroke="#263238" stroke-linecap="round" stroke-linejoin="round" stroke-width="1"/>
          <path id="Trazado_836583" data-name="Trazado 836583" d="M36.319,171.427a5.739,5.739,0,1,1-5.732-5.747A5.731,5.731,0,0,1,36.319,171.427Z" transform="translate(54.042 -115.873)" fill="none" stroke="#fff" stroke-linecap="round" stroke-linejoin="round" stroke-width="1"/>
          <path id="Trazado_836584" data-name="Trazado 836584" d="M318.241,262.32l6.107,10.2-12.484.975,3.3,9.558-13.835,1.035,6.737,18.321" transform="translate(83.441 -32.096)" fill="none" stroke="#263238" stroke-linecap="round" stroke-linejoin="round" stroke-width="1"/>
          <path id="Trazado_836585" data-name="Trazado 836585" d="M98.937,317.73l10.774,6.5-14.42,11.764,9.033,5.7L92.71,354.553" transform="translate(-2.349 -46.227)" fill="none" stroke="#263238" stroke-linecap="round" stroke-linejoin="round" stroke-width="1"/>
          <path id="Trazado_836586" data-name="Trazado 836586" d="M307.3,110.3l-8.868-8.913,16.851-7.908-7.367-7.728L322.3,76.09" transform="translate(19.334 22.959)" fill="none" stroke="#263238" stroke-linecap="round" stroke-linejoin="round" stroke-width="1"/>
          <g id="Grupo_1094351" data-name="Grupo 1094351" transform="translate(434.437 261.616)">
            <path id="Trazado_836593" data-name="Trazado 836593" d="M169.68,288.7h38.267V265.185h-22.2l-2.268-5.755h-13.8Z" transform="translate(-169.68 -259.43)" fill="#6e40fc" stroke="#263238" stroke-miterlimit="10" stroke-width="1"/>
            <path id="Trazado_836594" data-name="Trazado 836594" d="M169.68,308.633h38.267V285.116h-22.2l-2.268-5.736h-13.8Z" transform="translate(-169.68 -241.36)" fill="#263238" stroke="#263238" stroke-miterlimit="10" stroke-width="1"/>
            <path id="Trazado_836595" data-name="Trazado 836595" d="M169.68,328.573h38.267V305.056h-22.2l-2.268-5.736h-13.8Z" transform="translate(-169.68 -223.3)" fill="#263238" stroke="#263238" stroke-miterlimit="10" stroke-width="1"/>
          </g>
        </g>
      </g>
      <g id="Character-2" data-name="Character" transform="translate(92.396 61.66)">
        <g id="Grupo_1094363" data-name="Grupo 1094363">
          <g id="Grupo_1094354" data-name="Grupo 1094354" transform="translate(7.569 178.763)">
            <path id="Trazado_836596" data-name="Trazado 836596" d="M351.924,539.063c7.668-9.5,12.259-102.864,12.259-102.864,10.1,7.2,42.235,120.815,42.235,120.815a134.043,134.043,0,0,0,25.074-6.257,102.279,102.279,0,0,0,23.693-11.749c-7.291-10.752-13.934-43.854-29.481-80.436-19.015-44.741-47.377-93.783-56.779-100.894-6.572-4.967-26.934-9.813-26.934-9.813-4.622-4.171-14.66,0-14.66,0-54.379,13.835-104.136-4.081-104.136-4.081s-7.052-3.256-12.829,0a77.019,77.019,0,0,0-16.926,0c-12.454,1.711-26.049,15.935-31.661,22.4-1.681,1.936-47.791,55.354-47.791,55.354s-1.606,21.787,1.771,24.668c27.024,23.153,66.848-29.455,66.848-29.455.255.105.87,111.927,22.193,135.815,0,0,15.11,6.9,73.87,1.5,58.295-5.357,73.3-15.005,73.3-15.005Z" transform="translate(-113.606 -342.336)" fill="#6e40fc"/>
            <g id="Grupo_1094353" data-name="Grupo 1094353" transform="translate(18.973 22.139)">
              <path id="Trazado_836597" data-name="Trazado 836597" d="M141.78,397.8c-9.048.8-13.73-1.366-15.53-5.207h0c13.024-15.08,28.225-32.7,29.17-33.792.45-.525.96-1.1,1.5-1.711C163.673,372.215,169.285,395.4,141.78,397.8Z" transform="translate(-126.25 -357.09)" opacity="0.2"/>
              <path id="Trazado_836598" data-name="Trazado 836598" d="M165.127,433.883c-5.117-18.816-5.417-36.042-5.567-36.1,0,0,6.542-8.568,8.358-17.571C167.918,380.21,176.411,414.077,165.127,433.883Z" transform="translate(-109.578 -345.518)" opacity="0.2"/>
              <path id="Trazado_836599" data-name="Trazado 836599" d="M292.519,425.453a71.631,71.631,0,0,0-11.929-11s.645-21.5,6.647-28.015c4.832-5.237,9.978,21.952,5.282,39.013Z" transform="translate(-49.001 -342.73)" opacity="0.2"/>
            </g>
          </g>
          <path id="Trazado_836600" data-name="Trazado 836600" d="M272.43,441.653c7.668-9.5,12.259-36.763,12.259-36.763a77.013,77.013,0,0,1,16.9,17.256" transform="translate(-26.543 -132.263)" fill="none" stroke="#263238" stroke-linecap="round" stroke-linejoin="round" stroke-width="1"/>
          <path id="Trazado_836601" data-name="Trazado 836601" d="M444.843,512.959c-6.9-10.174-12.834-39.958-25.267-68.876-16.842-39.172-40.852-78.986-50.661-86.406-6.572-4.967-26.934-9.813-26.934-9.813-4.621-4.171-14.66,0-14.66,0-54.379,13.835-104.136-4.081-104.136-4.081s-7.052-3.256-12.829,0a77.02,77.02,0,0,0-16.926,0c-12.454,1.711-26.049,15.935-31.661,22.4-1.681,1.936-47.791,55.354-47.791,55.354s-1.606,21.787,1.771,24.668c27.024,23.153,66.848-29.455,66.848-29.455.255.105.87,45.826,22.193,69.714" transform="translate(-106.041 -163.572)" fill="none" stroke="#263238" stroke-linecap="round" stroke-linejoin="round" stroke-width="1"/>
          <g id="Grupo_1094355" data-name="Grupo 1094355" transform="translate(97.349)">
            <path id="Trazado_836602" data-name="Trazado 836602" d="M257.6,337.22c-.45.18-.72.285-.72.285A3.005,3.005,0,0,0,257.6,337.22Z" transform="translate(-131.675 -166.133)" fill="#263238"/>
            <path id="Trazado_836603" data-name="Trazado 836603" d="M315.524,353.789c5.717.84,7.112-3.346,7.112-3.346s-7.112,3.346-13.385-9.528c-3.571-7.338-1.816-20.812.36-31.046,4.4-7.247,10.774-17.256,11.614-29.155,1.455-20.407-8.088-30.746-19.147-27.715,0,0-.81-17.241-16.371-23.423s-18.036-1.1-32.966-4.862c-14.915-3.751-29.68-.48-35.067,9.228s-7.187,27.339-16.371,34.152c-9.168,6.812-25.209,23.258-20.137,41.639s2.206,24.668-4.532,33.356-2.626,25.794,10.2,31.106c0,0-5.417-2.9-1.591-7.743,0,0,2.971,11.524,13.009,9.423s22.718-2.806,29.185,4.306c6.482,7.1,30.175,9.033,35.517,3.6s9.483-.39,19.162,4.456,20.422.6,20.422.6-.9,4.186-3.211,5.447c1.966-.825,7.413-3.436,8.943-7.322,1.5-3.826,2.491-7.683.585-16.791,6.707-2.626,3.6-7.067,3.6-7.067,6.287,3.631,9.273-6.842,9.273-6.842-5.822-.075-6.257-2.476-6.257-2.476Z" transform="translate(-173.438 -223.201)" fill="#263238"/>
          </g>
          <g id="Grupo_1094356" data-name="Grupo 1094356" transform="translate(110.841 115.238)">
            <path id="Trazado_836604" data-name="Trazado 836604" d="M298.3,370.914s-42.359,18.862-55.954,19.612c-13.595.78-59.916-23.858-59.916-23.858l35.292-9.633c4.8-9.168,4.922-19.927,3.781-32.546-.375-3.916-.84-7.608-1.35-10.909-1.2-8-2.536-13.58-2.536-13.58l49.877,2.056a86.715,86.715,0,0,0-2.566,9.678,121.006,121.006,0,0,0-2.356,20.572c-.57,17.256,2.1,27.069,2.1,27.069L298.3,370.929Z" transform="translate(-182.43 -300)" fill="#fff" stroke="#263238" stroke-linecap="round" stroke-linejoin="round" stroke-width="1"/>
            <path id="Trazado_836605" data-name="Trazado 836605" d="M190.94,348.75s26.709,4.682,33.341,3.916,11.839,5.777,11.839,5.777" transform="translate(-178.171 -275.6)" fill="#fff" stroke="#263238" stroke-linecap="round" stroke-linejoin="round" stroke-width="1"/>
            <path id="Trazado_836606" data-name="Trazado 836606" d="M267.614,349.91s-27.189,2.881-33.807,3.106-8.538,4.847-8.538,4.847" transform="translate(-160.988 -275.019)" fill="#fff" stroke="#263238" stroke-linecap="round" stroke-linejoin="round" stroke-width="1"/>
            <path id="Trazado_836607" data-name="Trazado 836607" d="M252.355,307.82A121,121,0,0,0,250,328.392a43.012,43.012,0,0,1-13.97,8.253c-8.388,2.776-19.537-7.458-27.1-16.056-.375-3.916-.84-7.608-1.35-10.909l44.775-1.846Z" transform="translate(-169.842 -296.086)" fill="#263238"/>
          </g>
          <g id="Grupo_1094359" data-name="Grupo 1094359" transform="translate(104.782 5.856)">
            <g id="Grupo_1094357" data-name="Grupo 1094357" transform="translate(18.408 62.171)">
              <path id="Trazado_836608" data-name="Trazado 836608" d="M201.929,273.748s-4.111-6.317-7.788-5.042-3.661,18.4-3.361,22.853,9.243,14.4,12.994,11.674" transform="translate(-190.66 -268.537)" fill="#fff" stroke="#263238" stroke-linecap="round" stroke-linejoin="round" stroke-width="1"/>
              <path id="Trazado_836609" data-name="Trazado 836609" d="M261.763,281.944s5.762-4.862,8.913-2.581-1.8,18.666-3.361,22.853c-1.561,4.171-13.009,11.134-15.815,7.443" transform="translate(-160.208 -263.423)" fill="#fff" stroke="#263238" stroke-linecap="round" stroke-linejoin="round" stroke-width="1"/>
            </g>
            <path id="Trazado_836610" data-name="Trazado 836610" d="M232.8,370.132c-15.125-2.221-30.13-27.865-31.931-35.082-2.011-8.028-6.437-47.626,2.191-69.339,9.708-24.383,30.01-34.662,49.8-31.751s36.267,18.621,38.533,44.76c2.011,23.273-13.655,59.915-17.9,67.013-3.811,6.392-24.758,26.724-40.694,24.383Z" transform="translate(-168.611 -223.912)" fill="#fff" stroke="#263238" stroke-linecap="round" stroke-linejoin="round" stroke-width="1"/>
            <path id="Trazado_836611" data-name="Trazado 836611" d="M245.9,284.053c-.405,2.806-2,4.892-3.541,4.652s-2.461-2.686-2.041-5.477c.42-2.806,2-4.892,3.541-4.652C245.4,278.8,246.316,281.262,245.9,284.053Z" transform="translate(-147.45 -201.35)" fill="#263238"/>
            <path id="Trazado_836612" data-name="Trazado 836612" d="M211.154,278.927c-.42,2.806.51,5.252,2.041,5.477s3.121-1.861,3.541-4.652c.405-2.806-.51-5.252-2.041-5.477S211.574,276.136,211.154,278.927Z" transform="translate(-162.045 -203.502)" fill="#263238"/>
            <path id="Trazado_836613" data-name="Trazado 836613" d="M242.889,303.971s-7.833,15.365-17.826,12.859c-9.828-2.476-9.9-16.446-9.9-16.911,0,0,.5.21,1.41.54a59.9,59.9,0,0,0,12.214,3.136,67.2,67.2,0,0,0,12.184.5c1.215-.06,1.936-.105,1.936-.105Z" transform="translate(-159.989 -190.658)" fill="#757575"/>
            <path id="Trazado_836614" data-name="Trazado 836614" d="M227.12,281.31c.39,9.648-7.893,11.284-6.3,14.63a9.176,9.176,0,0,0,5.312,4.411" transform="translate(-157.259 -199.973)" fill="#fff" stroke="#263238" stroke-linecap="round" stroke-linejoin="round" stroke-width="1"/>
            <path id="Trazado_836615" data-name="Trazado 836615" d="M215.15,299.9s-.09,14.435,9.918,16.941,17.826-12.859,17.826-12.859" transform="translate(-159.994 -190.668)" fill="none" stroke="#263238" stroke-linecap="round" stroke-linejoin="round" stroke-width="1"/>
            <path id="Trazado_836616" data-name="Trazado 836616" d="M205.17,271.718s9.018-11.374,22.973-7.773" transform="translate(-164.989 -209.017)" fill="none" stroke="#263238" stroke-linecap="round" stroke-linejoin="round" stroke-width="1"/>
            <path id="Trazado_836617" data-name="Trazado 836617" d="M257.852,280.37s-5.357-13.5-19.762-14.06" transform="translate(-148.512 -207.48)" fill="none" stroke="#263238" stroke-linecap="round" stroke-linejoin="round" stroke-width="1"/>
            <g id="Grupo_1094358" data-name="Grupo 1094358" transform="translate(121.569 63.811)">
              <path id="Trazado_836618" data-name="Trazado 836618" d="M289.39,269.63l-2.806,3.091-2.161,2.4L259.41,289.647l1.035-7.007,20.482-11.914,4.427-.57Z" transform="translate(-259.41 -269.63)" fill="#6e40fc" stroke="#263238" stroke-linecap="round" stroke-linejoin="round" stroke-width="1"/>
              <path id="Trazado_836619" data-name="Trazado 836619" d="M276.278,275.722c-3.706-.69-2.461-5.012-2.461-5.012l8.463-1.08Z" transform="translate(-252.3 -269.63)" fill="#fff" stroke="#263238" stroke-linecap="round" stroke-linejoin="round" stroke-width="1"/>
              <path id="Trazado_836620" data-name="Trazado 836620" d="M280.778,269.63l-2.791,3.091a1.864,1.864,0,0,1-1.23-2.566l4.036-.525Z" transform="translate(-250.798 -269.63)" fill="#263238"/>
            </g>
            <path id="Trazado_836621" data-name="Trazado 836621" d="M269.487,258.024s-9.5,12.469-30.115,16.055c-25.824,4.5-40.079,26.829-39.719,36.147,0,0-7.938-17.5-4.412-41.1,5.117-34.272,37.093-44.07,60.351-41.684s34.467,25.689,34.467,25.689,17.451,13.595,14.93,30.73c-2.416,16.4-6.407,16.851-8.508,20.557-2.911,5.147.915,7.293-9.288,15.725,0,0,4.036-22.883-.975-39.959s-16.7-22.178-16.7-22.178Z" transform="translate(-170.411 -227.104)" fill="#263238"/>
            <path id="Trazado_836622" data-name="Trazado 836622" d="M268.981,243.85s-9.108,34.767-60.861,40.214c0,0,34.872-6.3,50.987-38.173l9.873-2.041Z" transform="translate(-163.513 -218.722)" fill="#263238"/>
            <path id="Trazado_836623" data-name="Trazado 836623" d="M225.208,307.346s7.112-2.536,9.858,0c0,0-4.682,7.458-10.684,5.672-6.017-1.786-7.293-9-7.293-9s3.256-1.516,8.133,3.331Z" transform="translate(-159.023 -188.721)" fill="#bfbfbf"/>
            <path id="Trazado_836624" data-name="Trazado 836624" d="M241.714,304.011l-2.026,2.3c-12.559,1.921-23.363-3.721-23.363-3.721l-.705-2.506a65.444,65.444,0,0,0,12.919,3.436,78.075,78.075,0,0,0,13.174.5Z" transform="translate(-159.759 -190.578)" fill="#fff"/>
            <path id="Trazado_836625" data-name="Trazado 836625" d="M213.66,299.28s16.266,7.578,31.991,4.712" transform="translate(-160.74 -190.978)" fill="none" stroke="#263238" stroke-linecap="round" stroke-linejoin="round" stroke-width="1"/>
            <path id="Trazado_836626" data-name="Trazado 836626" d="M271.965,238.12s-11.029,14.45-37.9,16.656-34.662,13.34-34.662,13.34" transform="translate(-167.877 -221.59)" fill="none" stroke="#757575" stroke-linecap="round" stroke-linejoin="round" stroke-width="1"/>
            <path id="Trazado_836627" data-name="Trazado 836627" d="M209.8,238.9c-2.506.465-5.927,1.365-7.112,3.9" transform="translate(-166.23 -221.199)" fill="none" stroke="#757575" stroke-linecap="round" stroke-linejoin="round" stroke-width="1"/>
            <path id="Trazado_836628" data-name="Trazado 836628" d="M269.45,230.64c-16.206,12.124-37.138,13.5-58.4,11.794" transform="translate(-162.046 -225.334)" fill="none" stroke="#757575" stroke-linecap="round" stroke-linejoin="round" stroke-width="1"/>
            <path id="Trazado_836629" data-name="Trazado 836629" d="M183.116,304.46c-3.046,3.556-4.892,7.292-4.712,12.079" transform="translate(-178.392 -188.386)" fill="none" stroke="#757575" stroke-linecap="round" stroke-linejoin="round" stroke-width="1"/>
            <path id="Trazado_836630" data-name="Trazado 836630" d="M199.485,259.46c-7.533,4.276-13.58,12.139-13.985,20.977-.69,14.96,10.038,28.465-1.08,41.579" transform="translate(-175.375 -210.909)" fill="none" stroke="#757575" stroke-linecap="round" stroke-linejoin="round" stroke-width="1"/>
            <path id="Trazado_836631" data-name="Trazado 836631" d="M192.989,291.97s8.313,8.793,2.911,17.736-8.193,18.021,2.881,24.608" transform="translate(-172 -194.637)" fill="none" stroke="#757575" stroke-linecap="round" stroke-linejoin="round" stroke-width="1"/>
            <path id="Trazado_836632" data-name="Trazado 836632" d="M234.622,261.23a54.261,54.261,0,0,1-5.492,3.031" transform="translate(-152.997 -210.023)" fill="none" stroke="#757575" stroke-linecap="round" stroke-linejoin="round" stroke-width="1"/>
            <path id="Trazado_836633" data-name="Trazado 836633" d="M250.64,246.47c-2.956,7.383-8.553,13.94-14.72,18.831" transform="translate(-149.598 -217.411)" fill="none" stroke="#757575" stroke-linecap="round" stroke-linejoin="round" stroke-width="1"/>
            <path id="Trazado_836634" data-name="Trazado 836634" d="M249.97,247.29s11.239,6.122,15.56,16.236c4.321,10.128-1.771,24.383,1.065,29.305" transform="translate(-142.566 -217)" fill="none" stroke="#757575" stroke-linecap="round" stroke-linejoin="round" stroke-width="1"/>
            <path id="Trazado_836635" data-name="Trazado 836635" d="M261.62,313.13a16.47,16.47,0,0,0,5.027,2.1" transform="translate(-136.735 -184.046)" fill="none" stroke="#757575" stroke-linecap="round" stroke-linejoin="round" stroke-width="1"/>
            <path id="Trazado_836636" data-name="Trazado 836636" d="M255.68,303.79a23.6,23.6,0,0,0,4.562,10.053" transform="translate(-139.708 -188.721)" fill="none" stroke="#757575" stroke-linecap="round" stroke-linejoin="round" stroke-width="1"/>
            <path id="Trazado_836637" data-name="Trazado 836637" d="M252.747,309.16s-1.035,11.434,6.242,19,5.162,12.274,5.162,12.274" transform="translate(-141.202 -186.033)" fill="none" stroke="#757575" stroke-linecap="round" stroke-linejoin="round" stroke-width="1"/>
            <path id="Trazado_836638" data-name="Trazado 836638" d="M245.531,317.85s4.352,11.584-2.551,15.44" transform="translate(-146.065 -181.684)" fill="none" stroke="#757575" stroke-linecap="round" stroke-linejoin="round" stroke-width="1"/>
            <path id="Trazado_836639" data-name="Trazado 836639" d="M255.68,245.18s16.416,3.316,18.831,10.489c2.4,7.172,0,15.455,0,15.455" transform="translate(-139.708 -218.056)" fill="none" stroke="#757575" stroke-linecap="round" stroke-linejoin="round" stroke-width="1"/>
          </g>
          <path id="Trazado_836640" data-name="Trazado 836640" d="M118.238,462.029c-13.91-7.728-11.224-35.517-2-70.209,4.532-17.046,20.137-59.975,19.822-61.581-.63-3.121-3.451-8.313-3.451-8.313s4.472-4.592,6.392-5.417c8.118-3.466,24.143-7.833,31.5-4.787,2.3.945,5.627,6.3,5.162,8.493-.48,2.191-7.052,9.393-6.422,16.281s-5.357,29.68-5.192,38.758c.03,1.876.105,4.216.225,6.752.075,1.621-.015,30.01-10.939,44.505" transform="translate(-108.561 -179.409)" fill="#6e40fc" stroke="#263238" stroke-linecap="round" stroke-linejoin="round" stroke-width="1"/>
          <g id="Grupo_1094360" data-name="Grupo 1094360" transform="translate(21.627 46.987)">
            <path id="Trazado_836641" data-name="Trazado 836641" d="M156.309,274.63c.285,2.761,6.257,22.448,8.088,42.57,0,0,6.857-2.446,10.594-5.7,3.736-3.271,11.554-.66,11.224,1.515s-7.488,1.8-13.58,9.963-7.307,17.2-15.38,21.562-20.632,5.882-25.479.075S121.467,308,123.358,304.79s5.987-6.047,5.987-6.047,2.056-6.017,5.177-6.467,10.564-.63,10.564-.63a8.556,8.556,0,0,1,5.957-1.636s-2.431-23.123-4.562-30.866C144.35,251.387,153.863,251.432,156.309,274.63Z" transform="translate(-122.974 -254.515)" fill="#fff" stroke="#263238" stroke-linecap="round" stroke-linejoin="round" stroke-width="1"/>
            <path id="Trazado_836642" data-name="Trazado 836642" d="M148.877,278.17c6.377,2.881,9.2,15.005,9.2,15.875s-3.391,10.023-4.592,12.664c-1.576,3.451-5.027,0-5.027,0s-1.05,4.532-3.466,2.536c-3.076-2.536-3.076-10.744-3.076-10.744s-.375,6.827-2.161,10.158-5.372,1.125-4.862-8.748c0,0-7.337-1.8-7.593-3.586" transform="translate(-120.809 -242.675)" fill="none" stroke="#263238" stroke-linecap="round" stroke-linejoin="round" stroke-width="1"/>
            <path id="Trazado_836643" data-name="Trazado 836643" d="M139.948,294.668c-1.8-4.622-8.718-8.868-8.718-8.868" transform="translate(-118.842 -238.856)" fill="none" stroke="#263238" stroke-linecap="round" stroke-linejoin="round" stroke-width="1"/>
            <path id="Trazado_836644" data-name="Trazado 836644" d="M142.9,304.112s3.616-10.444,2.641-12.664-7.127-8.118-7.127-8.118" transform="translate(-115.249 -240.092)" fill="none" stroke="#263238" stroke-linecap="round" stroke-linejoin="round" stroke-width="1"/>
            <path id="Trazado_836645" data-name="Trazado 836645" d="M153.848,296.29s-6.782,1.471-9.8,10.129" transform="translate(-112.426 -233.605)" fill="none" stroke="#263238" stroke-linecap="round" stroke-linejoin="round" stroke-width="1"/>
          </g>
          <path id="Trazado_836646" data-name="Trazado 836646" d="M126.89,323.72s10.954,9.018,22.733,1.44" transform="translate(-99.387 -172.89)" fill="none" stroke="#263238" stroke-linecap="round" stroke-linejoin="round" stroke-width="1"/>
          <path id="Trazado_836647" data-name="Trazado 836647" d="M135.272,341.53a28.17,28.17,0,0,1-6.722,2.836" transform="translate(-98.557 -163.976)" fill="none" stroke="#263238" stroke-linecap="round" stroke-linejoin="round" stroke-width="1"/>
          <path id="Trazado_836648" data-name="Trazado 836648" d="M157.582,321.82c-5.357,9.618-12.364,19-20.992,25.884" transform="translate(-94.532 -173.841)" fill="none" stroke="#263238" stroke-linecap="round" stroke-linejoin="round" stroke-width="1"/>
          <path id="Trazado_836649" data-name="Trazado 836649" d="M178.08,343.3s21.382,20.077,33.9,25.584" transform="translate(-73.766 -163.09)" fill="none" stroke="#263238" stroke-linecap="round" stroke-linejoin="round" stroke-width="1"/>
          <path id="Trazado_836650" data-name="Trazado 836650" d="M163.87,357.77a36.5,36.5,0,0,1,1.891,8.268" transform="translate(-80.878 -155.847)" fill="none" stroke="#263238" stroke-linecap="round" stroke-linejoin="round" stroke-width="1"/>
          <path id="Trazado_836651" data-name="Trazado 836651" d="M158.92,346.43q2.881,5.447,5.237,11.149" transform="translate(-83.356 -161.523)" fill="none" stroke="#263238" stroke-linecap="round" stroke-linejoin="round" stroke-width="1"/>
          <path id="Trazado_836652" data-name="Trazado 836652" d="M217.08,369.715s34.992.48,57.455-14.855" transform="translate(-54.246 -157.304)" fill="none" stroke="#263238" stroke-linecap="round" stroke-linejoin="round" stroke-width="1"/>
          <path id="Trazado_836653" data-name="Trazado 836653" d="M268.538,346.02a45.125,45.125,0,0,0-8.208,7.142" transform="translate(-32.599 -161.728)" fill="none" stroke="#263238" stroke-linecap="round" stroke-linejoin="round" stroke-width="1"/>
          <path id="Trazado_836654" data-name="Trazado 836654" d="M281.554,363.11a56.153,56.153,0,0,1-12.154,9.528" transform="translate(-28.059 -153.174)" fill="none" stroke="#263238" stroke-linecap="round" stroke-linejoin="round" stroke-width="1"/>
          <path id="Trazado_836655" data-name="Trazado 836655" d="M283.826,356.91a53.83,53.83,0,0,1-3.706,4.952" transform="translate(-22.694 -156.278)" fill="none" stroke="#263238" stroke-linecap="round" stroke-linejoin="round" stroke-width="1"/>
          <path id="Trazado_836656" data-name="Trazado 836656" d="M159.56,400.028s8.523-11.059,8.358-24.308" transform="translate(-83.036 -146.863)" fill="none" stroke="#263238" stroke-linecap="round" stroke-linejoin="round" stroke-width="1"/>
          <path id="Trazado_836657" data-name="Trazado 836657" d="M280.612,417.738s-1.846-22.253,13.775-38.518" transform="translate(-22.481 -145.111)" fill="none" stroke="#263238" stroke-linecap="round" stroke-linejoin="round" stroke-width="1"/>
          <path id="Trazado_836658" data-name="Trazado 836658" d="M297.411,387.39c.75.75-13.325,13.024-16.671,18.516" transform="translate(-22.383 -141.022)" fill="none" stroke="#263238" stroke-linecap="round" stroke-linejoin="round" stroke-width="1"/>
          <path id="Trazado_836659" data-name="Trazado 836659" d="M189.37,424.05s51.213,20.362,77.727,19.927" transform="translate(-68.115 -122.673)" fill="none" stroke="#263238" stroke-linecap="round" stroke-linejoin="round" stroke-width="1"/>
          <g id="Grupo_1094362" data-name="Grupo 1094362" transform="translate(138.86 172.288)">
            <g id="Grupo_1094361" data-name="Grupo 1094361" transform="translate(29.181 78.987)">
              <path id="Trazado_836660" data-name="Trazado 836660" d="M222.961,391.3h6.077a1.78,1.78,0,0,1,1.786,1.786v9.273a1.78,1.78,0,0,1-1.786,1.786h-6.062a1.78,1.78,0,0,1-1.786-1.786v-9.273a1.78,1.78,0,0,1,1.786-1.786Z" transform="translate(-220.23 -390.34)" fill="#bfbfbf"/>
              <path id="Trazado_836661" data-name="Trazado 836661" d="M229.358,405.425H223.3a2.747,2.747,0,0,1-2.746-2.746v-9.273a2.747,2.747,0,0,1,2.746-2.746h6.062a2.747,2.747,0,0,1,2.746,2.746v9.273A2.747,2.747,0,0,1,229.358,405.425ZM223.3,392.581a.839.839,0,0,0-.84.84v9.273a.839.839,0,0,0,.84.84h6.062a.839.839,0,0,0,.84-.84v-9.273a.839.839,0,0,0-.84-.84Z" transform="translate(-220.55 -390.66)" fill="#263238"/>
            </g>
            <path id="Trazado_836662" data-name="Trazado 836662" d="M255.342,340.331s27.189,5.6-19.282,76.226c0,0-54.138-68.588-27.669-78.537" transform="translate(-201.103 -338.02)" fill="none" stroke="#263238" stroke-linecap="round" stroke-linejoin="round" stroke-width="1"/>
            <path id="Trazado_836663" data-name="Trazado 836663" d="M225.721,390.516c0,1.035-.465,1.876-1.035,1.876s-1.035-.84-1.035-1.876.465-1.876,1.035-1.876S225.721,389.48,225.721,390.516Z" transform="translate(-189.817 -312.684)" fill="#263238"/>
          </g>
        </g>
      </g>
    </g>
  </g>
</svg>
