<svg xmlns="http://www.w3.org/2000/svg" xmlns:xlink="http://www.w3.org/1999/xlink" width="400" height="265" viewBox="0 0 400 265">
  <defs>
    <linearGradient id="linear-gradient" x1="0.5" x2="0.5" y2="1" gradientUnits="objectBoundingBox">
      <stop offset="0" stop-color="#fff"/>
      <stop offset="1" stop-color="#d2e6ee"/>
    </linearGradient>
  </defs>
  <g id="Grupo_1094375" data-name="Grupo 1094375" transform="translate(-810 -3791)">
    <rect id="Rectángulo_387580" data-name="Rectángulo 387580" width="400" height="265" transform="translate(810 3791)" fill="#fff"/>
    <g id="Grupo_54532" data-name="Grupo 54532" transform="translate(835.734 3730.539)">
      <path id="Trazado_95347" data-name="Trazado 95347" d="M310.1,202.867l19.506-11.262a14.3,14.3,0,0,1,12.934,0l8.4,5.092,67.754,39.119c3.573,2.061,3.572,5.4,0,7.466L359.52,277.445" transform="translate(-96.748 -39.365)" fill="none" stroke="#00223d" stroke-linecap="round" stroke-linejoin="round" stroke-width="3"/>
      <path id="Trazado_95348" data-name="Trazado 95348" d="M118.68,174.989l37.894-21.878a14.3,14.3,0,0,1,12.932,0l8.4,5.092,42.815,24.718" transform="translate(-32.037 -26.352)" fill="none" stroke="#00223d" stroke-linecap="round" stroke-linejoin="round" stroke-width="3"/>
      <path id="Trazado_95349" data-name="Trazado 95349" d="M96.386,311.569l-58.364-33.7c-3.572-2.063-3.572-5.406,0-7.467L101.2,233.928" transform="translate(-3.865 -54.195)" fill="none" stroke="#00223d" stroke-linecap="round" stroke-linejoin="round" stroke-width="3"/>
      <line id="Línea_335" data-name="Línea 335" x1="44.991" y2="26.605" transform="translate(86.642 223.006)" fill="none" stroke="#00223d" stroke-linecap="round" stroke-linejoin="round" stroke-width="3"/>
      <line id="Línea_336" data-name="Línea 336" x1="74.363" y2="43.183" transform="translate(131.771 174.627)" fill="none" stroke="#00223d" stroke-linecap="round" stroke-linejoin="round" stroke-width="3"/>
      <path id="Trazado_95350" data-name="Trazado 95350" d="M260.223,351.661l-68.86,39.757a14.3,14.3,0,0,1-12.933,0l-54.795-31.636" transform="translate(-33.713 -93.995)" fill="none" stroke="#00223d" stroke-linecap="round" stroke-linejoin="round" stroke-width="3"/>
      <path id="Trazado_95351" data-name="Trazado 95351" d="M306,205.508l-58.4-33.719a1.089,1.089,0,0,0-1.091,0l-26.983,15.578a1.091,1.091,0,0,0,0,1.889l58.4,33.718a1.086,1.086,0,0,0,1.091,0L306,207.4a1.091,1.091,0,0,0,0-1.889Z" transform="translate(-65.944 -33.14)" opacity="0.2" style="mix-blend-mode: multiply;isolation: isolate"/>
      <g id="Grupo_41938" data-name="Grupo 41938" transform="translate(154.127 73.611)">
        <path id="Trazado_95352" data-name="Trazado 95352" d="M335.841,189.817,308.858,205.4v-65.61l26.983-15.578Z" transform="translate(-250.455 -90.715)" fill="url(#linear-gradient)"/>
        <path id="Trazado_95353" data-name="Trazado 95353" d="M335.841,142.872,308.858,158.45v-1.628l26.983-15.579Z" transform="translate(-250.455 -96.474)" fill="#00223d"/>
        <path id="Trazado_95354" data-name="Trazado 95354" d="M335.841,162.912l-26.983,15.578v-1.628l26.983-15.579Z" transform="translate(-250.455 -103.249)" fill="#00223d"/>
        <path id="Trazado_95355" data-name="Trazado 95355" d="M335.841,182.953l-26.983,15.578V196.9l26.983-15.579Z" transform="translate(-250.455 -110.024)" fill="#00223d"/>
        <path id="Trazado_95356" data-name="Trazado 95356" d="M335.841,202.994l-26.983,15.579v-1.629l26.983-15.579Z" transform="translate(-250.455 -116.799)" fill="#00223d"/>
        <path id="Trazado_95357" data-name="Trazado 95357" d="M330.15,222.988a4.111,4.111,0,0,1-1.86,3.221c-1.027.593-1.86.113-1.86-1.074a4.11,4.11,0,0,1,1.86-3.221C329.317,221.321,330.151,221.8,330.15,222.988Z" transform="translate(-256.395 -123.659)" fill="#00223d"/>
        <g id="Grupo_41937" data-name="Grupo 41937" transform="translate(62.923 93.634)">
          <path id="Trazado_95358" data-name="Trazado 95358" d="M317.546,228.116a4.115,4.115,0,0,0-1.86,3.221c0,1.186.834,1.667,1.86,1.073a4.1,4.1,0,0,0,1.861-3.22C319.406,228,318.575,227.523,317.546,228.116Z" transform="translate(-315.686 -219.389)" fill="#37a3a5"/>
          <path id="Trazado_95359" data-name="Trazado 95359" d="M339.717,215.316a4.116,4.116,0,0,0-1.861,3.222c0,1.186.834,1.667,1.861,1.074a4.11,4.11,0,0,0,1.86-3.222C341.577,215.2,340.745,214.724,339.717,215.316Z" transform="translate(-323.181 -215.062)" fill="#37a3a5"/>
        </g>
        <path id="Trazado_95360" data-name="Trazado 95360" d="M279.032,196.131l-58.4-33.719V96.8l58.4,33.719Z" transform="translate(-220.629 -81.451)" fill="url(#linear-gradient)"/>
        <path id="Trazado_95361" data-name="Trazado 95361" d="M279.032,122.909l-58.4-33.719,26.983-15.579,58.4,33.719Z" transform="translate(-220.629 -73.611)" fill="#d2e1f1"/>
        <path id="Trazado_95362" data-name="Trazado 95362" d="M279.032,149.187l-58.4-33.719V113.84l58.4,33.719Z" transform="translate(-220.629 -87.21)" fill="#21587b"/>
        <path id="Trazado_95363" data-name="Trazado 95363" d="M279.032,169.227l-58.4-33.719V133.88l58.4,33.719Z" transform="translate(-220.629 -93.985)" fill="#21587b"/>
        <path id="Trazado_95364" data-name="Trazado 95364" d="M279.032,189.268l-58.4-33.718v-1.629l58.4,33.719Z" transform="translate(-220.629 -100.76)" fill="#21587b"/>
        <path id="Trazado_95365" data-name="Trazado 95365" d="M279.032,209.309l-58.4-33.719v-1.628l58.4,33.719Z" transform="translate(-220.629 -107.535)" fill="#21587b"/>
      </g>
      <path id="Trazado_95366" data-name="Trazado 95366" d="M236.846,306.579l-54.482-31.455a5.786,5.786,0,0,0-5.355,0l-32.12,18.544a2.4,2.4,0,0,0,0,4.4l54.482,31.456a5.785,5.785,0,0,0,5.354,0l32.12-18.545a2.4,2.4,0,0,0,0-4.4Z" transform="translate(-40.411 -67.9)" opacity="0.2" style="mix-blend-mode: multiply;isolation: isolate"/>
      <g id="Grupo_41939" data-name="Grupo 41939" transform="translate(104.174 204.195)">
        <path id="Trazado_95367" data-name="Trazado 95367" d="M237.73,304.282v-.211a1.474,1.474,0,0,0-.872-1.228l-54.482-31.455a4.663,4.663,0,0,0-4.219,0l-32.12,18.544a1.479,1.479,0,0,0-.872,1.228v.459a.151.151,0,0,0,0,.017v.06a.163.163,0,0,0,0,.018v.823a.15.15,0,0,0,0,.017v1.473a1.475,1.475,0,0,0,.872,1.227l54.482,31.455a4.666,4.666,0,0,0,4.219,0l32.12-18.544a1.474,1.474,0,0,0,.872-1.227v-2.655Z" transform="translate(-145.165 -270.883)" fill="#00223d"/>
        <path id="Trazado_95368" data-name="Trazado 95368" d="M236.858,302.843a1.286,1.286,0,0,1,0,2.436l-32.12,18.544a4.662,4.662,0,0,1-4.219,0l-54.482-31.454a1.287,1.287,0,0,1,0-2.437l32.12-18.544a4.663,4.663,0,0,1,4.219,0Z" transform="translate(-145.164 -270.883)" fill="url(#linear-gradient)"/>
        <path id="Trazado_95369" data-name="Trazado 95369" d="M228.929,302.638a1.017,1.017,0,0,1,0,1.928l-25.423,14.68a3.7,3.7,0,0,1-3.34,0l-40.3-23.266a1.017,1.017,0,0,1,0-1.928l25.424-14.679a3.688,3.688,0,0,1,3.34,0Z" transform="translate(-149.901 -273.618)" fill="#00223d"/>
        <path id="Trazado_95370" data-name="Trazado 95370" d="M227.909,303.295c.875.5.894,1.314.042,1.807L204.431,318.68a3.461,3.461,0,0,1-3.129-.022L163.065,296.58c-.876-.506-.892-1.313-.04-1.807l23.518-13.579a3.461,3.461,0,0,1,3.13.023Z" transform="translate(-150.99 -274.246)" fill="#a6e4ff"/>
        <path id="Trazado_95371" data-name="Trazado 95371" d="M163.065,298.188l3.852,2.224q7.4-7.407,14.8-14.822l-18.691,10.792C162.172,296.875,162.189,297.682,163.065,298.188Z" transform="translate(-150.99 -275.855)" fill="#bfecff"/>
        <path id="Trazado_95372" data-name="Trazado 95372" d="M221.923,297.736l-6.97-4.023-19.477,19.478,6.969,4.023Z" transform="translate(-162.172 -278.601)" fill="#bfecff"/>
        <path id="Trazado_95373" data-name="Trazado 95373" d="M221.972,327.677l18.965-18.964-3.918-2.262L217.54,325.93l2.4,1.389A3.431,3.431,0,0,0,221.972,327.677Z" transform="translate(-169.631 -282.907)" fill="#bfecff"/>
        <path id="Trazado_95374" data-name="Trazado 95374" d="M202.342,286.421l-2.14-1.236q-9.71,9.76-19.442,19.5l2.1,1.215Q192.6,296.159,202.342,286.421Z" transform="translate(-157.198 -275.718)" fill="#bfecff"/>
        <path id="Trazado_95375" data-name="Trazado 95375" d="M178.387,283.61a.567.567,0,0,1,0,1.075l-9.316,5.38a2.066,2.066,0,0,1-1.865,0h0a.568.568,0,0,1,0-1.076l9.317-5.38a2.056,2.056,0,0,1,1.864,0Z" transform="translate(-152.485 -275.11)" fill="#00223d"/>
        <path id="Trazado_95376" data-name="Trazado 95376" d="M252.955,329.769c1.6.925,1.6,2.423,0,3.348a6.414,6.414,0,0,1-5.8,0c-1.6-.925-1.6-2.423,0-3.347A6.412,6.412,0,0,1,252.955,329.769Z" transform="translate(-179.237 -290.556)" fill="#fff"/>
        <path id="Trazado_95377" data-name="Trazado 95377" d="M252.649,330.866a1.1,1.1,0,0,1,0,2.074,3.969,3.969,0,0,1-3.592,0,1.1,1.1,0,0,1,0-2.074A3.977,3.977,0,0,1,252.649,330.866Z" transform="translate(-180.034 -291.015)" fill="#66797a"/>
        <path id="Trazado_95378" data-name="Trazado 95378" d="M239.381,337.161a.443.443,0,0,1,0,.838l-7.661,4.422a1.6,1.6,0,0,1-1.449,0h0a.441.441,0,0,1,0-.835l7.661-4.424a1.6,1.6,0,0,1,1.45,0Z" transform="translate(-173.833 -293.23)" fill="#00223d"/>
        <path id="Trazado_95379" data-name="Trazado 95379" d="M269.071,320.018a.442.442,0,0,1,0,.837l-7.66,4.423a1.609,1.609,0,0,1-1.451,0h0a.441.441,0,0,1,0-.836l7.661-4.424a1.6,1.6,0,0,1,1.45,0Z" transform="translate(-183.87 -287.435)" fill="#00223d"/>
      </g>
      <path id="Trazado_95380" data-name="Trazado 95380" d="M147.407,184.393,100.5,157.309a9.07,9.07,0,0,0-4.406-1.168,5.872,5.872,0,0,0-2.928.694l-67.515,38.98a3.259,3.259,0,0,0-1.736,2.84,4.465,4.465,0,0,0,2.556,3.694l46.912,27.084a9.066,9.066,0,0,0,4.405,1.168,5.868,5.868,0,0,0,2.929-.7l67.515-38.979a3.258,3.258,0,0,0,1.737-2.84A4.463,4.463,0,0,0,147.407,184.393Z" transform="translate(0 -27.899)" opacity="0.2" style="mix-blend-mode: multiply;isolation: isolate"/>
      <g id="Grupo_41940" data-name="Grupo 41940" transform="translate(25.9 126.779)">
        <path id="Trazado_95381" data-name="Trazado 95381" d="M148.986,185.236c0-.008,0-.016,0-.023s0-.017,0-.025,0-.016,0-.024,0-.017,0-.024,0-.017,0-.025,0-.015,0-.023v-.024c0-.008,0-.017,0-.024s0-.017,0-.024,0-.016,0-.024,0-.017,0-.025,0-.016,0-.024,0-.017,0-.024,0-.017,0-.024,0-.016,0-.025,0-.016,0-.024,0-.017,0-.024,0-.017,0-.024,0-.016,0-.024,0-.017,0-.026,0-.017,0-.024,0-.015,0-.023v-.025c0-.008,0-.017,0-.024s0-.017,0-.025,0-.017,0-.024,0-.017,0-.025,0-.016,0-.024,0-.017,0-.024,0-.017,0-.025,0-.016,0-.024,0-.016,0-.024,0-.016,0-.024,0-.017,0-.024,0-.017,0-.025,0-.016,0-.024,0-.016,0-.024,0-.016,0-.024,0-.017,0-.024,0-.017,0-.025,0-.015,0-.022,0-.019,0-.029,0-.015,0-.022,0-.017,0-.024,0-.017,0-.025,0-.017,0-.024,0-.017,0-.024,0-.017,0-.025,0-.017,0-.025,0-.016,0-.024,0-.031,0-.046c.05-.669-.492-1.44-1.558-2.056l-46.912-27.084c-1.7-.982-4.094-1.194-5.343-.473L27.659,193.34a1.307,1.307,0,0,0-.738,1.053c0,.025,0,.05,0,.074,0,.009,0,.018,0,.026s0,.016,0,.024,0,.016,0,.024,0,.017,0,.024,0,.017,0,.025,0,.017,0,.025,0,.017,0,.025,0,.015,0,.023,0,.017,0,.025,0,.017,0,.025,0,.017,0,.024,0,.017,0,.025,0,.016,0,.024,0,.017,0,.025,0,.017,0,.024,0,.017,0,.025,0,.017,0,.024,0,.017,0,.024,0,.017,0,.025,0,.016,0,.024,0,.017,0,.025,0,.016,0,.023,0,.017,0,.025,0,.016,0,.024,0,.017,0,.024,0,.017,0,.025,0,.016,0,.024,0,.017,0,.025,0,.017,0,.024,0,.017,0,.024,0,.017,0,.024,0,.017,0,.025,0,.016,0,.025,0,.016,0,.024,0,.016,0,.024,0,.017,0,.025,0,.016,0,.024,0,.017,0,.024,0,.016,0,.024,0,.016,0,.024,0,.016,0,.025,0,.015,0,.022,0,.017,0,.026,0,.017,0,.024,0,.016,0,.024,0,.017,0,.024,0,.017,0,.025,0,.017,0,.025,0,.017,0,.025,0,.015,0,.023,0,.017,0,.024,0,.017,0,.025,0,.017,0,.024,0,.016,0,.024,0,.017,0,.025,0,.016,0,.024,0,.017,0,.024,0,.017,0,.024,0,.017,0,.025,0,.017,0,.024,0,.017,0,.025,0,.016,0,.024,0,.016,0,.024,0,.017,0,.024,0,.016,0,.025,0,.015,0,.024,0,.016,0,.023,0,.017,0,.026,0,.017,0,.024,0,.015,0,.023,0,.016,0,.025,0,.016,0,.024,0,.017,0,.025,0,.017,0,.024,0,.017,0,.024,0,.017,0,.025,0,.016,0,.024,0,.017,0,.024,0,.017,0,.024,0,.017,0,.024,0,.016,0,.025,0,.016,0,.024,0,.016,0,.024,0,.016,0,.024,0,.017,0,.025,0,.017,0,.024,0,.016,0,.024,0,.017,0,.025,0,.016,0,.024,0,.017,0,.024,0,.017,0,.025,0,.016,0,.024,0,.017,0,.025,0,.016,0,.024,0,.017,0,.025,0,.016,0,.024,0,.017,0,.025,0,.016,0,.024,0,.016,0,.024,0,.016,0,.025,0,.016,0,.024,0,.017,0,.024,0,.016,0,.025,0,.016,0,.024,0,.017,0,.024,0,.017,0,.024,0,.017,0,.025,0,.016,0,.024,0,.017,0,.025,0,.017,0,.024,0,.017,0,.025,0,.017,0,.025,0,.016,0,.024,0,.017,0,.024,0,.016,0,.024,0,.017,0,.025,0,.016,0,.024,0,.015,0,.024,0,.016,0,.025,0,.017,0,.024,0,.017,0,.025,0,.017,0,.024,0,.017,0,.024,0,.017,0,.024,0,.017,0,.025,0,.017,0,.025,0,.015,0,.024,0,.017,0,.025,0,.016,0,.024,0,.017,0,.025,0,.016,0,.024,0,.016,0,.025,0,.016,0,.024,0,.016,0,.024,0,.016,0,.024,0,.016,0,.024,0,.017,0,.025,0,.017,0,.024,0,.017,0,.024,0,.017,0,.024,0,.017,0,.024,0,.017,0,.025,0,.017,0,.024,0,.016,0,.025,0,.016,0,.024,0,.016,0,.024,0,.017,0,.025c-.049.667.492,1.438,1.557,2.053L75.39,227.188c1.7.982,4.093,1.194,5.343.473l67.515-38.98a1.308,1.308,0,0,0,.738-1.056c0-.008,0-.017,0-.025s0-.017,0-.024,0-.017,0-.025,0-.017,0-.024,0-.015,0-.023,0-.017,0-.025,0-.016,0-.024,0-.017,0-.024,0-.017,0-.024,0-.017,0-.025,0-.016,0-.025,0-.016,0-.024,0-.016,0-.024,0-.017,0-.025,0-.016,0-.024,0-.017,0-.024,0-.017,0-.024,0-.017,0-.025,0-.016,0-.024,0-.016,0-.024,0-.017,0-.025,0-.016,0-.024,0-.016,0-.025,0-.017,0-.024,0-.017,0-.025,0-.017,0-.024,0-.017,0-.025,0-.016,0-.024,0-.016,0-.024,0-.017,0-.025,0-.016,0-.024,0-.017,0-.024,0-.017,0-.024,0-.016,0-.024,0-.017,0-.025,0-.016,0-.024,0-.017,0-.024,0-.016,0-.025,0-.016,0-.024,0-.016,0-.024,0-.017,0-.025,0-.017,0-.025,0-.017,0-.024,0-.016,0-.024,0-.016,0-.025,0-.016,0-.024,0-.017,0-.024,0-.017,0-.025,0-.016,0-.024,0-.017,0-.024,0-.016,0-.024,0-.017,0-.025,0-.015,0-.024,0-.017,0-.024,0-.017,0-.024,0-.016,0-.025,0-.016,0-.024,0-.017,0-.024,0-.017,0-.024,0-.016,0-.025,0-.016,0-.024,0-.016,0-.024,0-.017,0-.024,0-.017,0-.025,0-.017,0-.024,0-.017,0-.025,0-.017,0-.024,0-.017,0-.025,0-.017,0-.024,0-.016,0-.025,0-.017,0-.024,0-.016,0-.024,0-.017,0-.024,0-.017,0-.025,0-.017,0-.024,0-.017,0-.025,0-.015,0-.023,0-.017,0-.026,0-.016,0-.024,0-.016,0-.024,0-.016,0-.023,0-.018,0-.026,0-.017,0-.025,0-.015,0-.023,0-.017,0-.025,0-.016,0-.024,0-.017,0-.025,0-.016,0-.024,0-.017,0-.024,0-.017,0-.025,0-.016,0-.024,0-.016,0-.024,0-.016,0-.024,0-.017,0-.025,0-.017,0-.025,0-.016,0-.024,0-.015,0-.024S148.986,185.245,148.986,185.236Z" transform="translate(-26.917 -153.932)" fill="#00223d"/>
        <path id="Trazado_95382" data-name="Trazado 95382" d="M80.733,223.982c-1.25.722-3.642.509-5.343-.473L28.477,196.425c-1.7-.983-2.068-2.364-.819-3.085l67.515-38.98c1.249-.721,3.642-.509,5.343.473l46.912,27.084c1.7.983,2.069,2.364.82,3.085Z" transform="translate(-26.917 -153.932)" fill="url(#linear-gradient)"/>
        <path id="Trazado_95383" data-name="Trazado 95383" d="M93.68,219.471a5.474,5.474,0,0,1-4.849-.383L46.848,194.85c-1.522-.879-1.82-2.132-.664-2.8l52.189-30.131a5.472,5.472,0,0,1,4.849.383l41.982,24.239c1.522.878,1.82,2.132.665,2.8Z" transform="translate(-33.192 -156.494)" fill="#00223d"/>
        <path id="Trazado_95384" data-name="Trazado 95384" d="M94.77,218.61a5.1,5.1,0,0,1-4.536-.325L51.4,195.863c-1.408-.813-1.661-1.985-.565-2.619L100.443,164.6a5.1,5.1,0,0,1,4.536.326l38.835,22.421c1.409.813,1.661,1.986.565,2.619Z" transform="translate(-34.772 -157.406)" fill="#1e2729"/>
        <path id="Trazado_95385" data-name="Trazado 95385" d="M51.4,208.021l.407.235,8.081-8.08L50.835,205.4C49.738,206.036,49.991,207.208,51.4,208.021Z" transform="translate(-34.772 -169.565)" fill="#2b383b"/>
        <path id="Trazado_95386" data-name="Trazado 95386" d="M106.925,164.234a3.922,3.922,0,0,0-2.218.371l-15.57,8.989L62.766,199.965l5.342,3.085Z" transform="translate(-39.036 -157.408)" fill="#2b383b"/>
        <path id="Trazado_95387" data-name="Trazado 95387" d="M140.369,181.129l-6.195-3.577L94.951,216.775l6.2,3.577Z" transform="translate(-49.916 -161.917)" fill="#2b383b"/>
        <path id="Trazado_95388" data-name="Trazado 95388" d="M159.149,191.757l-5.13-2.962-38.5,38.5a3.273,3.273,0,0,0,1.346-.369L133.7,217.2Z" transform="translate(-56.87 -165.717)" fill="#2b383b"/>
        <path id="Trazado_95389" data-name="Trazado 95389" d="M187.956,199.148l-.069-.04q-3.576,3.579-7.156,7.156l7.79-4.5C189.617,201.134,189.364,199.961,187.956,199.148Z" transform="translate(-78.914 -169.204)" fill="#2b383b"/>
        <path id="Trazado_95390" data-name="Trazado 95390" d="M122.746,170.954l-2.573-1.485L80.951,208.692l2.572,1.485Z" transform="translate(-45.183 -159.184)" fill="#2b383b"/>
        <path id="Trazado_95391" data-name="Trazado 95391" d="M171.776,179.911a2.206,2.206,0,0,1-2,0l-9.991-5.768a.609.609,0,0,1,0-1.154h0a2.208,2.208,0,0,1,2,0l9.991,5.769a.608.608,0,0,1,0,1.153Z" transform="translate(-71.694 -160.293)" fill="#324245"/>
        <path id="Trazado_95392" data-name="Trazado 95392" d="M73.034,234.774a6.872,6.872,0,0,1-6.217,0c-1.718-.991-1.718-2.6,0-3.59a6.87,6.87,0,0,1,6.217,0C74.75,232.175,74.75,233.783,73.034,234.774Z" transform="translate(-39.97 -179.796)" fill="#00223d"/>
        <path id="Trazado_95393" data-name="Trazado 95393" d="M72.705,234.585a4.26,4.26,0,0,1-3.852,0,1.174,1.174,0,0,1,0-2.224,4.254,4.254,0,0,1,3.851,0A1.174,1.174,0,0,1,72.705,234.585Z" transform="translate(-40.824 -180.289)" fill="#4b6366"/>
        <path id="Trazado_95394" data-name="Trazado 95394" d="M55.66,224.744a1.719,1.719,0,0,1-1.555,0l-13.517-7.8c-.584-.338-.71-.812-.281-1.06h0a2.083,2.083,0,0,1,1.836.162l13.517,7.8a.474.474,0,0,1,0,.9Z" transform="translate(-31.358 -174.824)" fill="#00223d"/>
        <path id="Trazado_95395" data-name="Trazado 95395" d="M95.9,247.975a2.082,2.082,0,0,1-1.836-.161l-13.518-7.805a.473.473,0,0,1,0-.9h0a1.719,1.719,0,0,1,1.554,0l13.516,7.8c.585.338.711.812.282,1.059Z" transform="translate(-44.937 -182.664)" fill="#00223d"/>
      </g>
      <path id="Trazado_95396" data-name="Trazado 95396" d="M406.73,327.8,376.6,310.412a8,8,0,0,0-7.385,0l-74.064,42.762a3.171,3.171,0,0,0,0,5.834L325.28,376.4a8,8,0,0,0,7.386,0L406.73,333.64a3.171,3.171,0,0,0,0-5.835Z" transform="translate(-91.043 -79.746)" opacity="0.2" style="mix-blend-mode: multiply;isolation: isolate"/>
      <path id="Trazado_95397" data-name="Trazado 95397" d="M184.478,397.519a7.828,7.828,0,0,1-7.083,0c-1.956-1.129-1.956-2.96,0-4.089a7.823,7.823,0,0,1,7.083,0C186.434,394.559,186.434,396.39,184.478,397.519Z" transform="translate(-51.39 -107.829)" fill="#00223d"/>
      <path id="Trazado_95398" data-name="Trazado 95398" d="M76.265,321.219a7.828,7.828,0,0,1-7.083,0c-1.956-1.129-1.956-2.96,0-4.088a7.819,7.819,0,0,1,7.083,0C78.221,318.26,78.221,320.091,76.265,321.219Z" transform="translate(-14.809 -82.036)" fill="#00223d"/>
      <path id="Trazado_95399" data-name="Trazado 95399" d="M145.074,324.806a7.827,7.827,0,0,1-7.083,0c-1.957-1.129-1.957-2.96,0-4.089a7.823,7.823,0,0,1,7.083,0C147.03,321.846,147.03,323.677,145.074,324.806Z" transform="translate(-38.07 -83.248)" fill="#00223d"/>
      <path id="Trazado_95400" data-name="Trazado 95400" d="M257.419,251a7.826,7.826,0,0,1-7.082,0c-1.957-1.13-1.957-2.96,0-4.089a7.822,7.822,0,0,1,7.082,0C259.375,248.036,259.375,249.866,257.419,251Z" transform="translate(-76.048 -58.297)" fill="#00223d"/>
      <path id="Trazado_95401" data-name="Trazado 95401" d="M410.778,222.211a7.827,7.827,0,0,1-7.083,0c-1.955-1.129-1.955-2.96,0-4.089a7.823,7.823,0,0,1,7.083,0C412.735,219.251,412.735,221.082,410.778,222.211Z" transform="translate(-127.891 -48.566)" fill="#00223d"/>
      <path id="Trazado_95402" data-name="Trazado 95402" d="M178.9,154.5a7.829,7.829,0,0,1-7.083,0c-1.956-1.129-1.956-2.96,0-4.089a7.829,7.829,0,0,1,7.083,0C180.851,151.54,180.851,153.371,178.9,154.5Z" transform="translate(-49.503 -25.676)" fill="#00223d"/>
      <path id="Trazado_95403" data-name="Trazado 95403" d="M134.372,366.679l-36.9-21.3a7.536,7.536,0,0,0-6.942,0l-36.9,21.305a2.886,2.886,0,0,0,0,5.325l36.9,21.305a7.536,7.536,0,0,0,6.941,0l36.9-21.305a2.887,2.887,0,0,0,0-5.327Z" transform="translate(-9.448 -91.584)" opacity="0.2" style="mix-blend-mode: multiply;isolation: isolate"/>
      <g id="Grupo_41943" data-name="Grupo 41943" transform="translate(43.551 221.8)">
        <path id="Trazado_95404" data-name="Trazado 95404" d="M93.382,387.871l-36.9-21.3a5.861,5.861,0,0,1-1.962-2.019,2.4,2.4,0,0,1-.937.275v7.472a6.413,6.413,0,0,0,2.9,5.022l36.9,21.3c1.6.924,2.9-.279,2.9-2.127V386.2C96.282,388.045,94.984,388.8,93.382,387.871Z" transform="translate(-53.582 -320.151)" fill="url(#linear-gradient)"/>
        <path id="Trazado_95405" data-name="Trazado 95405" d="M155.635,364.935h-.8a5.951,5.951,0,0,1-2.082,2.222l-36.9,20.03c-1.6.924-2.9,1.451-2.9-.4v10.289c0,1.849,1.3,2.6,2.9,1.674l36.9-21.3a6.412,6.412,0,0,0,2.9-5.022v-7.491Z" transform="translate(-73.654 -320.282)" fill="#e1eef2"/>
        <path id="Trazado_95406" data-name="Trazado 95406" d="M152.679,379.49l-30.526,17.624v-5.427l30.525-17.624Z" transform="translate(-76.763 -323.368)" fill="#00223d"/>
        <g id="Grupo_41941" data-name="Grupo 41941" transform="translate(46.4 52.098)">
          <path id="Trazado_95407" data-name="Trazado 95407" d="M123.678,403.356l.823-.474.064.641,1.2-.689.064-.716.824-.476V398.21l-2.972,1.715Z" transform="translate(-123.678 -383.629)" fill="url(#linear-gradient)"/>
          <path id="Trazado_95408" data-name="Trazado 95408" d="M130.037,399.686l.824-.476.064.642,1.2-.691.064-.716.824-.475V394.54l-2.971,1.714Z" transform="translate(-125.828 -382.388)" fill="url(#linear-gradient)"/>
          <path id="Trazado_95409" data-name="Trazado 95409" d="M136.4,396.014l.823-.475.065.642,1.2-.691.064-.716.824-.475v-3.431l-2.971,1.715Z" transform="translate(-127.977 -381.147)" fill="url(#linear-gradient)"/>
          <path id="Trazado_95410" data-name="Trazado 95410" d="M142.754,392.343l.823-.475.064.642,1.2-.691.064-.716.823-.475V387.2l-2.971,1.716Z" transform="translate(-130.127 -379.906)" fill="url(#linear-gradient)"/>
          <path id="Trazado_95411" data-name="Trazado 95411" d="M149.113,388.671l.824-.476.064.642,1.2-.69.064-.716.823-.475v-3.432l-2.971,1.716Z" transform="translate(-132.276 -378.665)" fill="url(#linear-gradient)"/>
          <path id="Trazado_95412" data-name="Trazado 95412" d="M155.471,385l.823-.475.064.641,1.2-.69.064-.716.824-.476v-3.431l-2.971,1.715Z" transform="translate(-134.426 -377.424)" fill="url(#linear-gradient)"/>
          <path id="Trazado_95413" data-name="Trazado 95413" d="M161.83,377.9v3.431l.824-.475.063.642,1.2-.69.064-.716.823-.476v-3.431Z" transform="translate(-136.575 -376.183)" fill="url(#linear-gradient)"/>
        </g>
        <path id="Trazado_95414" data-name="Trazado 95414" d="M64.156,330.872l-3.734-14.478c-.1-.387-.626-.6-1.178-.5s-.968.49-.925.886l1.62,14.863a4.165,4.165,0,0,0,.148.732l2.629,14.407a2.129,2.129,0,0,0,4.189-.765l-2.629-14.407A4.309,4.309,0,0,0,64.156,330.872Z" transform="translate(-55.182 -303.695)" fill="url(#linear-gradient)"/>
        <g id="Grupo_41942" data-name="Grupo 41942" transform="translate(4.732 27.035)">
          <path id="Trazado_95415" data-name="Trazado 95415" d="M67.234,339.141a4.236,4.236,0,0,0-.113-.678l-.036-.142Z" transform="translate(-62.878 -338.321)" fill="#cfdade"/>
          <path id="Trazado_95416" data-name="Trazado 95416" d="M67.721,353.946l-1.7-9.308a2.127,2.127,0,0,1-4.191.729l-1.1-6.036.026.242a4.162,4.162,0,0,0,.148.731l2.629,14.407a2.129,2.129,0,0,0,4.189-.764Z" transform="translate(-60.73 -338.662)" fill="#cfdade"/>
        </g>
        <path id="Trazado_95417" data-name="Trazado 95417" d="M75.575,316.68,71.11,298.193a1.084,1.084,0,0,0-2.1.384l2.353,18.872a6.783,6.783,0,0,0,.185.933l3.347,18.345a2.191,2.191,0,1,0,4.189-.765l-3.348-18.346A6.9,6.9,0,0,0,75.575,316.68Z" transform="translate(-58.794 -297.479)" fill="url(#linear-gradient)"/>
        <path id="Trazado_95418" data-name="Trazado 95418" d="M80.2,345.471l-1.653-9.055a2.307,2.307,0,0,1-1.658,2.422,2.473,2.473,0,0,1-2.581-2.285l-2-10.945.168,1.35a6.783,6.783,0,0,0,.185.933l3.347,18.345a2.191,2.191,0,1,0,4.189-.764Z" transform="translate(-59.913 -306.988)" fill="#cfdade"/>
        <path id="Trazado_95419" data-name="Trazado 95419" d="M90.154,324.343,86.42,309.866c-.1-.388-.626-.6-1.18-.5s-.968.49-.924.888l1.62,14.862a4.264,4.264,0,0,0,.148.731l2.629,14.406a2.129,2.129,0,1,0,4.189-.764l-2.629-14.407A4.284,4.284,0,0,0,90.154,324.343Z" transform="translate(-63.971 -301.488)" fill="url(#linear-gradient)"/>
        <path id="Trazado_95420" data-name="Trazado 95420" d="M93.648,346.774l-2.337-12.805a2.124,2.124,0,0,1-4.2.163l-.59-3.232.163,1.5a4.266,4.266,0,0,0,.148.731l2.629,14.406a2.129,2.129,0,1,0,4.189-.764Z" transform="translate(-64.716 -308.777)" fill="#cfdade"/>
        <path id="Trazado_95421" data-name="Trazado 95421" d="M97.483,375.523a6.41,6.41,0,0,1-5.8,0l-36.9-21.3c-1.6-.925-1.6-2.424,0-3.348l36.9-21.3a6.407,6.407,0,0,1,5.8,0l36.9,21.3c1.6.925,1.6,2.423,0,3.349Z" transform="translate(-53.582 -308.091)" fill="url(#linear-gradient)"/>
        <path id="Trazado_95422" data-name="Trazado 95422" d="M99.271,372.131a5.781,5.781,0,0,1-5.225,0L60.8,352.937c-1.442-.833-1.443-2.184,0-3.017l33.246-19.195a5.779,5.779,0,0,1,5.225,0l33.245,19.194c1.443.833,1.443,2.184,0,3.016Z" transform="translate(-55.656 -308.507)" fill="#e1eef2"/>
        <path id="Trazado_95423" data-name="Trazado 95423" d="M60.8,355.142l5.317,3.07q10.757-10.8,21.532-21.589l-26.85,15.5C59.357,352.958,59.358,354.309,60.8,355.142Z" transform="translate(-55.656 -310.712)" fill="#e6f3f7"/>
        <path id="Trazado_95424" data-name="Trazado 95424" d="M114.239,336.319l-5.131-2.964q-14.077,14.078-28.128,28.183l5.1,2.942Z" transform="translate(-62.844 -309.607)" fill="#e6f3f7"/>
        <path id="Trazado_95425" data-name="Trazado 95425" d="M133.576,347.493l-5.133-2.964L100.28,372.691l5.133,2.964Z" transform="translate(-69.368 -313.384)" fill="#e6f3f7"/>
        <path id="Trazado_95426" data-name="Trazado 95426" d="M156.569,358.575,151.6,355.7l-20.725,20.725,25.7-14.838C158.012,360.759,158.012,359.408,156.569,358.575Z" transform="translate(-79.71 -317.162)" fill="#e6f3f7"/>
      </g>
      <g id="Grupo_41945" data-name="Grupo 41945" transform="translate(139.185 123.536)">
        <path id="Trazado_95427" data-name="Trazado 95427" d="M211.38,201.494,198.058,193.8c.03,17.111,5.474,30.141,14.072,36.585l7.614,4.4Z" transform="translate(-198.057 -164.167)" fill="#6e40fc"/>
        <path id="Trazado_95428" data-name="Trazado 95428" d="M254.322,152.063l-5.251-3.031c-.516.321-1.033.64-1.554.941-8.7,5.024-16.837,6.6-23.784,5.2-6.946,9.425-15.083,17.239-23.784,22.262-.634.367-1.265.709-1.892,1.039v.055c0,.046,0,.092,0,.138l13.322,7.691Z" transform="translate(-198.056 -149.032)" fill="#6e40fc"/>
        <path id="Trazado_95429" data-name="Trazado 95429" d="M250.076,165.926l17.358-13.863-5.251-3.031c-.516.321-1.033.64-1.554.941-8.7,5.024-16.837,6.6-23.784,5.2l4.912,3.193Z" transform="translate(-211.169 -149.032)" fill="#6e40fc"/>
        <path id="Trazado_95430" data-name="Trazado 95430" d="M254.936,154.689c-8.7,5.024-16.837,6.6-23.784,5.2-6.947,9.425-15.085,17.238-23.785,22.261-.634.366-1.265.709-1.893,1.039,0,.019,0,.036,0,.055,0,24.04,10.391,38.939,25.678,40.763,15.286-19.475,25.677-46.373,25.677-70.413v-.054C256.2,153.938,255.571,154.323,254.936,154.689Z" transform="translate(-200.564 -150.557)" fill="#ccbcfe"/>
        <g id="Grupo_41944" data-name="Grupo 41944" transform="translate(14.436 16.586)">
          <path id="Trazado_95431" data-name="Trazado 95431" d="M228.18,206.83l-8.314-4.8c.019,10.679,3.416,18.811,8.782,22.833l4.751,2.743Z" transform="translate(-219.865 -183.534)" fill="#f9305f"/>
          <path id="Trazado_95432" data-name="Trazado 95432" d="M254.98,175.98l-3.277-1.892c-.322.2-.645.4-.969.588-5.43,3.134-10.509,4.122-14.844,3.246a50.48,50.48,0,0,1-14.844,13.894c-.4.228-.79.442-1.181.649v.034c0,.028,0,.057,0,.086l8.314,4.8Z" transform="translate(-219.865 -174.088)" fill="#f9305f"/>
          <path id="Trazado_95433" data-name="Trazado 95433" d="M253.388,183.786l9.776-7.806-3.277-1.892c-.322.2-.645.4-.969.588-5.43,3.134-10.509,4.122-14.844,3.246l3.064,1.993Z" transform="translate(-228.049 -174.088)" fill="#f9305f"/>
          <path id="Trazado_95434" data-name="Trazado 95434" d="M255.363,177.62c-5.43,3.135-10.508,4.122-14.844,3.247a50.481,50.481,0,0,1-14.844,13.893c-.4.229-.79.443-1.181.648v.034c0,15,6.486,24.3,16.025,25.441,9.541-12.155,16.026-28.942,16.026-43.945V176.9C256.153,177.15,255.76,177.391,255.363,177.62Z" transform="translate(-221.43 -175.04)" fill="#fdb6c7"/>
          <path id="Trazado_95435" data-name="Trazado 95435" d="M248.7,220.883c9.541-12.155,16.026-28.942,16.026-43.945V176.9c-.392.246-.785.487-1.182.716-5.43,3.135-10.508,4.122-14.844,3.247C248.7,180.866,253.518,195.8,248.7,220.883Z" transform="translate(-229.614 -175.04)" fill="#fee0e7"/>
        </g>
      </g>
      <g id="Grupo_41951" data-name="Grupo 41951" transform="translate(196.603 169.491)">
        <path id="Trazado_95436" data-name="Trazado 95436" d="M362.422,218.952l-76.149,43.123c-1.665.96-1.665,2.517,0,3.478l4.173,3.159c-1.663-.96-1.663-2.519,0-3.479l74.065-42.763c1.664-.96,2.427-.324,3.511-1.026,0,0,.623-.192.12-1.246C367.3,218.438,364.086,217.992,362.422,218.952Z" transform="translate(-284.873 -218.457)" fill="#00223d"/>
        <path id="Trazado_95437" data-name="Trazado 95437" d="M288.767,340.714V289.871c0-1.921,1.348-2.7,3.014-1.74l-3.971-3.04c-1.664-.961-3.013-.183-3.013,1.739v50.842a6.291,6.291,0,0,0,3.013,5.219c2.926,1.395,1.9.352,1.9.352C290.2,343.243,289.749,342.317,288.767,340.714Z" transform="translate(-284.796 -240.843)" fill="#00223d"/>
        <path id="Trazado_95438" data-name="Trazado 95438" d="M370.3,273.1a6.66,6.66,0,0,1-3.014,5.219l-74.065,42.761c-1.665.961-3.014.183-3.014-1.74V268.5a6.659,6.659,0,0,1,3.014-5.219l74.065-42.762c1.664-.96,3.014-.181,3.014,1.74Z" transform="translate(-286.624 -219.016)" fill="url(#linear-gradient)"/>
        <path id="Trazado_95439" data-name="Trazado 95439" d="M368.8,274.409a6,6,0,0,1-2.784,4.661l-68.407,39.5c-1.536.887-2.784.24-2.782-1.448l0-44.629a6.012,6.012,0,0,1,2.784-4.661l68.408-39.495c1.536-.888,2.783-.24,2.783,1.447Z" transform="translate(-288.186 -221.661)" fill="#1e2729"/>
        <path id="Trazado_95440" data-name="Trazado 95440" d="M298.482,287.718l-.553.319a5.935,5.935,0,0,0-2.156,2.39Z" transform="translate(-288.507 -241.871)" fill="#2b383b"/>
        <path id="Trazado_95441" data-name="Trazado 95441" d="M294.827,288.315v8.93l51.764-51.764-21.128,12.2Z" transform="translate(-288.187 -227.592)" fill="#2b383b"/>
        <path id="Trazado_95442" data-name="Trazado 95442" d="M368.8,230.783v-.465a2.593,2.593,0,0,0-.113-.79q-36.93,36.932-73.86,73.862v1.368Z" transform="translate(-288.187 -222.199)" fill="#2b383b"/>
        <path id="Trazado_95443" data-name="Trazado 95443" d="M295.374,322.282a4.629,4.629,0,0,1-.547.463v1.444a1.777,1.777,0,0,0,.8,1.679q36.589-36.586,73.176-73.174v-3.838Z" transform="translate(-288.187 -228.733)" fill="#2b383b"/>
        <path id="Trazado_95444" data-name="Trazado 95444" d="M382.046,276.34v-4.254l-48.038,48.036,10.066-5.812Q363.06,295.327,382.046,276.34Z" transform="translate(-301.432 -236.586)" fill="#2b383b"/>
        <g id="Grupo_41950" data-name="Grupo 41950" transform="translate(6.983 57.553)">
          <path id="Trazado_95445" data-name="Trazado 95445" d="M408.061,328.469v-3.2a2.114,2.114,0,0,0-1.248-1.752l-30.125-17.393a6.659,6.659,0,0,0-6.027,0l-74.066,42.763a2.105,2.105,0,0,0-1.246,1.751v3.557a2.109,2.109,0,0,0,1.246,1.752l30.126,17.393a6.663,6.663,0,0,0,6.027,0l74.065-42.762a2.112,2.112,0,0,0,1.248-1.753v-.354Z" transform="translate(-295.346 -305.402)" fill="#00223d"/>
          <path id="Trazado_95446" data-name="Trazado 95446" d="M406.811,323.516c1.665.961,1.665,2.519,0,3.48l-74.065,42.761a6.659,6.659,0,0,1-6.027,0l-30.126-17.392c-1.664-.961-1.664-2.519,0-3.479l74.066-42.763a6.659,6.659,0,0,1,6.027,0Z" transform="translate(-295.345 -305.402)" fill="url(#linear-gradient)"/>
          <path id="Trazado_95447" data-name="Trazado 95447" d="M313.582,372.341a.367.367,0,0,1,0,.7l-4.391,2.534a1.326,1.326,0,0,1-1.205,0l-4.389-2.534a.367.367,0,0,1,0-.7l4.389-2.534a1.326,1.326,0,0,1,1.205,0Z" transform="translate(-298.05 -327.125)" fill="#00223d"/>
          <g id="Grupo_41946" data-name="Grupo 41946" transform="translate(16.973 3.772)">
            <path id="Trazado_95448" data-name="Trazado 95448" d="M325.627,359.62l-4.391,2.535a.367.367,0,0,0,0,.7l4.391,2.535a1.328,1.328,0,0,0,1.2,0l4.39-2.535a.368.368,0,0,0,0-.7l-4.39-2.534A1.329,1.329,0,0,0,325.627,359.62Z" transform="translate(-320.986 -327.454)" fill="#00223d"/>
            <path id="Trazado_95449" data-name="Trazado 95449" d="M336.1,353.573l-4.391,2.535a.367.367,0,0,0,0,.7l4.389,2.535a1.334,1.334,0,0,0,1.206,0l4.39-2.535a.367.367,0,0,0,0-.7l-4.39-2.535A1.327,1.327,0,0,0,336.1,353.573Z" transform="translate(-324.527 -325.409)" fill="#00223d"/>
            <path id="Trazado_95450" data-name="Trazado 95450" d="M346.574,347.526l-4.391,2.535a.367.367,0,0,0,0,.7l4.391,2.536a1.329,1.329,0,0,0,1.205,0l4.39-2.536a.367.367,0,0,0,0-.7l-4.39-2.535A1.333,1.333,0,0,0,346.574,347.526Z" transform="translate(-328.068 -323.366)" fill="#00223d"/>
            <path id="Trazado_95451" data-name="Trazado 95451" d="M357.049,341.48l-4.391,2.534a.369.369,0,0,0,0,.7l4.39,2.534a1.334,1.334,0,0,0,1.2,0l4.39-2.533a.368.368,0,0,0,0-.7l-4.391-2.534A1.328,1.328,0,0,0,357.049,341.48Z" transform="translate(-331.609 -321.322)" fill="#00223d"/>
            <path id="Trazado_95452" data-name="Trazado 95452" d="M367.522,335.432l-4.391,2.535a.367.367,0,0,0,0,.7l4.391,2.535a1.336,1.336,0,0,0,1.2,0l4.39-2.535a.367.367,0,0,0,0-.7l-4.391-2.536A1.33,1.33,0,0,0,367.522,335.432Z" transform="translate(-335.149 -319.277)" fill="#00223d"/>
            <path id="Trazado_95453" data-name="Trazado 95453" d="M378,329.385,373.6,331.92a.368.368,0,0,0,0,.7L378,335.15a1.325,1.325,0,0,0,1.205,0l4.389-2.535a.367.367,0,0,0,0-.7l-4.389-2.535A1.333,1.333,0,0,0,378,329.385Z" transform="translate(-338.69 -317.233)" fill="#00223d"/>
            <path id="Trazado_95454" data-name="Trazado 95454" d="M388.47,323.337l-4.39,2.535a.368.368,0,0,0,0,.7l4.39,2.534a1.333,1.333,0,0,0,1.205,0l4.391-2.534a.368.368,0,0,0,0-.7l-4.391-2.535A1.334,1.334,0,0,0,388.47,323.337Z" transform="translate(-342.23 -315.189)" fill="#00223d"/>
            <path id="Trazado_95455" data-name="Trazado 95455" d="M398.943,317.29l-4.39,2.535a.368.368,0,0,0,0,.7l4.39,2.536a1.334,1.334,0,0,0,1.205,0l4.391-2.536a.367.367,0,0,0,0-.7l-4.391-2.535A1.332,1.332,0,0,0,398.943,317.29Z" transform="translate(-345.771 -313.144)" fill="#00223d"/>
            <path id="Trazado_95456" data-name="Trazado 95456" d="M409.417,311.244l-4.39,2.535a.367.367,0,0,0,0,.7l4.39,2.535a1.338,1.338,0,0,0,1.205,0l4.391-2.535a.367.367,0,0,0,0-.7l-4.391-2.535A1.334,1.334,0,0,0,409.417,311.244Z" transform="translate(-349.312 -311.101)" fill="#00223d"/>
          </g>
          <g id="Grupo_41947" data-name="Grupo 41947" transform="translate(12.111 7.879)">
            <path id="Trazado_95457" data-name="Trazado 95457" d="M330.259,365.826l-16.368,9.45a.368.368,0,0,0,0,.7l4.389,2.535a1.335,1.335,0,0,0,1.206,0l16.367-9.451a.366.366,0,0,0,0-.7l-4.389-2.535A1.334,1.334,0,0,0,330.259,365.826Z" transform="translate(-313.642 -333.659)" fill="#00223d"/>
            <path id="Trazado_95458" data-name="Trazado 95458" d="M346.85,359.779l-4.391,2.535a.367.367,0,0,0,0,.7l4.391,2.533a1.325,1.325,0,0,0,1.206,0l4.389-2.533a.367.367,0,0,0,0-.7l-4.389-2.535A1.335,1.335,0,0,0,346.85,359.779Z" transform="translate(-323.299 -331.615)" fill="#00223d"/>
            <path id="Trazado_95459" data-name="Trazado 95459" d="M357.324,353.732l-4.391,2.535a.367.367,0,0,0,0,.7l4.391,2.537a1.333,1.333,0,0,0,1.205,0l4.389-2.537a.366.366,0,0,0,0-.7l-4.389-2.535A1.338,1.338,0,0,0,357.324,353.732Z" transform="translate(-326.84 -329.571)" fill="#00223d"/>
            <path id="Trazado_95460" data-name="Trazado 95460" d="M367.8,347.686l-4.391,2.535a.367.367,0,0,0,0,.7l4.391,2.535a1.332,1.332,0,0,0,1.2,0l4.391-2.535a.367.367,0,0,0,0-.7L369,347.686A1.326,1.326,0,0,0,367.8,347.686Z" transform="translate(-330.38 -327.526)" fill="#00223d"/>
            <path id="Trazado_95461" data-name="Trazado 95461" d="M378.272,341.639l-4.391,2.534a.367.367,0,0,0,0,.7l4.391,2.535a1.332,1.332,0,0,0,1.2,0l4.391-2.535a.368.368,0,0,0,0-.7l-4.391-2.534A1.328,1.328,0,0,0,378.272,341.639Z" transform="translate(-333.921 -325.483)" fill="#00223d"/>
            <path id="Trazado_95462" data-name="Trazado 95462" d="M388.745,335.591l-4.391,2.534a.368.368,0,0,0,0,.7l4.391,2.535a1.335,1.335,0,0,0,1.206,0l4.389-2.534a.368.368,0,0,0,0-.7l-4.389-2.535A1.333,1.333,0,0,0,388.745,335.591Z" transform="translate(-337.462 -323.438)" fill="#00223d"/>
            <path id="Trazado_95463" data-name="Trazado 95463" d="M399.219,329.544l-4.391,2.535a.367.367,0,0,0,0,.7l4.391,2.535a1.332,1.332,0,0,0,1.2,0l4.391-2.535a.368.368,0,0,0,0-.7l-4.391-2.535A1.328,1.328,0,0,0,399.219,329.544Z" transform="translate(-341.003 -321.394)" fill="#00223d"/>
            <path id="Trazado_95464" data-name="Trazado 95464" d="M409.694,323.5l-4.391,2.534a.368.368,0,0,0,0,.7l4.391,2.535a1.332,1.332,0,0,0,1.2,0l4.391-2.535a.367.367,0,0,0,0-.7L410.9,323.5A1.332,1.332,0,0,0,409.694,323.5Z" transform="translate(-344.544 -319.35)" fill="#00223d"/>
            <path id="Trazado_95465" data-name="Trazado 95465" d="M420.167,317.449l-4.389,2.535a.367.367,0,0,0,0,.7l4.389,2.534a1.324,1.324,0,0,0,1.2,0l4.39-2.534a.367.367,0,0,0,0-.7l-4.39-2.535A1.33,1.33,0,0,0,420.167,317.449Z" transform="translate(-348.084 -317.305)" fill="#00223d"/>
          </g>
          <g id="Grupo_41948" data-name="Grupo 41948" transform="translate(26.918 16.428)">
            <path id="Trazado_95466" data-name="Trazado 95466" d="M352.628,378.741l-16.369,9.45a.367.367,0,0,0,0,.7l4.391,2.536a1.331,1.331,0,0,0,1.2,0l16.369-9.451a.367.367,0,0,0,0-.7l-4.391-2.535A1.327,1.327,0,0,0,352.628,378.741Z" transform="translate(-336.01 -346.574)" fill="#00223d"/>
            <path id="Trazado_95467" data-name="Trazado 95467" d="M369.219,372.695l-4.39,2.535a.367.367,0,0,0,0,.7l4.39,2.535a1.334,1.334,0,0,0,1.205,0l4.39-2.535a.367.367,0,0,0,0-.7l-4.391-2.535A1.333,1.333,0,0,0,369.219,372.695Z" transform="translate(-345.668 -344.53)" fill="#00223d"/>
            <path id="Trazado_95468" data-name="Trazado 95468" d="M400.492,348.506,375.3,363.049a.367.367,0,0,0,0,.7l4.391,2.535a1.332,1.332,0,0,0,1.2,0l25.19-14.543a.368.368,0,0,0,0-.7l-4.391-2.534A1.329,1.329,0,0,0,400.492,348.506Z" transform="translate(-349.209 -336.353)" fill="#00223d"/>
            <path id="Trazado_95469" data-name="Trazado 95469" d="M421.588,342.458l-4.391,2.535a.367.367,0,0,0,0,.7l4.391,2.534a1.325,1.325,0,0,0,1.2,0l4.391-2.534a.368.368,0,0,0,0-.7l-4.391-2.535A1.329,1.329,0,0,0,421.588,342.458Z" transform="translate(-363.371 -334.308)" fill="#00223d"/>
            <path id="Trazado_95470" data-name="Trazado 95470" d="M438.993,330.364,427.671,336.9a.368.368,0,0,0,0,.7l4.39,2.534a1.328,1.328,0,0,0,1.2,0l11.323-6.537a.367.367,0,0,0,0-.7l-4.39-2.536A1.333,1.333,0,0,0,438.993,330.364Z" transform="translate(-366.912 -330.22)" fill="#00223d"/>
          </g>
          <g id="Grupo_41949" data-name="Grupo 41949" transform="translate(19.422 12.101)">
            <path id="Trazado_95471" data-name="Trazado 95471" d="M334.328,378.288l-9.393,5.424a.367.367,0,0,0,0,.7l4.391,2.535a1.329,1.329,0,0,0,1.205,0l9.391-5.423a.367.367,0,0,0,0-.7l-4.389-2.535A1.336,1.336,0,0,0,334.328,378.288Z" transform="translate(-324.686 -342.094)" fill="#00223d"/>
            <path id="Trazado_95472" data-name="Trazado 95472" d="M357.9,366.157l-4.389,2.535a.366.366,0,0,0,0,.7l4.389,2.535a1.333,1.333,0,0,0,1.205,0l4.39-2.535a.366.366,0,0,0,0-.7l-4.39-2.535A1.329,1.329,0,0,0,357.9,366.157Z" transform="translate(-334.344 -337.993)" fill="#00223d"/>
            <path id="Trazado_95473" data-name="Trazado 95473" d="M347.422,372.2l-4.389,2.535a.367.367,0,0,0,0,.7l4.389,2.535a1.332,1.332,0,0,0,1.2,0l4.391-2.535a.367.367,0,0,0,0-.7l-4.391-2.535A1.328,1.328,0,0,0,347.422,372.2Z" transform="translate(-330.803 -340.037)" fill="#00223d"/>
            <path id="Trazado_95474" data-name="Trazado 95474" d="M368.369,360.11l-4.39,2.534a.368.368,0,0,0,0,.7l4.39,2.535a1.335,1.335,0,0,0,1.206,0l4.389-2.535a.368.368,0,0,0,0-.7l-4.39-2.534A1.335,1.335,0,0,0,368.369,360.11Z" transform="translate(-337.885 -335.949)" fill="#00223d"/>
            <path id="Trazado_95475" data-name="Trazado 95475" d="M378.843,354.063l-4.389,2.535a.367.367,0,0,0,0,.7l4.391,2.535a1.328,1.328,0,0,0,1.2,0l4.389-2.535a.367.367,0,0,0,0-.7l-4.389-2.535A1.335,1.335,0,0,0,378.843,354.063Z" transform="translate(-341.425 -333.904)" fill="#00223d"/>
            <path id="Trazado_95476" data-name="Trazado 95476" d="M389.317,348.015l-4.39,2.535a.368.368,0,0,0,0,.7l4.39,2.535a1.332,1.332,0,0,0,1.2,0l4.391-2.535a.367.367,0,0,0,0-.7l-4.389-2.535A1.337,1.337,0,0,0,389.317,348.015Z" transform="translate(-344.966 -331.86)" fill="#00223d"/>
            <path id="Trazado_95477" data-name="Trazado 95477" d="M399.791,341.968,395.4,344.5a.367.367,0,0,0,0,.7l4.391,2.534a1.328,1.328,0,0,0,1.2,0l4.39-2.534a.368.368,0,0,0,0-.7L401,341.968A1.332,1.332,0,0,0,399.791,341.968Z" transform="translate(-348.506 -329.816)" fill="#00223d"/>
            <path id="Trazado_95478" data-name="Trazado 95478" d="M410.265,335.921l-4.391,2.535a.367.367,0,0,0,0,.7l4.391,2.535a1.334,1.334,0,0,0,1.205,0l4.389-2.535a.367.367,0,0,0,0-.7l-4.389-2.535A1.33,1.33,0,0,0,410.265,335.921Z" transform="translate(-352.047 -327.771)" fill="#00223d"/>
            <path id="Trazado_95479" data-name="Trazado 95479" d="M420.739,329.874l-4.39,2.535a.367.367,0,0,0,0,.7l4.39,2.535a1.333,1.333,0,0,0,1.205,0l4.389-2.535a.367.367,0,0,0,0-.7l-4.389-2.535A1.334,1.334,0,0,0,420.739,329.874Z" transform="translate(-355.588 -325.727)" fill="#00223d"/>
            <path id="Trazado_95480" data-name="Trazado 95480" d="M431.212,323.827l-4.391,2.534a.367.367,0,0,0,0,.7l4.391,2.535a1.328,1.328,0,0,0,1.2,0l4.391-2.535a.367.367,0,0,0,0-.7l-4.391-2.534A1.33,1.33,0,0,0,431.212,323.827Z" transform="translate(-359.129 -323.683)" fill="#00223d"/>
          </g>
        </g>
      </g>
    </g>
  </g>
</svg>
